<svg width="64" height="64" viewBox="0 0 64 64" fill="none" xmlns="http://www.w3.org/2000/svg">
<circle cx="32" cy="32" r="32" fill="#F0F5FF"/>
<path d="M32 26.5C32.663 26.5 33.2989 26.7634 33.7678 27.2322C34.2366 27.7011 34.5 28.337 34.5 29C34.5 29.3283 34.4353 29.6534 34.3097 29.9567C34.1841 30.26 33.9999 30.5356 33.7678 30.7678C33.5356 30.9999 33.26 31.1841 32.9567 31.3097C32.6534 31.4353 32.3283 31.5 32 31.5C31.337 31.5 30.7011 31.2366 30.2322 30.7678C29.7634 30.2989 29.5 29.663 29.5 29C29.5 28.337 29.7634 27.7011 30.2322 27.2322C30.7011 26.7634 31.337 26.5 32 26.5ZM32 22C33.8565 22 35.637 22.7375 36.9497 24.0503C38.2625 25.363 39 27.1435 39 29C39 34.25 32 42 32 42C32 42 25 34.25 25 29C25 27.1435 25.7375 25.363 27.0503 24.0503C28.363 22.7375 30.1435 22 32 22ZM32 24C30.6739 24 29.4021 24.5268 28.4645 25.4645C27.5268 26.4021 27 27.6739 27 29C27 30 27 32 32 38.71C37 32 37 30 37 29C37 27.6739 36.4732 26.4021 35.5355 25.4645C34.5979 24.5268 33.3261 24 32 24Z" fill="black"/>
</svg>
