<svg width="748" height="643" viewBox="0 0 748 643" fill="none" xmlns="http://www.w3.org/2000/svg">
<path d="M192.553 601.235C29.5484 515.412 166.338 445.549 248.545 289.414C330.752 133.278 208.013 -138.776 371.017 -52.9535C534.021 32.8695 714.783 206.637 632.576 362.773C550.369 518.909 355.557 687.058 192.553 601.235Z" fill="#EDFAFF"/>
<path d="M583.319 248.352C583.113 248.352 579.753 250.755 578.357 249.902C576.962 249.049 576.832 253.805 583.939 249.308C584.308 249.069 584.279 248.521 583.889 248.322C583.707 248.229 583.49 248.241 583.319 248.352ZM581.407 238.97C582.337 237.342 580.89 236.024 579.985 237.626C579.081 239.228 580.502 240.572 581.407 238.97ZM446.264 210.049C433.215 216.784 426.678 231.746 430.601 245.896C430.678 246.207 430.987 246.401 431.299 246.336C431.61 246.336 432.85 246.646 432.798 246.336C429.001 232.722 435.254 218.31 447.789 211.781C448.099 211.781 447.168 210.592 447.013 210.308C446.884 210.023 446.549 209.896 446.264 210.023M247.206 253.546C248.225 253.786 249.295 253.472 250.023 252.719C250.344 252.394 250.193 251.842 249.75 251.727C249.598 251.687 249.435 251.709 249.299 251.789C245.319 254.89 247.645 246 245.423 247.447C244.957 247.757 245.293 247.938 245.423 249.592C245.552 251.246 245.862 253.029 247.128 253.546M251.961 255.485C252.151 255.069 251.82 254.603 251.364 254.646C251.229 254.659 251.102 254.718 251.005 254.813C248.963 257.707 245.836 255.64 245.681 256.958C245.526 258.276 251.057 257.294 251.961 255.485ZM251.264 247.68C252.065 247.447 251.444 245.328 250.643 245.56C249.842 245.793 250.462 247.912 251.264 247.68ZM241.597 248.688C240.796 248.92 241.417 251.039 242.218 250.807C243.019 250.574 242.399 248.455 241.597 248.688ZM357.202 228.399C358.505 198.704 327.174 178.733 300.806 192.452C274.437 206.171 272.808 243.29 297.872 259.266C303.581 262.905 310.147 264.979 316.91 265.28C338.191 266.142 356.183 249.674 357.202 228.399ZM316.961 264.195C309.854 263.884 301.454 260.602 301.454 259.827C301.454 259.646 304.763 243.622 312.413 240.908C312.413 241.037 317.944 247.473 318.124 247.473L322.802 241.141C322.802 241.141 329.496 244.061 329.574 244.01C329.651 243.958 330.685 235.92 330.607 235.817C342.289 231.087 353.325 239.874 353.584 239.978C347.865 255.094 333.11 264.851 316.961 264.195ZM309.441 224.135C310.636 223.725 311.711 223.023 312.568 222.093C313.276 220.874 313.749 219.533 313.963 218.139C314.532 215.839 315.281 212.686 316.548 212.737C316.548 215.322 320.269 219.043 323.087 218.371C323.693 220.976 325.677 223.039 328.256 223.747C328.982 224.91 329.258 226.298 329.031 227.65C328.805 229.885 327.744 231.953 326.059 233.439C325.8 233.594 325.774 234.266 325.774 234.318C325.849 235.097 325.996 235.867 326.214 236.618C324.069 239.745 319.468 239.771 317.478 239.435H317.039V239.203C316.761 238.512 316.561 237.792 316.444 237.057C316.444 236.36 312.568 237.548 309.363 234.731C307.414 233.535 305.929 231.712 305.15 229.562C305.15 229.407 304.091 226.022 309.466 224.393M317.401 240.831C318.862 240.963 320.333 240.963 321.794 240.831L318.228 246C316.877 244.161 315.381 242.433 313.756 240.831C314.97 240.74 316.188 240.74 317.401 240.831ZM329.651 236.515L328.927 242.821L323.758 240.365C324.999 239.9 328.927 236.851 329.78 236.515M281.192 225.014C282.845 196.233 315.035 180.034 339.133 195.856C353.262 205.133 359.426 222.723 354.178 238.789C353.126 238.006 352.021 237.297 350.87 236.67C350.997 236.631 351.107 236.549 351.18 236.437C355.083 229.433 357.641 214.159 348.854 208.602C347.198 207.623 345.375 206.957 343.478 206.638C342.038 206.393 340.644 205.932 339.343 205.268C338.189 204.698 337.374 203.614 337.146 202.348C336.869 201.27 336.348 200.27 335.621 199.427C332.055 195.525 327.196 197.463 324.017 196.688C322.477 196.313 321.055 195.557 319.882 194.491C313.783 189.477 300.343 193.043 297.733 207.413C297.733 208.111 296.673 208.68 295.51 209.377C291.863 211.117 289.337 214.575 288.79 218.578C288.253 222.83 289.615 227.103 292.512 230.26C292.822 230.674 293.132 231.061 293.365 231.423C293.598 231.785 293.132 233.155 292.641 234.473C290.754 239.409 287.291 248.533 300.912 257.888L300.55 259.387C288.15 252.493 280.707 239.188 281.321 225.014" fill="#381F01"/>
<path d="M315.411 225.273C315.592 226.539 316.341 229.589 318.719 228.374C319.021 228.277 319.176 227.944 319.055 227.65C318.96 227.333 318.605 227.175 318.305 227.315C317.986 227.464 317.617 227.464 317.297 227.315C316.858 227.056 316.703 225.997 316.548 225.04C316.491 224.202 316.29 223.38 315.953 222.611C315.744 222.223 315.194 222.207 314.962 222.581C314.855 222.755 314.848 222.973 314.945 223.154C315.202 223.807 315.359 224.495 315.411 225.195M316.47 231.579C316.145 231.387 315.933 231.05 315.902 230.674C315.837 230.366 315.542 230.161 315.23 230.209C314.067 230.364 314.894 233.414 319.081 232.587C319.365 232.458 319.492 232.123 319.365 231.838C319.246 231.543 318.908 231.403 318.615 231.527C317.934 231.838 317.152 231.838 316.47 231.527M312.619 226.022C313.059 226.022 313.214 225.144 313.007 224.342C312.8 223.541 312.257 222.947 311.844 223.05C311.431 223.154 311.25 223.929 311.482 224.73C311.715 225.531 312.206 226.126 312.619 226.022ZM321.071 223.774C322.079 223.515 321.277 220.543 320.269 220.827C319.262 221.112 320.063 224.058 321.071 223.774ZM359.58 392.645C356.53 392.154 355.393 406.73 352.653 412.545C349.418 410.992 346.269 409.267 343.22 407.376C341.566 406.472 339.886 408.048 341.669 409.961C341.669 409.961 350.844 419.11 354.979 419.291C359.89 418.283 360.846 395.513 360.846 395.255C360.846 394.583 360.846 392.826 359.58 392.67M345.598 347.778C344.228 347.545 343.737 349.225 343.478 350.13C342.16 354.653 339.808 365.301 338.671 367.575C334.432 366.283 328.721 360.675 327.196 362.561C326.834 363.026 326.627 363.828 327.687 365.146C327.687 365.146 336.862 374.295 340.971 374.476C345.882 373.468 346.838 350.698 346.864 350.44C346.864 349.794 346.864 348.036 345.572 347.855M332.959 314.231C331.564 314.024 331.073 315.704 330.84 316.609C329.522 321.132 327.17 331.754 326.033 334.132C321.433 332.736 316.212 327.102 314.584 329.144C314.222 329.609 313.989 330.41 315.049 331.728C315.049 331.728 324.25 340.852 328.359 341.058C333.269 340.024 334.226 317.255 334.226 317.022C334.226 316.351 334.226 314.593 332.959 314.438M323.164 281.382C320.114 280.891 319.003 295.494 316.238 301.283C313.006 299.741 309.865 298.015 306.83 296.114C305.176 295.209 303.496 296.786 305.279 298.698C305.279 298.698 314.454 307.822 318.564 308.002C323.474 306.995 324.43 284.225 324.43 283.967C324.43 283.321 324.43 281.563 323.164 281.382ZM336.655 290.454C337.095 291.824 422.667 266.211 422.15 264.014C419.54 260.732 334.252 290.04 336.655 290.454ZM351.593 323.845C352.007 325.241 437.425 298.517 437.089 297.406C436.132 294.692 350.611 321.054 351.593 323.845ZM361.673 359.822C362.087 362.845 447.452 335.863 447.194 333.382C444.351 330.669 360.872 357.237 361.673 359.822ZM374.441 404.12C375.397 407.79 460.969 380.859 459.935 377.68C459.341 375.82 373.82 402.466 374.441 404.12ZM410.391 177.744C410.236 177.279 399.355 180.329 386.096 184.438C354.23 194.44 354.462 196.249 386.639 186.118C399.898 181.957 410.546 178.209 410.391 177.744ZM391.188 197.645C377.904 201.832 367.281 205.579 367.436 206.044C367.592 206.509 378.472 203.46 391.731 199.35C423.598 189.323 423.365 187.539 391.188 197.645ZM456.472 182.138C463.918 181.102 471.284 179.557 478.518 177.512C507.516 170.352 507.413 168.724 478.105 175.961C466.035 178.933 456.343 181.698 456.472 182.138ZM520.516 346.279C515.246 347.546 510.066 349.161 505.009 351.112C505.5 352.688 512.762 350.259 521.447 347.855C530.131 345.452 536.953 343.436 536.178 342.428C530.848 343.383 525.583 344.67 520.413 346.279M301.739 332.865C301.273 331.03 289.436 334.649 276.152 338.655C262.868 342.661 253.176 345.969 253.693 347.39C253.874 347.83 264.729 344.961 278.013 340.955C291.297 336.949 301.894 333.201 301.739 332.865Z" fill="#381F01"/>
<path d="M634.957 344.159C635.164 344.159 635.836 315.73 632.063 302.807C633.148 303.221 633.614 302.807 632.321 301.05C627.85 294.614 634.26 294.64 626.61 287.636C626.229 288.381 625.623 288.987 624.878 289.368C622.293 290.583 622.759 287.636 626.429 297.871C627.475 299.586 628.955 300.994 630.719 301.954L630.926 302.575C634.776 315.265 634.079 342.815 634.079 343.229C618.236 345.813 573.317 344.082 569.13 342.169C569.154 339.775 569.388 337.389 569.828 335.036C578.486 341.394 587.92 341.239 591.124 339.972C597.379 337.517 592.339 329.841 595.983 317.436C600.144 303.273 606.631 302.471 607.2 290.402C608.182 270.915 599.317 267.632 592.365 267.865C595.113 266.89 597.967 266.247 600.868 265.952C607.084 267.612 612.641 271.139 616.789 276.058C619.332 279.727 621.302 283.762 622.629 288.024C623.323 287.04 624.323 286.313 625.472 285.956C625.188 284.664 626.506 282.131 625.472 278.539C624.682 276.45 623.478 274.542 621.932 272.931C622.099 270.242 621.739 267.547 620.872 264.996C619.554 261.43 616.582 260.267 616.943 259.362C620.975 249.334 620.433 230.08 609.552 224.316C598.671 218.553 594.045 221.241 593.14 220.543C583.423 214.805 573.033 227.469 572.93 230.054C572.93 230.7 574.558 232.121 576.806 233.595C575.831 236.493 574.382 239.209 572.516 241.632C571.293 242.682 571.665 244.662 573.185 245.196C573.337 245.249 573.494 245.285 573.653 245.302C574.584 247.525 572.439 254.296 574.816 258.483C578.357 264.738 589.806 259.75 587.997 268.408L585.413 269.08C578.951 270.889 552.848 290.066 553.236 296.268C553.236 297.767 553.443 299.241 553.598 300.636C553.598 300.636 553.339 300.921 553.184 300.998C546.671 305.444 525.84 305.082 513.564 300.714C516.148 295.958 514.081 295.054 510.333 299.37L509.894 299.137C509.61 298.956 511.806 296.553 511.109 295.286C510.411 294.02 508.111 296.217 507.077 297.354C506.532 296.874 506.023 296.356 505.552 295.803C504.88 294.02 504.311 290.273 501.675 289.42C501.417 289.42 498.91 284.638 498.393 283.682C500.435 283.243 521.653 277.169 527.468 276.601C528.735 276.601 528.605 275.231 527.598 275.205C521.447 275.024 497.747 281.951 497.462 282.002L495.162 277.919C526.972 255.989 523.114 207.847 488.217 191.263C477.486 186.164 465.294 185.037 453.81 188.082C449.339 176.038 445.049 165.312 441.069 156.602C441.162 156.628 441.26 156.628 441.353 156.602H441.534L495.343 142.233V142.414C518.862 186.35 523.411 261.3 542.639 303.247C542.722 303.446 542.914 303.578 543.13 303.583C543.215 303.607 543.304 303.607 543.389 303.583C543.674 303.454 543.801 303.119 543.673 302.833C524.522 260.887 519.999 186.014 496.403 141.974L495.808 140.94L440.965 155.646C440.741 155.721 440.587 155.927 440.578 156.163C439.079 152.881 437.605 149.857 436.184 147.169C436.036 146.889 435.687 146.784 435.409 146.936C435.13 147.085 435.017 147.426 435.15 147.712C441.712 160.929 447.469 174.531 452.389 188.443C431.637 194.376 416.983 212.887 415.973 234.447C414.371 270.269 449.132 296.63 482.808 284.173C493.146 318.263 522.584 422.78 522.713 424.175C522.92 426.579 472.238 443.559 424.218 455.189C384.287 464.829 345.572 469.662 345.572 469.662C345.572 469.662 328.411 418.619 315.876 376.259C296.699 311.646 273.154 231.527 257.776 196.817C265.53 188.909 283.053 186.195 297.423 183.223C302.592 182.111 307.761 181.078 311.456 179.966C321.226 177.123 331.357 173.763 342.083 170.223C373.096 159.885 404.369 151.588 433.47 147.427C434.789 147.221 435.228 146.807 435.228 146.497C435.228 146.173 434.957 145.914 434.633 145.928C405.067 146.781 372.838 157.429 341.592 167.716C330.918 171.153 320.864 174.59 311.12 177.459C307.373 178.545 302.411 179.579 297.164 180.664C282.536 183.688 264.367 187.461 256.536 195.758C256.355 195.938 256.122 196.016 256.536 196.765C265.711 218.243 282.691 269.131 282.122 268.976C281.554 268.821 281.166 269.932 280.675 271.147C279.228 267.71 269.613 255.873 258.552 260.421C257.917 260.681 257.259 260.88 256.588 261.016C256.588 260.783 256.097 259.724 255.993 259.491C257.128 258.954 258.041 258.041 258.578 256.907C259.828 254.133 260.11 251.021 259.379 248.068C260.012 247.949 260.545 247.522 260.8 246.93C261.373 245.531 261.035 243.923 259.947 242.873C259.154 239.734 257.335 236.951 254.778 234.964C249.351 230.777 239.116 233.517 234.413 238.841C231.688 242.045 230.583 246.322 231.415 250.445C230.853 250.976 230.592 251.751 230.717 252.513C230.924 254.503 233.094 256.726 234.723 255.718C238.987 264.66 245.061 261.714 245.784 263.109C246.353 264.117 246.586 264.531 245.629 264.712C234.774 266.211 228.701 279.288 228.236 286.473C199.806 266.108 215.52 221.189 249.868 222.714C262.48 223.282 266.357 229.175 267.287 227.65C267.464 227.388 267.381 227.031 267.106 226.875C243.335 212.13 212.516 228.648 211.633 256.607C210.749 284.566 240.463 302.997 265.118 289.783C273.111 285.499 279.213 278.382 282.226 269.829C285.238 261.276 289.54 293.09 293.262 305.133C286.309 306.27 244.156 319.451 244.415 320.485C245.035 323.742 287.524 309.785 293.753 306.787C300.188 327.825 305.977 347.338 311.999 367.678C306.675 368.117 260.955 382.953 261.11 384.064C261.11 384.348 261.11 385.072 261.886 385.02C269.639 384.529 308.071 371.115 312.335 368.815L314.661 376.569C318.15 388.406 321.51 399.829 324.689 410.322C321.407 410.865 310.242 414.044 297.035 418.205C281.373 423.141 268.838 427.612 269.019 428.155C269.19 428.641 269.716 428.904 270.208 428.75C273.981 428 285.043 424.201 297.681 420.221C310.862 416.06 322.027 412.933 325.025 411.511C332.339 435.909 337.637 454.44 341.902 466.276C318.15 476.847 292.279 484.833 271.422 482.197C270.828 480.285 212.186 289.988 193.888 226.151C212.677 220.698 256.458 205.475 256.924 205.217C257.389 204.958 257.389 203.873 257.285 203.589C257.187 203.287 256.861 203.125 256.562 203.227C256.096 203.408 210.325 218.243 192.234 225.169C191.251 225.557 191.536 225.996 191.691 226.513C215.391 309.217 269.742 484.73 270.053 484.73C297.319 485.945 319.029 479.07 343.142 468.37L344.15 470.954C344.15 470.954 344.357 471.575 344.667 471.601C367.126 472.066 412.458 462.141 447.375 452.682C481.206 443.533 519.741 430.895 524.574 424.769C524.729 424.563 524.574 423.813 524.574 423.684C522.713 416.603 522.299 415.336 521.989 414.354C521.679 413.372 521.421 412.726 521.653 412.803C526.667 414.431 547.989 404.016 547.963 404.094C537.961 430.74 527.598 457.205 520.18 484.446C519.999 485.143 524.315 488.813 525.349 489.615C520.8 493.905 513.512 497.497 504.053 504.114C503.836 504.286 503.753 504.576 503.846 504.837C503.846 505.044 504.001 505.225 505.267 505.277C506.534 505.328 509.945 505.277 516.846 504.863C534.265 503.907 534.938 504.605 534.136 497.109C533.931 495.964 533.931 494.792 534.136 493.646C534.566 493.775 535.025 493.775 535.454 493.646C549.101 486.823 570.655 462.477 589.212 439.01C585.283 497.161 587.609 492.328 591.228 493C585.594 497.549 571.922 503.881 573.136 505.664C573.136 505.845 573.963 505.974 575.1 506.026C581.484 506.31 600.945 504.682 601.281 504.63C605.675 503.803 602.729 495.533 603.633 493.078C603.675 492.924 603.736 492.777 603.814 492.638C605.598 492.128 607.253 491.248 608.673 490.054C619.011 459.712 624.18 421.978 628.238 391.636C628.935 386.467 629.608 381.583 630.254 377.008C630.254 377.008 637.361 349.225 634.983 343.927M592.985 237.187C594.086 238.848 594.899 240.683 595.389 242.614C592.572 240.779 588.023 239.048 586.085 237.911C589.806 238.376 589.548 232.561 592.985 237.187ZM579.391 235.223C581.127 236.205 582.953 237.018 584.844 237.652C584.204 239.435 583.279 241.102 582.104 242.588C580.216 242.314 578.434 241.547 576.935 240.366C576.703 239.642 578.796 236.308 579.52 235.197M582.544 261.042C579.959 260.525 577.116 259.982 575.85 257.759C573.576 253.805 575.979 247.034 574.661 244.501C574.661 244.268 573.214 244.113 572.981 243.209C572.749 242.304 576.858 236.747 577.84 234.086L578.486 234.473C578.486 234.473 575.049 239.952 576.16 240.935C577.271 241.917 581.329 244.268 582.828 243.519C584.064 242.164 585.03 240.585 585.671 238.867C589.227 240.507 592.679 242.363 596.009 244.424C596.009 244.785 596.19 245.121 596.267 245.483C596.552 246.698 598.852 245.483 599.912 246.258C600.971 247.034 600.635 251.427 597.637 250.316C597.637 250.316 597.767 249.903 597.353 249.67C594.148 247.809 590.271 256.855 597.146 257.268C597.455 257.27 597.714 257.034 597.741 256.726C597.741 255.563 595.156 256.726 594.562 254.529C594.248 253.188 594.706 251.783 595.751 250.885C596.655 250.135 596.81 251.091 597.405 250.549C596.888 252.099 598.671 261.791 599.679 264.815C596.144 265.416 592.68 266.377 589.341 267.684C589.936 262.954 586.757 261.972 582.57 261.145M259.275 261.61C259.275 260.835 261.343 266.521 260.749 267.141C258.887 266.847 257.047 266.423 255.244 265.875C257.159 265.13 258.639 263.565 259.275 261.61ZM246.198 261.61C239.969 261.326 238.134 260.111 235.653 254.607C235.381 254.163 234.737 254.163 234.464 254.607C233.715 255.537 232.164 253.676 232.009 252.41C231.621 248.843 239.401 254.167 247.516 239.229C249.067 242.175 255.476 245.612 258.603 243.597C259.792 243.597 260.335 245.587 259.921 246.491C259.739 246.883 259.311 247.097 258.888 247.008C257.311 246.827 260.232 251.35 257.699 256.416C255.579 260.654 253.409 256.648 255.735 261.946C255.735 262.153 256.768 262.592 258.035 261.946C255.634 265.401 251.177 266.758 247.257 265.229C248.395 264.919 246.56 261.636 246.275 261.636M246.069 265.823C248.01 267.117 250.43 267.468 252.659 266.78C249.17 272.905 248.059 272.129 245.267 266.004L246.069 265.823ZM246.973 292.909C240.714 292.634 234.651 290.64 229.45 287.145C229.519 287.064 229.564 286.966 229.58 286.861C229.864 280.529 234.929 268.77 244.13 266.185C247.258 273.111 249.454 274.636 253.667 267.245C252.659 270.863 256.045 285.336 258.965 284.509C261.886 283.682 257.777 269.907 255.218 266.934C256.2 267.141 259.767 268.252 260.387 268.279C263.307 268.279 261.679 264.04 260.697 261.274C260.64 261.179 260.56 261.099 260.464 261.042C270.13 258.457 278.271 268.537 279.564 271.612C279.648 271.814 279.837 271.953 280.055 271.974H280.313C274.532 285.143 261.293 293.443 246.921 292.909M568.562 343.436C566.391 351.499 563.884 359.537 561.248 367.523C559.955 363.801 558.431 357.004 557.061 350.879C556.053 346.382 555.097 342.118 554.27 339.223C559.269 339.592 564.257 338.361 568.51 335.708C567.812 343.72 568.51 343.461 568.51 343.461M513.383 297.793C513.124 298.645 512.759 299.461 512.297 300.223L511.264 299.783C511.886 299.036 512.598 298.368 513.383 297.793ZM510.488 300.714C517.505 303.511 524.957 305.059 532.508 305.288C541.295 305.676 549.617 304.616 553.572 302.006C555.614 318.779 561.739 328.575 568.536 334.106C559.723 340.67 547.292 337.465 540.572 334.932C531.227 331.499 522.855 325.85 516.174 318.469C513.59 315.29 511.212 308.958 507.671 304.978C508.502 303.546 509.444 302.18 510.488 300.895M506.017 305.418C506.301 305.159 506.405 304.797 505.759 306.064C503.174 311.233 505.526 311.595 508.938 308.648C510.928 311.698 513.228 316.531 515.037 318.986C515.037 318.986 514.856 319.219 514.727 319.374C511.315 323.948 505.707 312.758 502.993 307.304C504.117 306.946 505.149 306.346 506.017 305.547M502.916 306.167C503.164 305.258 503.538 304.388 504.027 303.583C504.489 303.83 504.93 304.115 505.345 304.436C505.603 304.642 503.407 306.012 502.916 306.141M506.792 306.684C507.077 306.115 506.792 305.779 508.266 307.718C507.507 308.422 506.633 308.991 505.681 309.398C505.884 308.482 506.242 307.608 506.741 306.813M509.79 296.475C509.46 297.295 509.071 298.089 508.627 298.853L507.775 298.31C508.369 297.618 509.046 297.002 509.79 296.475ZM507.025 299.06C510.178 301.257 509.816 299.06 506.792 304.229C506.126 303.584 505.379 303.028 504.57 302.575C505.302 301.353 506.122 300.187 507.025 299.086M504.44 296.785C506.741 299.654 506.766 296.785 503.484 302.161C502.631 301.877 499.763 302.161 498.496 300.352C497.514 299.086 501.649 299.292 501.959 298.982C502.417 298.803 502.509 298.196 502.125 297.889C501.947 297.747 501.707 297.71 501.494 297.793C498.134 298.026 494.956 294.123 499.866 294.459C500.304 294.519 500.642 294.083 500.475 293.674C500.397 293.484 500.224 293.35 500.021 293.322C495.679 292.263 495.421 288.954 500.951 290.479C503.174 290.97 504.415 296.553 504.44 296.579M502.89 302.936C502.512 303.606 502.192 304.306 501.934 305.03C501.675 305.754 501.158 303.427 500.822 302.781C501.5 302.937 502.197 302.989 502.89 302.936ZM499.969 289.239C494.671 289.006 494.619 291.823 497.618 293.581C497.261 293.699 496.935 293.892 496.661 294.149C495.188 291.565 489.967 281.899 489.58 281.227C491.105 280.425 492.552 279.573 493.973 278.642L499.969 289.239ZM440.914 270.889C436.146 267.436 432.143 263.037 429.154 257.966C432.075 257.139 463.192 248.119 462.572 246.879C461.409 244.553 429.671 256.105 428.379 256.571C424.902 249.289 423.379 241.229 423.959 233.181C424.9 223.689 428.984 214.784 435.564 207.879C440.744 202.61 447.066 198.604 454.043 196.171C461.019 193.738 472.134 247.706 480.767 276.29C475.435 278.346 469.723 279.228 464.019 278.875C456.23 278.527 448.69 276.032 442.232 271.664C486.168 259.103 474.15 259 440.862 270.76M456.214 195.525C483.64 188.567 509.991 210.087 508.653 238.35C507.881 254.792 497.71 269.32 482.524 275.67C473.814 247.241 464.691 218.811 456.085 195.06M483.403 278.203C483.248 277.738 483.093 277.247 482.963 276.781C526.254 258.69 514.365 194.827 468.077 192.76C434.443 191.257 411.796 226.728 427.312 256.606C434.513 270.473 448.565 279.444 464.174 280.141C470.014 280.519 475.866 279.637 481.335 277.557C481.49 278.048 481.619 278.513 481.775 278.978C476.265 281.009 470.398 281.888 464.536 281.563C430.189 280.652 409.708 242.9 427.67 213.61C436.309 199.523 452.024 191.362 468.516 192.398C516.562 194.543 528.425 260.344 483.403 278.332M547.834 402.724C538.866 406.73 523.488 412.803 521.395 411.408C519.198 403.267 512.349 378.275 512.349 378.275C512.349 378.275 521.963 375.69 526.615 374.63C530.647 373.648 539.848 371.115 541.14 370.702C541.916 370.469 541.373 369.694 540.236 369.875C535.521 370.617 530.853 371.627 526.254 372.899C519.792 374.682 514.288 376.31 512.013 377.137C504.854 351.292 495.291 317.694 484.953 283.501C486.246 282.984 487.538 282.442 488.727 281.847C489.269 282.855 496.325 295.545 496.325 295.596C496.325 296.785 497.359 298.698 498.496 298.336C497.456 298.859 497.188 300.224 497.953 301.102C498.367 301.696 499.22 301.903 499.53 302.704C504.13 314.593 508.705 318.935 511.367 321.08C513.486 322.786 516.122 320.64 516.122 320.64C522.349 328.355 530.764 334.004 540.262 336.845C544.405 338.25 548.67 339.263 553.003 339.869C553.83 342.712 554.942 346.433 556.001 351.163C557.169 357.298 558.766 363.344 560.783 369.255C557.035 380.471 553.029 391.326 548.971 402.285L547.834 402.698M512.271 500.418C532.947 487.289 522.17 490.08 533.232 493.595C533.01 494.817 533.01 496.069 533.232 497.29C526.62 500.081 519.41 501.157 512.271 500.418ZM581.613 501.012C592.107 494.784 593.218 493.259 592.959 493.569C596.156 494.012 599.403 493.934 602.574 493.336C602.335 495.051 602.335 496.791 602.574 498.505C595.868 500.996 588.671 501.881 581.562 501.09M627.126 391.895C623.069 422.004 618.029 459.376 607.82 489.537C607.82 489.537 607.458 489.873 607.381 489.977C603.659 493.62 593.554 493.181 589.289 491.708C587.687 479.742 590.737 437.899 590.763 437.847C602.874 422.704 614.192 406.944 624.671 390.628C626.168 387.831 627.48 384.939 628.6 381.97C628.16 385.175 627.721 388.457 627.256 391.895M623.663 390.06C616.814 402.646 560.136 480.517 535.222 493.052C529.954 491.738 525.234 488.8 521.731 484.652C534.653 437.072 556.906 391.61 569.88 343.72C575.794 344.777 581.783 345.365 587.79 345.477C603.255 346.277 618.756 346 634.182 344.65C634.216 344.823 634.277 344.988 634.363 345.141C635.345 347.467 633.226 372.615 623.637 390.163" fill="#381F01"/>
<path d="M591 141L592.572 145.837H597.657L593.543 148.826L595.114 153.663L591 150.674L586.886 153.663L588.457 148.826L584.343 145.837H589.428L591 141Z" fill="#5747B8"/>
<path d="M296 101L297.572 105.837H302.657L298.543 108.826L300.114 113.663L296 110.674L291.886 113.663L293.457 108.826L289.343 105.837H294.428L296 101Z" fill="#DA7B07"/>
<path d="M693 390L694.572 394.837H699.657L695.543 397.826L697.114 402.663L693 399.674L688.886 402.663L690.457 397.826L686.343 394.837H691.428L693 390Z" fill="#5747B8"/>
<path d="M187 367L188.572 371.837H193.657L189.543 374.826L191.114 379.663L187 376.674L182.886 379.663L184.457 374.826L180.343 371.837H185.428L187 367Z" fill="#7568C8"/>
<path d="M415 481L416.572 485.837H421.657L417.543 488.826L419.114 493.663L415 490.674L410.886 493.663L412.457 488.826L408.343 485.837H413.428L415 481Z" fill="#B968C7"/>
</svg>
