<svg width="145" height="31" viewBox="0 0 145 31" fill="none" xmlns="http://www.w3.org/2000/svg">
<path d="M0.852051 15.0199C0.852051 7.93946 0.852051 4.39923 3.05167 2.19962C5.25128 0 8.79151 0 15.872 0C22.9524 0 26.4926 0 28.6923 2.19962C30.8919 4.39923 30.8919 7.93946 30.8919 15.0199C30.8919 22.1004 30.8919 25.6406 28.6923 27.8403C26.4926 30.0399 22.9524 30.0399 15.872 30.0399C8.79151 30.0399 5.25128 30.0399 3.05167 27.8403C0.852051 25.6406 0.852051 22.1004 0.852051 15.0199Z" fill="#232B36"/>
<path d="M18.8761 19.5254C19.2909 19.5254 19.6347 19.8649 19.5523 20.2714C19.4067 20.9894 19.0529 21.6548 18.5272 22.1805C17.8231 22.8847 16.868 23.2804 15.8721 23.2804C14.8762 23.2804 13.9212 22.8847 13.217 22.1805C12.6913 21.6548 12.3375 20.9894 12.192 20.2714C12.1095 19.8649 12.4533 19.5254 12.8681 19.5254H18.8761Z" fill="#2DF8BB"/>
<path d="M20.4547 13.3508C20.054 13.4581 19.8087 13.8773 20.0118 14.2389C20.2256 14.6195 20.5214 14.9516 20.8812 15.2094C21.4461 15.6142 22.1338 15.8107 22.8274 15.7652C23.5209 15.7197 24.1772 15.4353 24.6844 14.9602C25.1917 14.4851 25.5184 13.8488 25.6092 13.1598C25.6999 12.4707 25.5489 11.7715 25.1819 11.1813C24.8149 10.5912 24.2546 10.1465 23.5965 9.92311C22.9384 9.69969 22.2232 9.7114 21.5728 9.95623C21.1585 10.1121 20.7869 10.3564 20.4819 10.6687C20.1921 10.9654 20.3206 11.4338 20.6798 11.6412L21.0607 11.8611C21.6401 12.1957 21.5259 13.0638 20.8796 13.237L20.4547 13.3508Z" fill="#2DF8BB"/>
<path d="M11.2891 13.3508C11.6897 13.4581 11.9351 13.8773 11.7319 14.2389C11.5181 14.6195 11.2224 14.9516 10.8626 15.2094C10.2977 15.6142 9.60991 15.8107 8.91644 15.7652C8.22291 15.7197 7.56662 15.4353 7.05938 14.9602C6.55213 14.4851 6.2253 13.8488 6.13459 13.1598C6.04388 12.4707 6.19488 11.7715 6.56189 11.1813C6.92888 10.5912 7.48917 10.1465 8.14728 9.92311C8.80537 9.69969 9.52062 9.7114 10.1711 9.95623C10.5852 10.1121 10.9569 10.3564 11.262 10.6687C11.5518 10.9654 11.4232 11.4338 11.064 11.6412L10.683 11.8611C10.1036 12.1957 10.2179 13.0638 10.8641 13.237L11.2891 13.3508Z" fill="#2DF8BB"/>
<path d="M47.2521 22.3383L46.4329 19.2104H42.8767L42.0761 22.3383H39.2461L42.765 9.34253H46.7121L50.2311 22.3383H47.2521ZM44.7386 12.0422H44.5896L43.3236 16.9575H46.0046L44.7386 12.0422Z" fill="#232B36"/>
<path d="M52.299 20.1972H55.2408V10.7017H52.299V8.56055H57.9963V20.1972H60.938V22.3383H52.299V20.1972Z" fill="#232B36"/>
<path d="M69.2432 22.3383C68.2503 22.3383 67.5117 22.0776 67.0276 21.5563C66.5436 21.035 66.3015 20.3709 66.3015 19.5641V14.8722H63.6949V12.7311H65.3892C65.7988 12.7311 66.0905 12.6504 66.2643 12.4891C66.4381 12.3277 66.5249 12.0298 66.5249 11.5954V9.34253H69.0571V12.7311H72.7994V14.8722H69.0571V20.1972H72.7994V22.3383H69.2432Z" fill="#232B36"/>
<path d="M80.6391 22.5617C79.0255 22.5617 77.8029 22.1149 76.9713 21.2212C76.1396 20.3275 75.7238 19.1111 75.7238 17.5719C75.7238 16.79 75.8293 16.0887 76.0403 15.468C76.2638 14.835 76.5741 14.3013 76.9713 13.8668C77.3809 13.42 77.8712 13.0849 78.4421 12.8614C79.0255 12.6256 79.6772 12.5077 80.3971 12.5077C81.117 12.5077 81.7625 12.6256 82.3334 12.8614C82.9044 13.0849 83.3885 13.4076 83.7857 13.8296C84.1829 14.2516 84.487 14.7667 84.698 15.3749C84.9214 15.9707 85.0331 16.641 85.0331 17.3857V18.205H78.4608V18.3725C78.4608 18.9932 78.6532 19.4959 79.0379 19.8806C79.4227 20.253 79.9875 20.4392 80.7322 20.4392C81.3032 20.4392 81.7935 20.3337 82.2031 20.1227C82.6127 19.8993 82.9665 19.6076 83.2644 19.2476L84.7538 20.8674C84.3815 21.3267 83.8601 21.7239 83.1899 22.059C82.5196 22.3941 81.6694 22.5617 80.6391 22.5617ZM80.4157 14.4813C79.8199 14.4813 79.342 14.6674 78.9821 15.0398C78.6345 15.3998 78.4608 15.8901 78.4608 16.5107V16.6596H82.3334V16.5107C82.3334 15.8776 82.1597 15.3811 81.8121 15.0212C81.477 14.6612 81.0115 14.4813 80.4157 14.4813Z" fill="#232B36"/>
<path d="M88.0507 20.1972H90.2663V14.8722H88.0507V12.7311H93.0218V15.4494H93.1521C93.239 15.1019 93.3569 14.7667 93.5059 14.444C93.6673 14.1089 93.8658 13.8172 94.1017 13.5689C94.3499 13.3083 94.6478 13.1035 94.9954 12.9545C95.3429 12.8056 95.7525 12.7311 96.2242 12.7311H97.1365V15.2632H95.0885C94.4058 15.2632 93.8907 15.468 93.5431 15.8776C93.1956 16.2748 93.0218 16.7651 93.0218 17.3485V20.1972H96.187V22.3383H88.0507V20.1972Z" fill="#232B36"/>
<path d="M99.6513 8.56055H102.407V14.4813H102.537C102.773 13.9103 103.114 13.4386 103.561 13.0662C104.008 12.6939 104.616 12.5077 105.386 12.5077C105.92 12.5077 106.404 12.607 106.838 12.8056C107.285 13.0042 107.664 13.3083 107.974 13.7179C108.297 14.1275 108.545 14.6488 108.719 15.2818C108.905 15.9149 108.998 16.6658 108.998 17.5347C108.998 18.4036 108.905 19.1545 108.719 19.7875C108.545 20.4206 108.297 20.9419 107.974 21.3515C107.664 21.7611 107.285 22.0652 106.838 22.2638C106.404 22.4624 105.92 22.5617 105.386 22.5617C104.616 22.5617 104.008 22.3817 103.561 22.0218C103.114 21.6494 102.773 21.1715 102.537 20.5881H102.407V22.3383H99.6513V8.56055ZM104.194 20.4206C104.815 20.4206 105.293 20.2344 105.628 19.862C105.963 19.4772 106.131 18.9497 106.131 18.2794V16.79C106.131 16.1197 105.963 15.5984 105.628 15.226C105.293 14.8412 104.815 14.6488 104.194 14.6488C103.71 14.6488 103.288 14.7667 102.928 15.0026C102.581 15.2384 102.407 15.6108 102.407 16.1197V18.9497C102.407 19.4586 102.581 19.831 102.928 20.0668C103.288 20.3027 103.71 20.4206 104.194 20.4206Z" fill="#232B36"/>
<path d="M116.018 22.5617C115.274 22.5617 114.603 22.45 114.008 22.2266C113.412 21.9907 112.903 21.6556 112.481 21.2212C112.071 20.7867 111.755 20.2592 111.531 19.6386C111.308 19.018 111.196 18.3167 111.196 17.5347C111.196 16.7527 111.308 16.0514 111.531 15.4308C111.755 14.8102 112.071 14.2827 112.481 13.8482C112.903 13.4138 113.412 13.0849 114.008 12.8614C114.603 12.6256 115.274 12.5077 116.018 12.5077C116.763 12.5077 117.433 12.6256 118.029 12.8614C118.625 13.0849 119.128 13.4138 119.537 13.8482C119.959 14.2827 120.282 14.8102 120.505 15.4308C120.729 16.0514 120.841 16.7527 120.841 17.5347C120.841 18.3167 120.729 19.018 120.505 19.6386C120.282 20.2592 119.959 20.7867 119.537 21.2212C119.128 21.6556 118.625 21.9907 118.029 22.2266C117.433 22.45 116.763 22.5617 116.018 22.5617ZM116.018 20.5137C116.639 20.5137 117.123 20.3213 117.471 19.9365C117.818 19.5517 117.992 19.0056 117.992 18.2981V16.7713C117.992 16.0638 117.818 15.5177 117.471 15.1329C117.123 14.7481 116.639 14.5557 116.018 14.5557C115.398 14.5557 114.914 14.7481 114.566 15.1329C114.219 15.5177 114.045 16.0638 114.045 16.7713V18.2981C114.045 19.0056 114.219 19.5517 114.566 19.9365C114.914 20.3213 115.398 20.5137 116.018 20.5137Z" fill="#232B36"/>
<path d="M123.523 22.3383V12.7311H126.279V14.4813H126.39C126.502 14.2082 126.638 13.9537 126.8 13.7179C126.961 13.4821 127.154 13.2773 127.377 13.1035C127.613 12.9173 127.88 12.7745 128.178 12.6752C128.488 12.5635 128.835 12.5077 129.22 12.5077C129.68 12.5077 130.102 12.5884 130.486 12.7497C130.871 12.8987 131.2 13.1283 131.473 13.4386C131.746 13.7489 131.957 14.1275 132.106 14.5743C132.268 15.0212 132.348 15.5363 132.348 16.1197V22.3383H129.593V16.4921C129.593 15.2508 129.053 14.6302 127.973 14.6302C127.762 14.6302 127.551 14.6612 127.34 14.7233C127.141 14.7729 126.961 14.8598 126.8 14.984C126.638 15.0957 126.508 15.2384 126.409 15.4122C126.322 15.586 126.279 15.7908 126.279 16.0266V22.3383H123.523Z" fill="#232B36"/>
<path d="M140.039 22.5617C138.425 22.5617 137.203 22.1149 136.371 21.2212C135.539 20.3275 135.124 19.1111 135.124 17.5719C135.124 16.79 135.229 16.0887 135.44 15.468C135.664 14.835 135.974 14.3013 136.371 13.8668C136.781 13.42 137.271 13.0849 137.842 12.8614C138.425 12.6256 139.077 12.5077 139.797 12.5077C140.517 12.5077 141.162 12.6256 141.733 12.8614C142.304 13.0849 142.788 13.4076 143.186 13.8296C143.583 14.2516 143.887 14.7667 144.098 15.3749C144.321 15.9707 144.433 16.641 144.433 17.3857V18.205H137.861V18.3725C137.861 18.9932 138.053 19.4959 138.438 19.8806C138.823 20.253 139.387 20.4392 140.132 20.4392C140.703 20.4392 141.193 20.3337 141.603 20.1227C142.013 19.8993 142.366 19.6076 142.664 19.2476L144.154 20.8674C143.781 21.3267 143.26 21.7239 142.59 22.059C141.919 22.3941 141.069 22.5617 140.039 22.5617ZM139.816 14.4813C139.22 14.4813 138.742 14.6674 138.382 15.0398C138.034 15.3998 137.861 15.8901 137.861 16.5107V16.6596H141.733V16.5107C141.733 15.8776 141.559 15.3811 141.212 15.0212C140.877 14.6612 140.411 14.4813 139.816 14.4813Z" fill="#232B36"/>
</svg>
