<svg width="760" height="671" viewBox="0 0 760 671" fill="none" xmlns="http://www.w3.org/2000/svg">
<path d="M170.179 126.087C282.316 19.2017 315.07 161.421 436.816 289.149C558.562 416.876 828.461 413.183 716.325 520.068C604.189 626.953 409.565 716.386 287.819 588.659C166.073 460.931 58.0431 232.971 170.179 126.087Z" fill="#EDFAFF"/>
<path d="M618.27 152.009H682.257C682.257 152.009 688.387 134.966 677.336 128.769C666.285 122.572 666.285 131.031 657.687 127.623C650.599 124.818 649.289 119.489 647.274 113.849C647.056 113.198 646.821 112.548 646.569 111.912C645.886 110.15 644.996 108.461 643.915 106.877" stroke="#DA7B07" stroke-width="1.5" stroke-linecap="round" stroke-linejoin="round"/>
<path d="M636.394 99.5489C620.372 88.7035 593.854 92.7783 593.854 115.77C593.854 121.426 579.108 115.77 573.583 123.13C568.057 130.489 574.204 135.029 566.865 137.291C559.526 139.553 558.888 133.898 549.668 134.456C540.448 135.013 541.69 142.946 538.617 145.223C535.544 147.501 535.56 146.354 528.809 146.912C522.058 147.47 520.815 152.01 520.815 152.01H606.97" stroke="#DA7B07" stroke-width="1.5" stroke-linecap="round" stroke-linejoin="round"/>
<path d="M652.868 145.811C653.761 142.905 653.779 139.83 652.921 136.914C652.063 133.999 650.361 131.355 647.998 129.264C639.785 122.261 631.203 126.166 628.835 129.264C626.467 132.363 626.4 138.25 622.453 138.808C618.507 139.366 619.414 132.611 610.899 134.315C602.384 136.019 605.726 143.859 601.779 145.532C597.833 147.206 597.833 141.055 592.358 143.007C586.883 144.959 587.185 148.616 587.185 148.616" stroke="#DA7B07" stroke-width="1.5" stroke-linecap="round" stroke-linejoin="round"/>
<path d="M609.186 126.755C606.947 125.286 604.323 124.397 601.585 124.179C598.848 123.961 596.097 124.422 593.618 125.516C584.818 129.265 588.882 137.074 584.818 138.949C580.753 140.823 578.721 138.623 573.649 140.823C568.577 143.023 568.897 146.122 568.897 146.122" stroke="#DA7B07" stroke-width="1.5" stroke-linecap="round" stroke-linejoin="round"/>
<path d="M181.399 139.806C179.908 139.049 178.208 138.715 176.512 138.846C171.221 139.171 171.927 143.726 170.163 145.043C168.4 146.36 168.484 145.694 164.537 146.019C163.54 146.005 162.562 146.278 161.741 146.8C160.919 147.322 160.294 148.067 159.952 148.932H252.607C252.607 148.932 254.891 142.626 252.473 138.288" stroke="#DA7B07" stroke-width="1.5" stroke-linecap="round" stroke-linejoin="round"/>
<path d="M249.82 135.593C243.489 132.03 243.489 136.895 238.551 134.943C234.47 133.393 233.714 130.295 232.572 127.041L232.169 125.925C226.812 112.198 201.939 111.253 201.939 128.126C201.939 131.379 193.542 128.126 190.318 132.355C187.093 136.585 190.67 139.172 186.438 140.474" stroke="#DA7B07" stroke-width="1.5" stroke-linecap="round" stroke-linejoin="round"/>
<path d="M235.78 145.369C236.292 143.701 236.303 141.937 235.812 140.264C235.321 138.591 234.346 137.073 232.992 135.871C228.273 131.843 223.386 134.105 221.992 135.871C220.598 137.638 220.598 141.015 218.331 141.341C216.063 141.666 216.651 137.808 211.697 138.769C206.742 139.729 208.741 144.238 206.457 145.214C204.173 146.19 204.19 142.627 201.049 143.758C197.909 144.889 198.093 147.058 198.093 147.058" stroke="#DA7B07" stroke-width="1.5" stroke-linecap="round" stroke-linejoin="round"/>
<path d="M210.721 134.432C209.436 133.589 207.93 133.077 206.359 132.952C204.788 132.827 203.209 133.092 201.787 133.72C196.748 135.873 199.066 140.351 196.748 141.466C194.431 142.582 193.255 141.296 190.333 142.551C187.411 143.806 187.612 145.649 187.612 145.649" stroke="#DA7B07" stroke-width="1.5" stroke-linecap="round" stroke-linejoin="round"/>
<path d="M398.045 108.814C396.562 108.054 394.866 107.72 393.175 107.854C387.885 108.179 388.59 112.734 386.827 114.051C385.063 115.368 385.063 114.702 381.184 115.012C380.187 115.002 379.212 115.279 378.393 115.804C377.575 116.328 376.954 117.075 376.616 117.94H469.27C469.27 117.94 471.554 111.634 469.136 107.296" stroke="#DA7B07" stroke-width="1.5" stroke-linecap="round" stroke-linejoin="round"/>
<path d="M466.381 104.599C460.05 101.02 460.05 105.901 455.112 103.948C451.031 102.399 450.275 99.3003 449.133 96.0467L448.73 94.9312C443.373 81.204 418.5 80.2434 418.5 97.1312C418.5 100.369 410.103 97.1312 406.879 101.345C403.654 105.56 407.231 108.178 402.999 109.479" stroke="#DA7B07" stroke-width="1.5" stroke-linecap="round" stroke-linejoin="round"/>
<path d="M452.342 114.376C452.848 112.711 452.854 110.952 452.36 109.284C451.866 107.617 450.891 106.105 449.538 104.909C444.835 100.881 439.948 103.128 438.554 104.909C437.16 106.691 437.16 110.053 434.893 110.378C432.626 110.704 433.214 106.83 428.259 107.807C423.305 108.783 425.287 113.276 423.019 114.236C420.752 115.197 420.752 111.664 417.612 112.795C414.471 113.926 414.639 116.018 414.639 116.018" stroke="#DA7B07" stroke-width="1.5" stroke-linecap="round" stroke-linejoin="round"/>
<path d="M427.27 103.438C425.985 102.594 424.479 102.083 422.908 101.958C421.337 101.833 419.758 102.098 418.335 102.725C413.297 104.863 415.615 109.357 413.297 110.472C410.98 111.588 409.787 110.286 406.882 111.541C403.976 112.796 404.161 114.64 404.161 114.64" stroke="#DA7B07" stroke-width="1.5" stroke-linecap="round" stroke-linejoin="round"/>
<path d="M647.309 303.553L633.386 348.868L632.498 348.603L624.625 341.879L621.713 345.261L624.772 362.992C624.772 362.992 637.143 370.498 639.392 370.007C641.069 369.6 642.716 369.037 644.318 368.323C644.318 368.323 652.1 305.25 652.303 304.03C652.505 302.81 651.201 299.441 647.309 303.553Z" fill="white" stroke="#263238" stroke-width="0.601381" stroke-linecap="round" stroke-linejoin="round"/>
<path d="M651.065 540.366C651.065 540.366 647.174 547.355 644.002 550.299C640.831 553.243 633.386 557.487 631.316 559.463C629.247 561.439 630.192 563.203 630.878 564.052C631.564 564.9 641.168 565.524 646.375 565.537C651.582 565.55 660.995 562.885 660.995 562.885C660.995 562.885 665.157 563.667 666.214 563.044C667.271 562.42 667.934 561.028 668.103 558.853C668.272 556.678 667.665 544.398 667.665 544.398L651.065 540.366Z" fill="white" stroke="#263238" stroke-width="0.601381" stroke-linecap="round" stroke-linejoin="round"/>
<path d="M662.245 559.635C658.196 560.404 657.398 561.491 649.548 562.871C643.092 564.011 633.522 562.605 630.047 561.876C630.053 562.282 630.131 562.682 630.274 563.052C630.417 563.422 630.623 563.752 630.879 564.024C631.587 564.873 641.169 565.496 646.376 565.51C651.583 565.523 660.997 562.857 660.997 562.857C660.997 562.857 665.158 563.64 666.215 563.017C667.272 562.393 667.924 561.014 668.093 558.879C666.133 558.998 664.18 559.25 662.245 559.635Z" fill="#263238" stroke="#263238" stroke-width="0.601381" stroke-linecap="round" stroke-linejoin="round"/>
<path d="M654.451 545.499C654.451 545.499 649.952 543.138 646.916 547.117" stroke="#263238" stroke-width="1.20276" stroke-linecap="round" stroke-linejoin="round"/>
<path d="M649.322 543.496C649.322 543.496 652.785 546.692 652.324 550.127" stroke="#263238" stroke-width="1.20276" stroke-linecap="round" stroke-linejoin="round"/>
<path d="M651.088 549.186C651.088 549.186 647.545 547.249 645.139 550.512" stroke="#263238" stroke-width="1.20276" stroke-linecap="round" stroke-linejoin="round"/>
<path d="M647.051 547.554C647.051 547.554 649.773 550.206 649.39 552.991" stroke="#263238" stroke-width="1.20276" stroke-linecap="round" stroke-linejoin="round"/>
<path d="M648.524 552.925C648.524 552.925 645.251 551.108 640.1 553.256" stroke="#263238" stroke-width="1.20276" stroke-linecap="round" stroke-linejoin="round"/>
<path d="M644.387 551.268C644.633 551.56 644.819 551.915 644.931 552.305C645.044 552.695 645.08 553.11 645.037 553.518C644.993 553.927 644.872 554.319 644.681 554.664C644.491 555.009 644.236 555.299 643.937 555.511" stroke="#263238" stroke-width="1.20276" stroke-linecap="round" stroke-linejoin="round"/>
<path d="M676.718 546.997C676.718 546.997 674.795 555.114 674.109 556.281C673.423 557.448 668.834 564.238 668.789 566.611C668.744 568.985 670.217 570.815 673.872 571.797C677.528 572.778 683.196 573.123 687.717 570.696C692.238 568.269 694.273 567.474 695.409 563.76C696.545 560.047 695.792 547.594 695.792 547.594C695.792 547.594 681.677 535.327 676.718 546.997Z" fill="white" stroke="#263238" stroke-width="0.601381" stroke-linecap="round" stroke-linejoin="round"/>
<path d="M695.41 563.719C695.848 561.706 696.052 559.631 696.018 557.553C695.073 559.323 694.013 561.004 692.846 562.579C690.597 565.483 686.796 568.706 679.463 569.342C675.684 569.729 671.926 568.369 668.981 565.55C668.88 565.879 668.816 566.222 668.79 566.571C668.79 568.998 670.219 570.775 673.874 571.756C677.529 572.737 683.197 573.082 687.718 570.655C692.239 568.228 694.274 567.433 695.41 563.719Z" fill="#263238" stroke="#263238" stroke-width="0.601381" stroke-linecap="round" stroke-linejoin="round"/>
<path d="M686.649 544.239C686.649 544.239 680.486 543.881 678.552 548.217" stroke="#263238" stroke-width="1.20276" stroke-linecap="round" stroke-linejoin="round"/>
<path d="M679.901 544.345C679.901 544.345 685.198 545.671 686.008 548.642" stroke="#263238" stroke-width="1.20276" stroke-linecap="round" stroke-linejoin="round"/>
<path d="M685.424 549.543C685.424 549.543 679.25 549.198 677.315 553.521" stroke="#263238" stroke-width="1.20276" stroke-linecap="round" stroke-linejoin="round"/>
<path d="M678.665 549.649C678.665 549.649 683.962 550.976 684.783 553.946" stroke="#263238" stroke-width="1.20276" stroke-linecap="round" stroke-linejoin="round"/>
<path d="M684.197 554.847C684.197 554.847 678.023 554.503 676.089 558.826" stroke="#263238" stroke-width="1.20276" stroke-linecap="round" stroke-linejoin="round"/>
<path d="M677.438 554.954C677.438 554.954 682.735 556.28 683.545 559.251" stroke="#263238" stroke-width="1.20276" stroke-linecap="round" stroke-linejoin="round"/>
<path d="M639.819 387.672C639.819 387.672 642.181 429.857 643.193 441.7C644.205 453.542 646.668 480.848 646.871 481.578C647.073 482.307 647.692 491.962 647.692 491.962C647.692 491.962 647.084 495.834 647.905 504.295C648.726 512.756 651.178 530.394 651.178 530.394C651.178 530.394 649.131 530.871 649.334 532.808C649.536 534.744 650.357 540.062 650.357 540.062C650.357 540.062 658.151 543.192 660.4 543.444C662.649 543.696 667.148 543.444 667.148 543.444C667.148 543.444 668.992 539.81 668.79 537.887C668.364 535.511 667.816 533.168 667.148 530.871L668.171 516.615L669.892 458.383C669.892 458.383 676.246 515.17 677.27 519.267C678.293 523.365 679.316 529.877 679.316 529.877C679.316 529.877 677.27 531.813 677.27 533.02C677.27 534.227 677.686 542.688 677.686 542.688C677.686 542.688 681.779 538.815 685.671 539.545C689.562 540.274 695.927 545.592 695.927 545.592C696.179 543.141 696.588 540.716 697.153 538.338C697.974 535.195 696.332 527.225 695.916 525.076C695.445 522.616 695.376 520.073 695.714 517.583C696.13 515.408 696.332 508.645 696.535 506.47C696.737 504.295 696.332 450.161 696.332 450.161L700.516 388.162L640.91 385.987L639.819 387.672Z" fill="#263238" stroke="#263238" stroke-width="0.601381" stroke-linecap="round" stroke-linejoin="round"/>
<path d="M661.658 283.673C661.658 283.673 648.995 290.516 648.163 292.956C647.331 295.396 643.057 344.809 640.594 364.569C638.131 384.329 639.188 389.581 639.188 389.581C639.188 389.581 641.831 396.013 667.686 394.965C693.542 393.917 702.696 389.369 703.045 386.676C703.393 383.984 703.753 387.393 703.753 385.523C703.753 383.653 705.688 295.502 703.753 290.105C701.819 284.707 690.91 275.795 687.739 275.384C684.567 274.973 661.658 283.673 661.658 283.673Z" fill="#00739F" stroke="#263238" stroke-width="0.601381" stroke-linecap="round" stroke-linejoin="round"/>
<path d="M682.567 279.641C674.83 281.882 661.66 286.895 661.66 286.895C661.66 286.895 648.997 293.738 648.165 296.178C647.875 297.543 647.669 298.93 647.546 300.329C653.169 296.563 666.316 287.81 670.747 286.165C674.357 284.852 678.067 283.964 681.825 283.513L696.456 295.024L702.597 295.21C702.597 295.21 688.82 280.901 684.929 279.667C684.147 279.523 683.351 279.514 682.567 279.641Z" fill="white" stroke="#263238" stroke-width="0.601381" stroke-linecap="round" stroke-linejoin="round"/>
<path d="M640.583 367.553V367.791C640.156 371.226 639.864 374.316 639.65 377.141C652.634 380.234 665.893 381.419 679.125 380.669C692.62 379.7 700.11 379.117 703.923 378.825C703.923 376.107 704.024 372.95 704.08 369.462C695.061 370.616 659.86 374.21 640.583 367.553Z" fill="white" stroke="#263238" stroke-width="0.601381" stroke-linecap="round" stroke-linejoin="round"/>
<path d="M649.827 384.09C649.917 385.973 650.052 387.803 650.221 389.58" stroke="#263238" stroke-width="0.601381" stroke-miterlimit="10"/>
<path d="M653.675 340.354C651.898 352.873 649.458 365.312 649.705 379.9" stroke="#263238" stroke-width="0.601381" stroke-miterlimit="10"/>
<path d="M656.914 324.438C656.914 324.438 655.598 330.91 654.136 340.498" stroke="#263238" stroke-width="0.601381" stroke-miterlimit="10"/>
<path d="M617.35 395.296C617.35 395.296 619.937 400.707 624.536 394.686C627.01 391.463 636.311 357.978 636.311 357.978C636.311 357.978 618.16 391.835 617.35 395.296Z" fill="white" stroke="#263238" stroke-width="0.601381" stroke-linecap="round" stroke-linejoin="round"/>
<path d="M599.984 294.069L612.04 289.149C612.04 289.149 611.917 319.651 613.671 326.905L615.414 334.186C615.414 334.186 603.695 311.137 601.188 303.446C598.68 295.754 599.984 294.069 599.984 294.069Z" fill="white" stroke="#263238" stroke-width="0.601381" stroke-linecap="round" stroke-linejoin="round"/>
<path d="M624.906 338.298C624.906 338.298 622.769 331.335 619.114 332.767C615.459 334.2 612.771 334.094 612.49 336.017C612.209 337.939 621.712 345.3 621.712 345.3C621.712 345.3 628.448 344.796 624.906 338.298Z" fill="white" stroke="#263238" stroke-width="0.601381" stroke-linecap="round" stroke-linejoin="round"/>
<path d="M629.405 371.173C629.405 371.173 617.529 394.341 617.371 395.296C617.371 395.296 609.229 379.037 598.252 359.118C587.276 339.199 576.952 292.094 576.952 292.094C580.1 288.353 584.231 285.982 588.671 285.37C596.386 284.15 599.04 284.508 599.04 284.508C599.04 284.508 606.395 315.182 614.537 329.319C619.921 338.419 626.108 346.821 632.992 354.384L636.366 357.978L629.405 371.173Z" fill="white" stroke="#263238" stroke-width="0.601381" stroke-linecap="round" stroke-linejoin="round"/>
<path d="M598.005 333.139C605.053 336.212 612.234 338.842 619.519 341.016" stroke="#263238" stroke-width="0.601381" stroke-miterlimit="10"/>
<path d="M591.426 330.273C591.426 330.273 592.371 330.711 593.968 331.401" stroke="#263238" stroke-width="0.601381" stroke-miterlimit="10"/>
<path d="M603.179 327.264C603.179 327.264 610.883 336.374 618.924 338.178" stroke="#263238" stroke-width="0.601381" stroke-miterlimit="10"/>
<path d="M642.472 350.644C642.472 350.644 632.62 345.247 631.035 345.048C629.449 344.849 621.363 348.562 620.485 349.398C619.608 350.233 619.248 352.05 620.305 352.302C621.363 352.554 623.117 351.055 623.117 351.055L627.694 350.021L629.809 351.466C629.809 351.466 622.42 356.652 621.711 358.323C621.003 359.994 619.777 363.084 620.485 363.707C621.194 364.33 621.543 365.789 622.589 365.789C623.145 365.799 623.702 365.755 624.253 365.656C625.588 365.407 626.84 364.733 627.874 363.707C629.449 362.049 632.969 362.673 632.969 362.673C632.969 362.673 637.197 364.33 638.255 363.919C639.526 363.256 640.758 362.494 641.943 361.638H643.878L642.472 350.644Z" fill="white" stroke="#263238" stroke-width="0.601381" stroke-linecap="round" stroke-linejoin="round"/>
<path d="M620.486 363.708C620.486 363.708 624.254 359.079 624.681 358.482C625.108 357.886 631.496 354.093 631.496 354.093" stroke="#263238" stroke-width="0.601381" stroke-miterlimit="10"/>
<path d="M622.59 365.788C622.59 365.788 627.696 360.484 628.056 360.165C628.415 359.847 632.712 357.805 632.712 357.805" stroke="#263238" stroke-width="0.601381" stroke-miterlimit="10"/>
<path d="M701.067 293.527C701.067 293.527 694.206 290.874 689.46 299.547C684.715 308.221 681.869 350.207 681.869 350.207L642.507 350.645L643.204 363.509C643.204 363.509 680.497 368.256 687.706 368.256C694.915 368.256 696.861 369.702 697.738 366.599C698.615 363.495 706.375 325.686 707.432 313.658C708.489 301.629 704.407 294.362 701.067 293.527Z" fill="white" stroke="#263238" stroke-width="0.601381" stroke-linecap="round" stroke-linejoin="round"/>
<path d="M642.901 388.401C642.901 388.401 632.037 386.464 631.418 387.91C630.8 389.356 631.418 409.129 632.442 410.389C633.465 411.648 640.438 413.293 642.485 411.834C644.532 410.375 645.769 409.42 646.174 408.214C646.578 407.007 646.59 391.782 645.769 389.846C645.476 389.285 645.043 388.844 644.53 388.586C644.016 388.327 643.447 388.262 642.901 388.401Z" fill="#263238" stroke="#263238" stroke-width="0.601381" stroke-linecap="round" stroke-linejoin="round"/>
<path d="M655.8 390.814C655.8 390.814 654.147 410.402 656.823 411.595C659.809 412.673 662.924 413.166 666.045 413.054C667.069 412.802 670.758 412.086 671.376 410.15C671.995 408.213 671.984 392.989 671.579 391.583C671.174 390.177 656.823 388.878 655.8 390.814Z" fill="#263238" stroke="#263238" stroke-width="0.601381" stroke-linecap="round" stroke-linejoin="round"/>
<path d="M681.622 392.989C681.622 392.989 682.443 414.977 682.848 415.945C683.253 416.913 691.046 422.961 692.475 422.709C693.903 422.457 705.385 421.024 705.97 418.359C706.555 415.693 708.017 394.196 706.791 391.835C705.565 389.475 702.9 388.454 700.437 388.215C697.974 387.976 683.635 390.39 683.635 390.39C683.082 390.44 682.566 390.737 682.193 391.22C681.819 391.703 681.615 392.335 681.622 392.989Z" fill="#263238" stroke="#263238" stroke-width="0.601381" stroke-linecap="round" stroke-linejoin="round"/>
<path d="M666.946 278.182L658.5 283.58L661.491 290.012L657.262 321.124C657.262 321.124 682.263 282.744 682.6 282.121C684.225 280.804 685.928 279.625 687.695 278.594L686.109 270.915L683.478 271.751L666.946 278.182Z" fill="#263238" stroke="#263238" stroke-width="0.601381" stroke-linecap="round" stroke-linejoin="round"/>
<path d="M658.027 235.347C658.027 235.347 656.509 240.877 656.509 241.619C656.588 242.622 656.716 243.618 656.891 244.603C656.891 244.603 652.213 252.361 652.46 252.799C652.708 253.237 655.497 256.685 655.497 256.685C655.497 256.685 655.744 268.315 657.015 268.474C658.286 268.634 666.507 268.62 666.507 268.62L665.742 285.622L684.591 272.798L684.973 257.878C684.973 257.878 690.034 250.266 690.034 246.394C690.034 242.521 689.528 241.765 689.528 241.765L658.027 235.347Z" fill="white" stroke="#263238" stroke-width="0.601381" stroke-linecap="round" stroke-linejoin="round"/>
<path d="M689.528 241.752L669.386 237.654L669.543 239.365L668.778 247.574C668.778 247.574 674.087 243.251 675.099 242.654C676.111 242.057 678.135 246.235 676.999 248.768C675.864 251.301 672.062 254.735 672.062 254.735C672.062 254.735 676.246 259.801 680.542 260.04C682.014 260.149 683.491 260.006 684.928 259.616V257.799C684.928 257.799 689.989 250.187 689.989 246.314C689.989 242.442 689.528 241.752 689.528 241.752Z" fill="#263238" stroke="#263238" stroke-width="0.601381" stroke-linecap="round" stroke-linejoin="round"/>
<path d="M657.768 241.155C658.374 240.731 659.088 240.573 659.784 240.709C660.479 240.844 661.111 241.266 661.569 241.898" stroke="#263238" stroke-width="0.601381" stroke-miterlimit="10"/>
<path d="M659.038 246.977C659.386 246.977 659.668 246.176 659.668 245.187C659.668 244.198 659.386 243.396 659.038 243.396C658.691 243.396 658.409 244.198 658.409 245.187C658.409 246.176 658.691 246.977 659.038 246.977Z" fill="#263238"/>
<path d="M662.964 268.302L670.679 267.254L666.506 273.076V268.607L662.964 268.302Z" fill="#263238" stroke="#263238" stroke-width="0.601381" stroke-miterlimit="10"/>
<path d="M677.887 243.993L684.928 259.682L688.257 255.928L681.936 243.542L677.887 243.993Z" fill="white" stroke="#263238" stroke-width="0.601381" stroke-linecap="round" stroke-linejoin="round"/>
<path d="M655.541 231.766C655.541 231.766 646.623 233.092 647.725 233.57C648.827 234.047 694.869 250.73 694.869 250.73C694.448 249.024 694.14 247.281 693.947 245.518C693.947 244.192 695.792 235.745 695.072 227.058C694.352 218.372 678.765 213.518 671.038 212.656C663.312 211.794 659.432 216.131 658.667 220.905C657.944 224.642 656.897 228.282 655.541 231.766Z" fill="#00739F" stroke="#263238" stroke-width="0.601381" stroke-linecap="round" stroke-linejoin="round"/>
<path d="M668.317 236.316L660.186 232.868C660.186 232.868 664.91 220.203 664.741 218.664C664.645 217.709 664.592 216.748 664.583 215.786C664.583 215.786 664.741 213.293 671.905 214.261" stroke="#263238" stroke-width="0.601381" stroke-linecap="round" stroke-linejoin="round"/>
<path d="M437.585 308.924L437.585 289.024" stroke="#263238" stroke-width="0.601381" stroke-linecap="round" stroke-linejoin="round"/>
<path d="M433.148 271.714V279.709L429.691 285.233C429.689 286.118 429.876 286.995 430.243 287.814C430.609 288.632 431.147 289.376 431.826 290.002C432.504 290.628 433.31 291.124 434.198 291.462C435.085 291.8 436.035 291.973 436.995 291.972C437.954 291.972 438.903 291.797 439.788 291.458C440.674 291.119 441.478 290.623 442.155 289.997C442.832 289.371 443.369 288.628 443.734 287.811C444.1 286.993 444.287 286.117 444.285 285.233V279.709" stroke="#263238" stroke-width="1.80414" stroke-linecap="round" stroke-linejoin="round"/>
<path d="M425.617 271.341H440.227V256.372H425.617V271.341Z" fill="white" stroke="#263238" stroke-width="0.601381" stroke-linecap="round" stroke-linejoin="round"/>
<path d="M420.23 266.342H445.646V236.28H420.23V266.342Z" fill="white" stroke="#263238" stroke-width="0.601381" stroke-linecap="round" stroke-linejoin="round"/>
<path d="M412.656 260.61H452.951V251.386H412.656V260.61Z" fill="white" stroke="#263238" stroke-width="0.601381" stroke-linecap="round" stroke-linejoin="round"/>
<path d="M432.924 251.373H438.702L446.86 259.907L446.006 260.611H441.755L432.924 251.373Z" fill="#263238"/>
<path d="M449.779 251.373L452.952 254.673V260.611H452.847L444.016 251.373H449.779Z" fill="#263238"/>
<path d="M421.846 251.373H427.609L435.767 259.907L434.914 260.611H430.663L421.846 251.373Z" fill="#263238"/>
<path d="M412.641 253.362V251.373H416.518L424.676 259.907L423.823 260.611H419.571L412.641 253.362Z" fill="#263238"/>
<path d="M433.506 235.756V217.666" stroke="#263238" stroke-width="1.20276" stroke-linecap="round" stroke-linejoin="round"/>
<path d="M167.952 217.21H443.686V206.37L390.383 185.546H167.952" stroke="#263238" stroke-width="1.20276" stroke-linecap="round" stroke-linejoin="round"/>
<path d="M390.385 217.21V185.546L355.164 217.21V185.546L390.385 217.21Z" stroke="#263238" stroke-width="1.20276" stroke-linecap="round" stroke-linejoin="round"/>
<path d="M355.207 217.21V185.546L319.971 217.21V185.546L355.207 217.21Z" stroke="#263238" stroke-width="1.20276" stroke-linecap="round" stroke-linejoin="round"/>
<path d="M320.017 217.21V185.546L284.796 217.21V185.546L320.017 217.21Z" stroke="#263238" stroke-width="1.20276" stroke-linecap="round" stroke-linejoin="round"/>
<path d="M284.84 217.21V185.546L249.605 217.21V185.546L284.84 217.21Z" stroke="#263238" stroke-width="1.20276" stroke-linecap="round" stroke-linejoin="round"/>
<path d="M249.651 217.21V185.546L214.431 217.21V185.546L249.651 217.21Z" stroke="#263238" stroke-width="1.20276" stroke-linecap="round" stroke-linejoin="round"/>
<path d="M214.475 217.21V185.546L179.24 217.21V185.546L214.475 217.21Z" stroke="#263238" stroke-width="1.20276" stroke-linecap="round" stroke-linejoin="round"/>
<path d="M523.508 309.3H342.147C335.964 309.3 330.952 313.923 330.952 319.627V543.218C330.952 548.922 335.964 553.545 342.147 553.545H523.508C529.691 553.545 534.702 548.922 534.702 543.218V319.627C534.702 313.923 529.691 309.3 523.508 309.3Z" fill="#263238"/>
<path d="M524.95 323.745H340.702V541.958H524.95V323.745Z" fill="white" stroke="#263238" stroke-width="0.601381" stroke-linecap="round" stroke-linejoin="round"/>
<path d="M480.003 386.164H505.933" stroke="#263238" stroke-width="0.601381" stroke-linecap="round" stroke-linejoin="round"/>
<path d="M405.402 386.164H473.831" stroke="#263238" stroke-width="0.601381" stroke-linecap="round" stroke-linejoin="round"/>
<path d="M373.508 386.164H400.777" stroke="#263238" stroke-width="0.601381" stroke-linecap="round" stroke-linejoin="round"/>
<path d="M359.721 386.164H366.823" stroke="#263238" stroke-width="0.601381" stroke-linecap="round" stroke-linejoin="round"/>
<path d="M480.515 409.524H505.933" stroke="#263238" stroke-width="0.601381" stroke-linecap="round" stroke-linejoin="round"/>
<path d="M438.33 409.524H475.379" stroke="#263238" stroke-width="0.601381" stroke-linecap="round" stroke-linejoin="round"/>
<path d="M375.056 409.524H432.671" stroke="#263238" stroke-width="0.601381" stroke-linecap="round" stroke-linejoin="round"/>
<path d="M359.721 409.524H368.361" stroke="#263238" stroke-width="0.601381" stroke-linecap="round" stroke-linejoin="round"/>
<path d="M466.112 432.895H505.934" stroke="#263238" stroke-width="0.601381" stroke-linecap="round" stroke-linejoin="round"/>
<path d="M380.715 432.895H458.914" stroke="#263238" stroke-width="0.601381" stroke-linecap="round" stroke-linejoin="round"/>
<path d="M359.721 432.895H374.533" stroke="#263238" stroke-width="0.601381" stroke-linecap="round" stroke-linejoin="round"/>
<path d="M496.467 456.256H505.934" stroke="#263238" stroke-width="0.601381" stroke-linecap="round" stroke-linejoin="round"/>
<path d="M386.886 456.256H486.697" stroke="#263238" stroke-width="0.601381" stroke-linecap="round" stroke-linejoin="round"/>
<path d="M359.721 456.256H379.679" stroke="#263238" stroke-width="0.601381" stroke-linecap="round" stroke-linejoin="round"/>
<path d="M494.928 479.626H505.933" stroke="#263238" stroke-width="0.601381" stroke-linecap="round" stroke-linejoin="round"/>
<path d="M409.01 479.626H486.697" stroke="#263238" stroke-width="0.601381" stroke-linecap="round" stroke-linejoin="round"/>
<path d="M359.721 479.626H402.315" stroke="#263238" stroke-width="0.601381" stroke-linecap="round" stroke-linejoin="round"/>
<path d="M456.341 502.986H505.933" stroke="#263238" stroke-width="0.601381" stroke-linecap="round" stroke-linejoin="round"/>
<path d="M359.721 502.986H446.561" stroke="#263238" stroke-width="0.601381" stroke-linecap="round" stroke-linejoin="round"/>
<path d="M457.092 304.369C456.191 304.361 455.31 304.127 454.542 303.693C453.773 303.259 453.147 302.641 452.73 301.905C452.313 301.168 452.12 300.341 452.173 299.512C452.225 298.682 452.521 297.881 453.028 297.195C454.688 294.746 455.604 291.93 455.679 289.042C455.754 286.154 454.987 283.301 453.456 280.781C451.926 278.261 449.689 276.167 446.981 274.718C444.272 273.27 441.191 272.52 438.06 272.547C434.929 272.574 431.863 273.377 429.184 274.872C426.505 276.367 424.312 278.5 422.833 281.045C421.354 283.591 420.644 286.457 420.778 289.343C420.912 292.229 421.884 295.029 423.594 297.449C424.053 298.141 424.303 298.933 424.318 299.744C424.334 300.555 424.113 301.355 423.68 302.061C423.247 302.768 422.617 303.354 421.856 303.759C421.094 304.165 420.229 304.376 419.35 304.369H388.966L397.17 326.109H479.215L487.418 304.369H457.092ZM438.197 295.11C436.987 295.112 435.803 294.782 434.796 294.163C433.789 293.544 433.004 292.663 432.54 291.632C432.076 290.601 431.954 289.466 432.19 288.371C432.425 287.276 433.008 286.27 433.864 285.48C434.719 284.691 435.81 284.153 436.997 283.936C438.184 283.719 439.414 283.831 440.532 284.259C441.65 284.687 442.604 285.412 443.276 286.341C443.947 287.27 444.304 288.361 444.302 289.478C444.302 290.972 443.659 292.404 442.514 293.46C441.369 294.517 439.816 295.11 438.197 295.11Z" fill="white" stroke="#263238" stroke-width="0.601381" stroke-linecap="round" stroke-linejoin="round"/>
<circle cx="747" cy="561" r="4" fill="#584AB1"/>
<circle cx="501" cy="213" r="4" fill="#DA7B07"/>
<circle cx="34" cy="137" r="4" fill="#DA7B07"/>
<circle cx="95.5" cy="509.5" r="6.5" fill="#DA7B07"/>
<circle cx="95.5" cy="509.5" r="6.5" fill="#0090C7"/>
<circle cx="732.5" cy="90.5" r="6.5" fill="#0090C7"/>
</svg>
