<svg width="771" height="731" viewBox="0 0 771 731" fill="none" xmlns="http://www.w3.org/2000/svg">
<g filter="url(#filter0_f_44_124473)">
<ellipse cx="687" cy="254" rx="262" ry="230" fill="#F5FCFF"/>
</g>
<g filter="url(#filter1_f_44_124473)">
<ellipse cx="344" cy="556" rx="262" ry="230" fill="#F5FCFF"/>
</g>
<path fill-rule="evenodd" clip-rule="evenodd" d="M482.982 380.889C499.203 375.219 512.894 363.992 521.632 349.196C528.64 336.644 531.882 320.274 526.443 299.511C514.78 255.657 482.747 239.81 434.029 259.292C422.183 264.025 398.57 277.937 391.692 302.858C385.965 323.516 393.575 344.463 405.107 362.532C423.072 390.748 451.759 391.428 482.982 380.889ZM393.235 303.407C399.72 278.878 422.732 264.888 434.369 260.233C478.484 242.608 512.531 253.8 524.456 300.164C529.686 320.169 526.522 335.99 519.723 348.124C511.25 362.451 497.987 373.324 482.276 378.824C452.046 389.048 424.301 388.682 406.833 361.538C395.536 344.044 387.874 323.543 393.235 303.407Z" fill="#002330"/>
<path fill-rule="evenodd" clip-rule="evenodd" d="M463.468 276.551C483.787 282.199 495.606 300.582 501.15 321.006C501.273 321.642 501.528 322.246 501.898 322.778C502.269 323.311 502.746 323.76 503.3 324.097C503.854 324.434 504.472 324.652 505.115 324.736C505.758 324.82 506.411 324.769 507.033 324.586C507.655 324.403 508.232 324.092 508.727 323.674C509.222 323.255 509.624 322.737 509.907 322.154C510.191 321.57 510.349 320.934 510.372 320.286C510.395 319.638 510.282 318.993 510.041 318.391C502.615 295.012 488.624 276.812 464.253 273.02C464.005 272.939 463.744 272.91 463.485 272.936C463.226 272.962 462.976 273.042 462.75 273.171C462.524 273.3 462.328 273.475 462.174 273.685C462.02 273.895 461.912 274.135 461.856 274.389C461.801 274.643 461.8 274.906 461.853 275.161C461.906 275.416 462.012 275.657 462.164 275.868C462.316 276.079 462.51 276.256 462.735 276.387C462.96 276.518 463.209 276.601 463.468 276.629V276.551ZM471.025 208.194C471.058 208.304 471.112 208.407 471.184 208.496C471.256 208.585 471.345 208.659 471.446 208.713C471.547 208.768 471.657 208.802 471.771 208.814C471.885 208.826 472.001 208.815 472.111 208.783C472.22 208.75 472.323 208.696 472.412 208.624C472.501 208.552 472.575 208.463 472.63 208.362C472.684 208.261 472.718 208.151 472.73 208.037C472.742 207.923 472.732 207.807 472.699 207.698C468.306 188.66 470.607 197.97 465.717 179.456C465.636 179.177 465.502 178.918 465.321 178.692C465.139 178.466 464.916 178.277 464.662 178.138C464.408 177.998 464.13 177.91 463.842 177.878C463.554 177.846 463.262 177.871 462.984 177.952C462.706 178.033 462.447 178.167 462.22 178.348C461.994 178.529 461.806 178.753 461.666 179.007C461.527 179.261 461.439 179.539 461.407 179.827C461.375 180.115 461.4 180.406 461.481 180.685C467.155 198.99 464.226 189.785 471.025 208.194ZM313.89 287.9C332.483 292.371 323.016 290.149 342.394 293.862C342.604 293.883 342.816 293.828 342.99 293.708C343.164 293.587 343.29 293.407 343.343 293.202C343.397 292.997 343.376 292.78 343.283 292.589C343.19 292.398 343.032 292.247 342.838 292.162C324.219 286.121 333.424 288.972 315.014 283.637C314.449 283.488 313.848 283.57 313.343 283.864C312.838 284.158 312.47 284.641 312.321 285.206C312.172 285.771 312.253 286.373 312.548 286.878C312.842 287.383 313.325 287.751 313.89 287.9ZM490.272 206.835C492.181 187.301 491.684 197.002 492.651 177.808C492.615 177.259 492.375 176.744 491.98 176.361C491.585 175.978 491.062 175.755 490.513 175.736C489.963 175.716 489.425 175.901 489.004 176.255C488.583 176.609 488.308 177.106 488.232 177.651C487.84 196.95 488.023 187.144 488.52 206.782C488.549 206.99 488.651 207.181 488.807 207.321C488.963 207.461 489.164 207.541 489.374 207.548C489.583 207.554 489.789 207.486 489.953 207.355C490.117 207.225 490.23 207.04 490.272 206.835ZM352.827 272.628C352.997 272.779 353.217 272.859 353.444 272.852C353.671 272.845 353.886 272.752 354.047 272.592C354.207 272.432 354.3 272.216 354.307 271.99C354.313 271.763 354.233 271.542 354.083 271.373C341.269 256.781 347.754 263.528 334.522 249.799C334.106 249.384 333.542 249.151 332.953 249.151C332.365 249.151 331.801 249.384 331.384 249.799C331.18 250.003 331.017 250.246 330.906 250.513C330.795 250.78 330.738 251.066 330.738 251.355C330.738 251.644 330.795 251.93 330.906 252.197C331.017 252.464 331.18 252.707 331.384 252.911C345.035 266.221 338.34 259.71 352.827 272.628ZM252.385 229.35C251.915 227.127 249.77 226.735 247.6 226.735C246.833 226.781 246.093 227.035 245.46 227.469C244.826 227.904 244.323 228.502 244.003 229.2C243.684 229.899 243.56 230.671 243.645 231.434C243.731 232.198 244.022 232.923 244.488 233.534C247.495 237.012 254.634 234.318 252.385 229.35ZM246.135 230.03C246.32 229.668 246.586 229.355 246.913 229.115C247.24 228.874 247.618 228.713 248.018 228.644C249.535 228.251 251.025 228.225 251.679 229.637C252.542 234.24 244.279 233.848 246.135 230.03ZM252.647 288.083C251.774 287.661 250.837 287.387 249.875 287.272C247.761 287.135 245.642 287.438 243.651 288.161C242.788 288.553 242.187 288.919 241.794 289.129C240.801 289.73 241.193 290.253 241.794 290.201C243.763 290.109 245.721 289.864 247.652 289.469C247.914 289.469 251.784 288.946 252.438 288.946C252.55 288.967 252.665 288.944 252.761 288.882C252.857 288.821 252.925 288.724 252.952 288.614C252.979 288.503 252.962 288.386 252.905 288.287C252.849 288.188 252.756 288.115 252.647 288.083ZM270.873 286.592C270.755 286.616 270.652 286.687 270.586 286.787C270.52 286.888 270.496 287.01 270.52 287.128C270.545 287.246 270.615 287.35 270.715 287.416C270.816 287.482 270.938 287.506 271.056 287.481H274.377C278.509 287.481 275.789 287.795 281.333 287.481C281.43 287.457 281.515 287.402 281.576 287.324C281.638 287.245 281.671 287.149 281.671 287.05C281.671 286.95 281.638 286.854 281.576 286.776C281.515 286.698 281.43 286.642 281.333 286.618C279.723 285.756 277.93 285.29 276.103 285.258C274.27 285.213 272.461 285.675 270.873 286.592ZM251.705 294.176C251.685 293.884 251.549 293.613 251.328 293.422C251.107 293.231 250.82 293.135 250.529 293.156C250.237 293.177 249.966 293.312 249.775 293.533C249.584 293.754 249.488 294.041 249.509 294.333L249.692 296.791C249.702 296.935 249.741 297.076 249.805 297.205C249.87 297.334 249.96 297.45 250.069 297.544C250.178 297.639 250.305 297.711 250.442 297.757C250.579 297.803 250.724 297.821 250.869 297.81C251.013 297.8 251.154 297.762 251.283 297.697C251.412 297.632 251.527 297.543 251.622 297.433C251.717 297.324 251.789 297.197 251.835 297.06C251.88 296.923 251.899 296.778 251.888 296.634L251.705 294.176ZM274.9 291.691C274.614 291.644 274.32 291.706 274.077 291.866C273.835 292.026 273.662 292.272 273.593 292.554C273.527 293.495 273.527 294.438 273.593 295.379C273.634 295.644 273.768 295.886 273.972 296.061C274.176 296.236 274.436 296.332 274.704 296.332C274.973 296.332 275.233 296.236 275.436 296.061C275.64 295.886 275.775 295.644 275.816 295.379V292.999C275.846 292.853 275.846 292.702 275.815 292.555C275.785 292.409 275.725 292.27 275.64 292.148C275.554 292.026 275.444 291.922 275.317 291.844C275.19 291.765 275.048 291.713 274.9 291.691ZM257.772 321.502C258.906 322.362 260.2 322.988 261.578 323.343C262.957 323.697 264.392 323.774 265.8 323.568C267.156 323.331 268.464 322.872 269.67 322.208C269.73 322.198 269.787 322.175 269.836 322.141C269.886 322.107 269.928 322.063 269.959 322.011C269.99 321.959 270.01 321.902 270.016 321.842C270.023 321.782 270.016 321.721 269.997 321.664C269.978 321.606 269.947 321.554 269.906 321.51C269.864 321.466 269.814 321.431 269.758 321.408C269.702 321.386 269.642 321.375 269.582 321.378C269.522 321.381 269.463 321.396 269.409 321.424C266.995 321.841 264.527 321.841 262.113 321.424C259.801 320.718 257.681 319.493 255.915 317.841C255.602 317.397 254.922 317.841 255.262 318.312C255.882 319.529 256.735 320.613 257.772 321.502ZM336.928 474.035C337.739 474.035 334.104 439.125 329.789 409.393C329.345 406.255 328.769 407.274 328.796 407.536C330.94 434.627 335.228 466.949 336.641 473.617C336.649 473.705 336.68 473.79 336.73 473.863C336.78 473.937 336.849 473.996 336.928 474.035Z" fill="#002330"/>
<path fill-rule="evenodd" clip-rule="evenodd" d="M626.699 457.299C622.175 448.565 608.603 432.744 592.207 415.198C601.516 410.255 607.583 406.228 608.629 403.822C609.335 402.201 607.008 400.58 605.543 399.586C598.221 394.565 576.988 384.576 550.864 372.861C546.471 368.494 542.208 364.31 538.233 360.387C550.89 339.99 552.407 317.03 546.314 293.809C530.284 233.167 485.384 218.68 426.468 242.189C411.092 248.308 380.496 266.273 371.553 298.307C368.644 308.744 368.126 319.702 370.036 330.367C353.039 336.878 331.256 345.246 303.589 355.236C296.764 351.81 293.992 351.156 294.045 350.79C294.087 350.581 294.073 350.364 294.005 350.162C293.936 349.959 293.814 349.779 293.652 349.64C288.422 346.397 279.741 345.377 278.407 346.502C277.729 346.996 277.145 347.607 276.681 348.306L272.837 335.858C275.217 334.865 281.074 331.491 285.206 321.267C288.177 313.146 289.63 304.548 289.494 295.901C290.608 294.206 291.146 292.196 291.028 290.171C290.911 288.146 290.144 286.212 288.841 284.657C288.841 284.029 288.658 283.428 288.579 282.8C289.131 280.911 289.567 278.989 289.887 277.047C289.887 273.988 290.619 269.202 289.207 266.326C289.021 264.955 289.021 263.565 289.207 262.194C289.207 257.748 283.611 255.735 279.61 251.969C279.61 248.962 279.845 245.667 279.871 242.974C287.824 240.734 295.61 237.938 303.171 234.606C304.531 233.9 306.623 232.749 306.649 231.311C306.649 225.166 252.963 210.966 246.347 212.509C246.112 211.777 196.505 229.794 188.817 237.482C188.648 237.637 188.513 237.824 188.421 238.034C188.329 238.243 188.281 238.469 188.281 238.698C188.281 238.927 188.329 239.153 188.421 239.363C188.513 239.572 188.648 239.76 188.817 239.914C188.013 243.805 188.156 247.832 189.235 251.656C188.427 251.717 187.654 252.01 187.008 252.501C186.363 252.991 185.872 253.657 185.596 254.419C185.32 255.182 185.27 256.007 185.451 256.797C185.633 257.587 186.039 258.308 186.62 258.873C184.005 262.508 184.398 270.196 186.333 274.145C186.337 274.211 186.356 274.275 186.388 274.333C186.42 274.391 186.465 274.441 186.519 274.479C186.573 274.518 186.635 274.543 186.701 274.555C186.766 274.566 186.833 274.563 186.897 274.545C186.961 274.527 187.02 274.495 187.069 274.451C187.119 274.407 187.159 274.353 187.185 274.292C187.211 274.231 187.223 274.165 187.221 274.099C187.218 274.033 187.2 273.968 187.17 273.909C186.883 269.105 187.006 264.284 187.536 259.5C188.05 259.76 188.609 259.919 189.183 259.971C188.128 264.523 188.419 269.284 190.02 273.674C190.044 273.77 190.099 273.856 190.177 273.917C190.256 273.978 190.352 274.011 190.451 274.011C190.551 274.011 190.647 273.978 190.725 273.917C190.803 273.856 190.859 273.77 190.883 273.674C191.301 266.352 190.491 266.639 190.412 260.102C193.969 259.71 190.229 256.833 194.099 273.177C194.083 273.242 194.082 273.311 194.096 273.377C194.11 273.443 194.139 273.505 194.181 273.558C194.222 273.611 194.275 273.654 194.336 273.684C194.397 273.713 194.463 273.729 194.531 273.729C194.598 273.729 194.665 273.713 194.726 273.684C194.786 273.654 194.839 273.611 194.881 273.558C194.922 273.505 194.951 273.443 194.966 273.377C194.98 273.311 194.978 273.242 194.962 273.177C195.367 268.376 194.78 263.542 193.236 258.977C193.621 258.648 193.94 258.248 194.178 257.801C195.93 259.37 195.538 264.835 197.708 273.203C197.732 273.299 197.787 273.385 197.866 273.446C197.944 273.507 198.04 273.541 198.139 273.541C198.239 273.541 198.335 273.507 198.413 273.446C198.492 273.385 198.547 273.299 198.571 273.203C198.571 268.784 198.728 258.298 194.492 256.885C194.597 256.284 194.572 255.667 194.417 255.077C194.262 254.486 193.981 253.936 193.593 253.464C193.206 252.992 192.721 252.61 192.172 252.343C191.623 252.076 191.023 251.93 190.412 251.917C190.652 248.539 190.652 245.149 190.412 241.771C190.229 240.228 189.026 242.765 214.732 247.419C214.915 250.322 215.228 254.715 215.621 258.664C213.13 261.284 211.073 264.286 209.528 267.555C207.122 273.203 209.528 278.433 211.306 283.794C211.672 284.84 211.751 286.017 212.012 287.115C212.43 289.05 213.084 289.024 212.901 290.959C212.718 292.894 211.489 295.561 212.274 297.81C213.661 300.542 215.422 303.067 217.504 305.315C218.947 306.938 219.86 308.964 220.119 311.121C220.119 313.108 224.355 315.801 225.61 315.906L227.231 320.142C228.617 323.699 238.057 332.537 240.882 335.126C241.169 337.427 241.771 342.971 241.901 346.842C240.978 346.56 240.033 346.35 239.077 346.214C227.101 346.031 170.434 368.18 150.586 404.372C120.226 459.914 145.957 497.57 146.062 497.832C128.907 514.96 118.761 555.283 159.581 572.934C174.743 579.241 190.649 583.582 206.913 585.853C206.677 590.376 206.364 609.204 210.861 609.387C212.404 609.387 213.633 607.479 214.444 605.988C217.03 600.541 219.138 594.88 220.746 589.069C228.591 588.546 228.33 588.677 228.591 588.284C267.541 591.231 306.713 588.385 344.828 579.838C345.142 579.838 345.142 579.969 345.665 577.668L350.424 576.857C376.574 618.069 366.951 569.718 358.923 558.133C358.011 556.456 356.482 555.199 354.66 554.629C360.552 551.369 366.23 547.736 371.658 543.751C386.824 553.105 402.543 561.532 418.728 568.986C430.6 574.216 594.979 510.279 600.889 496.498C601.595 494.877 599.267 493.255 597.829 492.262C594.047 489.831 590.126 487.622 586.088 485.646L586.402 483.266C611.898 500.97 633.367 470.191 626.699 457.299ZM192.923 254.558C193.916 259.134 185.653 258.768 187.379 254.95C187.56 254.584 187.825 254.266 188.152 254.021C188.479 253.775 188.859 253.61 189.262 253.538C190.778 253.172 192.269 253.146 192.923 254.558ZM547.909 447.414C511.586 461.902 459.6 480.311 431.071 486.247C431.006 486.248 430.943 486.263 430.884 486.291C430.826 486.319 430.775 486.36 430.734 486.409C430.693 486.459 430.663 486.517 430.647 486.58C430.631 486.642 430.628 486.708 430.64 486.771C430.652 486.835 430.677 486.895 430.714 486.948C430.751 487 430.799 487.044 430.855 487.077C430.911 487.109 430.973 487.129 431.038 487.134C431.102 487.14 431.167 487.132 431.227 487.11C462.137 481.383 512.711 464.15 549.321 448.879C551.727 451.363 554.106 453.821 556.434 456.175C520.347 471.682 462.686 493.517 432.195 500.368C432.132 500.373 432.071 500.392 432.016 500.423C431.961 500.453 431.913 500.495 431.875 500.546C431.838 500.597 431.811 500.655 431.798 500.716C431.785 500.778 431.784 500.842 431.797 500.903C431.811 500.965 431.837 501.023 431.874 501.074C431.911 501.125 431.959 501.167 432.014 501.198C432.069 501.229 432.13 501.248 432.192 501.254C432.255 501.26 432.319 501.252 432.378 501.231C465.641 494.484 521.288 474.087 557.741 457.482L561.167 460.934C518.176 479.553 433.503 515.221 421.709 516.843C419.094 502.382 422.938 484.495 428.299 476.729C440.511 476.964 494.301 458.057 540.038 439.125C542.688 441.844 545.311 444.608 547.909 447.414ZM422.598 532.323C414.23 528.741 404.293 523.694 393.31 517.706C393.971 515.814 394.478 513.873 394.827 511.9C404.031 516.712 413.132 521.236 422.441 525.289C430.992 529.055 522.726 495.321 572.568 471.891C574.137 473.329 575.628 474.689 577.066 475.944C528.95 499.035 430.992 535.801 422.598 532.193V532.323ZM578.844 477.408C580.832 479.082 582.662 480.573 584.31 481.828C583.99 485.902 583.218 489.927 582.008 493.831C573.64 498.015 428.377 560.775 417.263 560.775C415.067 551.204 418.179 542.339 423.801 534.337C442.629 534.651 539.959 496.341 578.844 477.382V477.408ZM280.133 435.516C280.719 435.129 281.27 434.692 281.78 434.209C284.108 431.907 283.035 429.292 280.682 428.979C282.905 426.547 281.597 423.095 276.942 424.167C274.352 424.815 272.007 426.205 270.196 428.168C269.385 425.971 268.627 423.539 267.032 422.729C266.012 410.7 265.306 400.841 265.515 398.645C267.713 398.418 269.932 398.506 272.105 398.906C353.484 402.698 309.342 413.838 364.336 381.621C365.852 387.348 367.369 395.899 368.781 405.339C366.586 404.689 364.284 404.484 362.008 404.738C357.249 405.156 357.092 408.843 359.943 410.412C359.436 410.625 359.008 410.992 358.722 411.462C358.436 411.931 358.305 412.479 358.347 413.027C358.557 414.936 360.675 415.825 362.531 416.348C360.57 417.813 359.786 420.48 362.27 421.866C365.052 423.19 368.158 423.681 371.213 423.278C372.678 435.072 373.828 446.316 374.534 453.481C369.043 459.47 347.312 481.409 339.598 484.024C337.244 484.835 274.615 476.781 272.131 476.441C271.869 473.826 270.562 460.62 269.176 445.793C274.615 444.956 282.251 442.681 283.009 439.308C283.375 437.556 281.833 436.091 280.133 435.516ZM370.246 418.126C371.579 418.126 372.547 415.511 367.317 415.511C365.539 414.988 363.865 414.858 362.087 414.178C358.034 412.583 362.427 411.563 366.611 412.504C369.226 413.367 370.141 410.935 367.186 410.386C366.794 410.386 358.269 408.739 360.387 407.431C360.944 407.147 361.545 406.961 362.165 406.882C365.2 406.332 368.331 406.928 370.952 408.556C373.881 410.7 373.044 417.865 372.05 421.631C371.71 422.598 370.743 422.833 369.592 422.807C367.307 422.573 365.083 421.926 363.028 420.898C362.165 420.375 362.191 419.878 362.531 419.277C364.231 416.034 368.415 418.205 370.324 418.126H370.246ZM376.417 454.736C376.914 454.213 376.705 453.873 376.234 449.506C392.27 459.328 408.859 468.216 425.919 476.127C418.309 487.921 416.557 509.73 420.689 522.046C409.863 517.156 403.901 514.202 395.036 509.181C397.311 488.653 382.719 468.125 368.467 462.738C372.024 459.365 374.848 456.462 376.496 454.736H376.417ZM423.67 523.38C422.912 521.7 422.325 519.948 421.918 518.15C436.484 516.294 520.765 480.703 562.762 462.529C565.534 465.144 568.227 467.759 570.79 470.374C522.256 492.785 434.235 525.577 423.749 523.38H423.67ZM372.965 298.726C381.647 267.11 411.641 249.041 426.808 243C484.652 219.936 528.793 234.501 544.326 294.332C551.099 320.299 546.941 340.905 537.893 356.7C525.211 378.98 503.035 391.689 488.914 396.448C449.506 409.785 413.079 409.523 390.381 374.273C375.633 351.47 365.748 324.902 372.965 298.726ZM370.193 331.988C373.534 347.491 379.799 362.215 388.655 375.371C401.26 394.958 417.786 403.326 434.313 405.888C455.39 409.157 476.519 402.959 489.62 398.54C493.025 397.373 496.353 395.993 499.584 394.408C510.488 406.83 524.478 422.415 538.364 437.216C534.651 438.785 530.868 440.354 527.015 441.923C481.802 460.228 433.058 476.99 427.227 474.48C409.657 466.477 392.577 457.44 376.077 447.414C376.077 447.414 374.874 436.222 372.939 421.892C374.351 417.394 375.737 410.151 372.102 407.196C371.665 406.834 371.192 406.519 370.69 406.254C369.477 397.562 367.774 388.945 365.591 380.444C365.562 380.344 365.513 380.251 365.445 380.172C365.378 380.093 365.295 380.029 365.201 379.984C365.107 379.94 365.004 379.916 364.9 379.914C364.796 379.912 364.693 379.932 364.597 379.974C364.283 379.974 362.741 381.046 360.466 382.589L353.771 380.287C353.405 380.157 353.771 379.738 341.742 387.034C332.103 373.879 319.474 363.204 304.897 355.889C331.727 346.449 353.353 338.343 370.193 331.988ZM327.909 395.768C328.17 395.768 353.144 380.758 353.51 380.889L359.498 383.007C314.311 411.772 344.305 400.946 273.203 397.128C277.492 393.885 278.433 393.205 278.59 393.049C281.414 391.244 326.654 395.507 327.909 395.768ZM286.775 284.657C287.302 288.328 287.512 292.037 287.402 295.744C285.242 297.872 282.353 299.097 279.322 299.17C274.824 299.405 269.908 298.856 268.261 294.646C263.449 282.8 280.865 280.054 286.775 284.657ZM282.748 278.485C283.977 280.368 285.075 281.833 285.755 282.722C279.976 280.421 264.704 281.728 266.09 292.266C264.109 291.875 262.056 292.066 260.18 292.816C258.742 281.65 238.502 284.134 235.809 291.874C235.18 291.448 234.469 291.157 233.721 291.022C232.974 290.887 232.206 290.91 231.468 291.09C231.023 286.252 231.625 279.375 235.495 277.492C236.593 276.943 238.659 279.924 240.385 280.368C244.302 281.375 248.369 281.659 252.388 281.205C256.991 280.806 261.567 280.134 266.09 279.191C272.523 277.649 272 276.21 276.419 273.543C276.916 273.255 278.511 272.366 279.034 272.602C281.597 273.909 280.813 275.557 282.748 278.485ZM258.742 294.437C258.585 299.667 253.747 302.491 248.727 302.753C244.229 303.014 239.313 302.439 237.665 298.255C236.958 296.974 236.641 295.514 236.752 294.055C236.864 292.597 237.399 291.202 238.293 290.044C243.209 284.291 259.213 283.951 258.742 294.437ZM218.027 266.038C216.719 259.874 215.845 253.627 215.412 247.341C231.363 250.191 248.805 252.257 250.819 251.525C253.224 250.662 265.306 247.367 277.544 243.68C277.413 251.917 276.916 257.225 276.864 258.899C257.025 258.714 237.246 261.114 218.027 266.038ZM190.177 238.685C197.002 232.305 239.496 214.889 246.399 213.346C252.597 212.064 297.889 225.139 304.374 231.311C299.928 235.887 255.133 247.655 250.113 249.433C247.419 250.4 195.956 243.261 190.177 238.685ZM233.507 325.738C230.128 322.761 227.707 318.847 226.551 314.494C226.342 311.879 224.512 305.629 222.655 304.766C220.36 302.979 218.388 300.812 216.824 298.359C214.418 294.725 214.653 290.253 218.68 288.187C225.453 284.735 227.205 293.94 228.748 295.535C229.637 296.424 232.069 295.248 231.677 292.58C232.871 293.074 234.15 293.332 235.442 293.339C235.277 295.162 235.545 297 236.227 298.699C238.11 303.668 243.497 304.583 248.805 304.322C255.003 303.982 260.416 300.216 260.285 294.097C261.541 294.385 262.846 294.385 264.103 294.097C264.521 295.483 267.685 307.93 266.535 308.793C265.997 309.186 265.407 309.503 264.783 309.735C261.775 310.964 260.991 310.519 261.069 311.173C261.072 311.22 261.085 311.266 261.107 311.308C261.129 311.35 261.159 311.387 261.196 311.416C261.233 311.446 261.276 311.467 261.322 311.48C261.367 311.492 261.415 311.494 261.462 311.487C264.077 311.487 268.836 310.781 268.705 308.296C268.501 303.288 267.244 298.379 265.018 293.888C265.461 293.745 265.89 293.561 266.299 293.339C267.79 299.641 272.837 301.053 279.374 300.713C282.209 300.603 284.944 299.636 287.219 297.941C287.125 305.607 285.7 313.199 283.009 320.378C278.224 332.198 271.033 334.028 271.033 334.028C270.889 334.061 270.754 334.123 270.635 334.211C270.517 334.298 270.418 334.41 270.344 334.537C270.271 334.665 270.224 334.806 270.208 334.952C270.191 335.099 270.205 335.247 270.248 335.388L274.903 350.503C270.64 356.779 272 356.439 271.006 356.02C267.476 354.556 251.655 349.561 243.654 347.312C243.466 343.058 243.064 338.817 242.451 334.603C242.424 333.74 240.725 333.244 233.507 325.738ZM223.047 353.065C229.193 358.295 257.042 374.874 265.253 377.725C266.063 378.128 266.987 378.238 267.868 378.038C268.731 377.646 268.339 378.745 271.896 358.635C273.229 360.152 276.681 363.865 285.546 373.044C285.674 373.186 285.836 373.294 286.018 373.356C286.199 373.418 286.393 373.433 286.582 373.399C286.771 373.365 286.947 373.283 287.096 373.161C287.244 373.04 287.358 372.882 287.429 372.704C289.713 366.386 291.634 359.943 293.182 353.405C294.065 353.596 294.937 353.832 295.797 354.111C295.326 365.879 295.457 388.812 284.578 391.741C282.464 391.615 280.342 391.72 278.25 392.055C261.226 391.009 241.64 376.809 230.029 365.068C226.316 361.381 222.603 358.112 219.151 354.32L223.047 353.065ZM179.115 448.696C200.323 429.659 231.232 425.501 259.265 431.332C260.546 431.724 260.18 431.568 261.54 435.595C262.997 434.506 264.337 433.27 265.541 431.907C266.456 431.045 264.443 428.639 264.626 425.448C264.626 424.821 264.783 424.272 265.384 424.167C267.999 423.723 267.999 430.286 269.49 430.835C270.98 431.384 271.033 429.345 274.38 427.41C286.252 420.48 272.262 432.091 272.262 432.404C272.254 432.557 272.279 432.71 272.334 432.853C272.389 432.996 272.474 433.126 272.582 433.235C272.69 433.343 272.82 433.427 272.963 433.483C273.106 433.538 273.259 433.562 273.412 433.555C274.615 433.555 274.929 432.221 278.642 431.332C279.244 431.175 280.603 430.94 280.708 431.541C280.97 432.797 276.21 435.176 275.086 435.935C270.013 437.687 271.765 439.805 273.046 439.465C275.112 438.942 276.89 436.562 279.374 437.347C280.028 437.556 281.126 438.236 280.996 438.916C280.865 439.596 279.845 440.354 279.27 440.798C274.877 444.067 265.123 445.113 264.861 445.244C265.07 447.65 266.979 450.971 266.509 451.991C259.065 467.345 248.873 481.206 236.436 492.889C236.148 493.02 225.976 502.826 223.936 502.486C221.897 502.146 224.669 501.754 230.788 496.446C244.78 483.736 256.19 468.447 264.39 451.415C263.606 448.8 259.16 436.118 258.376 433.424C243.483 430.309 228.107 430.309 213.215 433.424C184.79 439.674 174.591 455.39 173.205 455.626C171.48 455.678 177.782 450.029 179.246 448.696H179.115ZM211.044 607.112C209.371 604.864 208.613 595.24 208.952 586.192C212.038 586.637 215.098 587.003 218.183 587.343C218.654 588.467 218.523 588.363 218.759 588.624C217.765 592.128 213.816 604.314 211.175 607.112H211.044ZM344.409 578.792C322.458 582.985 300.235 585.607 277.91 586.637C239.993 588.494 195.433 585.983 160.418 570.79C139.655 561.821 132.751 546.863 133.274 532.376C133.879 520.296 138.754 508.823 147.029 500.002C148.476 503.692 150.345 507.202 152.599 510.462C155.554 513.914 205.135 516.215 255.081 516.32C258.446 513.021 261.999 509.922 265.724 507.036C283.428 513.679 291.874 517.496 350.006 553.74L344.409 578.792ZM354.66 556.251C360.544 558.317 367.421 586.48 364.937 591.004C363.002 590.481 357.38 583.76 351.862 575.314C351.756 575.147 351.602 575.015 351.42 574.936C351.239 574.856 351.037 574.833 350.842 574.87L346.188 575.837C346.894 572.647 348.07 567.024 350.215 557.035C350.829 556.529 351.563 556.191 352.347 556.053C353.131 555.916 353.937 555.984 354.686 556.251H354.66ZM350.738 554.342C350.738 553.897 350.973 553.557 350.738 553.348C350.999 553.348 297.209 519.118 283.009 512.58C278.355 510.436 273.386 508.344 268.182 506.278C279.474 497.478 291.425 489.557 303.929 482.586C321.005 484.678 338.63 486.613 340.278 486.038C345.978 484.155 358.034 473.12 367.003 464.333C376.652 467.471 388.786 480.023 392.342 495.949C395.324 509.233 392.081 524.478 376.286 537.475C368.338 543.913 359.781 549.562 350.738 554.342ZM598.588 495.87C590.586 509.128 430.129 571.705 419.355 567.155C403.411 559.905 387.912 551.715 372.939 542.627C381.412 536.272 388.629 529.552 392.552 519.327C396.814 521.68 419.303 533.736 422.52 534.232C416.662 542.522 413.602 551.622 415.904 561.455C417.525 568.227 574.843 499.584 582.113 496.08C582.845 495.74 583.499 495.478 583.734 495.007C584.646 492.714 585.27 490.316 585.591 487.868C592.861 491.608 597.515 494.484 598.692 495.87H598.588ZM590.533 413.55C579.315 401.6 566.868 388.917 555.178 377.254C582.741 389.701 603.713 399.769 606.354 403.195C604.602 406.307 593.619 412.243 590.638 413.55H590.533Z" fill="#002330"/>
<path d="M629 152L631.694 160.292H640.413L633.359 165.416L636.053 173.708L629 168.584L621.947 173.708L624.641 165.416L617.587 160.292H626.306L629 152Z" fill="#DA7B07"/>
<path d="M658 526L660.694 534.292H669.413L662.359 539.416L665.053 547.708L658 542.584L650.947 547.708L653.641 539.416L646.587 534.292H655.306L658 526Z" fill="#02934D"/>
<path d="M12 225L14.6942 233.292H23.4127L16.3593 238.416L19.0534 246.708L12 241.584L4.94658 246.708L7.64074 238.416L0.587322 233.292H9.30583L12 225Z" fill="#02934D"/>
<path d="M81 590L83.6942 598.292H92.4127L85.3593 603.416L88.0534 611.708L81 606.584L73.9466 611.708L76.6407 603.416L69.5873 598.292H78.3058L81 590Z" fill="#DA7B07"/>
<defs>
<filter id="filter0_f_44_124473" x="350" y="-51" width="674" height="610" filterUnits="userSpaceOnUse" color-interpolation-filters="sRGB">
<feFlood flood-opacity="0" result="BackgroundImageFix"/>
<feBlend mode="normal" in="SourceGraphic" in2="BackgroundImageFix" result="shape"/>
<feGaussianBlur stdDeviation="37.5" result="effect1_foregroundBlur_44_124473"/>
</filter>
<filter id="filter1_f_44_124473" x="7" y="251" width="674" height="610" filterUnits="userSpaceOnUse" color-interpolation-filters="sRGB">
<feFlood flood-opacity="0" result="BackgroundImageFix"/>
<feBlend mode="normal" in="SourceGraphic" in2="BackgroundImageFix" result="shape"/>
<feGaussianBlur stdDeviation="37.5" result="effect1_foregroundBlur_44_124473"/>
</filter>
</defs>
</svg>
