<svg width="189" height="62" viewBox="0 0 189 62" fill="none" xmlns="http://www.w3.org/2000/svg">
<rect x="0.5" y="1.21973" width="188" height="60" rx="9.5" fill="#00ADEF" stroke="url(#paint0_linear_922_33757)"/>
<path d="M73.4255 45.2216L71.6981 40.7829H64.6538L62.9713 45.2216H60.6157L66.9421 29.3275H69.4771L75.8035 45.2216H73.4255ZM68.1535 31.6141L65.439 38.7429H70.9129L68.1535 31.6141ZM79.8053 49.4809H77.7189V34.4387H79.7604V36.12C80.0745 35.5521 80.5456 35.0888 81.1738 34.7301C81.8019 34.3714 82.5348 34.1921 83.3723 34.1921C84.9277 34.1921 86.1391 34.7227 87.0066 35.7838C87.889 36.8449 88.3302 38.1899 88.3302 39.8189C88.3302 41.4629 87.874 42.8229 86.9617 43.899C86.0644 44.975 84.8454 45.513 83.305 45.513C82.5123 45.513 81.8094 45.3486 81.1962 45.0198C80.583 44.691 80.1194 44.2726 79.8053 43.7644V49.4809ZM86.1765 39.8189C86.1765 38.7279 85.8849 37.8312 85.3016 37.1288C84.7333 36.4115 83.963 36.0528 82.9909 36.0528C82.0337 36.0528 81.256 36.4115 80.6578 37.1288C80.0745 37.8312 79.7829 38.7279 79.7829 39.8189C79.7829 40.9398 80.0745 41.8589 80.6578 42.5763C81.256 43.2787 82.0337 43.6299 82.9909 43.6299C83.9481 43.6299 84.7183 43.2787 85.3016 42.5763C85.8849 41.8589 86.1765 40.9398 86.1765 39.8189ZM93.1036 49.4809H91.0172V34.4387H93.0587V36.12C93.3728 35.5521 93.8439 35.0888 94.4721 34.7301C95.1002 34.3714 95.8331 34.1921 96.6706 34.1921C98.226 34.1921 99.4374 34.7227 100.305 35.7838C101.187 36.8449 101.629 38.1899 101.629 39.8189C101.629 41.4629 101.172 42.8229 100.26 43.899C99.3627 44.975 98.1438 45.513 96.6033 45.513C95.8106 45.513 95.1077 45.3486 94.4945 45.0198C93.8813 44.691 93.4177 44.2726 93.1036 43.7644V49.4809ZM99.4748 39.8189C99.4748 38.7279 99.1832 37.8312 98.5999 37.1288C98.0316 36.4115 97.2614 36.0528 96.2892 36.0528C95.332 36.0528 94.5543 36.4115 93.9561 37.1288C93.3728 37.8312 93.0812 38.7279 93.0812 39.8189C93.0812 40.9398 93.3728 41.8589 93.9561 42.5763C94.5543 43.2787 95.332 43.6299 96.2892 43.6299C97.2464 43.6299 98.0166 43.2787 98.5999 42.5763C99.1832 41.8589 99.4748 40.9398 99.4748 39.8189ZM120.289 32.9367L118.315 33.6317C118.21 32.9442 117.874 32.324 117.305 31.771C116.737 31.2031 115.952 30.9191 114.95 30.9191C114.067 30.9191 113.334 31.1732 112.751 31.6813C112.167 32.1895 111.876 32.8172 111.876 33.5644C111.876 34.1473 112.048 34.6405 112.392 35.044C112.751 35.4475 113.26 35.724 113.918 35.8734L116.296 36.389C117.612 36.673 118.629 37.211 119.347 38.0031C120.065 38.7803 120.424 39.7293 120.424 40.8501C120.424 42.1354 119.915 43.2414 118.898 44.168C117.881 45.0946 116.557 45.5579 114.927 45.5579C113.147 45.5579 111.749 45.0946 110.732 44.168C109.729 43.2264 109.146 42.113 108.982 40.8277L111.09 40.1552C111.18 41.1117 111.554 41.9187 112.212 42.5763C112.871 43.2339 113.768 43.5627 114.905 43.5627C115.952 43.5627 116.759 43.3236 117.328 42.8453C117.896 42.3671 118.18 41.7618 118.18 41.0295C118.18 40.4317 117.978 39.9161 117.574 39.4827C117.171 39.0343 116.58 38.7279 115.802 38.5635L113.536 38.0704C112.354 37.8163 111.412 37.3156 110.709 36.5684C110.006 35.8211 109.655 34.8721 109.655 33.7213C109.655 32.4659 110.163 31.3675 111.18 30.4259C112.212 29.4695 113.454 28.9912 114.905 28.9912C116.535 28.9912 117.784 29.3873 118.651 30.1793C119.519 30.9714 120.065 31.8906 120.289 32.9367ZM125.83 31.0312V34.4387H128.163V36.3442H125.83V41.9486C125.83 42.4567 125.942 42.8304 126.167 43.0695C126.406 43.3086 126.795 43.4282 127.333 43.4282C127.647 43.4282 127.924 43.3983 128.163 43.3385V45.1319C127.804 45.2664 127.326 45.3337 126.727 45.3337C125.8 45.3337 125.067 45.0647 124.529 44.5266C123.991 43.9886 123.721 43.2339 123.721 42.2625V36.3442H121.657V34.4387H122.241C122.794 34.4387 123.205 34.2892 123.475 33.9903C123.759 33.6765 123.901 33.273 123.901 32.7798V31.0312H125.83ZM133.089 42.666C133.747 43.3385 134.547 43.6748 135.49 43.6748C136.432 43.6748 137.224 43.3385 137.868 42.666C138.526 41.9785 138.855 41.0295 138.855 39.8189C138.855 38.6233 138.526 37.6893 137.868 37.0167C137.224 36.3293 136.432 35.9855 135.49 35.9855C134.547 35.9855 133.747 36.3293 133.089 37.0167C132.446 37.6893 132.124 38.6233 132.124 39.8189C132.124 41.0295 132.446 41.9785 133.089 42.666ZM131.519 35.7389C132.566 34.6479 133.889 34.1024 135.49 34.1024C137.09 34.1024 138.406 34.6479 139.438 35.7389C140.485 36.815 141.008 38.175 141.008 39.8189C141.008 41.4778 140.492 42.8528 139.46 43.9438C138.428 45.0198 137.105 45.5579 135.49 45.5579C133.874 45.5579 132.551 45.0198 131.519 43.9438C130.487 42.8528 129.971 41.4778 129.971 39.8189C129.971 38.175 130.487 36.815 131.519 35.7389ZM149.697 34.3266V36.5684C149.383 36.5235 149.076 36.5011 148.777 36.5011C146.803 36.5011 145.816 37.6071 145.816 39.8189V45.2216H143.707V34.4387H145.771V36.3218C146.429 34.9468 147.506 34.2594 149.001 34.2594C149.24 34.2594 149.472 34.2818 149.697 34.3266ZM153.203 38.7205H159.103C159.073 37.9134 158.804 37.2559 158.295 36.7477C157.787 36.2246 157.069 35.9631 156.142 35.9631C155.304 35.9631 154.616 36.2396 154.078 36.7926C153.539 37.3306 153.248 37.9732 153.203 38.7205ZM159.417 41.5227L161.234 42.1504C160.92 43.1517 160.337 43.9737 159.484 44.6163C158.632 45.244 157.6 45.5579 156.388 45.5579C154.878 45.5579 153.592 45.0423 152.53 44.011C151.483 42.9649 150.959 41.56 150.959 39.7965C150.959 38.1526 151.468 36.7926 152.485 35.7165C153.502 34.6405 154.713 34.1024 156.119 34.1024C157.749 34.1024 159.021 34.618 159.933 35.6493C160.845 36.6655 161.301 38.033 161.301 39.7517C161.301 40.0207 161.286 40.2449 161.257 40.4242H153.135C153.15 41.3807 153.464 42.1653 154.078 42.7781C154.706 43.3908 155.476 43.6972 156.388 43.6972C157.929 43.6972 158.938 42.9724 159.417 41.5227Z" fill="white"/>
<path opacity="0.6" d="M62.2629 19.5762V15.7076H63.2115C64.2029 15.7076 65.0233 16.331 65.0233 17.6461C65.0233 18.9613 64.1943 19.5762 63.203 19.5762H62.2629ZM63.2457 20.6693C64.972 20.6693 66.2454 19.5591 66.2454 17.6461C66.2454 15.7332 64.9806 14.6144 63.2542 14.6144H61.0835V20.6693H63.2457ZM69.1993 17.6376C69.1993 16.2712 70.1565 15.6222 71.0881 15.6222C72.0282 15.6222 72.9853 16.2712 72.9853 17.6376C72.9853 19.004 72.0282 19.6531 71.0881 19.6531C70.1565 19.6531 69.1993 19.004 69.1993 17.6376ZM67.9772 17.6461C67.9772 19.5933 69.4472 20.7974 71.0881 20.7974C72.7375 20.7974 74.2075 19.5933 74.2075 17.6461C74.2075 15.6905 72.7375 14.4863 71.0881 14.4863C69.4472 14.4863 67.9772 15.6905 67.9772 17.6461ZM81.7812 18.7991L80.4308 14.6144H79.2087L77.867 18.782L76.756 14.6144H75.5082L77.1918 20.6693H78.4225L79.807 16.3566L81.1915 20.6693H82.405L84.0801 14.6144H82.8751L81.7812 18.7991ZM91.1166 20.6693V14.6144H89.9372V18.6197L87.416 14.6144H85.9461V20.6693H87.1255V16.3737L89.8774 20.6693H91.1166ZM97.446 20.6693V19.542H94.7454V14.6144H93.566V20.6693H97.446ZM100.079 17.6376C100.079 16.2712 101.037 15.6222 101.968 15.6222C102.908 15.6222 103.865 16.2712 103.865 17.6376C103.865 19.004 102.908 19.6531 101.968 19.6531C101.037 19.6531 100.079 19.004 100.079 17.6376ZM98.8572 17.6461C98.8572 19.5933 100.327 20.7974 101.968 20.7974C103.618 20.7974 105.087 19.5933 105.087 17.6461C105.087 15.6905 103.618 14.4863 101.968 14.4863C100.327 14.4863 98.8572 15.6905 98.8572 17.6461ZM110.997 20.6693H112.279L109.971 14.6144H108.604L106.279 20.6693H107.527L108.031 19.2858H110.493L110.997 20.6693ZM109.262 15.9211L110.1 18.2098H108.424L109.262 15.9211ZM115.301 19.5762V15.7076H116.25C117.241 15.7076 118.061 16.331 118.061 17.6461C118.061 18.9613 117.232 19.5762 116.241 19.5762H115.301ZM116.284 20.6693C118.01 20.6693 119.284 19.5591 119.284 17.6461C119.284 15.7332 118.019 14.6144 116.292 14.6144H114.122V20.6693H116.284ZM125.418 17.6376C125.418 16.2712 126.375 15.6222 127.306 15.6222C128.246 15.6222 129.204 16.2712 129.204 17.6376C129.204 19.004 128.246 19.6531 127.306 19.6531C126.375 19.6531 125.418 19.004 125.418 17.6376ZM124.196 17.6461C124.196 19.5933 125.665 20.7974 127.306 20.7974C128.956 20.7974 130.426 19.5933 130.426 17.6461C130.426 15.6905 128.956 14.4863 127.306 14.4863C125.665 14.4863 124.196 15.6905 124.196 17.6461ZM137.687 20.6693V14.6144H136.507V18.6197L133.986 14.6144H132.516V20.6693H133.696V16.3737L136.448 20.6693H137.687ZM147.778 15.7332V14.6144H142.761V15.7332H144.676V20.6693H145.864V15.7332H147.778ZM154.684 20.6693V14.6144H153.496V17.0483H150.856V14.6144H149.676V20.6693H150.856V18.1586H153.496V20.6693H154.684ZM160.932 20.6693V19.5591H158.316V18.1586H160.684V17.1081H158.316V15.7246H160.932V14.6144H157.137V20.6693H160.932Z" fill="white"/>
<path d="M46.3685 38.8352C45.6748 40.3704 45.3436 41.0556 44.4503 42.412C43.2058 44.3062 41.4497 46.6654 39.2737 46.6853C37.3409 46.7034 36.8442 45.4283 34.2201 45.4437C31.5962 45.4591 31.0494 46.7081 29.1164 46.69C26.9404 46.6707 25.278 44.5403 24.032 42.6448C20.5494 37.3473 20.1856 31.1311 22.3334 27.8265C23.8598 25.4766 26.2688 24.1036 28.5329 24.1036C30.8384 24.1036 32.2879 25.3666 34.1948 25.3666C36.0442 25.3666 37.1706 24.1016 39.8366 24.1016C41.8517 24.1016 43.9869 25.1978 45.5086 27.0919C40.523 29.8214 41.3336 36.933 46.3685 38.8352Z" fill="white"/>
<path d="M38.0953 20.7858C39.0641 19.5435 39.7985 17.7908 39.5314 15.998C37.9491 16.1062 36.0996 17.1123 35.0193 18.4233C34.0385 19.6129 33.2286 21.3776 33.5437 23.0929C35.2697 23.147 37.0571 22.1161 38.0953 20.7858Z" fill="white"/>
<defs>
<linearGradient id="paint0_linear_922_33757" x1="0" y1="0.719727" x2="180.127" y2="81.5034" gradientUnits="userSpaceOnUse">
<stop stop-color="#6DDCFF"/>
<stop offset="1" stop-color="#7F60F9"/>
</linearGradient>
</defs>
</svg>
