<svg width="79" height="80" viewBox="0 0 79 80" fill="none" xmlns="http://www.w3.org/2000/svg">
<circle cx="39.5" cy="40.2933" r="39.5" fill="#D3F1FD"/>
<path d="M48.0339 32.7595C47.2955 32.0213 46.2941 31.6066 45.25 31.6066C44.206 31.6066 43.2046 32.0213 42.4662 32.7595L41.8559 33.3685L43.7118 35.2243L44.3221 34.6153C44.5696 34.3763 44.9012 34.244 45.2453 34.247C45.5895 34.2499 45.9186 34.388 46.162 34.6313C46.4053 34.8747 46.5434 35.2039 46.5464 35.548C46.5494 35.8921 46.4171 36.2237 46.178 36.4712L41.8559 40.7933L43.7118 42.6491L48.0339 38.3271C48.772 37.5887 49.1867 36.5874 49.1867 35.5433C49.1867 34.4992 48.772 33.4978 48.0339 32.7595ZM35.678 46.9712C35.4304 47.2103 35.0989 47.3426 34.7548 47.3396C34.4106 47.3366 34.0814 47.1986 33.8381 46.9552C33.5947 46.7119 33.4567 46.3827 33.4537 46.0385C33.4507 45.6944 33.583 45.3629 33.8221 45.1153L38.1442 40.7933L36.2883 38.9374L31.9662 43.2595C31.5902 43.6227 31.2902 44.0572 31.0838 44.5376C30.8775 45.0179 30.7689 45.5346 30.7643 46.0574C30.7598 46.5803 30.8594 47.0987 31.0574 47.5827C31.2554 48.0666 31.5477 48.5062 31.9174 48.8759C32.2871 49.2456 32.7268 49.538 33.2107 49.7359C33.6946 49.9339 34.2131 50.0336 34.7359 50.029C35.2587 50.0245 35.7754 49.9158 36.2558 49.7095C36.7362 49.5031 37.1706 49.2032 37.5339 48.8271L38.1442 48.2181L36.2883 46.3622L35.678 46.9712ZM37.5339 32.7608C36.7882 32.0609 35.7996 31.6786 34.777 31.6947C33.7545 31.7108 32.7784 32.1241 32.0552 32.8472C31.332 33.5702 30.9185 34.5462 30.9021 35.5687C30.8858 36.5912 31.2679 37.58 31.9675 38.3258L32.5765 38.9361L34.4324 37.0802L33.8234 36.4699C33.5843 36.2224 33.452 35.8908 33.455 35.5467C33.458 35.2025 33.5961 34.8734 33.8394 34.63C34.0828 34.3867 34.4119 34.2486 34.7561 34.2456C35.1002 34.2426 35.4318 34.3749 35.6793 34.614L40 38.9374L41.8559 37.0815L37.5339 32.7608Z" fill="#00739F"/>
<path d="M48.0337 43.2595L47.4247 42.6492L45.5689 44.505L46.1779 45.1153C46.4169 45.3629 46.5492 45.6944 46.5462 46.0386C46.5433 46.3827 46.4052 46.7119 46.1619 46.9552C45.9185 47.1986 45.5893 47.3366 45.2452 47.3396C44.9011 47.3426 44.5695 47.2103 44.322 46.9712L39.9999 42.6492L38.144 44.505L42.4661 48.8271C43.2087 49.5443 44.2033 49.9412 45.2357 49.9322C46.2681 49.9233 47.2557 49.5092 47.9858 48.7791C48.7158 48.0491 49.1299 47.0615 49.1389 46.0291C49.1479 44.9967 48.751 44.0021 48.0337 43.2595Z" fill="#00739F"/>
<path d="M40 60.4808C39.7676 60.481 39.5393 60.4194 39.3385 60.3023L23.5885 51.1148C23.3903 50.9991 23.226 50.8336 23.1117 50.6346C22.9975 50.4356 22.9374 50.2102 22.9375 49.9808V31.6058C22.9374 31.3764 22.9975 31.1509 23.1117 30.9519C23.226 30.753 23.3903 30.5874 23.5885 30.4718L39.3385 21.2843C39.5393 21.1671 39.7675 21.1054 40 21.1054C40.2325 21.1054 40.4607 21.1671 40.6615 21.2843L56.4115 30.4718L55.0885 32.7398L40 23.9382L25.5625 32.3592V49.2274L40 57.6497L54.4375 49.2274V39.4808H57.0625V49.9808C57.0626 50.2102 57.0025 50.4356 56.8883 50.6346C56.774 50.8336 56.6097 50.9991 56.4115 51.1148L40.6615 60.3023C40.4607 60.4194 40.2324 60.481 40 60.4808Z" fill="#00739F"/>
</svg>
