<svg width="1367" height="921" viewBox="0 0 1367 921" fill="none" xmlns="http://www.w3.org/2000/svg">
<g opacity="0.6">
<g opacity="0.3">
<path d="M138.022 121.272V128.458" stroke="#00ADEF" stroke-width="1.20163" stroke-linejoin="round"/>
<path d="M138.022 143.979V198.304" stroke="#00ADEF" stroke-width="1.20163" stroke-linejoin="round" stroke-dasharray="3.8 3.8"/>
<path d="M138.022 206.064V213.25H145.397" stroke="#00ADEF" stroke-width="1.20163" stroke-linejoin="round"/>
<path d="M159.884 213.25H616.021" stroke="#00ADEF" stroke-width="1.20163" stroke-linejoin="round" stroke-dasharray="3.46 3.46"/>
<path d="M714.458 190.889H721.832V198.074" stroke="#00ADEF" stroke-width="1.20163" stroke-linejoin="round"/>
<path d="M1020.17 204.754V783.017" stroke="#00ADEF" stroke-width="1.20163" stroke-linejoin="round" stroke-dasharray="3.53 3.53"/>
<path d="M1020.17 788.107V794.217H1027.17" stroke="#00ADEF" stroke-width="1.20163" stroke-linejoin="round"/>
<path d="M1036.17 794.216H1049.17" stroke="#00ADEF" stroke-width="1.20163" stroke-linejoin="round" stroke-dasharray="2.11 2.11"/>
<path d="M1054.17 794.216H1061.18" stroke="#00ADEF" stroke-width="1.20163" stroke-linejoin="round"/>
<path d="M137.79 920.968V913.782" stroke="#00ADEF" stroke-width="1.20163" stroke-linejoin="round"/>
<path d="M121.02 807.924V519.657" stroke="#00ADEF" stroke-width="1.20163" stroke-linejoin="round" stroke-dasharray="3.62 3.62"/>
<path d="M121.02 512.27V505.084H128.394" stroke="#00ADEF" stroke-width="1.20163" stroke-linejoin="round"/>
<path d="M141.848 505.084H242.608" stroke="#00ADEF" stroke-width="1.20163" stroke-linejoin="round" stroke-dasharray="3.21 3.21"/>
<path d="M249.336 505.084H256.71V512.27" stroke="#00ADEF" stroke-width="1.20163" stroke-linejoin="round"/>
<path d="M256.706 526.526V832.815" stroke="#00ADEF" stroke-width="1.20163" stroke-linejoin="round" stroke-dasharray="3.49 3.49"/>
<path d="M256.706 839.943V847.129H264.08" stroke="#00ADEF" stroke-width="1.20163" stroke-linejoin="round"/>
<path d="M279.095 847.129H601.7" stroke="#00ADEF" stroke-width="1.20163" stroke-linejoin="round" stroke-dasharray="3.58 3.58"/>
<path d="M609.196 847.129H616.57V839.943" stroke="#00ADEF" stroke-width="1.20163" stroke-linejoin="round"/>
<path d="M701.116 819.383V220.172" stroke="#00ADEF" stroke-width="1.20163" stroke-linejoin="round" stroke-dasharray="3.54 3.54"/>
<path d="M633.336 310.173V302.987H640.71" stroke="#00ADEF" stroke-width="1.20163" stroke-linejoin="round"/>
<path d="M722.887 205.771H1291.23" stroke="#00ADEF" stroke-width="1.20163" stroke-linejoin="round" stroke-dasharray="3.44 3.44"/>
<path d="M1230.65 302.987H1238.02" stroke="#00ADEF" stroke-width="1.20163" stroke-linejoin="round"/>
<path d="M80.7936 35.613C80.7936 26.4652 77.0644 17.692 70.4263 11.2235C63.7883 4.75505 54.7852 1.12109 45.3975 1.12109C36.0099 1.12109 27.0068 4.75505 20.3687 11.2235C13.7307 17.692 10.0015 26.4652 10.0015 35.613C10.0015 54.6411 45.3975 93.0996 45.3975 93.0996C45.3975 93.0996 80.7936 54.6411 80.7936 35.613Z" stroke="#00ADEF" stroke-width="1.20163" stroke-linejoin="round"/>
<path d="M60.5521 35.6129C60.5521 32.6909 59.6629 29.8345 57.997 27.4049C56.331 24.9753 53.9632 23.0817 51.1928 21.9635C48.4224 20.8453 45.374 20.5527 42.433 21.1228C39.492 21.6928 36.7905 23.0999 34.6701 25.1661C32.5498 27.2323 31.1058 29.8648 30.5208 32.7306C29.9358 35.5965 30.2361 38.5671 31.3836 41.2667C32.5311 43.9663 34.4744 46.2737 36.9676 47.8971C39.4609 49.5205 42.3922 50.387 45.3908 50.387C49.4095 50.3794 53.2613 48.8204 56.1029 46.0514C58.9445 43.2823 60.5443 39.5289 60.5521 35.6129Z" stroke="#00ADEF" stroke-width="1.20163" stroke-linejoin="round"/>
<path d="M1366 188.245C1365.76 180.934 1362.61 174 1357.22 168.911C1351.83 163.822 1344.61 160.977 1337.11 160.977C1329.6 160.977 1322.39 163.822 1317 168.911C1311.6 174 1308.46 180.934 1308.22 188.245C1308.22 203.795 1337.12 235.183 1337.12 235.183C1337.12 235.183 1366 203.795 1366 188.245Z" stroke="#00ADEF" stroke-width="1.20163" stroke-linejoin="round"/>
<path d="M1337.12 200.317C1343.96 200.317 1349.51 194.912 1349.51 188.245C1349.51 181.578 1343.96 176.173 1337.12 176.173C1330.27 176.173 1324.73 181.578 1324.73 188.245C1324.73 194.912 1330.27 200.317 1337.12 200.317Z" stroke="#00ADEF" stroke-width="1.20163" stroke-linejoin="round"/>
<path d="M1223.89 432.4C1224 427.811 1223.16 423.248 1221.43 418.978C1219.7 414.709 1217.12 410.819 1213.83 407.537C1210.53 404.255 1206.6 401.647 1202.26 399.866C1197.92 398.086 1193.26 397.169 1188.55 397.169C1183.84 397.169 1179.17 398.086 1174.83 399.866C1170.49 401.647 1166.56 404.255 1163.26 407.537C1159.97 410.819 1157.39 414.709 1155.66 418.978C1153.93 423.248 1153.09 427.811 1153.2 432.4C1153.2 451.414 1188.54 489.813 1188.54 489.813C1188.54 489.813 1223.89 451.414 1223.89 432.4Z" stroke="#00ADEF" stroke-width="1.20163" stroke-linejoin="round"/>
<path d="M1188.53 447.167C1196.9 447.167 1203.69 440.555 1203.69 432.399C1203.69 424.243 1196.9 417.632 1188.53 417.632C1180.16 417.632 1173.38 424.243 1173.38 432.399C1173.38 440.555 1180.16 447.167 1188.53 447.167Z" stroke="#00ADEF" stroke-width="1.20163" stroke-linejoin="round"/>
<path d="M323.827 420.555C323.827 408.952 319.097 397.825 310.677 389.621C302.258 381.417 290.839 376.808 278.933 376.808C267.026 376.808 255.607 381.417 247.188 389.621C238.768 397.825 234.039 408.952 234.039 420.555C234.039 444.699 278.933 493.448 278.933 493.448C278.933 493.448 323.827 444.699 323.827 420.555Z" stroke="#00ADEF" stroke-width="1.20163" stroke-linejoin="round"/>
<path d="M298.161 420.555C298.161 416.849 297.033 413.225 294.92 410.143C292.807 407.061 289.803 404.659 286.289 403.241C282.775 401.823 278.908 401.451 275.177 402.175C271.447 402.898 268.02 404.683 265.33 407.303C262.641 409.924 260.809 413.264 260.067 416.899C259.325 420.534 259.706 424.302 261.161 427.727C262.617 431.151 265.082 434.078 268.244 436.137C271.407 438.197 275.125 439.296 278.929 439.296C281.455 439.296 283.956 438.811 286.289 437.869C288.622 436.927 290.742 435.547 292.528 433.807C294.314 432.066 295.731 430.001 296.697 427.727C297.664 425.453 298.161 423.016 298.161 420.555Z" stroke="#00ADEF" stroke-width="1.20163" stroke-linejoin="round"/>
<path d="M58.7546 676.731C58.7546 673.035 58.0077 669.376 56.5564 665.962C55.1052 662.548 52.9781 659.446 50.2966 656.833C47.6151 654.22 44.4317 652.147 40.9282 650.733C37.4246 649.319 33.6695 648.591 29.8773 648.591C26.0851 648.591 22.33 649.319 18.8264 650.733C15.3229 652.147 12.1395 654.22 9.45796 656.833C6.77646 659.446 4.64937 662.548 3.19816 665.962C1.74694 669.376 1 673.035 1 676.731C1 692.281 29.8773 723.639 29.8773 723.639C29.8773 723.639 58.7546 692.281 58.7546 676.731Z" stroke="#00ADEF" stroke-width="1.20163" stroke-linejoin="round"/>
<path d="M29.8759 688.803C36.718 688.803 42.2646 683.398 42.2646 676.73C42.2646 670.063 36.718 664.658 29.8759 664.658C23.0339 664.658 17.4873 670.063 17.4873 676.73C17.4873 683.398 23.0339 688.803 29.8759 688.803Z" stroke="#00ADEF" stroke-width="1.20163" stroke-linejoin="round"/>
<path d="M1313.96 765.344C1313.96 761.648 1313.21 757.989 1311.76 754.575C1310.31 751.161 1308.19 748.059 1305.5 745.446C1302.82 742.833 1299.64 740.76 1296.14 739.346C1292.63 737.932 1288.88 737.204 1285.08 737.204C1281.29 737.204 1277.54 737.932 1274.03 739.346C1270.53 740.76 1267.35 742.833 1264.67 745.446C1261.98 748.059 1259.86 751.161 1258.41 754.575C1256.95 757.989 1256.21 761.648 1256.21 765.344C1256.21 780.894 1285.08 812.253 1285.08 812.253C1285.08 812.253 1313.96 780.894 1313.96 765.344Z" stroke="#00ADEF" stroke-width="1.20163" stroke-linejoin="round"/>
<path d="M1285.08 777.416C1291.92 777.416 1297.47 772.011 1297.47 765.344C1297.47 758.676 1291.92 753.271 1285.08 753.271C1278.24 753.271 1272.69 758.676 1272.69 765.344C1272.69 772.011 1278.24 777.416 1285.08 777.416Z" stroke="#00ADEF" stroke-width="1.20163" stroke-linejoin="round"/>
</g>
</g>
</svg>
