<svg width="707" height="684" viewBox="0 0 707 684" fill="none" xmlns="http://www.w3.org/2000/svg">
<path fill-rule="evenodd" clip-rule="evenodd" d="M67.1974 344.095C37.2188 477.091 174.225 442.455 199.15 518.802C224.075 595.149 241.323 724.477 415.529 574.58C589.735 424.682 609.857 126.626 480.32 86.0389C350.784 45.4521 97.1761 211.099 67.1974 344.095Z" fill="#F7F0E4" fill-opacity="0.39"/>
<path d="M488.585 281.695C486.842 281.695 485.138 281.178 483.688 280.21C482.239 279.241 481.109 277.865 480.442 276.254C479.775 274.644 479.601 272.872 479.941 271.162C480.281 269.452 481.12 267.882 482.353 266.649C483.585 265.416 485.156 264.577 486.866 264.237C488.575 263.897 490.348 264.071 491.958 264.738C493.569 265.405 494.945 266.535 495.914 267.985C496.882 269.434 497.399 271.138 497.399 272.881C497.397 275.218 496.468 277.459 494.815 279.111C493.163 280.764 490.922 281.693 488.585 281.695ZM488.585 266.222C487.268 266.222 485.981 266.613 484.886 267.345C483.791 268.076 482.937 269.116 482.433 270.333C481.929 271.55 481.797 272.889 482.054 274.18C482.311 275.472 482.945 276.659 483.877 277.59C484.808 278.521 485.994 279.155 487.286 279.412C488.578 279.669 489.917 279.537 491.133 279.033C492.35 278.529 493.39 277.676 494.122 276.581C494.854 275.486 495.244 274.198 495.244 272.881C495.245 271.114 494.544 269.419 493.295 268.169C492.046 266.919 490.352 266.215 488.585 266.214V266.222Z" fill="#120853"/>
<path d="M579.957 449.406L560.108 411.879C560.019 411.711 559.888 411.57 559.728 411.469C559.567 411.369 559.383 411.312 559.194 411.305L516.777 409.749C516.587 409.736 516.397 409.777 516.229 409.866C516.061 409.955 515.92 410.089 515.824 410.254L493.259 446.223C493.159 446.383 493.102 446.567 493.095 446.756C493.087 446.945 493.13 447.133 493.219 447.3L513.07 484.797C513.159 484.965 513.29 485.106 513.45 485.207C513.611 485.307 513.795 485.364 513.984 485.371L555.983 486.911C556.073 486.952 556.169 486.98 556.267 486.995C556.463 486.992 556.653 486.935 556.819 486.832C557.388 486.616 555.649 489.036 579.919 450.481C580.019 450.321 580.075 450.137 580.082 449.949C580.089 449.76 580.046 449.573 579.957 449.406ZM577.07 448.572C575.833 448.511 574.595 448.657 573.406 449.003C571.329 449.335 561.974 451.076 557.356 452.175C557.144 451.511 556.867 450.869 556.53 450.259C554.996 446.65 553.513 443.066 549.552 434.566C550.637 433.064 551.548 431.444 552.27 429.737C553.186 427.959 558.172 417.917 559.517 415.406L577.07 448.572ZM548.852 430.916C548.375 431.68 547.959 432.482 547.609 433.312C541.635 433.612 535.689 433.528 529.81 433.418C529.766 433.416 529.721 433.424 529.68 433.441C529.639 433.458 529.601 433.484 529.571 433.517C529.527 433.496 529.481 433.478 529.433 433.465C526.363 426.052 522.762 418.87 518.658 411.976L558.138 413.424C554.037 420.436 550.994 427.022 548.861 430.916H548.852ZM525.451 471.757C525.749 471.407 525.995 471.016 526.184 470.596C527.116 471.031 528.154 471.189 529.175 471.053C533.737 471.206 547.943 471.337 548.516 471.238C548.516 471.238 553.862 484.384 554.007 484.685L516.223 483.297C519.923 479.115 522.059 476.141 525.451 471.757ZM516.852 412.672C518.699 416.271 520.359 419.417 521.848 422.572C523.651 426.388 525.263 430.478 527.22 434.312C527.293 434.453 527.396 434.575 527.522 434.671C527.648 434.768 527.794 434.835 527.949 434.868C524.964 439.288 521.949 443.73 519.048 448.218C518.238 449.161 517.568 450.215 517.059 451.35C515.548 450.725 513.961 450.301 512.34 450.087C512.34 450.087 497.289 446.669 495.746 446.313L516.852 412.672ZM496.244 448.406C499.612 449.33 511.568 452.343 511.568 452.343C513.308 452.977 515.125 453.374 516.971 453.522C517.206 454.046 517.52 454.554 517.732 454.961C519.719 459.071 521.867 463.021 524.072 467.157C524.327 467.756 524.621 468.339 524.951 468.902C523.677 469.165 524.46 469.723 514.301 482.515L496.244 448.406ZM556.403 483.888C556.17 483.53 554.834 480.44 549.83 469.245C551.192 466.54 557.222 454.638 557.453 453.929C565.642 452.972 571.943 451.416 577.018 451.05L556.403 483.888Z" fill="#120853"/>
<path d="M347.741 239.061C347.842 239.42 348.077 239.727 348.398 239.917C348.719 240.107 349.101 240.166 349.465 240.082C350.243 239.841 350.512 238.899 350.758 238.229C351.264 236.665 351.329 234.992 350.945 233.393C349.913 231.066 346.12 235.216 347.741 239.061Z" fill="#120853"/>
<path d="M375.193 242.078C375.749 240.706 376.006 239.232 375.948 237.753C375.917 237.54 375.827 237.341 375.688 237.177C375.549 237.013 375.366 236.892 375.161 236.828C374.956 236.763 374.737 236.758 374.529 236.813C374.321 236.868 374.133 236.98 373.986 237.137C372.823 238.671 372.303 240.598 372.536 242.509C372.775 243.477 374.208 244.449 375.193 242.078Z" fill="#120853"/>
<path d="M347.411 226.635C348.24 226.278 349.108 226.021 349.997 225.867C351.874 225.652 352.396 227.068 353.661 225.523C353.777 225.403 353.869 225.262 353.929 225.106C353.989 224.951 354.018 224.784 354.012 224.618C354.006 224.451 353.967 224.287 353.896 224.136C353.825 223.985 353.725 223.85 353.6 223.738C352.533 222.943 351.224 222.539 349.894 222.596C348.564 222.653 347.295 223.167 346.299 224.051C346.089 224.266 345.947 224.54 345.892 224.836C345.837 225.132 345.872 225.438 345.991 225.715C346.11 225.992 346.308 226.227 346.561 226.391C346.814 226.554 347.11 226.639 347.411 226.635Z" fill="#120853"/>
<path d="M375.95 228.034C377.383 228.681 377.266 229.504 377.747 229.726C379.471 230.527 379.865 228.75 378.825 227.265C376.486 223.903 371.771 225.151 372.711 227.312C373.25 228.523 374.517 227.379 375.95 228.034Z" fill="#120853"/>
<path d="M356.951 266.841C357.067 266.711 357.142 266.549 357.167 266.377C357.192 266.204 357.165 266.028 357.091 265.871C357.016 265.713 356.897 265.58 356.748 265.49C356.6 265.399 356.427 265.354 356.253 265.361C355.108 265.642 353.911 265.629 352.773 265.322C351.635 265.015 350.593 264.425 349.745 263.607C348.392 261.966 347.663 259.901 347.687 257.775C350.957 260.109 354.453 262.11 358.121 263.749C359.111 264.18 359.72 262.617 358.917 262.165C354.942 259.936 351.103 257.475 347.42 254.793C347.279 254.711 347.12 254.663 346.958 254.652C346.795 254.642 346.632 254.67 346.482 254.734C346.331 254.799 346.198 254.897 346.093 255.021C345.988 255.146 345.913 255.293 345.875 255.452C345.483 257.134 345.493 258.885 345.903 260.562C346.312 262.24 347.11 263.798 348.232 265.111C350.307 267.464 354.488 268.815 356.951 266.841Z" fill="#120853"/>
<path d="M359.479 257.342C361.259 257.721 363.039 258.098 364.815 258.408C366.386 258.844 368.004 259.086 369.633 259.13C372.329 259.13 373.081 256.71 372.633 253.984C371.35 247.183 369.279 240.554 366.463 234.231C366.129 233.486 364.649 233.906 365 234.833C367.474 241.451 369.368 248.272 370.659 255.219C370.722 255.671 370.656 256.131 370.47 256.546C370.239 256.768 369.952 256.921 369.639 256.989C369.327 257.057 369.002 257.036 368.7 256.93C365.272 256.458 361.893 255.575 359.865 255.15C359.581 255.115 359.295 255.19 359.066 255.36C358.836 255.53 358.681 255.781 358.631 256.063C358.582 256.344 358.642 256.633 358.8 256.871C358.958 257.109 359.201 257.278 359.479 257.342Z" fill="#120853"/>
<path d="M451.875 230.441C451.875 230.79 451.944 231.136 452.077 231.458C452.211 231.781 452.407 232.074 452.654 232.321C452.901 232.568 453.194 232.764 453.516 232.897C453.839 233.031 454.185 233.1 454.534 233.1C454.883 233.1 455.229 233.031 455.552 232.897C455.874 232.764 456.167 232.568 456.414 232.321C456.661 232.074 456.857 231.781 456.991 231.458C457.125 231.136 457.193 230.79 457.193 230.441C457.193 230.091 457.125 229.745 456.991 229.423C456.857 229.1 456.661 228.807 456.414 228.56C456.167 228.313 455.874 228.117 455.552 227.984C455.229 227.85 454.883 227.781 454.534 227.781C454.185 227.781 453.839 227.85 453.516 227.984C453.194 228.117 452.901 228.313 452.654 228.56C452.407 228.807 452.211 229.1 452.077 229.423C451.944 229.745 451.875 230.091 451.875 230.441Z" fill="#120853"/>
<path d="M522.809 268.688C518.042 268.686 513.382 270.098 509.417 272.745C505.453 275.392 502.363 279.155 500.538 283.558C498.712 287.962 498.234 292.808 499.163 297.483C500.092 302.159 502.386 306.453 505.756 309.825C509.126 313.196 513.42 315.492 518.095 316.423C522.77 317.353 527.616 316.876 532.021 315.053C536.425 313.229 540.189 310.14 542.837 306.177C545.486 302.213 546.899 297.554 546.899 292.787C546.89 286.4 544.349 280.277 539.833 275.76C535.318 271.243 529.196 268.699 522.809 268.688ZM522.809 314.731C518.468 314.733 514.225 313.447 510.615 311.037C507.005 308.627 504.191 305.2 502.529 301.191C500.866 297.181 500.431 292.768 501.276 288.511C502.122 284.254 504.211 280.343 507.28 277.273C510.349 274.203 514.259 272.112 518.516 271.265C522.773 270.417 527.185 270.851 531.196 272.512C535.206 274.173 538.634 276.985 541.046 280.594C543.457 284.203 544.744 288.446 544.744 292.787C544.738 298.603 542.425 304.18 538.313 308.294C534.201 312.408 528.625 314.723 522.809 314.731Z" fill="#120853"/>
<path d="M522.621 263.886C524.365 263.886 526.07 263.369 527.519 262.4C528.969 261.431 530.099 260.054 530.766 258.443C531.434 256.832 531.608 255.06 531.268 253.349C530.927 251.639 530.088 250.068 528.854 248.835C527.621 247.602 526.05 246.763 524.34 246.423C522.63 246.083 520.857 246.258 519.246 246.926C517.635 247.593 516.258 248.724 515.29 250.174C514.321 251.624 513.805 253.328 513.805 255.072C513.807 257.409 514.737 259.65 516.39 261.303C518.043 262.955 520.284 263.884 522.621 263.886Z" fill="#120853"/>
<path d="M558.59 267.157C556.847 267.157 555.143 267.674 553.694 268.643C552.244 269.611 551.114 270.988 550.447 272.598C549.78 274.209 549.606 275.981 549.946 277.691C550.286 279.4 551.125 280.971 552.358 282.204C553.591 283.436 555.161 284.276 556.871 284.616C558.581 284.956 560.353 284.781 561.963 284.114C563.574 283.447 564.95 282.317 565.919 280.868C566.887 279.418 567.404 277.714 567.404 275.971C567.401 273.634 566.472 271.394 564.82 269.742C563.167 268.09 560.927 267.16 558.59 267.157ZM558.59 282.63C557.273 282.63 555.986 282.24 554.891 281.508C553.796 280.776 552.942 279.736 552.438 278.519C551.934 277.303 551.802 275.964 552.059 274.672C552.316 273.38 552.95 272.194 553.882 271.263C554.813 270.331 556 269.697 557.291 269.44C558.583 269.183 559.922 269.315 561.139 269.819C562.355 270.323 563.395 271.177 564.127 272.272C564.859 273.367 565.249 274.654 565.249 275.971C565.248 277.737 564.545 279.429 563.297 280.678C562.049 281.926 560.356 282.628 558.59 282.63Z" fill="#120853"/>
<path d="M554.722 308.553C552.979 308.553 551.275 309.07 549.825 310.038C548.376 311.007 547.246 312.383 546.579 313.994C545.912 315.604 545.737 317.376 546.078 319.086C546.418 320.796 547.257 322.366 548.49 323.599C549.722 324.832 551.293 325.671 553.003 326.011C554.712 326.351 556.485 326.177 558.095 325.51C559.706 324.843 561.082 323.713 562.051 322.263C563.019 320.814 563.536 319.11 563.536 317.367C563.533 315.03 562.604 312.79 560.951 311.137C559.299 309.485 557.059 308.556 554.722 308.553Z" fill="#120853"/>
<path d="M509.937 332.439C509.937 334.182 510.455 335.886 511.423 337.335C512.392 338.784 513.769 339.914 515.379 340.58C516.989 341.247 518.761 341.422 520.471 341.081C522.181 340.741 523.751 339.902 524.983 338.669C526.216 337.437 527.055 335.867 527.395 334.157C527.736 332.448 527.561 330.675 526.894 329.065C526.228 327.455 525.098 326.078 523.649 325.109C522.2 324.141 520.496 323.623 518.753 323.623C516.415 323.625 514.174 324.554 512.521 326.207C510.868 327.86 509.939 330.102 509.937 332.439ZM525.41 332.439C525.409 333.756 525.019 335.043 524.286 336.138C523.554 337.233 522.514 338.086 521.297 338.59C520.08 339.093 518.741 339.225 517.45 338.968C516.158 338.71 514.972 338.076 514.041 337.144C513.11 336.212 512.476 335.026 512.22 333.734C511.963 332.442 512.095 331.103 512.6 329.887C513.104 328.67 513.958 327.63 515.053 326.899C516.149 326.168 517.436 325.778 518.753 325.778C520.519 325.78 522.211 326.483 523.459 327.732C524.707 328.981 525.409 330.674 525.41 332.439Z" fill="#120853"/>
<path d="M477.836 310.411C477.836 312.154 478.353 313.858 479.321 315.307C480.29 316.757 481.666 317.887 483.277 318.554C484.887 319.221 486.66 319.395 488.369 319.055C490.079 318.715 491.65 317.876 492.882 316.643C494.115 315.41 494.954 313.84 495.294 312.13C495.635 310.42 495.46 308.648 494.793 307.038C494.126 305.427 492.996 304.051 491.547 303.082C490.097 302.114 488.393 301.597 486.65 301.597C484.313 301.6 482.073 302.529 480.421 304.181C478.768 305.834 477.839 308.074 477.836 310.411Z" fill="#120853"/>
<path d="M497.358 263.986C497.616 263.986 497.865 263.893 498.061 263.725C501.511 260.751 505.464 258.416 509.734 256.829C509.869 256.781 509.993 256.707 510.098 256.611C510.204 256.515 510.29 256.399 510.35 256.269C510.41 256.14 510.445 256 510.45 255.857C510.456 255.714 510.433 255.572 510.383 255.438C510.333 255.304 510.257 255.181 510.16 255.077C510.062 254.973 509.945 254.889 509.814 254.831C509.684 254.772 509.543 254.74 509.4 254.737C509.257 254.733 509.115 254.758 508.982 254.81C504.474 256.484 500.3 258.946 496.656 262.083C496.486 262.226 496.364 262.417 496.307 262.632C496.25 262.847 496.261 263.073 496.337 263.282C496.414 263.49 496.554 263.669 496.736 263.795C496.919 263.921 497.136 263.988 497.358 263.986Z" fill="#120853"/>
<path d="M535.771 256.532C541.121 258.402 545.997 261.417 550.061 265.367C550.266 265.567 550.542 265.678 550.828 265.674C551.114 265.671 551.388 265.554 551.588 265.349C551.788 265.144 551.898 264.868 551.895 264.581C551.891 264.295 551.774 264.022 551.569 263.822C547.279 259.655 542.131 256.475 536.484 254.504C536.35 254.451 536.205 254.427 536.061 254.431C535.916 254.436 535.774 254.469 535.642 254.53C535.511 254.591 535.393 254.677 535.296 254.785C535.199 254.892 535.124 255.018 535.077 255.155C535.029 255.291 535.01 255.436 535.02 255.581C535.029 255.725 535.068 255.866 535.133 255.995C535.199 256.124 535.29 256.239 535.4 256.332C535.511 256.425 535.639 256.495 535.778 256.538L535.771 256.532Z" fill="#120853"/>
<path d="M562.489 287.589C562.205 287.619 561.944 287.761 561.765 287.984C561.585 288.206 561.502 288.49 561.532 288.774C562.144 294.343 561.54 299.978 559.763 305.29C559.671 305.561 559.692 305.857 559.819 306.113C559.946 306.369 560.169 306.564 560.44 306.655C560.711 306.747 561.007 306.726 561.263 306.599C561.519 306.472 561.714 306.249 561.806 305.978C563.681 300.37 564.319 294.422 563.674 288.544C563.643 288.26 563.501 288 563.279 287.821C563.056 287.642 562.772 287.559 562.489 287.589Z" fill="#120853"/>
<path d="M530.605 332.034C530.636 332.173 530.694 332.304 530.775 332.421C530.857 332.537 530.961 332.636 531.081 332.713C531.201 332.789 531.336 332.84 531.476 332.864C531.616 332.888 531.76 332.884 531.898 332.853C536.951 331.739 541.742 329.665 546.012 326.743C546.248 326.582 546.41 326.334 546.463 326.053C546.516 325.772 546.455 325.481 546.294 325.245C546.133 325.009 545.884 324.847 545.603 324.794C545.323 324.741 545.032 324.802 544.796 324.963C540.754 327.73 536.218 329.693 531.435 330.747C531.296 330.776 531.164 330.833 531.047 330.914C530.929 330.995 530.829 331.098 530.752 331.217C530.675 331.337 530.622 331.471 530.597 331.611C530.572 331.751 530.575 331.895 530.605 332.034Z" fill="#120853"/>
<path d="M495.199 319.509C495.103 319.401 494.987 319.314 494.856 319.252C494.726 319.19 494.585 319.155 494.441 319.148C494.297 319.142 494.153 319.165 494.018 319.215C493.883 319.265 493.759 319.342 493.654 319.441C493.549 319.54 493.465 319.659 493.407 319.791C493.349 319.923 493.318 320.065 493.316 320.21C493.314 320.354 493.341 320.497 493.395 320.631C493.45 320.764 493.53 320.885 493.632 320.987C497.24 324.816 501.559 327.907 506.347 330.088C506.607 330.206 506.903 330.217 507.171 330.117C507.439 330.017 507.656 329.815 507.774 329.555C507.893 329.294 507.903 328.998 507.803 328.73C507.703 328.462 507.501 328.245 507.241 328.127C502.707 326.062 498.617 323.135 495.199 319.509Z" fill="#120853"/>
<path d="M484.555 284.036C484.276 283.978 483.985 284.034 483.746 284.192C483.508 284.349 483.341 284.594 483.284 284.874C482.434 288.997 482.237 293.228 482.7 297.412C482.731 297.696 482.874 297.956 483.097 298.134C483.32 298.313 483.605 298.396 483.889 298.364C484.173 298.333 484.433 298.19 484.612 297.967C484.791 297.744 484.873 297.459 484.842 297.175C484.404 293.214 484.59 289.21 485.394 285.307C485.451 285.027 485.395 284.736 485.238 284.498C485.08 284.259 484.835 284.093 484.555 284.036Z" fill="#120853"/>
<path d="M495.139 444.217C487.223 444.217 412.109 446.126 388.287 446.602C390.378 438.093 392.083 429.515 393.403 420.87C399.9 428.125 406.596 432.132 413.815 433.013C424.25 434.263 434.243 429.337 443.451 424.608C470.775 410.535 494.681 390.644 513.488 366.335C513.65 366.143 513.738 365.899 513.736 365.648C517.036 365.815 520.311 364.993 523.141 363.288C525.971 361.582 528.227 359.071 529.621 356.075C530.868 353.371 531.129 350.336 528.328 349.304C527.636 349.122 526.905 349.166 526.24 349.429C525.576 349.692 525.013 350.161 524.634 350.767C524.171 351.278 523.714 351.797 523.263 352.319C523.207 351.881 523.114 351.449 522.988 351.026C522.714 350.367 522.271 349.793 521.703 349.361C521.135 348.929 520.463 348.656 519.755 348.569C519.054 348.566 518.366 348.762 517.772 349.136C517.944 348.656 518.001 348.142 517.94 347.636C517.878 347.129 517.7 346.644 517.418 346.219C517.137 345.794 516.76 345.44 516.318 345.185C515.876 344.931 515.381 344.783 514.872 344.753C513.426 344.766 512.644 346.059 512.047 346.509C510.456 347.656 508.116 347.296 505.896 348.13C504.441 348.67 503.136 349.549 502.088 350.694C501.994 350.671 501.897 350.661 501.8 350.666C481.673 352.05 461.709 355.217 442.143 360.131C437.785 350.322 432.472 340.966 426.28 332.198C429.345 331.393 432.324 330.29 435.176 328.907C450.407 321.296 463.168 309.523 471.979 294.953C475.785 288.951 478.971 282.579 481.489 275.933C480.757 274.255 480.655 272.368 481.203 270.621C481.75 268.874 482.91 267.383 484.469 266.423C489.458 247.295 487.824 223.987 471.253 213.502C470.822 213.237 456.599 196.146 428.045 209.389C401.012 221.916 379.574 254.096 376.325 283.508C371.8 281.226 367.056 279.407 362.166 278.077C367.93 274.688 372.632 269.756 375.743 263.837C379.046 257.176 381.234 250.018 382.221 242.649C384.031 231.893 384.361 218.983 381.391 208.384L384.755 203.031C385.232 202.385 385.558 201.639 385.707 200.85C385.856 200.06 385.825 199.247 385.617 198.471C384.88 195.266 383.538 192.231 381.663 189.528C372.881 177.245 357.212 175.322 341.595 175.09C335.93 174.909 330.276 175.705 324.881 177.443C319.216 179.138 314.305 182.725 310.966 187.604C308.952 191.182 307.728 195.15 307.376 199.241C306.689 206.811 306.888 214.436 307.97 221.961C304.522 225.84 302.727 236.274 307.559 243.013C308.459 244.125 309.609 245.008 310.916 245.589C312.223 246.171 313.649 246.434 315.078 246.358C313.541 250.146 307.951 268.724 307.835 269.367C306.404 269.024 280.076 270.858 257.979 276.599C201.207 289.313 172.893 350.817 196.111 408.299C199.473 416.566 204.619 427.584 212.874 436.467C199.519 446.465 185.032 454.853 169.712 461.457C169.481 461.499 169.273 461.623 169.127 461.806C168.98 461.99 168.905 462.22 168.916 462.454C168.927 462.689 169.022 462.912 169.184 463.081C169.346 463.251 169.564 463.356 169.798 463.377H169.88C173.583 477.073 173.312 491.541 169.098 505.089C169.058 505.223 169.044 505.363 169.059 505.502C169.073 505.64 169.115 505.775 169.182 505.897C169.249 506.019 169.34 506.127 169.449 506.214C169.558 506.301 169.683 506.366 169.818 506.404C183.34 510.696 197.886 511.414 212.247 512.476C237.758 514.362 256.944 515.228 282.393 516.265C282.854 516.265 283.255 515.972 283.761 515.368C286.47 512.567 289.101 509.565 291.644 506.673C293.047 505.08 311.901 484.565 313.851 482.352C315.686 480.637 317.219 478.627 318.388 476.404C318.961 473.736 318.986 470.979 318.461 468.301C318.321 462.088 319.061 455.886 320.659 449.88C356.479 449.378 464.557 448.091 495.313 446.217C495.544 446.155 495.747 446.013 495.884 445.817C496.021 445.62 496.085 445.382 496.064 445.144C496.043 444.905 495.939 444.681 495.77 444.512C495.601 444.342 495.377 444.238 495.139 444.217ZM448.065 310.85C444.48 313.582 440.653 315.98 436.63 318.014C425.967 323.078 415.882 323.362 408.031 319.08C437.958 325.784 474.804 284.652 474.558 247.732C474.805 239.753 472.444 231.911 467.833 225.394C476.05 231.643 479.702 242.955 478.683 256.062C474.597 277.128 463.866 296.331 448.065 310.85ZM316.073 476.404C315.208 477.649 314.236 478.816 313.166 479.891C311.153 482.173 293.293 501.52 292.263 502.617C289.123 505.942 285.903 509.382 283.024 512.987C282.684 511.636 282.345 510.285 282.044 508.923C286.138 504.337 290.429 500.003 294.112 496.15C294.267 495.996 294.355 495.786 294.358 495.567C294.36 495.348 294.277 495.137 294.125 494.979C293.974 494.821 293.766 494.728 293.547 494.722C293.328 494.715 293.115 494.795 292.954 494.943C288.871 498.599 285.077 502.566 281.608 506.809C280.245 500.596 279.4 494.281 279.08 487.929C281.089 486.599 282.987 485.111 284.759 483.479C297.391 473.018 299.389 471.439 302.925 468.239C303.095 468.09 303.201 467.882 303.221 467.658C303.241 467.434 303.174 467.21 303.033 467.034C302.893 466.858 302.69 466.743 302.467 466.713C302.243 466.683 302.017 466.74 301.835 466.872C297.064 470.258 292.398 474.314 283.929 481.444C282.204 482.764 280.582 484.212 279.076 485.776C279.073 483.286 279.207 480.797 279.477 478.322C282.063 476.568 282.946 475.736 294.254 467.178C297.236 464.918 300.322 462.582 303.225 460.095C303.4 459.946 303.51 459.735 303.534 459.507C303.558 459.278 303.493 459.05 303.354 458.867C303.214 458.685 303.009 458.564 302.783 458.528C302.556 458.492 302.324 458.545 302.135 458.675C297.411 461.963 279.914 475.818 279.682 476.005C280.046 473.218 280.791 470.495 281.897 467.911C285.56 467.187 292.456 463.136 295.838 460.881C304.731 455.101 313.239 448.747 321.305 441.859C318.275 449.181 316.612 456.996 316.401 464.918C313.563 467.318 286.231 490.314 284.345 492.174C284.174 492.337 284.07 492.558 284.056 492.794C284.041 493.03 284.116 493.262 284.267 493.444C284.417 493.627 284.63 493.745 284.864 493.776C285.099 493.807 285.336 493.749 285.528 493.612C288.262 491.648 290.887 489.538 293.392 487.289C296.945 484.196 306.524 476.393 316.386 467.114C316.386 468.331 316.444 469.549 316.521 470.766C314.522 472.23 314.069 472.975 306.337 479.268C305.065 480.262 303.849 481.325 302.693 482.451C302.542 482.609 302.456 482.818 302.449 483.036C302.443 483.254 302.517 483.467 302.658 483.634C302.799 483.801 302.996 483.911 303.213 483.941C303.429 483.972 303.649 483.921 303.831 483.8C305.026 482.952 306.177 482.044 307.279 481.078C307.279 481.078 315.933 473.719 316.668 473.042C316.777 474.196 316.572 475.358 316.073 476.404ZM246.682 456.492C244.715 456.409 242.787 455.915 241.023 455.041C240.425 454.576 239.741 454.233 239.01 454.033C238.819 453.992 238.619 454.01 238.438 454.082C238.256 454.155 238.099 454.28 237.988 454.441C237.877 454.602 237.816 454.792 237.812 454.988C237.809 455.184 237.864 455.376 237.969 455.541C238.432 456.239 239.103 456.771 239.887 457.063C240.879 457.641 241.961 458.046 243.088 458.261C242.512 458.692 242.111 458.953 241.691 459.235C241.58 459.281 241.479 459.35 241.395 459.437C241.312 459.524 241.247 459.628 241.205 459.741C241.164 459.854 241.146 459.975 241.153 460.095C241.16 460.216 241.192 460.333 241.247 460.441C241.302 460.548 241.378 460.643 241.472 460.72C241.565 460.796 241.673 460.853 241.79 460.885C241.906 460.918 242.027 460.926 242.147 460.91C242.267 460.893 242.381 460.852 242.484 460.789C243.647 460.28 244.704 459.556 245.598 458.655C246.114 458.724 246.634 458.747 247.154 458.726C249.354 458.685 253.151 458.015 254.841 455.526C258.402 455.795 261.979 455.783 265.538 455.49C257.451 462.041 245.38 465.051 235.015 459.873C234.041 459.472 233.172 458.855 232.472 458.068C231.773 457.28 231.262 456.344 230.979 455.33C230.798 453.414 231.243 451.49 232.246 449.848C238.582 452.647 245.308 454.464 252.192 455.235C250.555 456.266 248.616 456.712 246.693 456.5L246.682 456.492ZM346.89 366.197C347.165 364.1 348.191 362.173 349.777 360.773C350.716 360.007 351.862 359.537 353.068 359.422C354.274 359.307 355.488 359.552 356.555 360.127C356.936 360.302 357.239 360.612 357.405 360.997C357.571 361.382 357.589 361.815 357.456 362.213L356.725 363.217C356.039 363.477 355.434 363.915 354.973 364.486C354.736 364.825 354.586 365.218 354.537 365.629C354.488 366.04 354.542 366.456 354.693 366.842C355.77 369.714 361.671 371.449 361.891 371.518C363.905 372.171 366.075 372.164 368.084 371.496C369.639 370.779 370.938 369.602 371.804 368.124C372.103 367.723 372.549 367.262 372.989 367.423C373.385 367.693 373.706 368.059 373.92 368.488C374.134 368.916 374.235 369.393 374.213 369.871C374.136 371.706 373.495 373.471 372.376 374.927C371.257 376.382 369.716 377.456 367.963 378.002C367.678 378.099 367.438 378.298 367.291 378.561C367.143 378.824 367.099 379.133 367.166 379.427C367.303 379.972 367.328 380.539 367.24 381.094C367.151 381.649 366.951 382.181 366.65 382.656C366.35 383.131 365.956 383.54 365.493 383.859C365.03 384.177 364.506 384.398 363.955 384.508C362.83 384.59 362.539 384.967 361.944 385.987C358.675 391.59 348.198 389.023 346.153 379.631C345.497 375.146 345.752 370.575 346.903 366.191L346.89 366.197ZM345.023 382.98C346.701 386.241 349.456 388.82 352.82 390.279L349.329 395.1C348.809 395.812 348.028 396.288 347.157 396.425C346.286 396.562 345.396 396.348 344.683 395.831L341.528 393.512C340.814 392.994 340.334 392.215 340.193 391.344C340.052 390.473 340.262 389.582 340.776 388.866L345.023 382.98ZM230.914 449.251C228.895 452.335 228.22 456.25 230.914 459.261C236.948 466.019 256.171 467.708 269.09 455.078C278.554 453.633 287.707 450.602 296.163 446.111C301.523 445.109 315.845 442.297 317.696 441.932C311.128 447.394 304.273 452.502 297.161 457.233C283.192 466.698 280.408 466.543 270.575 466.543C238.233 466.771 205.904 465.217 173.733 461.888C188.075 455.459 201.562 447.272 213.883 437.515C218.763 442.473 224.543 446.456 230.914 449.251ZM173.091 498.523C202.951 504.656 210.633 500.661 248.264 506.296C248.481 506.302 248.692 506.224 248.853 506.078C249.015 505.933 249.114 505.731 249.13 505.514C249.146 505.297 249.078 505.083 248.94 504.915C248.802 504.747 248.605 504.639 248.389 504.613C236.014 502.382 223.489 501.085 210.92 500.734C198.332 500.309 185.785 499.081 173.354 497.057C174.995 488.136 174.962 478.987 173.257 470.077C178.765 470.713 198.283 472.495 205.08 472.447C205.293 472.458 205.502 472.384 205.661 472.241C205.82 472.098 205.916 471.898 205.927 471.684C205.938 471.471 205.864 471.262 205.721 471.103C205.578 470.944 205.377 470.849 205.164 470.837C201.128 470.312 196.936 470.055 192.88 469.807C191.495 469.723 175.905 468.598 172.929 468.407C172.58 466.784 172.169 465.174 171.71 463.571C203.472 467.105 235.408 468.85 267.366 468.799C271.359 469.104 275.375 468.956 279.335 468.357C277.986 472.031 277.263 475.905 277.197 479.817C272.762 479.701 249.346 479.253 242.088 478.975C230.666 478.544 190.732 475.943 186.377 475.831C185.202 475.8 185.497 477.453 186.301 477.555C196.557 478.761 207.608 479.591 222.13 480.246C225.251 480.386 276.406 482.065 277.003 482.061C276.876 484.27 276.822 486.485 276.897 488.698C277.457 497.231 278.828 505.691 280.992 513.963C257.233 513.16 215.775 510.841 194.609 508.75C186.828 508.092 179.127 506.695 171.611 504.578C172.199 502.574 172.677 500.555 173.091 498.523ZM323.706 440.672C324.062 439.793 322.068 438.732 321.499 438.827C318.566 439.422 305.983 441.932 302.6 442.62C323.87 430.735 337.64 417.837 352.708 397.604L357.768 391.139C359.668 390.907 361.438 390.051 362.8 388.706C363.662 387.881 363.938 386.711 364.923 386.661C365.119 386.66 365.314 386.624 365.498 386.553C366.81 386.029 367.919 385.096 368.661 383.893C369.403 382.69 369.739 381.281 369.618 379.873C376.96 376.718 378.366 366.764 373.612 365.359L399.364 329.933C407.249 334.284 415.328 334.605 424.062 332.734C429.795 341.743 434.92 351.126 439.402 360.818C430.608 363.026 421.938 365.698 413.427 368.822C413.266 368.887 413.127 368.996 413.025 369.137C412.923 369.277 412.863 369.444 412.852 369.617C412.852 370.238 413.473 370.865 414.057 370.677C435.275 363.67 457.077 358.573 479.202 355.448C490.553 353.914 497.574 353.597 500.834 353.134C501.416 355.889 502.599 358.482 504.298 360.729C505.996 362.975 508.17 364.818 510.663 366.128C493.22 388.117 471.526 406.367 446.875 419.788C438.641 424.313 429.308 429.451 419.748 430.423C410.542 431.349 401.862 427 393.942 417.542C397.498 392.242 397.835 366.593 394.946 341.208C394.843 340.38 393.367 340.469 393.438 341.344C395.137 360.548 395.193 379.862 393.606 399.076C392.315 415.088 389.838 430.981 386.195 446.626C368.392 446.979 321.277 447.762 321.277 447.762C321.964 445.358 322.774 442.992 323.706 440.672ZM472.401 247.748C472.576 274.062 452.92 304.178 429.18 314.322C428.615 313.149 427.916 312.045 427.097 311.033C421.901 303.427 415.607 296.632 408.419 290.871C408.569 287.742 408.909 284.626 409.436 281.538C412.215 266.234 419.944 252.267 431.435 241.785C436.06 237.421 441.585 234.122 447.621 232.12C447.834 232.072 448.022 231.946 448.148 231.768C448.273 231.589 448.328 231.37 448.301 231.153C448.274 230.936 448.168 230.737 448.002 230.595C447.836 230.452 447.624 230.377 447.405 230.383C447.369 230.379 447.333 230.379 447.298 230.383C441.707 231.309 436.489 233.782 432.232 237.522C419.203 247.983 410.236 262.665 406.881 279.034C406.18 282.529 405.887 285.611 405.549 288.766C402.155 286.436 398.547 284.434 394.774 282.788C396.251 271.814 400.192 261.316 406.301 252.081C418.8 232.391 437.301 220.437 452.773 220.437C455.563 220.405 458.339 220.842 460.984 221.73C468.259 226.835 472.336 235.992 472.403 247.748H472.401ZM403.545 315.285L401.939 314.262C396.879 308.773 394.078 300.784 394.078 291.042C394.125 288.971 394.293 286.913 394.509 284.863C398.333 286.718 401.972 288.935 405.374 291.483C405.325 293.467 405.462 295.451 405.784 297.41C405.868 297.692 406.048 297.936 406.292 298.1C406.537 298.264 406.831 298.337 407.124 298.308C407.417 298.279 407.691 298.148 407.898 297.939C408.105 297.73 408.233 297.455 408.26 297.162C408.376 296.074 408.426 294.98 408.411 293.886C414.743 299.377 420.351 305.652 425.099 312.559C425.638 313.481 426.23 314.371 426.87 315.225C418.496 318.289 410.307 318.537 403.547 315.285H403.545ZM515.221 349.205C515.007 349.789 514.741 350.353 514.426 350.89C513.826 350.457 513.11 350.214 512.37 350.192C510.879 350.168 509.941 351.595 509.258 352.619C508.315 354.109 507.767 355.814 507.666 357.575C507.662 357.889 507.784 358.192 508.004 358.417C508.223 358.642 508.524 358.77 508.838 358.773C509.152 358.777 509.455 358.655 509.68 358.435C509.904 358.215 510.033 357.915 510.036 357.601C510.099 355.798 510.799 354.076 512.012 352.741C512.81 351.963 513.387 353.218 513.661 353.554C514.053 354.397 514.098 355.36 513.788 356.237C513.741 356.394 513.727 356.559 513.746 356.722C513.766 356.884 513.819 357.041 513.902 357.183C513.985 357.324 514.096 357.447 514.229 357.543C514.361 357.639 514.512 357.707 514.672 357.743C514.832 357.778 514.998 357.78 515.159 357.749C515.32 357.717 515.472 357.653 515.607 357.559C515.742 357.466 515.856 357.346 515.942 357.207C516.029 357.068 516.085 356.912 516.109 356.75L517.579 353.552C517.862 352.606 518.331 351.727 518.958 350.966C519.583 350.431 520.486 351.099 520.749 351.741C521.051 353.084 520.939 354.487 520.427 355.765C520.425 356.054 520.525 356.334 520.71 356.556C520.895 356.777 521.153 356.926 521.437 356.976C521.722 357.026 522.015 356.973 522.264 356.827C522.513 356.681 522.702 356.451 522.798 356.179C524.047 354.501 525.429 352.927 526.931 351.472C527.049 351.414 527.178 351.384 527.309 351.383C527.44 351.382 527.569 351.412 527.687 351.469C527.805 351.526 527.909 351.609 527.99 351.712C528.071 351.814 528.128 351.934 528.155 352.063C528.211 353.528 527.762 354.969 526.884 356.144C525.233 358.881 522.763 361.03 519.824 362.286C516.885 363.543 513.625 363.845 510.506 363.148C508.601 361.943 506.966 360.357 505.705 358.488C504.444 356.62 503.584 354.511 503.179 352.293C507.084 348.048 510.271 350.847 513.837 347.649C514.743 346.837 514.878 346.893 515.221 347.218C515.714 347.729 515.59 348.237 515.221 349.205ZM397.435 328.748C397.651 328.892 398.89 326.927 368.599 368.591C367.278 370.005 362.806 370.531 359.412 368.13C358.52 367.743 357.718 367.173 357.059 366.458C359.408 363.896 359.46 363.495 359.546 363.275C359.725 362.672 357.139 366.348 388.348 323.382C391.024 325.704 394.099 327.522 397.424 328.748H397.435ZM359.145 359.905C357.637 357.258 353.447 356.78 350.588 358.03C346.062 359.842 344.245 365.29 344.323 370.244C314.305 373.807 284.665 380.038 255.753 388.861C256.2 370.426 254.586 351.998 250.94 333.922C250.637 332.413 248.296 332.961 248.6 334.473C252.088 352.912 253.676 371.659 253.341 390.422C253.344 390.606 253.389 390.788 253.473 390.953C253.557 391.118 253.678 391.261 253.826 391.371C253.975 391.482 254.146 391.557 254.328 391.59C254.51 391.623 254.698 391.614 254.875 391.564C283.829 382.629 313.51 376.25 343.577 372.498C343.024 375.208 343.193 378.016 344.067 380.64L339.022 387.605C338.171 388.784 337.823 390.252 338.055 391.687C338.286 393.122 339.078 394.406 340.257 395.257L343.427 397.565C344.306 398.214 345.362 398.579 346.453 398.612C347.545 398.645 348.621 398.345 349.538 397.751C338.731 411.62 329.066 422.908 311.679 434.25C308.365 436.459 304.667 438.819 300.643 441.096C291.974 446.217 282.538 449.913 272.697 452.044C246.303 457.086 217.247 447.275 202.636 417.059C172.97 358.969 200.089 298.213 248.195 281.799C257.316 278.899 266.636 276.666 276.081 275.118C288.44 303.28 328.975 320.58 357.499 303.551C364.958 299.459 370.503 292.591 372.931 284.436C373.969 284.912 375.025 285.421 376.096 285.962C375.107 298.948 377.592 312.779 386.746 321.901L359.145 359.905ZM309.58 270.632C310.705 268.509 316.541 248.004 317.03 245.724C317.051 245.685 317.095 245.666 317.112 245.623C317.493 244.703 316.605 243.567 315.702 243.948C314.538 244.285 313.299 244.264 312.146 243.888C310.993 243.512 309.98 242.799 309.237 241.841C305.83 237.358 306.22 230.577 307.875 225.894C308.533 224.17 310.298 221.543 312.168 221.112C315.052 220.433 317.713 223.734 318.849 226.499C319.931 229.078 320.592 231.814 320.805 234.602V237.822C320.805 239.317 321.797 239.597 323.249 239.951C324.187 240.166 325.156 240.412 325.331 241.086C325.359 241.175 325.42 241.249 325.501 241.294C325.582 241.339 325.678 241.351 325.767 241.328C325.857 241.306 325.935 241.249 325.985 241.171C326.035 241.093 326.053 240.999 326.036 240.908C323.919 232.389 325.648 224.402 327.408 215.675C327.943 212.701 328.834 209.802 330.063 207.042C331.807 203.35 332.865 203.594 337.067 203.643C351.753 203.786 366.045 204.454 379.473 208.878C381.628 218.604 381.954 228.646 380.434 238.492C378.803 250.665 375.236 265.453 363.696 274.148C360.935 276.285 357.697 277.72 354.259 278.329C350.821 278.939 347.287 278.706 343.959 277.65C343.605 277.574 343.236 277.635 342.927 277.823C342.618 278.011 342.392 278.31 342.297 278.659C341.743 281.294 341.22 284.021 340.655 286.721C340.3 288.445 342.957 289.126 343.319 287.367C343.784 285.156 344.209 282.863 344.644 280.704C349.657 282.009 354.969 281.526 359.664 279.338C364.405 281.262 364.365 280.799 370.467 283.368C366.164 298.539 349.855 306.512 336.317 307.482C324.506 308.056 312.773 305.294 302.458 299.512C292.144 293.73 283.665 285.161 277.992 274.786C296.154 271.681 307.138 271.457 308.041 270.972C308.156 271.073 308.294 271.146 308.442 271.185C308.59 271.223 308.746 271.225 308.895 271.192C309.045 271.159 309.185 271.091 309.303 270.994C309.421 270.896 309.515 270.772 309.576 270.632H309.58ZM428.967 211.328C439.742 206.339 452.127 204.342 462.701 209.82C454.217 207.65 444.362 208.94 434.064 213.699C402.672 229.363 382.484 264.395 382.257 295.341C381.856 305.051 384.791 314.606 390.576 322.416C382.57 316.02 378.139 305.245 378.047 291.669C377.831 260.458 400.625 224.459 428.954 211.328H428.967Z" fill="#120853"/>
<path d="M265.95 488.241C266.194 488.242 266.429 488.147 266.605 487.977C266.781 487.808 266.884 487.576 266.892 487.332C266.901 487.088 266.814 486.85 266.65 486.669C266.486 486.487 266.258 486.377 266.015 486.36C260.746 485.849 255.212 485.983 250.068 485.77C244.853 485.554 213.905 483.806 201.869 482.923C201.074 482.91 200.86 484.367 201.813 484.375C227.001 486.955 260.155 488.358 265.95 488.241Z" fill="#120853"/>
<path d="M523.227 517.191C523.294 517.221 527.651 519.176 527.72 519.198C528.144 519.311 528.589 519.311 529.013 519.198C529.152 519.154 529.281 519.083 529.392 518.989C529.504 518.896 529.596 518.781 529.662 518.651C529.729 518.522 529.77 518.38 529.781 518.235C529.793 518.09 529.776 517.944 529.731 517.805C529.553 517.39 529.264 517.032 528.895 516.771C527.469 516.039 526.002 515.391 524.5 514.831C524.671 514.152 524.675 513.441 524.512 512.76C524.349 512.079 524.024 511.447 523.565 510.918C521.603 509.008 519.085 507.769 516.374 507.382C513.663 506.995 510.899 507.478 508.48 508.763C506.86 509.837 505.07 510.628 503.185 511.103C501.367 511.276 499.78 510.205 500.192 508.448C500.596 507.511 501.287 506.726 502.167 506.208C503.047 505.69 504.068 505.466 505.084 505.567C506.345 505.686 506.23 503.692 505.371 503.511C504.433 503.317 503.463 503.339 502.534 503.575C501.606 503.811 500.744 504.256 500.013 504.875C497.069 502.981 496.884 502.686 495.889 502.826C494.953 502.867 494.13 504 495.458 505.261C496.42 505.845 497.414 506.375 498.436 506.847C498.23 507.242 498.065 507.658 497.944 508.086C497.835 508.695 497.847 509.318 497.979 509.922C498.111 510.525 498.361 511.097 498.714 511.604C499.067 512.111 499.516 512.544 500.037 512.877C500.557 513.211 501.138 513.438 501.746 513.547C503.967 513.677 506.171 513.079 508.021 511.842C509.634 510.771 511.482 510.105 513.407 509.903C515.333 509.701 517.279 509.968 519.078 510.681C520.126 511.112 522.492 512.278 521.88 513.978C521.42 514.712 520.816 515.345 520.105 515.839C519.394 516.334 518.591 516.68 517.743 516.857C516.895 517.034 516.021 517.037 515.171 516.868C514.322 516.698 513.516 516.359 512.801 515.87C511.023 514.778 509.469 517.454 511.142 518.603C513.002 519.822 515.231 520.349 517.44 520.091C519.65 519.833 521.698 518.807 523.227 517.191Z" fill="#120853"/>
<path d="M556.883 519.325C556.462 519.292 556.044 519.424 555.718 519.694C554.224 520.553 552.793 521.517 551.436 522.577C549.248 521.825 546.912 521.603 544.622 521.931C542.54 522.114 540.541 522.828 538.813 524.003C537.086 525.179 535.688 526.777 534.754 528.646C534.372 529.593 534.215 530.615 534.294 531.633C534.373 532.651 534.687 533.637 535.211 534.514C536.312 535.983 537.895 537.02 539.682 537.442C542.32 538.304 544.141 539.095 543.561 541.321C542.393 545.834 534.336 545.403 529.748 543.476C525.714 541.752 525.222 540.322 523.128 538.863C522.853 538.703 522.533 538.641 522.219 538.684C521.904 538.727 521.613 538.874 521.392 539.102C521.171 539.329 521.032 539.624 520.997 539.94C520.963 540.255 521.034 540.573 521.201 540.843C522.409 542.541 524.012 543.919 525.873 544.858C522.188 547.431 522.087 547.399 521.41 548.366C521.328 548.544 521.291 548.741 521.304 548.936C521.317 549.132 521.378 549.322 521.483 549.488C521.588 549.654 521.732 549.792 521.904 549.888C522.075 549.984 522.267 550.036 522.464 550.038C523.249 549.899 523.977 549.536 524.561 548.993L528.455 546.08C533.64 548.168 541.236 548.733 544.859 544.446C545.484 543.739 545.92 542.885 546.127 541.964C546.334 541.043 546.305 540.085 546.042 539.178C545.78 538.271 545.292 537.445 544.625 536.777C543.959 536.109 543.134 535.62 542.227 535.356C540.215 534.548 537.801 534.214 537.247 532.212C537.034 531.009 537.218 529.77 537.772 528.681C538.326 527.592 539.22 526.714 540.318 526.178C542.635 524.843 545.289 524.21 547.959 524.356C550.629 524.502 553.199 525.421 555.356 527.002C555.46 527.087 555.58 527.152 555.709 527.191C555.838 527.231 555.974 527.244 556.109 527.23C556.243 527.217 556.374 527.177 556.492 527.113C556.611 527.049 556.716 526.962 556.802 526.857C556.917 526.728 556.995 526.57 557.028 526.399C557.061 526.229 557.047 526.053 556.988 525.89C556.929 525.727 556.827 525.583 556.693 525.474C556.559 525.364 556.398 525.292 556.226 525.267C555.544 524.7 554.813 524.195 554.041 523.758C554.619 523.433 553.52 524.069 557.088 521.983C557.603 521.681 558.09 521.403 558.049 520.541C558.04 520.23 557.915 519.934 557.7 519.709C557.484 519.485 557.194 519.348 556.883 519.325Z" fill="#120853"/>
<path d="M468.091 433.711C370.62 462.276 376.639 461.114 376.458 461.526C376.411 461.638 376.39 461.758 376.397 461.88C376.403 462.001 376.438 462.118 376.497 462.224C374.202 491.455 373.254 528.531 372.704 558.158C372.512 558.251 372.357 558.406 372.263 558.598C372.17 558.789 372.144 559.007 372.189 559.216C372.234 559.424 372.348 559.611 372.513 559.747C372.678 559.883 372.883 559.959 373.096 559.964C373.202 559.968 373.306 559.951 373.405 559.914C373.503 559.877 373.593 559.821 373.67 559.749L373.786 559.712C373.818 559.712 373.844 559.729 373.879 559.729C374.159 559.726 374.429 559.622 374.639 559.436C405.102 549.624 434.96 538.023 464.057 524.695C464.236 524.621 464.391 524.498 464.505 524.341C464.619 524.184 464.688 523.999 464.703 523.805C464.706 523.628 464.668 523.452 464.593 523.29C467.914 503.561 469.378 475.544 469.567 455.391V434.804C469.565 434.626 469.522 434.451 469.441 434.293C469.36 434.134 469.243 433.997 469.1 433.891C468.957 433.785 468.792 433.714 468.617 433.683C468.442 433.652 468.262 433.661 468.091 433.711ZM462.35 522.844C442.395 531.525 434.096 535.24 421.735 540.153C422.323 534.488 422.381 528.704 422.715 523.006C422.715 523.006 424.105 497.454 424.31 493.732C440.113 487.442 451.655 482.365 466.548 475.46C465.225 503.076 463.798 509.386 462.35 522.844ZM426.219 448.454C425.461 454.014 425.444 459.767 425.086 465.357C424.711 471.241 423.67 489.709 423.498 492.64C422.865 493.073 422.194 493.447 421.493 493.758C399.758 502.378 391.718 504.906 376.357 510.378C376.674 501.415 378.245 466.847 378.413 462.379C388.755 459.811 393.912 458.028 426.219 448.454Z" fill="#120853"/>
</svg>
