<svg width="120" height="23" viewBox="0 0 120 23" fill="none" xmlns="http://www.w3.org/2000/svg">
<path d="M16.644 18.8793L1.80434 8.65638C0.300517 7.62046 0.811718 5.46351 2.68694 4.95628L18.4589 0.681236C18.793 0.560841 19.151 0.521758 19.5033 0.567235C19.8555 0.612712 20.1918 0.741434 20.4843 0.94272C20.7767 1.14401 21.0169 1.41205 21.1849 1.7246C21.3528 2.03716 21.4437 2.38521 21.45 2.73987L20.5153 17.237C20.4044 18.9578 18.1479 19.9152 16.644 18.8793Z" fill="#E9327C"/>
<path d="M11.9373 21.4031L3.19473 4.32853C2.99489 3.93791 2.90695 3.49976 2.94061 3.0624C2.97427 2.62504 3.12822 2.20546 3.38548 1.84993C3.64275 1.4944 3.99334 1.21674 4.39859 1.04755C4.80383 0.878368 5.24799 0.824242 5.68208 0.891147L21.8842 3.38843C22.2571 3.44593 22.6112 3.59104 22.9171 3.81181C23.223 4.03259 23.4721 4.32273 23.6439 4.65839C23.8156 4.99404 23.9052 5.36561 23.9051 5.74255C23.9051 6.11949 23.8154 6.49105 23.6436 6.82664L16.1799 21.4039C15.9795 21.7934 15.6754 22.1202 15.3011 22.3483C14.9268 22.5765 14.4968 22.6971 14.0583 22.697C13.6198 22.6969 13.1899 22.5761 12.8157 22.3479C12.4414 22.1195 12.1375 21.7927 11.9373 21.4031Z" fill="#1DACE3"/>
<path d="M21.4104 3.31524L13.3338 2.07031L3.41748 4.75925L7.37556 12.4923L16.6442 18.8797C16.8486 19.0191 17.0736 19.1258 17.3109 19.1961L20.8314 12.3205L21.4104 3.31524Z" fill="#001A49"/>
<path d="M36.001 18.4827C34.8077 18.4827 33.7839 18.2452 32.9295 17.7702C32.0799 17.2951 31.4269 16.6348 30.9702 15.7893C30.5135 14.939 30.2852 13.9557 30.2852 12.8394C30.2852 11.7183 30.5135 10.735 30.9702 9.8895C31.4318 9.03921 32.0873 8.37655 32.9368 7.90153C33.7913 7.4265 34.8102 7.18899 35.9936 7.18899C37.0396 7.18899 37.9505 7.37188 38.7263 7.73765C39.5071 8.10341 40.116 8.62119 40.553 9.29097C40.995 9.95601 41.2282 10.7374 41.2528 11.6352H37.8866C37.8179 11.0747 37.6215 10.6353 37.2974 10.317C36.9782 9.99876 36.5608 9.83963 36.0452 9.83963C35.6278 9.83963 35.262 9.95363 34.9477 10.1816C34.6334 10.4049 34.3879 10.7374 34.2111 11.1792C34.0392 11.6162 33.9533 12.1577 33.9533 12.8038C33.9533 13.4498 34.0392 13.9961 34.2111 14.4426C34.3879 14.8844 34.6334 15.2193 34.9477 15.4473C35.262 15.6705 35.6278 15.7822 36.0452 15.7822C36.3791 15.7822 36.6737 15.7133 36.9291 15.5755C37.1893 15.4378 37.4029 15.2359 37.5699 14.9699C37.7369 14.6991 37.8424 14.3714 37.8866 13.9866H41.2528C41.2184 14.8891 40.9852 15.6777 40.553 16.3522C40.1258 17.0267 39.5243 17.5516 38.7484 17.9269C37.9775 18.2974 37.0617 18.4827 36.001 18.4827Z" fill="#001A49"/>
<path d="M46.2855 18.4613C45.5636 18.4613 44.9228 18.3449 44.363 18.1122C43.8081 17.8747 43.3686 17.5184 43.0445 17.0434C42.7253 16.5636 42.5657 15.9627 42.5657 15.2407C42.5657 14.6326 42.6762 14.1196 42.8972 13.7016C43.1182 13.2836 43.4226 12.9439 43.8106 12.6826C44.1985 12.4214 44.6453 12.2242 45.1511 12.0912C45.6569 11.9535 46.1971 11.8609 46.7716 11.8134C47.4149 11.7563 47.9329 11.697 48.3258 11.6352C48.7186 11.5687 49.0034 11.4761 49.1802 11.3573C49.3619 11.2338 49.4527 11.0604 49.4527 10.8372V10.8015C49.4527 10.4358 49.3226 10.1531 49.0624 9.95363C48.8021 9.75412 48.451 9.65437 48.0091 9.65437C47.5327 9.65437 47.1497 9.75412 46.86 9.95363C46.5703 10.1531 46.3861 10.4287 46.3076 10.7802L42.9856 10.6662C43.0838 10.0011 43.3367 9.40735 43.7443 8.88483C44.1567 8.35755 44.7215 7.94428 45.4384 7.64501C46.1602 7.341 47.0269 7.18899 48.0385 7.18899C48.7604 7.18899 49.4257 7.27212 50.0346 7.43838C50.6435 7.59989 51.1739 7.8374 51.6256 8.15092C52.0774 8.45968 52.4261 8.8397 52.6716 9.29097C52.922 9.74225 53.0472 10.2576 53.0472 10.8372V18.2761H49.659V16.7512H49.5706C49.3693 17.1217 49.1115 17.4353 48.7972 17.6918C48.4878 17.9483 48.122 18.1407 47.6997 18.2689C47.2823 18.3972 46.8109 18.4613 46.2855 18.4613ZM47.3977 16.1812C47.7856 16.1812 48.1343 16.1052 48.4436 15.9532C48.7579 15.8012 49.0083 15.5922 49.1949 15.3262C49.3815 15.0554 49.4748 14.7419 49.4748 14.3856V13.3453C49.3717 13.3976 49.2465 13.4451 49.0992 13.4878C48.9568 13.5306 48.7996 13.5709 48.6278 13.6089C48.4559 13.6469 48.2791 13.6802 48.0974 13.7087C47.9158 13.7372 47.7414 13.7633 47.5745 13.7871C47.2356 13.8393 46.9459 13.9201 46.7053 14.0293C46.4696 14.1386 46.2879 14.2811 46.1602 14.4569C46.0375 14.6279 45.9761 14.8321 45.9761 15.0696C45.9761 15.4307 46.1087 15.7062 46.3738 15.8962C46.6439 16.0862 46.9852 16.1812 47.3977 16.1812Z" fill="#001A49"/>
<path d="M55.2496 18.2761V7.3315H58.7484V9.3266H58.8662C59.0724 8.60456 59.4088 8.06779 59.8753 7.71627C60.3418 7.36 60.8844 7.18187 61.5032 7.18187C61.6701 7.18187 61.842 7.19374 62.0188 7.21749C62.1955 7.23649 62.36 7.26737 62.5123 7.31012V10.3384C62.3404 10.2814 62.1145 10.2363 61.8346 10.203C61.5596 10.1698 61.3141 10.1531 61.098 10.1531C60.6708 10.1531 60.2853 10.2458 59.9416 10.431C59.6028 10.6115 59.3352 10.8657 59.1387 11.1934C58.9472 11.5165 58.8515 11.8965 58.8515 12.3335V18.2761H55.2496Z" fill="#001A49"/>
<path d="M63.9799 18.2761V3.68331H67.5818V9.20547H67.6554C67.8027 8.87295 68.0114 8.55231 68.2815 8.24355C68.5565 7.93478 68.9051 7.68302 69.3274 7.48826C69.7547 7.28875 70.2654 7.18899 70.8595 7.18899C71.6452 7.18899 72.3793 7.3885 73.0619 7.78752C73.7494 8.18654 74.3043 8.8017 74.7266 9.63299C75.1489 10.4643 75.36 11.5236 75.36 12.8109C75.36 14.0507 75.1562 15.0886 74.7487 15.9247C74.346 16.7607 73.8009 17.3878 73.1135 17.8058C72.4309 18.2238 71.6722 18.4328 70.8374 18.4328C70.2678 18.4328 69.7743 18.3426 69.3569 18.162C68.9395 17.9815 68.5884 17.744 68.3036 17.4495C68.0237 17.155 67.8076 16.8391 67.6554 16.5018H67.5449V18.2761H63.9799ZM67.5081 12.8038C67.5081 13.3928 67.5891 13.9058 67.7512 14.3429C67.9181 14.7799 68.1563 15.1195 68.4656 15.3618C68.7799 15.5993 69.1556 15.718 69.5926 15.718C70.0346 15.718 70.4102 15.5993 70.7196 15.3618C71.0289 15.1195 71.2622 14.7799 71.4193 14.3429C71.5814 13.9058 71.6624 13.3928 71.6624 12.8038C71.6624 12.2147 71.5814 11.7041 71.4193 11.2718C71.2622 10.8396 71.0289 10.5047 70.7196 10.2671C70.4151 10.0296 70.0395 9.91088 69.5926 9.91088C69.1507 9.91088 68.775 10.0273 68.4656 10.26C68.1563 10.4928 67.9181 10.8253 67.7512 11.2576C67.5891 11.6898 67.5081 12.2052 67.5081 12.8038Z" fill="#001A49"/>
<path d="M82.5288 18.4827C81.3404 18.4827 80.319 18.2476 79.4646 17.7773C78.6151 17.3023 77.9595 16.642 77.4979 15.7964C77.0412 14.9461 76.8129 13.9605 76.8129 12.8394C76.8129 11.7136 77.0412 10.7279 77.4979 9.88238C77.9595 9.03209 78.6151 8.3718 79.4646 7.90153C80.319 7.4265 81.3404 7.18899 82.5288 7.18899C83.7171 7.18899 84.736 7.4265 85.5855 7.90153C86.44 8.3718 87.0955 9.03209 87.5522 9.88238C88.0138 10.7279 88.2446 11.7136 88.2446 12.8394C88.2446 13.9605 88.0138 14.9461 87.5522 15.7964C87.0955 16.642 86.44 17.3023 85.5855 17.7773C84.736 18.2476 83.7171 18.4827 82.5288 18.4827ZM82.5508 15.8534C82.983 15.8534 83.3488 15.7252 83.6483 15.4687C83.9479 15.2121 84.1762 14.8559 84.3334 14.3999C84.4954 13.9438 84.5764 13.4166 84.5764 12.818C84.5764 12.21 84.4954 11.678 84.3334 11.2219C84.1762 10.7659 83.9479 10.4097 83.6483 10.1531C83.3488 9.89663 82.983 9.76837 82.5508 9.76837C82.104 9.76837 81.7259 9.89663 81.4165 10.1531C81.1121 10.4097 80.8788 10.7659 80.7168 11.2219C80.5596 11.678 80.4811 12.21 80.4811 12.818C80.4811 13.4166 80.5596 13.9438 80.7168 14.3999C80.8788 14.8559 81.1121 15.2121 81.4165 15.4687C81.7259 15.7252 82.104 15.8534 82.5508 15.8534Z" fill="#001A49"/>
<path d="M93.6916 12.0342V18.2761H90.0897V7.3315H93.5148V9.34085H93.64C93.8905 8.67107 94.3177 8.14617 94.9217 7.76615C95.5257 7.38138 96.245 7.18899 97.0798 7.18899C97.8753 7.18899 98.5653 7.36238 99.1496 7.70914C99.7389 8.05116 100.196 8.53093 100.52 9.14847C100.849 9.76125 101.011 10.4785 101.006 11.3003V18.2761H97.4039V11.9844C97.4088 11.3763 97.2493 10.9013 96.9252 10.5593C96.606 10.2173 96.1616 10.0463 95.5919 10.0463C95.2138 10.0463 94.8799 10.127 94.5902 10.2885C94.3054 10.4453 94.0844 10.6709 93.9273 10.9654C93.7751 11.2599 93.6965 11.6162 93.6916 12.0342Z" fill="#001A49"/>
<path d="M103.236 18.2761V7.3315H106.838V18.2761H103.236ZM105.04 6.05606C104.535 6.05606 104.1 5.89455 103.737 5.57154C103.373 5.24377 103.192 4.8495 103.192 4.38873C103.192 3.9327 103.373 3.54318 103.737 3.22017C104.1 2.8924 104.535 2.72852 105.04 2.72852C105.551 2.72852 105.986 2.8924 106.344 3.22017C106.708 3.54318 106.889 3.9327 106.889 4.38873C106.889 4.8495 106.708 5.24377 106.344 5.57154C105.986 5.89455 105.551 6.05606 105.04 6.05606Z" fill="#001A49"/>
<path d="M112.32 18.4613C111.598 18.4613 110.957 18.3449 110.397 18.1122C109.842 17.8747 109.403 17.5184 109.079 17.0434C108.759 16.5636 108.6 15.9627 108.6 15.2407C108.6 14.6326 108.71 14.1196 108.931 13.7016C109.152 13.2836 109.457 12.9439 109.845 12.6826C110.233 12.4214 110.68 12.2242 111.185 12.0912C111.691 11.9535 112.231 11.8609 112.806 11.8134C113.449 11.7563 113.967 11.697 114.36 11.6352C114.753 11.5687 115.038 11.4761 115.214 11.3573C115.396 11.2338 115.487 11.0604 115.487 10.8372V10.8015C115.487 10.4358 115.357 10.1531 115.097 9.95363C114.836 9.75412 114.485 9.65437 114.043 9.65437C113.567 9.65437 113.184 9.75412 112.894 9.95363C112.604 10.1531 112.42 10.4287 112.342 10.7802L109.02 10.6662C109.118 10.0011 109.371 9.40735 109.778 8.88483C110.191 8.35755 110.756 7.94428 111.473 7.64501C112.194 7.341 113.061 7.18899 114.073 7.18899C114.795 7.18899 115.46 7.27212 116.069 7.43838C116.678 7.59989 117.208 7.8374 117.66 8.15092C118.112 8.45968 118.46 8.8397 118.706 9.29097C118.956 9.74225 119.081 10.2576 119.081 10.8372V18.2761H115.693V16.7512H115.605C115.403 17.1217 115.146 17.4353 114.831 17.6918C114.522 17.9483 114.156 18.1407 113.734 18.2689C113.316 18.3972 112.845 18.4613 112.32 18.4613ZM113.432 16.1812C113.82 16.1812 114.168 16.1052 114.478 15.9532C114.792 15.8012 115.043 15.5922 115.229 15.3262C115.416 15.0554 115.509 14.7419 115.509 14.3856V13.3453C115.406 13.3976 115.281 13.4451 115.133 13.4878C114.991 13.5306 114.834 13.5709 114.662 13.6089C114.49 13.6469 114.313 13.6802 114.132 13.7087C113.95 13.7372 113.776 13.7633 113.609 13.7871C113.27 13.8393 112.98 13.9201 112.739 14.0293C112.504 14.1386 112.322 14.2811 112.194 14.4569C112.072 14.6279 112.01 14.8321 112.01 15.0696C112.01 15.4307 112.143 15.7062 112.408 15.8962C112.678 16.0862 113.019 16.1812 113.432 16.1812Z" fill="#001A49"/>
</svg>
