<svg width="1440" height="847" viewBox="0 0 1440 847" fill="none" xmlns="http://www.w3.org/2000/svg">
<circle cx="269.5" cy="156.22" r="9.5" fill="#02934D"/>
<circle cx="1285.5" cy="108.22" r="9.5" fill="#7568C8"/>
<circle cx="1337.5" cy="470.22" r="9.5" fill="#DA7B07"/>
<g opacity="0.5">
<path d="M844.645 967.559C844.645 967.559 986.842 999.307 1064.27 817.096C1141.69 634.885 1183.06 837.15 1274.36 669.563C1365.66 501.977 1450.18 547.815 1480.52 546.48C1510.85 545.145 1625.46 422.574 1625.46 422.574" stroke="#275C70" stroke-width="2"/>
<path d="M848.281 974.168C848.281 974.168 990.479 1005.92 1067.9 823.705C1145.33 641.494 1186.7 843.759 1278 676.173C1369.3 508.586 1453.82 554.424 1484.15 553.089C1514.49 551.754 1629.1 429.183 1629.1 429.183" stroke="#275C70" stroke-width="2"/>
<path d="M851.918 980.776C851.918 980.776 994.115 1012.52 1071.54 830.313C1148.96 648.102 1190.34 850.366 1281.64 682.78C1372.93 515.194 1457.45 561.031 1487.79 559.697C1518.13 558.362 1632.74 435.791 1632.74 435.791" stroke="#275C70" stroke-width="2"/>
<path d="M855.554 987.384C855.554 987.384 997.752 1019.13 1075.17 836.921C1152.6 654.71 1193.97 856.975 1285.27 689.388C1376.57 521.802 1461.09 567.64 1491.43 566.305C1521.76 564.97 1636.37 442.399 1636.37 442.399" stroke="#275C70" stroke-width="2"/>
<path d="M859.191 993.992C859.191 993.992 1001.39 1025.74 1078.81 843.529C1156.24 661.318 1197.61 863.582 1288.91 695.996C1380.21 528.41 1464.73 574.247 1495.06 572.912C1525.4 571.578 1640.01 449.006 1640.01 449.006" stroke="#275C70" stroke-width="2"/>
<path d="M862.826 1000.6C862.826 1000.6 1005.02 1032.35 1082.45 850.137C1159.87 667.926 1201.25 870.191 1292.54 702.604C1383.84 535.018 1468.36 580.856 1498.7 579.521C1529.04 578.186 1643.64 455.615 1643.64 455.615" stroke="#275C70" stroke-width="2"/>
<path d="M866.463 1007.21C866.463 1007.21 1008.66 1038.96 1086.08 856.745C1163.51 674.534 1204.88 876.799 1296.18 709.213C1387.48 541.626 1472 587.464 1502.34 586.129C1532.67 584.794 1647.28 462.223 1647.28 462.223" stroke="#275C70" stroke-width="2"/>
<path d="M870.099 1013.82C870.099 1013.82 1012.3 1045.56 1089.72 863.353C1167.14 681.142 1208.52 883.406 1299.82 715.82C1391.12 548.234 1475.63 594.071 1505.97 592.737C1536.31 591.402 1650.92 468.831 1650.92 468.831" stroke="#275C70" stroke-width="2"/>
<path d="M873.735 1020.42C873.735 1020.42 1015.93 1052.17 1093.36 869.961C1170.78 687.75 1212.15 890.015 1303.45 722.429C1394.75 554.842 1479.27 600.68 1509.61 599.345C1539.95 598.01 1654.55 475.439 1654.55 475.439" stroke="#275C70" stroke-width="2"/>
<path d="M877.372 1027.03C877.372 1027.03 1019.57 1058.78 1096.99 876.57C1174.42 694.359 1215.79 896.623 1307.09 729.037C1398.39 561.451 1482.91 607.288 1513.24 605.953C1543.58 604.619 1658.19 482.047 1658.19 482.047" stroke="#275C70" stroke-width="2"/>
<path d="M881.008 1033.64C881.008 1033.64 1023.21 1065.39 1100.63 883.178C1178.05 700.967 1219.43 903.232 1310.73 735.645C1402.02 568.059 1486.54 613.897 1516.88 612.562C1547.22 611.227 1661.83 488.656 1661.83 488.656" stroke="#275C70" stroke-width="2"/>
<path d="M884.645 1040.25C884.645 1040.25 1026.84 1072 1104.27 889.785C1181.69 707.575 1223.06 909.839 1314.36 742.253C1405.66 574.666 1490.18 620.504 1520.52 619.169C1550.85 617.835 1665.46 495.263 1665.46 495.263" stroke="#275C70" stroke-width="2"/>
<path d="M888.281 1046.86C888.281 1046.86 1030.48 1078.61 1107.9 896.395C1185.33 714.184 1226.7 916.448 1318 748.862C1409.3 581.276 1493.82 627.113 1524.15 625.779C1554.49 624.444 1669.1 501.873 1669.1 501.873" stroke="#275C70" stroke-width="2"/>
<path d="M891.916 1053.47C891.916 1053.47 1034.11 1085.21 1111.54 903.002C1188.96 720.791 1230.33 923.056 1321.63 755.47C1412.93 587.883 1497.45 633.721 1527.79 632.386C1558.13 631.051 1672.73 508.48 1672.73 508.48" stroke="#275C70" stroke-width="2"/>
<path d="M895.552 1060.07C895.552 1060.07 1037.75 1091.82 1115.17 909.611C1192.6 727.4 1233.97 929.664 1325.27 762.078C1416.57 594.492 1501.09 640.329 1531.42 638.995C1561.76 637.66 1676.37 515.088 1676.37 515.088" stroke="#275C70" stroke-width="2"/>
<path d="M899.189 1066.68C899.189 1066.68 1041.39 1098.43 1118.81 916.219C1196.23 734.008 1237.61 936.273 1328.91 768.686C1420.21 601.1 1504.72 646.938 1535.06 645.603C1565.4 644.268 1680.01 521.697 1680.01 521.697" stroke="#275C70" stroke-width="2"/>
<path d="M902.825 1073.29C902.825 1073.29 1045.02 1105.04 1122.45 922.826C1199.87 740.616 1241.24 942.88 1332.54 775.294C1423.84 607.708 1508.36 653.545 1538.7 652.21C1569.04 650.876 1683.64 528.304 1683.64 528.304" stroke="#275C70" stroke-width="2"/>
<path d="M906.462 1079.9C906.462 1079.9 1048.66 1111.65 1126.08 929.435C1203.51 747.224 1244.88 949.488 1336.18 781.902C1427.48 614.316 1512 660.154 1542.34 658.819C1572.67 657.484 1687.28 534.913 1687.28 534.913" stroke="#275C70" stroke-width="2"/>
<path d="M910.098 1086.51C910.098 1086.51 1052.3 1118.25 1129.72 936.043C1207.14 753.832 1248.52 956.097 1339.82 788.511C1431.11 620.924 1515.63 666.762 1545.97 665.427C1576.31 664.092 1690.92 541.521 1690.92 541.521" stroke="#275C70" stroke-width="2"/>
<path d="M913.735 1093.11C913.735 1093.11 1055.93 1124.86 1133.36 942.652C1210.78 760.441 1252.15 962.705 1343.45 795.119C1434.75 627.533 1519.27 673.37 1549.61 672.036C1579.95 670.701 1694.55 548.129 1694.55 548.129" stroke="#275C70" stroke-width="2"/>
<path d="M917.37 1099.72C917.37 1099.72 1059.57 1131.47 1136.99 949.26C1214.41 767.049 1255.79 969.314 1347.09 801.727C1438.39 634.141 1522.91 679.979 1553.24 678.644C1583.58 677.309 1698.19 554.738 1698.19 554.738" stroke="#275C70" stroke-width="2"/>
<path d="M921.006 1106.33C921.006 1106.33 1063.2 1138.08 1140.63 955.868C1218.05 773.657 1259.43 975.921 1350.72 808.335C1442.02 640.749 1526.54 686.586 1556.88 685.251C1587.22 683.917 1701.82 561.345 1701.82 561.345" stroke="#275C70" stroke-width="2"/>
<path d="M924.643 1112.94C924.643 1112.94 1066.84 1144.69 1144.26 962.476C1221.69 780.265 1263.06 982.529 1354.36 814.943C1445.66 647.357 1530.18 693.195 1560.52 691.86C1590.85 690.525 1705.46 567.954 1705.46 567.954" stroke="#275C70" stroke-width="2"/>
<path d="M928.279 1119.55C928.279 1119.55 1070.48 1151.3 1147.9 969.084C1225.32 786.873 1266.7 989.138 1358 821.552C1449.3 653.965 1533.81 699.803 1564.15 698.468C1594.49 697.133 1709.1 574.562 1709.1 574.562" stroke="#275C70" stroke-width="2"/>
<path d="M931.916 1126.15C931.916 1126.15 1074.11 1157.9 1151.54 975.692C1228.96 793.481 1270.34 995.745 1361.63 828.159C1452.93 660.573 1537.45 706.41 1567.79 705.076C1598.13 703.741 1712.73 581.169 1712.73 581.169" stroke="#275C70" stroke-width="2"/>
<path d="M935.552 1132.76C935.552 1132.76 1077.75 1164.51 1155.17 982.3C1232.6 800.089 1273.97 1002.35 1365.27 834.767C1456.57 667.181 1541.09 713.019 1571.42 711.684C1601.76 710.349 1716.37 587.778 1716.37 587.778" stroke="#275C70" stroke-width="2"/>
<path d="M939.189 1139.37C939.189 1139.37 1081.39 1171.12 1158.81 988.909C1236.23 806.698 1277.61 1008.96 1368.91 841.376C1460.21 673.79 1544.72 719.627 1575.06 718.292C1605.4 716.958 1720.01 594.386 1720.01 594.386" stroke="#275C70" stroke-width="2"/>
<path d="M942.824 1145.98C942.824 1145.98 1085.02 1177.73 1162.44 995.516C1239.87 813.305 1281.24 1015.57 1372.54 847.983C1463.84 680.397 1548.36 726.235 1578.7 724.9C1609.03 723.565 1723.64 600.994 1723.64 600.994" stroke="#275C70" stroke-width="2"/>
<path d="M946.46 1152.59C946.46 1152.59 1088.66 1184.34 1166.08 1002.12C1243.5 819.913 1284.88 1022.18 1376.18 854.592C1467.48 687.005 1552 732.843 1582.33 731.508C1612.67 730.173 1727.28 607.602 1727.28 607.602" stroke="#275C70" stroke-width="2"/>
<path d="M950.096 1159.2C950.096 1159.2 1092.29 1190.94 1169.72 1008.73C1247.14 826.523 1288.52 1028.79 1379.81 861.201C1471.11 693.615 1555.63 739.452 1585.97 738.118C1616.31 736.783 1730.91 614.211 1730.91 614.211" stroke="#275C70" stroke-width="2"/>
<path d="M953.733 1165.8C953.733 1165.8 1095.93 1197.55 1173.35 1015.34C1250.78 833.13 1292.15 1035.39 1383.45 867.808C1474.75 700.222 1559.27 746.06 1589.61 744.725C1619.94 743.39 1734.55 620.819 1734.55 620.819" stroke="#275C70" stroke-width="2"/>
</g>
<g opacity="0.5">
<path d="M-426.354 298.559C-426.354 298.559 -284.157 330.307 -206.733 148.096C-129.31 -34.1149 -87.9352 168.15 3.36349 0.563286C94.6621 -167.023 179.181 -121.185 209.519 -122.52C239.856 -123.855 354.464 -246.426 354.464 -246.426" stroke="#275C70" stroke-width="2"/>
<path d="M-422.719 305.168C-422.719 305.168 -280.521 336.916 -203.098 154.705C-125.674 -27.5056 -84.2994 174.759 6.99923 7.17266C98.2979 -160.414 182.817 -114.576 213.154 -115.911C243.492 -117.246 358.1 -239.817 358.1 -239.817" stroke="#275C70" stroke-width="2"/>
<path d="M-419.081 311.776C-419.081 311.776 -276.884 343.524 -199.46 161.313C-122.037 -20.8981 -80.6622 181.366 10.6364 13.7801C101.935 -153.806 186.454 -107.969 216.792 -109.303C247.129 -110.638 361.737 -233.209 361.737 -233.209" stroke="#275C70" stroke-width="2"/>
<path d="M-415.446 318.384C-415.446 318.384 -273.248 350.132 -195.825 167.921C-118.402 -14.2897 -77.0265 187.975 14.2722 20.3885C105.571 -147.198 190.09 -101.36 220.427 -102.695C250.765 -104.03 365.373 -226.601 365.373 -226.601" stroke="#275C70" stroke-width="2"/>
<path d="M-411.808 324.992C-411.808 324.992 -269.611 356.74 -192.188 174.529C-114.764 -7.68232 -73.3893 194.582 17.9094 26.9959C109.208 -140.59 193.727 -94.7527 224.065 -96.0875C254.402 -97.4223 369.01 -219.994 369.01 -219.994" stroke="#275C70" stroke-width="2"/>
<path d="M-408.174 331.6C-408.174 331.6 -265.976 363.348 -188.553 181.137C-111.13 -1.07393 -69.7545 201.191 21.5441 33.6043C112.843 -133.982 197.362 -88.1443 227.699 -89.4791C258.037 -90.8139 372.645 -213.385 372.645 -213.385" stroke="#275C70" stroke-width="2"/>
<path d="M-404.536 338.209C-404.536 338.209 -262.339 369.956 -184.916 187.745C-107.492 5.53447 -66.1173 207.799 25.1814 40.2127C116.48 -127.374 200.999 -81.5359 231.337 -82.8707C261.674 -84.2055 376.282 -206.777 376.282 -206.777" stroke="#275C70" stroke-width="2"/>
<path d="M-400.9 344.816C-400.9 344.816 -258.703 376.564 -181.279 194.353C-103.856 12.1419 -62.4811 214.406 28.8176 46.8201C120.116 -120.766 204.636 -74.9285 234.973 -76.2633C265.31 -77.5981 379.918 -200.169 379.918 -200.169" stroke="#275C70" stroke-width="2"/>
<path d="M-397.264 351.424C-397.264 351.424 -255.067 383.172 -177.644 200.961C-100.22 18.7503 -58.8453 221.015 32.4533 53.4285C123.752 -114.158 208.271 -68.3201 238.609 -69.6549C268.946 -70.9897 383.554 -193.561 383.554 -193.561" stroke="#275C70" stroke-width="2"/>
<path d="M-393.627 358.033C-393.627 358.033 -251.43 389.781 -174.006 207.57C-96.5832 25.3587 -55.2081 227.623 36.0905 60.0369C127.389 -107.549 211.908 -61.7117 242.246 -63.0465C272.583 -64.3813 387.191 -186.953 387.191 -186.953" stroke="#275C70" stroke-width="2"/>
<path d="M-389.991 364.641C-389.991 364.641 -247.794 396.389 -170.371 214.178C-92.9474 31.9671 -51.5724 234.232 39.7263 66.6453C131.025 -100.941 215.544 -55.1033 245.881 -56.4381C276.219 -57.7729 390.827 -180.344 390.827 -180.344" stroke="#275C70" stroke-width="2"/>
<path d="M-386.354 371.249C-386.354 371.249 -244.157 402.996 -166.733 220.785C-89.3102 38.5745 -47.9352 240.839 43.3635 73.2527C134.662 -94.3335 219.181 -48.4959 249.519 -49.8307C279.856 -51.1655 394.464 -173.737 394.464 -173.737" stroke="#275C70" stroke-width="2"/>
<path d="M-382.719 377.858C-382.719 377.858 -240.521 409.606 -163.098 227.395C-85.6745 45.1839 -44.2994 247.448 46.9992 79.8621C138.298 -87.7241 222.817 -41.8865 253.154 -43.2213C283.492 -44.5561 398.1 -167.127 398.1 -167.127" stroke="#275C70" stroke-width="2"/>
<path d="M-379.083 384.465C-379.083 384.465 -236.886 416.213 -159.462 234.002C-82.0392 51.7913 -40.6642 254.056 50.6345 86.4695C141.933 -81.1167 226.452 -35.2791 256.79 -36.6139C287.127 -37.9487 401.735 -160.52 401.735 -160.52" stroke="#275C70" stroke-width="2"/>
<path d="M-375.448 391.074C-375.448 391.074 -233.25 422.822 -155.827 240.611C-78.4035 58.3997 -37.0284 260.664 54.2702 93.0779C145.569 -74.5083 230.088 -28.6707 260.425 -30.0055C290.763 -31.3403 405.371 -153.912 405.371 -153.912" stroke="#275C70" stroke-width="2"/>
<path d="M-371.81 397.682C-371.81 397.682 -229.613 429.43 -152.19 247.219C-74.7663 65.0081 -33.3912 267.273 57.9074 99.6863C149.206 -67.8999 233.725 -22.0623 264.063 -23.3971C294.4 -24.7319 409.008 -147.303 409.008 -147.303" stroke="#275C70" stroke-width="2"/>
<path d="M-368.174 404.29C-368.174 404.29 -225.976 436.037 -148.553 253.826C-71.1301 71.6155 -29.755 273.88 61.5437 106.294C152.842 -61.2925 237.362 -15.4549 267.699 -16.7897C298.036 -18.1245 412.645 -140.696 412.645 -140.696" stroke="#275C70" stroke-width="2"/>
<path d="M-364.537 410.898C-364.537 410.898 -222.34 442.646 -144.917 260.435C-67.4933 78.2239 -26.1183 280.488 65.1804 112.902C156.479 -54.6841 240.998 -8.84649 271.336 -10.1813C301.673 -11.5161 416.281 -134.087 416.281 -134.087" stroke="#275C70" stroke-width="2"/>
<path d="M-360.901 417.506C-360.901 417.506 -218.704 449.254 -141.28 267.043C-63.8571 84.8323 -22.482 287.097 68.8166 119.511C160.115 -48.0757 244.635 -2.23809 274.972 -3.57287C305.309 -4.90765 419.917 -127.479 419.917 -127.479" stroke="#275C70" stroke-width="2"/>
<path d="M-357.264 424.115C-357.264 424.115 -215.067 455.863 -137.644 273.652C-60.2204 91.4407 -18.8453 293.705 72.4533 126.119C163.752 -41.4673 248.271 4.37031 278.609 3.03553C308.946 1.70074 423.554 -120.871 423.554 -120.871" stroke="#275C70" stroke-width="2"/>
<path d="M-353.629 430.723C-353.629 430.723 -211.432 462.471 -134.008 280.26C-56.5851 98.0491 -15.2101 300.314 76.0886 132.727C167.387 -34.8589 251.907 10.9787 282.244 9.64393C312.581 8.30914 427.189 -114.262 427.189 -114.262" stroke="#275C70" stroke-width="2"/>
<path d="M-349.993 437.331C-349.993 437.331 -207.796 469.078 -130.373 286.868C-52.9494 104.657 -11.5743 306.921 79.7243 139.335C171.023 -28.2515 255.542 17.5861 285.879 16.2514C316.217 14.9166 430.825 -107.655 430.825 -107.655" stroke="#275C70" stroke-width="2"/>
<path d="M-346.356 443.939C-346.356 443.939 -204.159 475.687 -126.735 293.476C-49.3122 111.265 -7.93711 313.529 83.3615 145.943C174.66 -21.6431 259.179 24.1945 289.517 22.8597C319.854 21.525 434.462 -101.046 434.462 -101.046" stroke="#275C70" stroke-width="2"/>
<path d="M-342.72 450.547C-342.72 450.547 -200.523 482.295 -123.1 300.084C-45.6765 117.873 -4.30137 320.138 86.9973 152.552C178.296 -15.0347 262.815 30.8029 293.152 29.4681C323.49 28.1334 438.098 -94.438 438.098 -94.438" stroke="#275C70" stroke-width="2"/>
<path d="M-339.083 457.155C-339.083 457.155 -196.886 488.903 -119.462 306.692C-42.0392 124.481 -0.664159 326.745 90.6345 159.159C181.933 -8.42726 266.452 37.4103 296.79 36.0756C327.127 34.7408 441.735 -87.8306 441.735 -87.8306" stroke="#275C70" stroke-width="2"/>
<path d="M-335.447 463.763C-335.447 463.763 -193.249 495.511 -115.826 313.3C-38.403 131.089 2.97207 333.354 94.2707 165.767C185.569 -1.81886 270.089 44.0187 300.426 42.684C330.763 41.3492 445.372 -81.2222 445.372 -81.2222" stroke="#275C70" stroke-width="2"/>
<path d="M-331.81 470.372C-331.81 470.372 -189.613 502.12 -112.19 319.909C-34.7663 137.698 6.60879 339.962 97.9074 172.376C189.206 4.78954 273.725 50.6271 304.063 49.2924C334.4 47.9576 449.008 -74.6138 449.008 -74.6138" stroke="#275C70" stroke-width="2"/>
<path d="M-328.175 476.979C-328.175 476.979 -185.977 508.727 -108.554 326.516C-31.131 144.305 10.244 346.569 101.543 178.983C192.841 11.397 277.361 57.2346 307.698 55.8998C338.035 54.565 452.644 -68.0064 452.644 -68.0064" stroke="#275C70" stroke-width="2"/>
<path d="M-324.539 483.587C-324.539 483.587 -182.342 515.335 -104.919 333.124C-27.4953 150.913 13.8798 353.178 105.178 185.592C196.477 18.0054 280.996 63.843 311.334 62.5082C341.671 61.1734 456.279 -61.398 456.279 -61.398" stroke="#275C70" stroke-width="2"/>
<path d="M-320.904 490.197C-320.904 490.197 -178.706 521.945 -101.283 339.734C-23.8596 157.523 17.5155 359.787 108.814 192.201C200.113 24.6147 284.632 70.4523 314.969 69.1176C345.307 67.7828 459.915 -54.7886 459.915 -54.7886" stroke="#275C70" stroke-width="2"/>
<path d="M-317.266 496.804C-317.266 496.804 -175.069 528.552 -97.6456 346.341C-20.2224 164.13 21.1527 366.395 112.451 198.808C203.75 31.2222 288.269 77.0598 318.607 75.725C348.944 74.3902 463.552 -48.1812 463.552 -48.1812" stroke="#275C70" stroke-width="2"/>
</g>
</svg>
