<svg width="80" height="80" viewBox="0 0 80 80" fill="none" xmlns="http://www.w3.org/2000/svg">
<circle cx="40.1392" cy="39.6426" r="39.5" fill="#F4E8DA"/>
<path d="M44.5767 40.1426V37.5176H53.9886L50.979 34.508L52.8349 32.6521L59.0142 38.8301L52.8349 45.008L50.979 43.1521L53.9886 40.1426H44.5767ZM41.9517 34.8926H39.3267V26.7918L36.3171 29.8014L34.4612 27.9455L40.6392 21.7676L46.8171 27.9455L44.9612 29.8014L41.9517 26.7918V34.8926ZM41.9517 45.5251V42.7676C41.9499 41.3757 41.3962 40.0414 40.4121 39.0572C39.4279 38.073 38.0935 37.5193 36.7017 37.5176H27.2884L30.298 34.508L28.4421 32.6521L22.2642 38.8301L28.4421 45.008L30.298 43.1521L27.2884 40.1426H36.7017C37.3976 40.1433 38.0649 40.4201 38.557 40.9122C39.0492 41.4043 39.326 42.0716 39.3267 42.7676V45.5251C37.7332 45.8504 36.3173 46.7557 35.3535 48.0656C34.3896 49.3755 33.9464 50.9966 34.1099 52.6146C34.2733 54.2327 35.0318 55.7324 36.2381 56.8231C37.4445 57.9137 39.0129 58.5176 40.6392 58.5176C42.2654 58.5176 43.8338 57.9137 45.0402 56.8231C46.2465 55.7324 47.005 54.2327 47.1684 52.6146C47.3319 50.9966 46.8887 49.3755 45.9249 48.0656C44.961 46.7557 43.5451 45.8504 41.9517 45.5251ZM40.6392 55.8926C39.8604 55.8926 39.0991 55.6616 38.4516 55.229C37.8041 54.7963 37.2994 54.1814 37.0014 53.4619C36.7034 52.7424 36.6254 51.9507 36.7773 51.1869C36.9292 50.4231 37.3043 49.7215 37.8549 49.1708C38.4056 48.6202 39.1072 48.2452 39.871 48.0932C40.6348 47.9413 41.4265 48.0193 42.146 48.3173C42.8655 48.6153 43.4804 49.12 43.9131 49.7675C44.3457 50.415 44.5767 51.1763 44.5767 51.9551C44.5756 52.999 44.1604 54 43.4222 54.7382C42.684 55.4764 41.6831 55.8915 40.6392 55.8926Z" fill="black"/>
</svg>
