<svg width="79" height="79" viewBox="0 0 79 79" fill="none" xmlns="http://www.w3.org/2000/svg">
<circle cx="39.5" cy="39.5" r="39.5" fill="#D3F1FD"/>
<path d="M48.0353 31.9653C47.2969 31.2272 46.2956 30.8125 45.2515 30.8125C44.2074 30.8125 43.2061 31.2272 42.4677 31.9653L41.8574 32.5743L43.7133 34.4302L44.3236 33.8212C44.5711 33.5821 44.9027 33.4498 45.2468 33.4528C45.5909 33.4558 45.9201 33.5939 46.1635 33.8372C46.4068 34.0806 46.5448 34.4097 46.5478 34.7539C46.5508 35.098 46.4185 35.4296 46.1794 35.6771L41.8574 39.9992L43.7133 41.855L48.0353 37.533C48.7735 36.7946 49.1882 35.7932 49.1882 34.7492C49.1882 33.7051 48.7735 32.7037 48.0353 31.9653ZM35.6794 46.1771C35.4319 46.4162 35.1004 46.5485 34.7562 46.5455C34.4121 46.5425 34.0829 46.4045 33.8396 46.1611C33.5962 45.9178 33.4582 45.5886 33.4552 45.2444C33.4522 44.9003 33.5845 44.5688 33.8236 44.3212L38.1456 39.9992L36.2898 38.1433L31.9677 42.4653C31.5916 42.8286 31.2917 43.2631 31.0853 43.7434C30.8789 44.2238 30.7703 44.7405 30.7658 45.2633C30.7612 45.7861 30.8609 46.3046 31.0588 46.7885C31.2568 47.2724 31.5492 47.7121 31.9189 48.0818C32.2886 48.4515 32.7282 48.7439 33.2121 48.9418C33.696 49.1398 34.2145 49.2394 34.7373 49.2349C35.2602 49.2304 35.7768 49.1217 36.2572 48.9154C36.7376 48.709 37.1721 48.409 37.5353 48.033L38.1456 47.424L36.2898 45.5681L35.6794 46.1771ZM37.5353 31.9667C36.7897 31.2668 35.801 30.8845 34.7785 30.9006C33.756 30.9167 32.7799 31.33 32.0567 32.053C31.3335 32.7761 30.92 33.7521 30.9036 34.7746C30.8872 35.7971 31.2693 36.7859 31.969 37.5317L32.578 38.142L34.4339 36.2861L33.8249 35.6758C33.5858 35.4282 33.4535 35.0967 33.4565 34.7526C33.4595 34.4084 33.5975 34.0792 33.8409 33.8359C34.0842 33.5925 34.4134 33.4545 34.7575 33.4515C35.1017 33.4485 35.4332 33.5808 35.6808 33.8199L40.0015 38.1433L41.8574 36.2874L37.5353 31.9667Z" fill="#00739F"/>
<path d="M48.0303 42.4658L47.4213 41.8555L45.5654 43.7113L46.1744 44.3217C46.4135 44.5692 46.5458 44.9007 46.5428 45.2449C46.5398 45.589 46.4018 45.9182 46.1584 46.1615C45.9151 46.4049 45.5859 46.5429 45.2418 46.5459C44.8976 46.5489 44.5661 46.4166 44.3186 46.1775L39.9965 41.8555L38.1406 43.7113L42.4627 48.0334C43.2053 48.7507 44.1999 49.1475 45.2323 49.1386C46.2647 49.1296 47.2523 48.7155 47.9823 47.9854C48.7124 47.2554 49.1265 46.2678 49.1355 45.2354C49.1444 44.203 48.7476 43.2084 48.0303 42.4658Z" fill="#00739F"/>
<path d="M40 59.6879C39.7676 59.6881 39.5393 59.6265 39.3385 59.5094L23.5885 50.3219C23.3903 50.2063 23.226 50.0407 23.1117 49.8417C22.9975 49.6428 22.9374 49.4173 22.9375 49.1879V30.8129C22.9374 30.5835 22.9975 30.358 23.1117 30.159C23.226 29.9601 23.3903 29.7945 23.5885 29.6789L39.3385 20.4914C39.5393 20.3742 39.7675 20.3125 40 20.3125C40.2325 20.3125 40.4607 20.3742 40.6615 20.4914L56.4115 29.6789L55.0885 31.9469L40 23.1453L25.5625 31.5663V48.4345L40 56.8568L54.4375 48.4345V38.6879H57.0625V49.1879C57.0626 49.4173 57.0025 49.6428 56.8883 49.8417C56.774 50.0407 56.6097 50.2063 56.4115 50.3219L40.6615 59.5094C40.4607 59.6265 40.2324 59.6881 40 59.6879Z" fill="#00739F"/>
</svg>
