<svg width="80" height="79" viewBox="0 0 80 79" fill="none" xmlns="http://www.w3.org/2000/svg">
<circle cx="40" cy="39.5" r="39.5" fill="#EDEAFF"/>
<path d="M48.5339 31.9663C47.7955 31.2282 46.7941 30.8135 45.75 30.8135C44.706 30.8135 43.7046 31.2282 42.9662 31.9663L42.3559 32.5753L44.2118 34.4312L44.8221 33.8222C45.0696 33.5831 45.4012 33.4508 45.7453 33.4538C46.0895 33.4568 46.4186 33.5948 46.662 33.8382C46.9053 34.0815 47.0434 34.4107 47.0464 34.7549C47.0494 35.099 46.9171 35.4305 46.678 35.6781L42.3559 40.0001L44.2118 41.856L48.5339 37.5339C49.272 36.7956 49.6867 35.7942 49.6867 34.7501C49.6867 33.7061 49.272 32.7047 48.5339 31.9663ZM36.178 46.1781C35.9304 46.4172 35.5989 46.5494 35.2548 46.5465C34.9106 46.5435 34.5814 46.4054 34.3381 46.1621C34.0947 45.9187 33.9567 45.5895 33.9537 45.2454C33.9507 44.9013 34.083 44.5697 34.3221 44.3222L38.6442 40.0001L36.7883 38.1443L32.4662 42.4663C32.0902 42.8295 31.7902 43.264 31.5838 43.7444C31.3775 44.2248 31.2689 44.7415 31.2643 45.2643C31.2598 45.7871 31.3594 46.3056 31.5574 46.7895C31.7554 47.2734 32.0477 47.713 32.4174 48.0828C32.7871 48.4525 33.2268 48.7448 33.7107 48.9428C34.1946 49.1408 34.7131 49.2404 35.2359 49.2359C35.7587 49.2313 36.2754 49.1227 36.7558 48.9163C37.2362 48.71 37.6706 48.41 38.0339 48.0339L38.6442 47.4249L36.7883 45.5691L36.178 46.1781ZM38.0339 31.9676C37.2882 31.2678 36.2996 30.8854 35.277 30.9016C34.2545 30.9177 33.2784 31.331 32.5552 32.054C31.832 32.777 31.4185 33.7531 31.4021 34.7756C31.3858 35.7981 31.7679 36.7868 32.4675 37.5326L33.0765 38.1429L34.9324 36.2871L34.3234 35.6768C34.0843 35.4292 33.952 35.0977 33.955 34.7535C33.958 34.4094 34.0961 34.0802 34.3394 33.8369C34.5828 33.5935 34.9119 33.4555 35.2561 33.4525C35.6002 33.4495 35.9318 33.5818 36.1793 33.8209L40.5 38.1443L42.3559 36.2884L38.0339 31.9676Z" fill="#5747B8"/>
<path d="M48.5337 42.4658L47.9247 41.8555L46.0689 43.7113L46.6779 44.3217C46.9169 44.5692 47.0492 44.9007 47.0462 45.2449C47.0433 45.589 46.9052 45.9182 46.6619 46.1615C46.4185 46.4049 46.0893 46.5429 45.7452 46.5459C45.4011 46.5489 45.0695 46.4166 44.822 46.1775L40.4999 41.8555L38.644 43.7113L42.9661 48.0334C43.7087 48.7507 44.7033 49.1475 45.7357 49.1386C46.7681 49.1296 47.7557 48.7155 48.4858 47.9854C49.2158 47.2554 49.6299 46.2678 49.6389 45.2354C49.6479 44.203 49.251 43.2084 48.5337 42.4658Z" fill="#5747B8"/>
<path d="M40.5 59.6879C40.2676 59.6881 40.0393 59.6265 39.8385 59.5094L24.0885 50.3219C23.8903 50.2063 23.726 50.0407 23.6117 49.8417C23.4975 49.6428 23.4374 49.4173 23.4375 49.1879V30.8129C23.4374 30.5835 23.4975 30.358 23.6117 30.159C23.726 29.9601 23.8903 29.7945 24.0885 29.6789L39.8385 20.4914C40.0393 20.3742 40.2675 20.3125 40.5 20.3125C40.7325 20.3125 40.9607 20.3742 41.1615 20.4914L56.9115 29.6789L55.5885 31.9469L40.5 23.1453L26.0625 31.5663V48.4345L40.5 56.8568L54.9375 48.4345V38.6879H57.5625V49.1879C57.5626 49.4173 57.5025 49.6428 57.3883 49.8417C57.274 50.0407 57.1097 50.2063 56.9115 50.3219L41.1615 59.5094C40.9607 59.6265 40.7324 59.6881 40.5 59.6879Z" fill="#5747B8"/>
</svg>
