<svg width="266" height="71" viewBox="0 0 266 71" fill="none" xmlns="http://www.w3.org/2000/svg">
<path d="M29.8274 5.63135C31.0917 5.701 32.2666 4.96342 33.5671 5.13768C34.2149 4.55593 35.0215 4.88506 35.7477 4.72357C36.0384 4.43364 36.4779 4.7028 36.7677 4.37769C37.2323 4.36447 37.696 4.31607 38.1607 4.30286C38.4202 4.08423 38.7542 4.14515 39.0529 4.13665C39.2852 4.13004 39.5528 4.19285 39.7117 3.94187C40.1432 3.92959 40.5737 3.88214 41.0052 3.86987C41.2326 3.68736 41.4991 3.71499 41.7314 3.70838C41.9306 3.70272 42.1639 3.73129 42.3571 3.51454C43.9875 3.609 45.5607 2.86009 47.1921 2.98973C47.517 2.73403 47.8861 2.86436 48.2502 2.8188C48.4815 2.77701 48.7833 2.87405 48.9754 2.62213C49.6393 2.60325 50.2689 2.55013 50.9327 2.53124C51.323 2.23848 51.7927 2.40116 52.2232 2.3537C52.4546 2.31192 52.7563 2.40896 52.9484 2.15704C53.6787 2.13627 54.4079 2.08032 55.1381 2.05955C55.6933 1.72688 56.33 1.92002 56.9265 1.86784C57.191 1.82511 57.4927 1.92215 57.7181 1.66929C58.6806 1.64191 59.609 1.58029 60.5716 1.55291C60.7657 1.37135 60.999 1.39992 61.2646 1.39237C61.9284 1.37348 62.5923 1.3546 63.2561 1.33572C63.4552 1.33005 63.6544 1.32439 63.8153 1.14377C65.1762 1.10507 66.5361 1.03118 67.8969 0.992467C68.1243 0.809957 68.3908 0.837584 68.6232 0.830975C70.1832 0.786601 71.7432 0.742226 73.3032 0.697852C73.5356 0.691243 73.8031 0.75405 73.9621 0.503076C79.8702 0.335021 85.7784 0.166965 91.6533 -0.000145821C91.8263 0.241387 92.0898 0.163474 92.3221 0.156865C93.9154 0.111546 95.5086 0.0662278 97.135 0.0199653C97.4005 0.0124123 97.665 -0.0303204 97.8692 0.139916C99.2964 0.0993179 100.725 0.0939004 102.152 0.0533028C102.323 0.224475 102.555 0.217866 102.788 0.211257C103.584 0.188598 104.381 0.165939 105.144 0.144224C105.377 0.137615 105.609 0.131006 105.845 0.265118C107.007 0.232073 108.203 0.233265 109.365 0.20022C109.536 0.371392 109.735 0.365728 109.934 0.360063C110.631 0.340236 111.328 0.32041 112.025 0.300583C112.257 0.293974 112.49 0.287365 112.726 0.421477C113.854 0.389376 114.984 0.392456 116.146 0.359411C116.317 0.530584 116.516 0.524919 116.715 0.519254C117.346 0.501316 117.976 0.483377 118.574 0.466383C118.806 0.459774 119.038 0.453165 119.275 0.587277C120.37 0.556121 121.466 0.560144 122.562 0.528988C122.733 0.700168 122.932 0.694503 123.131 0.688838C123.762 0.6709 124.392 0.652962 124.99 0.635967C125.222 0.629358 125.454 0.622742 125.691 0.756853C126.62 0.730418 127.517 0.740106 128.447 0.713671C128.618 0.884851 128.817 0.879186 129.016 0.873521C129.58 0.857471 130.111 0.842365 130.676 0.826315C130.875 0.82065 131.074 0.814978 131.244 0.950978C132.107 0.92643 133.004 0.936119 133.867 0.911571C134.106 1.15122 134.402 1.03719 134.669 1.06481C135.202 1.12006 135.727 0.89388 136.233 1.16115C137.029 1.13849 137.827 1.15101 138.657 1.12741C138.896 1.36706 139.192 1.25302 139.458 1.28065C139.924 1.30261 140.385 1.14868 140.79 1.3836C141.52 1.36283 142.251 1.37724 142.982 1.35647C143.187 1.56188 143.45 1.48397 143.717 1.5116C144.149 1.5345 144.61 1.38056 145.015 1.61549C145.745 1.59472 146.477 1.60913 147.207 1.58836C147.446 1.82801 147.742 1.71397 148.009 1.7416C148.474 1.76356 148.935 1.60962 149.34 1.84455C150.004 1.82566 150.669 1.84196 151.3 1.82402C151.539 2.06367 151.835 1.94964 152.101 1.97726C152.5 2.00111 152.928 1.84812 153.333 2.08304C153.997 2.06416 154.662 2.08047 155.293 2.06253C155.532 2.30217 155.828 2.18814 156.094 2.21576C156.493 2.23961 156.921 2.08662 157.326 2.32154C157.99 2.30266 158.655 2.31896 159.286 2.30103C159.492 2.54162 159.754 2.42852 160.021 2.45615C160.354 2.48189 160.683 2.36691 160.987 2.56949C161.618 2.55155 162.216 2.56974 162.847 2.5518C163.053 2.79239 163.316 2.67929 163.582 2.70692C163.948 2.73172 164.311 2.61579 164.648 2.81743C165.312 2.79855 165.944 2.81579 166.608 2.79691C166.813 3.00231 167.076 2.9244 167.343 2.95203C167.676 2.97777 168.005 2.86278 168.31 3.06537C168.841 3.05026 169.406 3.06939 169.937 3.05429C170.143 3.29488 170.406 3.18179 170.672 3.20941C171.005 3.23515 171.334 3.12017 171.639 3.32275C172.17 3.30764 172.735 3.32677 173.266 3.31167C173.471 3.51708 173.702 3.44011 173.935 3.46869C174.167 3.46208 174.4 3.45546 174.636 3.58957C175.167 3.57447 175.732 3.5936 176.263 3.57849C176.47 3.81908 176.732 3.70599 176.999 3.73362C177.332 3.75936 177.661 3.64438 177.965 3.84695C178.397 3.83468 178.828 3.82241 179.261 3.84531C179.467 4.08591 179.729 3.97281 179.996 4.00044C180.329 4.02618 180.658 3.9112 180.963 4.11378C181.394 4.1015 181.827 4.12441 182.258 4.11213C182.463 4.31755 182.694 4.24058 182.927 4.26915C183.159 4.26254 183.391 4.22075 183.628 4.39004C184.059 4.37776 184.491 4.36549 184.923 4.3884C185.129 4.59381 185.359 4.51684 185.592 4.54542C185.825 4.53881 186.056 4.49702 186.293 4.6663C186.725 4.65403 187.157 4.67693 187.589 4.66466C187.794 4.87008 188.024 4.79311 188.258 4.82168C188.49 4.81507 188.721 4.77328 188.959 4.94257C189.39 4.93029 189.823 4.95321 190.254 4.94093C190.459 5.14634 190.69 5.06937 190.923 5.09794C191.155 5.09133 191.387 5.04954 191.624 5.21883C191.989 5.20844 192.322 5.23419 192.687 5.2238C193.55 5.19926 194.396 5.73852 195.286 5.50196C195.491 5.70736 195.722 5.6304 195.955 5.65897C196.187 5.65236 196.419 5.61057 196.656 5.77986C197.121 5.76664 197.714 5.60893 198.085 5.80962C198.727 6.17866 199.352 5.98482 199.986 6.07242C200.191 6.27783 200.422 6.20087 200.655 6.22944C200.887 6.22283 201.119 6.18103 201.356 6.35033C201.721 6.33994 202.15 6.22213 202.452 6.35435C203.226 6.68443 204.114 6.3775 204.82 6.67429C205.493 6.97202 206.118 6.77819 206.753 6.90097C207.455 7.05704 208.16 7.31864 208.887 7.19233C209.228 7.49951 209.685 7.20485 210.025 7.47685C211.084 7.3411 212.066 7.98213 213.123 7.77602C213.702 8.28766 214.42 7.84474 214.992 8.11012C215.732 8.40597 216.489 8.17318 217.128 8.43667C217.666 8.66782 218.257 8.43975 218.664 8.70986C219.24 9.11596 219.991 8.67209 220.506 9.25598C220.54 9.29022 220.574 9.28927 220.606 9.25315C221.431 9.05365 222.206 9.45409 222.975 9.64345C223.578 9.80235 224.304 9.64086 224.817 10.1544L224.851 10.1886C225.478 10.03 226.022 10.4722 226.59 10.5969C227.192 10.7206 227.921 10.6646 228.466 11.142C228.5 11.1763 228.533 11.1753 228.566 11.1744C229.265 11.2249 229.97 11.4514 230.578 11.8213C230.612 11.8556 230.679 11.8537 230.745 11.8518C231.509 11.8653 232.185 12.2685 232.887 12.4246C233.389 12.5512 233.925 12.7119 234.395 12.8746C234.866 13.0725 235.459 12.9148 235.838 13.3969C235.872 13.4311 235.973 13.4635 236.039 13.4616C236.601 13.34 237.076 13.7138 237.546 13.8764C238.217 14.1038 238.92 14.2951 239.562 14.6993C240.069 15.0017 240.675 15.2662 241.213 15.4973C241.55 15.6638 241.92 15.8293 242.226 16.067C242.801 16.438 243.41 16.8431 243.986 17.2141C244.731 17.721 245.542 18.226 246.161 18.9478C246.744 19.6001 247.458 20.1784 247.977 20.903C248.289 21.3518 248.636 21.8701 248.949 22.3541C249.26 22.8029 249.079 23.4418 249.554 23.7804C249.622 23.8489 249.628 24.0599 249.633 24.2358C249.666 25.3968 249.766 26.5558 249.698 27.6844C249.648 28.2491 249.499 28.8519 249.215 29.3881C249.056 29.6391 249 29.9927 248.842 30.2789C248.621 30.7077 248.434 31.1355 248.214 31.5642C247.615 32.7079 246.776 33.5768 245.939 34.516C245.392 35.1301 244.916 35.9182 244.231 36.3602C243.775 36.6548 243.354 37.0541 242.897 37.3487C242.375 37.6805 241.786 37.9789 241.403 38.5179C241.178 38.806 240.848 38.8858 240.619 38.9979C240.063 39.2954 239.574 39.6262 238.984 39.9246C238.69 40.0738 238.293 40.1555 238.07 40.4787C237.974 40.5871 237.874 40.5899 237.775 40.6279C237.245 40.6782 236.858 41.0765 236.398 41.2656C236.004 41.4177 235.716 41.8132 235.25 41.756C234.85 41.7322 234.562 42.0925 234.2 42.2436C233.97 42.3205 233.672 42.3642 233.51 42.5097C233.089 42.8737 232.556 42.8185 232.099 43.1131C231.773 43.3336 231.347 43.5218 230.919 43.6748C230.426 43.8649 229.861 43.8457 229.475 44.2792C229.443 44.3153 229.343 44.3182 229.278 44.3552C228.651 44.5139 228.024 44.6726 227.471 45.0756C227.439 45.1117 227.373 45.1136 227.306 45.1155C226.637 44.9585 225.984 45.3291 225.56 45.6229C225.006 45.9907 224.264 45.5893 223.851 46.27C223.25 46.1463 222.798 46.6168 222.237 46.7384C221.577 46.898 220.813 46.9197 220.229 47.3941C220.229 47.3941 220.197 47.4302 220.163 47.3959C219.427 47.2408 218.845 47.7855 218.15 47.8757C217.389 47.9678 216.596 48.1311 215.944 48.5722C215.912 48.6083 215.879 48.6092 215.846 48.6102C214.944 48.4598 214.093 48.9065 213.303 49.1402C212.545 49.373 211.675 49.1513 210.995 49.7692C210.963 49.8053 210.93 49.8063 210.897 49.8072C209.832 49.7319 208.888 50.4277 207.821 50.282C207.627 50.4635 207.326 50.4017 207.133 50.6184C206.768 50.6288 206.401 50.5688 206.105 50.6829C205.22 51.0953 204.249 50.8413 203.428 51.1815C202.772 51.4466 202.172 51.3933 201.545 51.5167C201.317 51.6992 201.051 51.6716 200.818 51.6782C200.619 51.6839 200.386 51.6553 200.226 51.8711C199.794 51.8834 199.364 51.9309 198.932 51.9431C198.738 52.1247 198.472 52.0971 198.239 52.1037C198.04 52.1093 197.841 52.115 197.68 52.2956C197.182 52.3098 196.652 52.3601 196.154 52.3742C195.895 52.5929 195.561 52.5319 195.262 52.5404C195.03 52.547 194.763 52.5194 194.603 52.7352C193.906 52.755 193.21 52.81 192.513 52.8299C192.09 53.1236 191.62 52.9609 191.189 53.0084C190.925 53.0511 190.623 52.9541 190.398 53.2069C189.435 53.2343 188.507 53.2959 187.544 53.3233C187.35 53.5049 187.117 53.4763 186.851 53.4838C185.922 53.5103 184.993 53.5367 184.03 53.5641C183.798 53.5707 183.598 53.5412 183.404 53.7579C179.986 53.8552 176.567 53.9524 173.148 54.0497C172.977 53.8785 172.745 53.8851 172.512 53.8917C171.616 53.9172 170.72 53.9427 169.824 53.9682C169.592 53.9748 169.359 53.9814 169.123 53.8473C168.725 53.8586 168.325 53.8348 167.895 53.8822C167.265 53.9353 166.788 53.5264 166.252 53.3656C165.583 53.1734 165.67 52.7484 165.623 52.2569C165.579 51.8708 165.87 51.6161 166.101 51.5391C166.594 51.349 167.014 50.9498 167.582 51.0745C167.777 50.8929 168.009 50.8863 168.274 50.8787C168.905 50.8608 169.536 50.8429 170.133 50.8259C170.332 50.8202 170.531 50.8145 170.692 50.6339C172.551 50.5811 174.442 50.4921 176.301 50.4392C176.528 50.2567 176.795 50.2843 177.027 50.2777C178.62 50.2324 180.214 50.1871 181.84 50.1408C182.072 50.1342 182.339 50.1618 182.499 49.946C183.959 49.9045 185.419 49.8278 186.912 49.7853C187.106 49.6037 187.34 49.6323 187.605 49.6247C188.269 49.6058 188.933 49.587 189.597 49.5681C189.796 49.5624 189.995 49.5567 190.156 49.3761C190.986 49.3525 191.848 49.2928 192.678 49.2692C193.068 48.9764 193.538 49.1391 193.968 49.0917C194.233 49.0489 194.501 49.1469 194.693 48.895C195.291 48.878 195.854 48.8268 196.451 48.8098C196.744 48.5902 197.078 48.6511 197.41 48.6417C197.641 48.5999 197.943 48.6969 198.135 48.445C198.666 48.4299 199.23 48.3787 199.761 48.3636C199.988 48.1811 200.255 48.2087 200.487 48.2021C200.686 48.1964 200.919 48.225 201.079 48.0092C201.511 47.9969 201.941 47.9495 202.373 47.9372C202.665 47.6824 203.103 47.9164 203.393 47.5913C204.427 47.7379 205.37 47.0421 206.402 47.1184C207.234 47.1652 208.021 46.7907 208.779 46.5931C209.34 46.4715 210.007 46.5582 210.464 46.2635C211.181 45.7854 212.09 46.2172 212.704 45.6013C212.736 45.5651 212.769 45.5642 212.802 45.5632C213.637 45.7155 214.424 45.3411 215.113 45.0398C215.736 44.7756 216.474 45.0011 216.956 44.4241L216.988 44.388C217.656 44.5098 218.175 44.0725 218.768 43.9148C219.493 43.7182 220.223 43.6622 220.874 43.2212C220.94 43.1841 221.005 43.147 221.073 43.1803C221.741 43.3373 222.259 42.8649 222.853 42.7072C223.61 42.4744 224.401 42.2407 225.156 41.9375C225.846 41.6714 226.503 41.4063 227.194 41.1754C227.819 40.9464 228.477 40.7164 229.033 40.4189C229.457 40.1604 229.991 40.2508 230.411 39.8164C230.637 39.5987 231.17 39.654 231.494 39.3631C231.949 38.9981 232.546 38.9811 233.036 38.6855C233.363 38.5001 233.826 38.4166 234.186 38.2303C234.545 38.0088 234.907 37.8929 235.232 37.6372C235.493 37.4537 235.819 37.2332 236.051 37.2266C236.812 37.1345 237.363 36.626 237.984 36.2914C238.377 36.1042 238.762 35.6004 239.189 35.4474C239.749 35.2554 239.996 34.6146 240.559 34.5634C240.791 34.5216 240.751 34.3115 240.882 34.2374C241.505 33.938 241.989 33.4313 242.542 33.0283C243.096 32.6604 243.511 32.0501 243.994 31.5083C244.219 31.2554 244.477 31.0016 244.634 30.6802C245.047 29.9996 245.593 29.3503 245.838 28.604C246.205 27.5021 246.338 26.3364 246.073 25.1821C245.997 24.8674 245.918 24.4119 245.578 24.1399C245.34 23.9707 245.262 23.5504 245.19 23.3412C244.936 22.609 244.33 22.3094 243.917 21.7931C243.538 21.3461 243.126 20.8649 242.654 20.6319C242.149 20.3646 241.771 19.9528 241.232 19.6865C240.693 19.4202 240.09 19.2261 239.613 18.8172C239.375 18.6127 239.075 18.586 238.839 18.4519C238.165 18.119 237.491 17.7861 236.817 17.4532C236.447 17.2877 236.015 17.2648 235.643 17.0641C234.968 16.6608 234.139 16.7196 233.525 16.1737C233.457 16.1052 233.357 16.1081 233.258 16.1109C232.696 16.1973 232.188 15.8597 231.751 15.696C231.314 15.4972 230.722 15.7253 230.407 15.1709C230.406 15.1358 230.307 15.1386 230.241 15.1405C229.581 15.3001 228.94 14.9662 228.468 14.7332C227.997 14.5001 227.374 14.7995 227.091 14.209C227.091 14.209 227.058 14.21 227.025 14.2109C226.333 14.4066 225.689 13.9672 225.054 13.8093C224.419 13.6865 223.689 13.7073 223.112 13.266C223.077 13.2318 223.044 13.2327 223.011 13.2336C222.286 13.4303 221.61 13.027 221.007 12.833C220.37 12.6398 219.611 12.8374 219.065 12.3248C219.031 12.2906 218.998 12.2916 218.965 12.2925C218.074 12.4939 217.199 12.0963 216.396 11.9079C215.627 11.7185 214.77 11.9541 214.057 11.4111C214.022 11.3768 213.989 11.3778 213.956 11.3787C212.931 11.5487 211.982 10.8716 210.991 11.0758C210.785 10.8352 210.424 10.9863 210.185 10.7818C209.754 10.7941 209.321 10.7712 208.89 10.7835C208.651 10.5438 208.323 10.694 208.084 10.4895C207.686 10.5008 207.224 10.6196 206.888 10.4883C205.982 10.162 204.994 10.4718 204.121 10.1445C203.349 9.84964 202.624 10.0463 201.89 9.92636C201.684 9.72095 201.454 9.79791 201.221 9.76934C201.022 9.775 200.822 9.78067 200.652 9.64468C200.287 9.65506 199.922 9.66544 199.556 9.64065C198.457 9.53109 197.352 9.24563 196.26 9.38232C196.055 9.17691 195.825 9.25388 195.591 9.22531C195.359 9.23192 195.128 9.27371 194.89 9.10442C194.459 9.11669 193.995 9.16509 193.562 9.107C192.462 8.99744 191.358 8.71198 190.266 8.84868C190.06 8.64327 189.83 8.72024 189.597 8.69166C189.364 8.69827 189.133 8.74006 188.896 8.57077C188.365 8.58588 187.799 8.56675 187.268 8.58186C187.063 8.37644 186.833 8.45341 186.599 8.42484C186.367 8.43145 186.136 8.47324 185.898 8.30395C185.367 8.31906 184.802 8.29993 184.271 8.31503C184.066 8.10962 183.836 8.18659 183.602 8.15802C183.336 8.13039 183.039 8.20925 182.802 8.03996C182.304 8.05412 181.772 8.03405 181.274 8.04821C181.068 7.80762 180.805 7.92071 180.539 7.89308C180.206 7.86734 179.877 7.98233 179.572 7.77975C179.041 7.79486 178.476 7.77572 177.945 7.79083C177.739 7.58542 177.509 7.66238 177.276 7.63381C177.043 7.64042 176.812 7.68221 176.575 7.51292C176.044 7.52803 175.478 7.5089 174.947 7.52401C174.741 7.28341 174.479 7.39651 174.212 7.36888C173.879 7.34314 173.55 7.45812 173.245 7.25554C172.814 7.26782 172.382 7.24491 171.95 7.25718C171.744 7.01659 171.481 7.12968 171.215 7.10206C170.882 7.07632 170.553 7.1913 170.248 6.98872C169.717 7.00383 169.152 6.9847 168.621 6.9998C168.415 6.75921 168.152 6.8723 167.886 6.84468C167.553 6.81894 167.224 6.93392 166.919 6.73134C166.388 6.74645 165.823 6.72732 165.292 6.74242C165.086 6.53701 164.856 6.61398 164.623 6.5854C164.323 6.55872 163.994 6.67371 163.723 6.47018C163.258 6.4834 162.757 6.39203 162.295 6.51078C161.668 6.63426 161.155 6.12072 160.526 6.20902C159.897 6.26214 159.265 6.2449 158.666 6.22671C158.46 5.98612 158.198 6.09921 157.931 6.07159C157.598 6.04585 157.269 6.16083 156.965 5.95825C156.367 5.97524 155.802 5.95611 155.204 5.97311C154.998 5.73252 154.736 5.8456 154.469 5.81798C154.103 5.79319 153.741 5.90912 153.403 5.70748C152.938 5.72069 152.474 5.73391 152.008 5.71195C150.646 5.71548 149.337 5.22461 147.982 5.4744C147.776 5.2338 147.513 5.34689 147.247 5.31927C146.881 5.29447 146.518 5.4104 146.18 5.20877C145.55 5.2267 144.951 5.20852 144.321 5.22646C144.081 4.9868 143.786 5.10084 143.519 5.07322C143.12 5.04936 142.692 5.20236 142.287 4.96743C141.623 4.98632 140.992 4.96908 140.328 4.98796C140.123 4.78254 139.859 4.86046 139.592 4.83283C139.26 4.80709 138.931 4.92207 138.626 4.7195C137.863 4.74121 137.098 4.72775 136.335 4.74946C136.095 4.50981 135.8 4.62385 135.533 4.59622C135.134 4.57237 134.706 4.72536 134.301 4.49044C133.538 4.51215 132.773 4.49868 132.01 4.5204C131.77 4.28075 131.475 4.39479 131.208 4.36716C130.609 4.3138 130.017 4.54187 129.412 4.27743C128.482 4.30387 127.585 4.29417 126.656 4.32061C126.485 4.14943 126.286 4.1551 126.087 4.16076C125.522 4.17681 124.991 4.19192 124.427 4.20797C124.228 4.21364 124.029 4.2193 123.859 4.08331C122.83 4.11258 121.8 4.10666 120.771 4.13592C120.6 3.96475 120.401 3.97042 120.202 3.97608C119.505 3.99591 118.808 4.01573 118.111 4.03556C117.878 4.04217 117.646 4.04878 117.409 3.91467C116.248 3.94771 115.052 3.94652 113.89 3.97957C113.718 3.77321 113.487 3.815 113.255 3.82161C112.458 3.84427 111.661 3.86693 110.898 3.88864C110.666 3.89525 110.433 3.90186 110.197 3.76775C108.902 3.80457 107.64 3.80527 106.346 3.84209C106.175 3.67092 105.942 3.67753 105.71 3.68413C104.947 3.70585 104.216 3.72662 103.453 3.74834C103.221 3.75494 102.988 3.76155 102.752 3.62744C100.926 3.67937 99.0666 3.69706 97.241 3.74899C97.0701 3.57781 96.8377 3.58442 96.6054 3.59103C88.5398 3.82046 80.4409 4.05082 72.3753 4.28025C72.143 4.28686 71.9428 4.25734 71.7497 4.47408C69.6254 4.5345 67.5021 4.63011 65.3447 4.69148C65.1505 4.87304 64.9172 4.84447 64.6516 4.85203C63.7887 4.87657 62.9257 4.90112 62.0627 4.92567C61.8303 4.93228 61.6302 4.90276 61.437 5.1195C60.3749 5.14971 59.3138 5.2151 58.2516 5.24532C57.6964 5.57799 57.0597 5.38485 56.4633 5.43702C56.1987 5.47975 55.897 5.38271 55.6717 5.63557C54.8751 5.65823 54.0794 5.71607 53.2497 5.73967C52.8262 6.03339 52.3565 5.87071 51.926 5.91816C51.6614 5.96089 51.3597 5.86385 51.1344 6.11671C50.4706 6.13559 49.8409 6.18872 49.1771 6.2076C48.8843 6.42717 48.5504 6.36626 48.2185 6.3757C47.9872 6.41749 47.6854 6.32044 47.4933 6.57236C46.9622 6.58747 46.399 6.63871 45.8679 6.65381C45.5752 6.87338 45.2413 6.81246 44.9093 6.8219C44.678 6.86369 44.3763 6.76665 44.1841 7.01857C43.7526 7.03084 43.3211 7.04312 42.8906 7.09058C42.6633 7.27308 42.3968 7.24545 42.1644 7.25206C41.9653 7.25773 41.7319 7.22915 41.5388 7.4459C41.0077 7.46101 40.4444 7.51224 39.9134 7.52734C39.6216 7.78209 39.1832 7.54811 38.8934 7.87323C38.5283 7.88361 38.1622 7.85882 37.7991 7.93956C36.8084 8.14378 35.8146 8.24246 34.858 8.48092C34.2646 8.63863 33.5294 8.48351 33.0747 8.84852C32.3917 9.36085 31.4795 8.82348 30.8679 9.50982C30.8356 9.54595 30.8024 9.54689 30.7683 9.51266C29.9003 9.3613 29.0805 9.73671 28.3915 10.038C27.6703 10.3754 26.8294 10.012 26.25 10.6622C26.25 10.6622 26.2168 10.6632 26.1836 10.6641C25.4484 10.509 24.8308 10.9842 24.1719 11.179C23.5795 11.3719 22.8463 11.2871 22.3292 11.7948C22.297 11.8309 22.2316 11.868 22.1642 11.8347C21.4954 11.6777 20.9079 12.0464 20.3849 12.343C19.8286 12.6405 19.0904 12.3798 18.6427 12.9911C18.6105 13.0272 18.511 13.03 18.4446 13.0319C17.7757 12.8749 17.2577 13.3473 16.6652 13.5402C15.9078 13.773 15.1152 13.9364 14.394 14.2738C14.0993 14.423 13.703 14.5047 13.4786 14.7927C13.3831 14.9363 13.2503 14.9401 13.1507 14.9429C12.6538 14.9922 12.2313 15.3211 11.841 15.6139C11.6137 15.7964 11.318 15.9104 11.0555 16.0235C10.465 16.2868 10.1179 16.9304 9.55666 17.052C8.9632 17.2097 8.74987 17.8847 8.15341 17.9369C7.92108 17.9435 7.96127 18.1888 7.83152 18.2981C6.53186 19.3209 5.33577 20.4816 4.34585 21.8829C4.09034 22.2422 4.03894 22.7718 3.74724 23.0265C3.19796 23.5703 3.6515 24.332 3.27021 24.9413C3.04786 25.2997 2.9713 26.1117 3.48319 26.59C3.55157 26.6585 3.55657 26.8344 3.56058 26.9751C3.5464 27.6445 3.9919 28.1247 4.17389 28.6829C4.35685 29.2762 4.86374 29.5787 5.0457 30.1368C5.22568 30.6246 5.73357 30.9622 6.10966 31.3388C6.96448 32.1947 7.78811 33.1219 8.7375 33.7991C9.48373 34.3412 10.0066 35.2065 10.945 35.4967C11.1793 35.5604 11.3241 35.9788 11.5936 36.1119C12.2011 36.4467 12.7774 36.8528 13.3195 37.2247C13.8283 37.5975 14.4328 37.8268 14.8783 38.307C15.0845 38.5476 15.4536 38.678 15.7885 38.774C15.9897 38.8387 16.0932 38.9766 16.2622 39.0774C16.7027 39.3818 17.1744 39.6148 17.6461 39.8479C18.0172 40.0486 18.5171 40.1048 18.7604 40.4851C19.0038 40.8655 19.4373 40.9236 19.74 41.0558C20.3113 41.286 20.8523 41.6227 21.4246 41.8881C21.9627 42.1192 22.5349 42.3846 23.0428 42.7222C23.3475 42.9248 23.7217 43.2311 24.1854 43.1827C24.5827 43.1361 24.8914 43.4794 25.2273 43.6107C25.5964 43.741 26.0007 43.9408 26.3728 44.1767C27.0155 44.5809 27.7467 44.5953 28.3904 45.0347C28.6951 45.2373 29.1014 45.5074 29.5329 45.4951C29.9302 45.4486 30.2399 45.8271 30.6422 45.9565C30.776 45.9879 30.947 46.159 31.1129 46.1543C31.5756 46.0707 31.9185 46.4483 32.2877 46.5786C32.8579 46.7736 33.398 47.0751 33.9974 47.1285C34.3304 47.1542 34.7025 47.3901 34.8061 47.528C35.2164 47.9388 35.7736 47.6765 36.1829 48.0522C36.4223 48.2918 36.9835 48.1702 37.3566 48.4413C37.7982 48.7808 38.3976 48.8342 38.9005 48.9959C39.337 49.1595 39.8067 49.3222 40.3086 49.4487C40.8105 49.5753 41.3767 49.6296 41.8524 50.0034C41.9198 50.0367 41.9872 50.07 42.0535 50.0681C42.6138 49.9113 43.0583 50.3564 43.5934 50.482C44.2944 50.6029 44.9673 50.9006 45.6713 51.127C46.309 51.3553 46.9788 51.5475 47.6486 51.7397C48.3527 51.9662 49.0225 52.1584 49.7265 52.3848C50.4648 52.6454 51.2332 52.7996 51.9714 53.0603C52.4069 53.1887 52.9702 53.1375 53.3805 53.5483C53.654 53.8222 54.1851 53.8071 54.518 53.8328C55.1516 53.9204 55.7863 54.0432 56.2922 54.3105C56.8644 54.5759 57.4931 54.4876 58.0995 54.7872C58.4707 54.9879 59.0409 55.1829 59.5398 55.2039C60.2046 55.2202 60.8091 55.4495 61.4166 55.7843C61.4508 55.8185 61.4839 55.8176 61.5171 55.8166C62.2423 55.62 62.886 56.0594 63.5548 56.2164C64.1563 56.3401 64.8845 56.249 65.4296 56.7264C65.4638 56.7606 65.497 56.7597 65.5302 56.7587C66.2554 56.5621 66.899 57.0015 67.5679 57.1585C68.1693 57.2822 68.8976 57.1911 69.4426 57.6685C69.4768 57.7027 69.51 57.7018 69.5432 57.7008C70.2684 57.5042 71.0419 57.8342 71.6141 58.0996C72.3544 58.4306 73.2053 57.9839 73.855 58.6344C73.855 58.6344 73.8882 58.6335 73.9214 58.6325C74.714 58.4692 75.424 58.9067 76.1582 59.0266C76.7919 59.1142 77.5543 59.0573 78.1326 59.5338C78.1668 59.568 78.1999 59.5671 78.2331 59.5661C78.9624 59.5102 79.6634 59.6311 80.3352 59.8936C81.1418 60.2227 82.0984 59.9843 82.8768 60.4903C82.8768 60.4903 82.91 60.4893 82.9432 60.4884C83.6402 60.4686 84.3101 60.6607 84.9769 60.7474C85.9435 60.8607 86.8527 61.2926 87.8434 61.0884C88.3211 61.5325 88.976 61.197 89.4145 61.431C90.0209 61.7306 90.6787 61.5006 91.1836 61.7327C91.8243 62.0666 92.5133 61.7653 93.0524 62.0316C93.7584 62.3284 94.5158 62.0956 95.1545 62.3591C95.7931 62.6226 96.4841 62.3917 97.0222 62.6229C97.7614 62.9187 98.5189 62.6859 99.1575 62.9494C99.6956 63.1806 100.192 63.1312 100.726 63.1865C100.897 63.3928 101.129 63.3511 101.328 63.3454C101.594 63.3378 101.858 63.2951 102.062 63.4653C103.223 63.3971 104.302 63.965 105.492 63.7551C106.172 64.2991 106.955 63.8191 107.627 64.0816C108.467 64.4098 109.388 64.1019 110.161 64.3968C110.933 64.6917 111.658 64.4951 112.393 64.615C112.7 64.9231 113.124 64.6294 113.431 64.9024C113.962 64.8873 114.527 64.9064 115.058 64.8913C115.399 65.1985 115.856 64.9038 116.196 65.1758C116.693 65.1616 117.226 65.1817 117.723 65.1675C117.929 65.373 118.159 65.296 118.392 65.3246C118.625 65.318 118.856 65.2762 119.093 65.4455C119.558 65.4322 120.024 65.4542 120.522 65.44C120.727 65.6454 120.957 65.5685 121.19 65.5971C121.49 65.6237 121.819 65.5088 122.091 65.7123C122.622 65.6972 123.187 65.7163 123.718 65.7012C123.923 65.9066 124.153 65.8296 124.387 65.8582C124.687 65.8849 125.015 65.7699 125.287 65.9734C125.884 65.9564 126.45 65.9756 127.047 65.9586C127.252 66.164 127.516 66.0861 127.782 66.1137C128.115 66.1394 128.444 66.0245 128.749 66.227C129.38 66.2091 129.978 66.2273 130.609 66.2093C130.815 66.4499 131.077 66.3368 131.344 66.3645C131.776 66.3874 132.237 66.2334 132.642 66.4684C133.339 66.4485 134.037 66.4639 134.734 66.4441C134.941 66.6847 135.203 66.5716 135.47 66.5992C135.969 66.6202 136.495 66.4292 136.967 66.6974C137.764 66.6748 138.562 66.6873 139.391 66.6637C139.631 66.9033 139.926 66.7893 140.193 66.8169C140.826 66.8693 141.483 66.6394 142.089 66.9038C143.085 66.8755 144.048 66.8833 145.044 66.855C145.216 67.0613 145.447 67.0195 145.68 67.0129C146.443 66.9912 147.173 66.9705 147.937 66.9487C148.169 66.9421 148.401 66.9355 148.638 67.0696C150.264 67.0234 151.858 67.0132 153.485 66.967C153.69 67.1724 153.921 67.1306 154.154 67.124C156.444 67.0588 158.734 66.9937 160.991 66.9295C161.257 66.9219 161.554 66.8783 161.792 67.0475C164.381 66.9739 166.936 66.9012 169.525 66.8276C169.752 66.6099 170.052 66.6717 170.318 66.6642C172.575 66.6 174.799 66.5367 177.056 66.4725C177.288 66.4659 177.555 66.4935 177.715 66.2777C179.242 66.2343 180.801 66.1548 182.327 66.1113C182.522 65.9298 182.755 65.9583 183.02 65.9508C183.85 65.9272 184.68 65.9036 185.51 65.88C185.742 65.8734 185.942 65.9029 186.135 65.6861C187.231 65.655 188.325 65.5887 189.42 65.5575C189.615 65.3759 189.848 65.4045 190.113 65.397C190.711 65.38 191.275 65.3639 191.873 65.3469C192.072 65.3412 192.271 65.3356 192.432 65.155C193.229 65.1323 194.024 65.0745 194.854 65.0509C195.376 64.7191 195.979 64.9132 196.509 64.8629C196.774 64.8202 197.076 64.9172 197.301 64.6644C198.065 64.6427 198.827 64.5858 199.59 64.5641C199.981 64.2713 200.45 64.434 200.881 64.3865C201.112 64.3447 201.414 64.4418 201.606 64.1898C202.27 64.171 202.933 64.1169 203.563 64.099C203.855 63.8442 204.223 63.9394 204.555 63.9299C204.886 63.8853 205.254 63.9805 205.546 63.7257C206.077 63.7106 206.64 63.6594 207.171 63.6443C207.431 63.4256 207.765 63.4865 208.063 63.4781C208.296 63.4714 208.562 63.4991 208.722 63.2833C209.253 63.2682 209.817 63.2169 210.348 63.2018C210.64 62.9823 210.974 63.0432 211.306 63.0337C211.538 62.9919 211.839 63.089 212.031 62.8371C212.463 62.8248 212.893 62.7773 213.325 62.7651C213.584 62.5464 213.918 62.6074 214.217 62.5989C214.449 62.5922 214.716 62.6199 214.876 62.4041C215.341 62.3909 215.804 62.3425 216.302 62.3283C216.53 62.1458 216.796 62.1734 217.028 62.1668C217.228 62.1611 217.461 62.1897 217.654 61.973C218.086 61.9607 218.516 61.9132 218.948 61.901C219.175 61.7185 219.441 61.7461 219.674 61.7395C219.873 61.7338 220.106 61.7624 220.266 61.5466C221.4 61.6904 222.443 60.9918 223.608 61.0643C224.539 61.1082 225.425 60.7309 226.317 60.5647C226.945 60.4412 227.574 60.3529 228.169 60.2656C228.396 60.0831 228.663 60.1107 228.895 60.1041C229.094 60.0984 229.328 60.127 229.488 59.9112C230.65 59.9133 231.696 59.2851 232.862 59.4279C233.411 58.8842 234.187 59.2846 234.743 58.9871C235.333 58.6887 235.898 58.7078 236.493 58.6205C236.687 58.4389 236.921 58.4675 237.186 58.4599C237.386 58.4543 237.585 58.4486 237.746 58.268C238.811 58.3433 239.754 57.6475 240.821 57.7932C241.469 57.2114 242.279 57.6461 242.935 57.3458C243.656 57.0084 244.46 57.232 245.114 56.8965C245.737 56.5971 246.374 56.7903 246.931 56.528C247.652 56.1906 248.455 56.379 249.111 56.0787C249.7 55.7802 250.337 55.9734 250.861 55.712C251.614 55.3385 252.452 55.5963 253.074 55.2618C253.696 54.9624 254.264 55.0871 254.825 54.9303C255.649 54.6956 256.511 54.6359 257.335 54.4364C257.83 54.3167 258.358 54.1961 258.887 54.1106C259.178 53.8207 259.617 54.0546 259.907 53.7647C260.501 53.607 260.932 53.5947 261.364 53.5825C261.558 53.4009 261.859 53.4628 262.052 53.246C262.516 53.2328 262.981 53.2196 263.412 53.1721C264.074 53.1181 264.645 53.3131 265.157 53.7914C265.192 53.8609 265.29 53.8228 265.357 53.821C265.367 54.1727 265.377 54.5245 265.387 54.8763C264.878 55.6654 264.191 56.037 263.299 56.2032C262.704 56.3258 262.148 56.6232 261.482 56.5718C261.182 56.5451 260.919 56.623 260.727 56.8749C259.831 56.9356 258.944 57.2777 258.052 57.4439C257.292 57.5712 256.462 57.5948 255.744 58.0377C255.678 58.0748 255.58 58.1128 255.48 58.1156C254.949 58.1307 254.456 58.3208 253.928 58.4414C253.203 58.6381 252.474 58.694 251.748 58.8907C250.76 59.1653 249.734 59.3001 248.748 59.6802C248.551 59.7562 248.318 59.7628 248.086 59.7694C247.655 59.7817 247.223 59.794 246.799 60.0525C246.473 60.273 246.038 60.1798 245.673 60.1902C245.373 60.1635 245.076 60.2072 244.885 60.4943C244.622 60.6073 244.355 60.5797 244.057 60.5882C243.791 60.5958 243.56 60.6376 243.332 60.7849C243.266 60.8219 243.202 60.8942 243.135 60.8961C242.27 60.8503 241.49 61.4358 240.625 61.39C240.259 61.3652 239.928 61.4098 239.636 61.6646C239.571 61.7016 239.505 61.7387 239.439 61.7406C238.473 61.6624 237.624 62.1795 236.695 62.2059C236.629 62.2078 236.528 62.1755 236.464 62.2477C235.78 62.7249 234.907 62.3976 234.251 62.698C233.366 63.1104 232.394 62.8212 231.545 63.3382C231.251 63.5226 230.817 63.4294 230.452 63.4398C229.989 63.5233 229.45 63.257 229.065 63.7257C228.835 63.8378 228.603 63.8444 228.371 63.851C228.039 63.8605 227.707 63.8699 227.415 64.1247C227.35 64.1617 227.284 64.1988 227.218 64.2007C226.153 64.1254 225.175 64.7869 224.076 64.6774C223.743 64.6516 223.447 64.7657 223.119 64.9158C222.53 65.2142 221.861 65.0572 221.198 65.1113C220.735 65.1949 220.196 64.9285 219.811 65.3972C219.418 65.5844 218.983 65.4912 218.553 65.5386C218.09 65.6222 217.551 65.3559 217.166 65.8245C216.772 66.0118 216.338 65.9185 215.907 65.9659C215.445 66.0495 214.906 65.7832 214.521 66.287C213.995 66.478 213.461 66.3876 212.963 66.4018C212.665 66.4103 212.4 66.453 212.1 66.4263C211.834 66.3987 211.604 66.5108 211.444 66.7266C210.852 66.9195 210.252 66.831 209.654 66.848C209.289 66.8584 208.925 66.9039 208.559 66.8791C208.293 66.8867 208.096 66.9627 207.936 67.1785C207.311 67.3723 206.677 67.2847 206.014 67.3388C205.649 67.3492 205.285 67.3948 204.919 67.37C204.653 67.3775 204.456 67.4535 204.296 67.6693C203.67 67.8632 203.004 67.7765 202.374 67.8296C201.843 67.8447 201.279 67.8608 200.748 67.8759C200.482 67.8834 200.285 67.9595 200.124 68.1401C199.466 68.37 198.765 68.2492 198.069 68.3042C197.505 68.3202 196.974 68.3353 196.409 68.3514C196.144 68.3589 195.947 68.4349 195.787 68.6507C194.963 68.8854 194.129 68.7683 193.3 68.8271C192.603 68.8469 191.906 68.8667 191.209 68.8866C190.944 68.8941 190.747 68.9701 190.586 69.1508C189.662 69.3883 188.696 69.2749 187.767 69.3366C186.838 69.363 185.909 69.3894 184.979 69.4159C184.714 69.4234 184.482 69.4652 184.289 69.6819C184.093 69.7932 183.894 69.7988 183.695 69.8045C182.234 69.846 180.807 69.8866 179.347 69.9282C177.521 69.9801 175.729 70.0311 173.903 70.083C173.671 70.0896 173.403 70.0268 173.244 70.2778C168.332 70.4175 163.42 70.5572 158.54 70.696C158.367 70.4545 158.104 70.5324 157.872 70.539C156.311 70.5834 154.751 70.6278 153.191 70.6721C152.926 70.6797 152.661 70.7224 152.456 70.517C151.026 70.4521 149.566 70.4936 148.138 70.5342C147.967 70.363 147.768 70.3687 147.569 70.3744C146.872 70.3942 146.175 70.414 145.478 70.4338C145.246 70.4405 145.013 70.4471 144.777 70.313C143.748 70.3422 142.718 70.3363 141.689 70.3656C141.45 70.1259 141.154 70.24 140.887 70.2123C140.321 70.158 139.763 70.3852 139.224 70.1188C138.394 70.1424 137.53 70.1318 136.7 70.1554C136.494 69.9148 136.232 70.0279 135.965 70.0003C135.499 69.9783 135.006 70.1684 134.567 69.8992C133.837 69.92 133.106 69.9056 132.375 69.9263C132.136 69.6867 131.84 69.8007 131.574 69.7731C131.108 69.7511 130.647 69.9051 130.242 69.6702C129.711 69.6853 129.146 69.6661 128.615 69.6812C128.408 69.4406 128.146 69.5537 127.879 69.5261C127.48 69.5023 127.086 69.6543 126.681 69.4194C126.083 69.4364 125.518 69.4172 124.92 69.4342C124.715 69.2288 124.452 69.3067 124.185 69.2791C123.852 69.2534 123.523 69.3684 123.219 69.1658C122.787 69.178 122.356 69.1903 121.923 69.1674C121.717 68.9268 121.454 69.0399 121.188 69.0123C120.855 68.9866 120.526 69.1015 120.221 68.899C119.69 68.9141 119.125 68.8949 118.594 68.91C118.389 68.7046 118.158 68.7816 117.925 68.753C117.693 68.7596 117.461 68.8014 117.224 68.6321C116.892 68.6416 116.56 68.651 116.227 68.6253C115.229 68.5832 114.255 68.1885 113.263 68.3575C113.058 68.1521 112.828 68.2291 112.594 68.2005C112.362 68.2071 112.13 68.2137 111.893 68.0796C111.561 68.089 111.228 68.0633 110.897 68.0727C110 68.0982 109.155 67.559 108.264 67.7955C108.059 67.5901 107.829 67.6671 107.596 67.6385C107.363 67.6451 107.132 67.6869 106.895 67.5176C106.563 67.5271 106.231 67.5365 105.931 67.5098C105.759 67.3035 105.495 67.3814 105.262 67.3528C105.03 67.3594 104.798 67.4012 104.561 67.2319C104.096 67.2451 103.503 67.4029 103.132 67.2022C102.592 66.9007 102.097 67.0204 101.564 66.9651C101.392 66.7587 101.161 66.8005 100.961 66.8062C100.696 66.8138 100.431 66.8565 100.227 66.6863C99.168 66.822 98.1864 66.181 97.1293 66.3871C96.55 65.8754 95.7986 66.3193 95.2263 66.0539C94.5203 65.7571 93.7961 65.989 93.1916 65.7597C92.5872 65.5305 91.9615 65.7243 91.4888 65.4561C90.8482 65.1222 90.2216 65.2809 89.5879 65.1933C89.3827 64.9879 89.086 65.0667 88.8819 64.8965C87.9233 65.0646 87.0463 64.5966 86.1139 64.5175C85.5809 64.4623 84.9502 64.4802 84.4785 64.2472C83.9062 63.9818 83.3138 64.1747 82.8089 63.9426C82.2366 63.6772 81.5778 63.872 81.1061 63.6389C80.5671 63.3726 79.877 63.6387 79.5361 63.3315C78.9578 62.8551 78.2094 63.4045 77.7599 62.7835C77.7257 62.7493 77.6926 62.7502 77.6594 62.7512C76.8346 62.9507 75.9958 62.6576 75.3229 62.3599C74.5837 62.0641 73.7307 62.4404 73.0821 61.8251C73.0821 61.8251 73.0489 61.8261 73.0157 61.827C72.2905 62.0237 71.5824 61.6565 71.0111 61.4263C70.2387 61.1314 69.3858 61.5078 68.7371 60.8925C68.7371 60.8925 68.7039 60.8934 68.6707 60.8944C67.9455 61.091 67.3018 60.6516 66.633 60.4946C66.0316 60.3709 65.3033 60.462 64.7582 59.9846C64.7241 59.9504 64.6909 59.9513 64.6577 59.9523C63.9978 60.1119 63.3914 59.8123 62.8533 59.5811C62.2478 59.3167 61.5246 59.5837 61.0107 59.035C60.9766 59.0007 60.9434 59.0017 60.9102 59.0026C60.1839 59.1641 59.5403 58.7247 58.8393 58.6038C58.4058 58.5457 57.7751 58.5637 57.397 58.1167C57.3628 58.0825 57.2954 58.0492 57.2622 58.0502C56.6024 58.2098 55.9628 57.9111 55.4901 57.6429C54.8826 57.3081 54.2268 57.6084 53.6817 57.131C53.4092 56.8923 52.8771 56.8722 52.5441 56.8465C51.9437 56.7579 51.2759 56.6361 50.77 56.3688C50.1967 56.0682 49.5691 56.1917 48.9626 55.8921C48.5915 55.6914 48.0232 55.5667 47.5213 55.4402C47.0195 55.3136 46.4542 55.2945 46.0449 54.9189C46.0107 54.8846 45.9433 54.8513 45.9101 54.8523C45.3167 55.01 44.8078 54.6372 44.3371 54.4393C43.8996 54.2405 43.3675 54.2204 42.929 53.9865C42.5247 53.7867 41.9896 53.6611 41.4878 53.5345C40.9859 53.408 40.4206 53.3889 40.0113 53.0132C39.9771 52.979 39.9098 52.9457 39.8766 52.9466C39.3163 53.1034 38.903 52.587 38.3367 52.5327C38.037 52.506 37.6015 52.3776 37.327 52.0685C37.2918 51.9991 37.1912 51.9668 37.158 51.9677C36.5977 52.1245 36.121 51.7155 35.6514 51.5529C34.9805 51.3255 34.1819 51.2778 33.6348 50.73C33.5665 50.6616 33.4669 50.6644 33.3673 50.6672C32.8352 50.6471 32.3957 50.378 31.9552 50.0736C31.8879 50.0404 31.8205 50.0071 31.7541 50.009C31.1888 49.9898 30.7463 49.6151 30.2424 49.4182C29.8401 49.2888 29.4972 48.9113 29.0013 48.9958C28.6714 49.0756 28.3969 48.7665 28.1605 48.6324C27.3841 48.1968 26.5171 48.0806 25.8071 47.6431C25.0639 47.2066 24.2572 46.8774 23.4808 46.4418C22.9417 46.1755 22.3695 45.9101 21.7972 45.6447C21.2581 45.3784 20.6547 45.1843 20.178 44.7754C19.9728 44.57 19.6399 44.5442 19.4036 44.4101C18.6271 43.9745 17.8507 43.5389 17.0753 43.1384C16.4004 42.7703 15.7548 42.2606 15.0156 41.9648C14.6123 41.8002 14.208 41.6004 13.867 41.2933C13.5593 40.9851 13.156 40.8206 12.7537 40.6912C12.5525 40.6265 12.5143 40.4515 12.3796 40.385C11.7399 40.0863 11.1626 39.645 10.5874 39.2741C10.0795 38.9364 9.53741 38.5646 8.99634 38.2279C8.52265 37.9245 8.14255 37.4072 7.57526 37.3177C7.34194 37.2891 7.36912 37.0771 7.23336 36.9753C5.85048 36.2401 4.78548 35.0029 3.7879 33.799C3.34039 33.2484 2.72793 32.7377 2.47359 31.9704C2.32979 31.5872 1.95467 31.2458 1.71033 30.8302C1.50219 30.5193 1.3262 30.1722 1.18444 29.8594C0.831497 29.13 0.542964 28.3285 0.320811 27.525C0.0634353 26.6521 0.105799 25.8059 0.0144027 24.9283C-0.0759928 24.0859 0.2007 23.3035 0.544803 22.5543C0.700745 22.1978 0.587166 21.7081 0.875897 21.3478C0.971464 21.2043 1.09822 20.9894 1.19278 20.8107C1.97656 19.1688 3.37479 18.108 4.4653 16.7391C5.22469 16.5767 5.53361 15.7581 6.18842 15.4226C6.71248 15.1612 7.16419 14.6907 7.68525 14.3238C8.17412 13.993 8.62779 13.5928 9.11666 13.262C9.63872 12.9303 10.2312 12.7374 10.6839 12.3021C10.878 12.1205 11.2059 11.9703 11.4363 11.8934C12.0941 11.6634 12.6061 10.9799 13.3716 11.0285C13.5245 10.5665 14.0274 10.7282 14.3181 10.4383C14.5766 10.1845 15.1107 10.2749 15.4668 9.9479C15.8883 9.58383 16.522 9.67143 16.9424 9.27219C17.202 9.05355 17.6657 9.00516 17.9624 8.92631C18.5236 8.80472 19.0135 8.50912 19.5738 8.35235C20.2336 8.19275 20.9638 8.17197 21.5151 7.6986C21.5473 7.66247 21.5805 7.66152 21.6137 7.66058C22.3489 7.81571 23.0359 7.44409 23.5922 7.1466C24.3456 6.77309 25.2196 7.13552 25.8322 6.48435C25.8644 6.44822 25.8976 6.44729 25.9308 6.44634C26.9959 6.52166 27.9395 5.82587 29.0066 5.97156C29.3335 5.78622 29.6674 5.84714 29.8274 5.63135Z" fill="#DA7B07"/>
</svg>
