<svg width="790" height="724" viewBox="0 0 790 724" fill="none" xmlns="http://www.w3.org/2000/svg">
<path fill-rule="evenodd" clip-rule="evenodd" d="M410.926 76.5783C257.373 33.7458 289.763 195.784 199.136 220.401C108.51 245.018 -43.5381 257.555 121.271 469.815C286.08 682.075 632.976 723.105 687.994 574.215C743.012 425.325 564.48 119.411 410.926 76.5783Z" fill="#FFF6EA"/>
<path d="M491.816 473.477V523.982C491.817 525.841 491.451 527.682 490.739 529.399C490.027 531.115 488.983 532.675 487.668 533.988C486.352 535.301 484.79 536.342 483.072 537.05C481.353 537.759 479.512 538.121 477.653 538.117H290.343C288.486 538.118 286.647 537.753 284.931 537.044C283.216 536.334 281.656 535.293 280.343 533.98C279.03 532.667 277.989 531.109 277.278 529.393C276.568 527.677 276.203 525.839 276.203 523.982V268.378C276.214 264.632 277.708 261.042 280.357 258.394C283.007 255.745 286.596 254.253 290.343 254.243H329.211V281.1C329.22 282.972 329.968 284.764 331.291 286.088C332.614 287.412 334.406 288.16 336.278 288.172H431.713C433.586 288.162 435.378 287.413 436.703 286.09C438.027 284.765 438.775 282.973 438.785 281.1V254.243H477.653C481.399 254.253 484.989 255.745 487.638 258.394C490.288 261.042 491.781 264.632 491.793 268.378V310.293" stroke="#020064" stroke-width="3" stroke-linecap="round" stroke-linejoin="round"/>
<path d="M491.796 360.198V371.65L481.477 366.91C484.766 364.45 488.214 362.208 491.796 360.198Z" stroke="#020064" stroke-width="3" stroke-linecap="round" stroke-linejoin="round"/>
<path d="M414.045 274.031H353.961" stroke="#020064" stroke-width="3" stroke-linecap="round" stroke-linejoin="round"/>
<path d="M470.596 394.974C469.174 393.913 467.7 392.784 466.145 391.656C465.368 391.092 464.59 390.524 463.813 389.888C463.106 389.556 462.42 389.179 461.76 388.76L460.912 388.12C460.369 387.73 459.872 387.28 459.428 386.779C455.892 390.523 452.361 394.557 448.896 398.866C446.528 401.744 443.121 403.572 439.414 403.953C435.707 404.334 431.998 403.238 429.095 400.902C426.191 398.566 424.325 395.179 423.904 391.476C423.482 387.773 424.537 384.053 426.841 381.124C439.148 365.293 453.922 351.546 470.596 340.407" stroke="#020064" stroke-width="3" stroke-linecap="round" stroke-linejoin="round"/>
<path d="M438.781 274.031H463.524C465.395 274.042 467.186 274.79 468.509 276.113C469.832 277.436 470.58 279.227 470.591 281.098V319.843" stroke="#020064" stroke-width="3" stroke-linecap="round" stroke-linejoin="round"/>
<path d="M470.587 457.886V496.692C470.575 498.562 469.826 500.352 468.503 501.674C467.18 502.996 465.389 503.743 463.52 503.755H304.474C302.604 503.743 300.813 502.996 299.49 501.674C298.167 500.352 297.419 498.562 297.406 496.692V281.098C297.417 279.227 298.166 277.436 299.489 276.113C300.811 274.79 302.603 274.042 304.474 274.031H329.216" stroke="#020064" stroke-width="3" stroke-linecap="round" stroke-linejoin="round"/>
<path d="M457.75 422.7V422.771L460.224 426.232C461.324 427.755 462.982 428.782 464.837 429.087C466.692 429.392 468.592 428.949 470.121 427.857L470.595 427.507" stroke="#020064" stroke-width="3" stroke-linecap="round" stroke-linejoin="round"/>
<path d="M322.102 330.58H430.088" stroke="#020064" stroke-width="3" stroke-linecap="round" stroke-linejoin="round"/>
<path d="M419.556 362.391H322.078" stroke="#020064" stroke-width="3" stroke-linecap="round" stroke-linejoin="round"/>
<path d="M322.102 397.736H397.363" stroke="#020064" stroke-width="3" stroke-linecap="round" stroke-linejoin="round"/>
<path d="M329.219 265.972V249.292C329.229 247.42 329.976 245.628 331.3 244.304C332.623 242.98 334.414 242.231 336.286 242.22H368.447" stroke="#020064" stroke-width="3" stroke-linecap="round" stroke-linejoin="round"/>
<path d="M403.078 242.22H431.708C433.58 242.23 435.373 242.978 436.698 244.302C438.021 245.627 438.77 247.419 438.78 249.292V265.972" stroke="#020064" stroke-width="3" stroke-linecap="round" stroke-linejoin="round"/>
<path d="M385.772 256.36C395.531 256.36 403.443 248.449 403.443 238.69C403.443 228.931 395.531 221.019 385.772 221.019C376.013 221.019 368.102 228.931 368.102 238.69C368.102 248.449 376.013 256.36 385.772 256.36Z" stroke="#020064" stroke-width="3" stroke-linecap="round" stroke-linejoin="round"/>
<path d="M332.895 434.488C331.069 436.313 329.723 438.56 328.973 441.029C328.224 443.499 328.095 446.115 328.598 448.646C329.101 451.178 330.221 453.546 331.858 455.541C333.495 457.537 335.599 459.097 337.983 460.085C340.367 461.073 342.959 461.458 345.527 461.206C348.095 460.953 350.562 460.071 352.708 458.637C354.855 457.204 356.614 455.263 357.831 452.987C359.048 450.711 359.685 448.17 359.685 445.589V448.699C359.749 451.993 361.103 455.132 363.455 457.439C365.808 459.747 368.972 461.039 372.267 461.039C375.563 461.039 378.727 459.747 381.08 457.439C383.432 455.132 384.786 451.993 384.85 448.699C384.853 451.276 385.641 453.791 387.111 455.908" stroke="#020064" stroke-width="3" stroke-linecap="round" stroke-linejoin="round"/>
<path d="M494.269 412.574C506.001 420.988 514.556 426.794 521.202 430.956L520.424 445.925C520.322 447.777 519.857 449.591 519.053 451.263C518.25 452.935 517.126 454.433 515.744 455.67C514.362 456.908 512.75 457.861 511 458.475C509.249 459.09 507.395 459.353 505.543 459.251C503.691 459.149 501.877 458.684 500.205 457.88C498.533 457.077 497.035 455.952 495.798 454.571C494.561 453.189 493.607 451.577 492.993 449.826C492.378 448.076 492.115 446.222 492.217 444.37L493.914 413.337V412.366" stroke="#020064" stroke-width="3" stroke-linecap="round" stroke-linejoin="round"/>
<path d="M494.276 412.576L493.92 413.353L491.802 417.453L483.957 432.721C482.692 435.129 480.758 437.121 478.387 438.454C476.016 439.788 473.31 440.408 470.595 440.239C468.563 440.148 466.58 439.592 464.798 438.613C461.968 437.129 459.744 434.705 458.508 431.759" stroke="#020064" stroke-width="3" stroke-linecap="round" stroke-linejoin="round"/>
<path d="M492.93 411.585C492.575 411.306 492.153 411.021 491.797 410.742C485.787 406.357 479.075 401.337 471.297 395.469" stroke="#020064" stroke-width="3" stroke-linecap="round" stroke-linejoin="round"/>
<path d="M470.595 427.491L470.121 427.842C468.592 428.934 466.692 429.376 464.837 429.071C462.982 428.767 461.324 427.74 460.224 426.216L457.75 422.756" stroke="#020064" stroke-width="3" stroke-linecap="round" stroke-linejoin="round"/>
<path d="M702.808 440.21L679.008 416.41C677.683 415.086 675.886 414.342 674.012 414.342C672.139 414.342 670.342 415.086 669.016 416.41L601.538 483.889C600.213 485.215 599.469 487.013 599.469 488.887C599.469 490.762 600.213 492.559 601.538 493.886L625.333 517.68" stroke="#020064" stroke-width="3" stroke-linecap="round" stroke-linejoin="round"/>
<path d="M669.005 416.394L601.502 483.897L591.548 473.862C590.725 473.044 590.12 472.033 589.788 470.921C589.457 469.809 589.41 468.631 589.652 467.496C589.738 467.064 589.857 466.64 590.008 466.226C590.365 465.352 590.894 464.559 591.562 463.894L649.002 406.426C649.22 406.196 649.456 405.983 649.708 405.791C651.077 404.75 652.778 404.24 654.494 404.358C656.21 404.474 657.825 405.209 659.041 406.426L669.005 416.394Z" stroke="#020064" stroke-width="3" stroke-linecap="round" stroke-linejoin="round"/>
<path d="M494.295 412.577C494.261 412.513 494.21 412.459 494.147 412.422C494.084 412.385 494.012 412.367 493.939 412.369C493.643 412.07 493.312 411.807 492.953 411.587L494.295 412.577ZM493.352 372.358L491.797 371.652L493.352 372.358ZM514.203 381.829L493.347 372.349L514.203 381.89C515.489 382.51 516.811 383.053 518.161 383.516C516.89 383.033 515.573 382.469 514.203 381.829Z" stroke="#020064" stroke-width="3" stroke-linecap="round" stroke-linejoin="round"/>
<path d="M561.5 323.866L525.874 349.229C513.815 350.161 502.144 353.915 491.803 360.188C488.22 362.2 484.773 364.443 481.484 366.905L475.544 364.217C473.998 363.468 472.313 363.046 470.596 362.975C467.758 362.783 464.929 363.452 462.478 364.895C460.027 366.338 458.07 368.489 456.862 371.064C455.655 373.639 455.254 376.519 455.712 379.326C456.17 382.133 457.465 384.736 459.428 386.794C455.892 390.539 452.361 394.572 448.896 398.881C446.528 401.759 443.121 403.587 439.414 403.968C435.707 404.349 431.998 403.253 429.095 400.917C426.191 398.581 424.325 395.194 423.904 391.491C423.482 387.788 424.537 384.068 426.841 381.139C439.15 365.31 453.923 351.562 470.596 340.423C477.299 336.023 484.399 332.261 491.803 329.184C509.204 321.792 528.231 319.063 547.009 321.263C551.892 321.808 556.733 322.677 561.5 323.866Z" stroke="#020064" stroke-width="3" stroke-linecap="round" stroke-linejoin="round"/>
<path d="M494.276 412.579C506.007 420.993 514.563 426.799 521.209 430.961C528.329 435.598 535.939 439.437 543.899 442.408C564.821 450.608 574.079 454.5 589.488 468.421C589.501 468.112 589.548 467.805 589.63 467.506C589.716 467.073 589.835 466.647 589.986 466.231C590.343 465.358 590.872 464.565 591.541 463.899L649.008 406.432C649.227 406.202 649.463 405.99 649.715 405.796C631.76 390.244 626.46 358.434 595.783 338.574L555.915 366.848C555.878 369.539 555.069 372.164 553.583 374.408C550.791 378.072 547.152 381.003 542.977 382.949C538.803 384.895 534.218 385.798 529.617 385.58C528.437 385.578 527.258 385.507 526.086 385.367C523.386 385.049 520.729 384.433 518.165 383.528C516.816 383.064 515.494 382.522 514.208 381.902L493.352 372.36" stroke="#020064" stroke-width="3" stroke-linecap="round" stroke-linejoin="round"/>
<path d="M492.929 411.585C492.573 411.305 492.152 411.021 491.796 410.741C485.786 406.357 479.074 401.337 471.296 395.469C471.032 395.359 470.791 395.198 470.589 394.995C469.167 393.933 467.693 392.805 466.138 391.677C465.361 391.113 464.584 390.544 463.806 389.909C463.099 389.577 462.414 389.2 461.754 388.781L460.906 388.141C460.363 387.75 459.865 387.301 459.422 386.8C457.46 384.741 456.165 382.138 455.707 379.331C455.25 376.524 455.651 373.644 456.858 371.069C458.065 368.494 460.022 366.343 462.473 364.899C464.923 363.455 467.752 362.785 470.589 362.976C472.309 363.057 473.994 363.491 475.538 364.251L481.477 366.939L491.796 371.679" stroke="#020064" stroke-width="3" stroke-linecap="round" stroke-linejoin="round"/>
<path d="M669.005 416.394L601.502 483.897L591.548 473.862C590.725 473.044 590.12 472.033 589.788 470.921C589.457 469.809 589.41 468.631 589.652 467.496C589.738 467.064 589.857 466.64 590.008 466.226C590.365 465.352 590.894 464.559 591.562 463.894L649.002 406.426C649.22 406.196 649.456 405.983 649.708 405.791C651.077 404.75 652.778 404.24 654.494 404.358C656.21 404.474 657.825 405.209 659.041 406.426L669.005 416.394Z" stroke="#020064" stroke-width="3" stroke-linecap="round" stroke-linejoin="round"/>
<path d="M604.26 324.362C604.258 326.898 603.648 329.397 602.48 331.648C601.312 333.899 599.621 335.836 597.548 337.297L595.78 338.572L555.912 366.846L541.35 377.236L522.969 351.294L525.87 349.242L561.495 323.869L579.095 311.355C581.485 309.682 584.287 308.694 587.199 308.499C590.109 308.305 593.018 308.909 595.61 310.249C598.203 311.589 600.378 313.612 601.903 316.099C603.427 318.587 604.243 321.444 604.26 324.362Z" stroke="#020064" stroke-width="3" stroke-linecap="round" stroke-linejoin="round"/>
<path d="M525.438 336.517L565.775 307.859C566.899 307.024 568.181 306.424 569.543 306.097C570.905 305.77 572.32 305.722 573.701 305.956C575.082 306.19 576.402 306.701 577.58 307.458C578.759 308.215 579.772 309.203 580.559 310.362" stroke="#020064" stroke-width="3" stroke-linecap="round" stroke-linejoin="round"/>
<path d="M440.899 435.624L435.102 439.724C435.386 447.995 418.35 450.114 406.472 450.626C405.717 450.653 404.974 450.435 404.354 450.005C403.733 449.575 403.269 448.955 403.031 448.239C402.792 447.522 402.792 446.748 403.03 446.031C403.269 445.315 403.733 444.695 404.353 444.265L432.698 424.12L440.899 435.624Z" stroke="#020064" stroke-width="3" stroke-linecap="round" stroke-linejoin="round"/>
<path d="M462.247 429.119L458.502 431.736L447.828 439.291C447.077 439.834 446.142 440.056 445.228 439.91C444.314 439.765 443.495 439.263 442.95 438.514L440.902 435.618L432.702 424.123C432.429 423.744 432.234 423.314 432.13 422.859C432.024 422.404 432.011 421.932 432.09 421.471C432.169 421.011 432.339 420.571 432.589 420.176C432.84 419.782 433.167 419.442 433.551 419.175L447.899 408.927L449.321 410.823C449.483 411.145 449.673 411.453 449.889 411.743C449.908 411.743 449.926 411.75 449.94 411.763C449.953 411.777 449.961 411.795 449.961 411.814L457.734 422.716V422.787L460.208 426.247L462.247 429.119Z" stroke="#020064" stroke-width="3" stroke-linecap="round" stroke-linejoin="round"/>
<path d="M470.592 427.493L491.799 412.434L492.932 411.586C492.576 411.306 492.154 411.022 491.799 410.742C485.789 406.358 479.077 401.338 471.298 395.47C471.034 395.36 470.794 395.199 470.592 394.996C469.17 393.934 467.696 392.806 466.141 391.678L451.651 401.997C450.268 402.945 449.271 404.359 448.842 405.981C448.413 407.602 448.581 409.324 449.314 410.832C449.477 411.155 449.667 411.462 449.883 411.752C449.902 411.752 449.92 411.759 449.933 411.773C449.947 411.786 449.954 411.804 449.954 411.823L457.728 422.725" stroke="#020064" stroke-width="3" stroke-linecap="round" stroke-linejoin="round"/>
<path d="M541.354 377.234L529.617 385.577C528.437 385.575 527.258 385.503 526.086 385.364C523.386 385.046 520.729 384.429 518.165 383.524C516.816 383.061 515.494 382.518 514.208 381.899L493.352 372.357L522.967 351.292L541.354 377.234Z" stroke="#020064" stroke-width="3" stroke-linecap="round" stroke-linejoin="round"/>
<path d="M493.349 372.357L491.797 371.652" stroke="#020064" stroke-width="3" stroke-linecap="round" stroke-linejoin="round"/>
<path d="M494.266 412.577C494.233 412.512 494.182 412.459 494.119 412.422C494.056 412.385 493.985 412.367 493.912 412.369C493.617 412.071 493.287 411.81 492.93 411.59" stroke="#020064" stroke-width="3" stroke-linecap="round" stroke-linejoin="round"/>
<path d="M493.349 372.357L491.797 371.652" stroke="#020064" stroke-width="3" stroke-linecap="round" stroke-linejoin="round"/>
<path d="M494.266 412.577C494.233 412.512 494.182 412.459 494.119 412.422C494.056 412.385 493.985 412.367 493.912 412.369C493.617 412.071 493.287 411.81 492.93 411.59" stroke="#020064" stroke-width="3" stroke-linecap="round" stroke-linejoin="round"/>
<circle cx="673.715" cy="242.751" r="4.30909" fill="#DA7B07"/>
<path d="M169.289 383.277C167.083 383.277 164.898 383.712 162.86 384.557C160.822 385.402 158.97 386.64 157.411 388.201C155.852 389.762 154.616 391.615 153.773 393.654C152.93 395.693 152.498 397.878 152.5 400.085C152.5 409.356 169.289 426.651 169.289 426.651C169.289 426.651 186.097 409.356 186.097 400.085C186.097 395.627 184.326 391.352 181.174 388.2C178.022 385.048 173.747 383.277 169.289 383.277ZM169.289 406.771C168.163 406.771 167.061 406.437 166.125 405.811C165.188 405.184 164.459 404.294 164.028 403.253C163.598 402.212 163.486 401.066 163.707 399.961C163.928 398.857 164.472 397.842 165.27 397.047C166.068 396.251 167.084 395.711 168.19 395.493C169.295 395.275 170.441 395.391 171.481 395.824C172.521 396.258 173.408 396.99 174.032 397.929C174.655 398.868 174.986 399.97 174.982 401.097C174.973 402.6 174.369 404.039 173.302 405.099C172.236 406.159 170.793 406.753 169.289 406.753V406.771Z" fill="#DA7B07"/>
<path d="M343.688 305.565C341.482 305.565 339.297 306 337.259 306.845C335.221 307.69 333.369 308.928 331.81 310.489C330.25 312.05 329.014 313.903 328.171 315.942C327.329 317.981 326.896 320.166 326.898 322.372C326.898 331.644 343.688 348.939 343.688 348.939C343.688 348.939 360.495 331.644 360.495 322.372C360.495 317.915 358.725 313.64 355.573 310.488C352.421 307.336 348.146 305.565 343.688 305.565ZM343.688 329.059C342.561 329.059 341.46 328.725 340.523 328.099C339.587 327.472 338.857 326.582 338.427 325.541C337.996 324.5 337.885 323.354 338.106 322.249C338.327 321.144 338.871 320.13 339.669 319.335C340.467 318.539 341.483 317.998 342.588 317.781C343.694 317.563 344.839 317.678 345.879 318.112C346.919 318.546 347.807 319.278 348.43 320.217C349.054 321.155 349.384 322.258 349.381 323.385C349.371 324.888 348.767 326.327 347.701 327.387C346.634 328.446 345.192 329.041 343.688 329.041V329.059Z" fill="#DA7B07"/>
<path d="M482.308 573.565C480.101 573.563 477.916 573.995 475.877 574.838C473.838 575.68 471.985 576.917 470.424 578.476C468.863 580.035 467.625 581.887 466.78 583.925C465.935 585.963 465.5 588.148 465.5 590.354C465.5 599.644 482.308 616.921 482.308 616.921C482.308 616.921 499.097 599.644 499.097 590.354C499.097 585.902 497.328 581.631 494.179 578.482C491.031 575.334 486.76 573.565 482.308 573.565ZM482.308 597.059C481.187 597.059 480.091 596.727 479.159 596.105C478.226 595.483 477.499 594.599 477.068 593.564C476.638 592.53 476.523 591.39 476.739 590.291C476.955 589.191 477.492 588.18 478.282 587.385C479.072 586.59 480.08 586.046 481.178 585.823C482.277 585.6 483.417 585.707 484.454 586.131C485.492 586.555 486.381 587.277 487.008 588.206C487.636 589.134 487.975 590.228 487.982 591.348C487.982 592.853 487.384 594.297 486.32 595.361C485.256 596.425 483.813 597.023 482.308 597.023V597.059Z" fill="#DA7B07"/>
<path d="M531.308 195.565C529.101 195.563 526.916 195.995 524.877 196.838C522.838 197.68 520.985 198.917 519.424 200.476C517.863 202.035 516.625 203.887 515.78 205.925C514.935 207.963 514.5 210.148 514.5 212.354C514.5 221.644 531.308 238.921 531.308 238.921C531.308 238.921 548.097 221.644 548.097 212.354C548.097 207.902 546.328 203.631 543.179 200.482C540.031 197.334 535.76 195.565 531.308 195.565ZM531.308 219.059C530.187 219.059 529.091 218.727 528.159 218.105C527.226 217.483 526.499 216.599 526.068 215.564C525.638 214.53 525.523 213.39 525.739 212.291C525.955 211.191 526.492 210.18 527.282 209.385C528.072 208.59 529.08 208.046 530.178 207.823C531.277 207.6 532.417 207.707 533.454 208.131C534.492 208.555 535.381 209.277 536.008 210.206C536.636 211.134 536.975 212.228 536.982 213.348C536.982 214.853 536.384 216.297 535.32 217.361C534.256 218.425 532.813 219.023 531.308 219.023V219.059Z" fill="#DA7B07"/>
</svg>
