<svg width="720" height="566" viewBox="0 0 720 566" fill="none" xmlns="http://www.w3.org/2000/svg">
<path d="M36.0676 204.095C201.873 -56.0976 247.906 169.03 422.873 191.902C597.839 214.774 510.373 -54.5977 711.519 144.282C687.641 326.945 587.457 556.8 412.49 533.928C237.524 511.056 12.1895 386.758 36.0676 204.095Z" fill="#FAF9FF"/>
<circle cx="601.5" cy="83.5" r="9.5" fill="#B968C7"/>
<circle cx="192.5" cy="48.5" r="9.5" fill="#DA7B07"/>
<circle cx="524.5" cy="529.5" r="9.5" fill="#7568C8"/>
<circle cx="148.5" cy="438.5" r="9.5" fill="#00AEEF"/>
<path d="M307.741 177.12C308.381 176.44 306.201 176.32 305.441 176.04C303.406 175.012 301.665 173.484 300.381 171.6C299.581 170.66 298.381 175.76 300.241 178.22C302.801 181.42 307.661 179.88 307.741 177.12ZM300.381 172.54C301.801 174.54 304.161 177.34 306.981 177.34C306.241 180.28 298.841 180.24 300.381 172.54ZM314.261 159.82C314.872 159.753 315.491 159.807 316.081 159.98C317.941 161.06 316.241 158.28 314.081 158.74C313.401 158.88 313.601 160 314.261 159.82ZM522.681 132.9C536.181 126.52 548.361 129.74 554.901 136.12C563.521 144.62 562.681 157.1 558.901 162.92C564.141 165.06 568.621 162.92 570.101 157.42C577.761 159.42 586.101 147.82 579.581 141C581.183 140.27 582.519 139.061 583.406 137.539C584.293 136.018 584.687 134.26 584.533 132.506C584.38 130.752 583.687 129.088 582.549 127.744C581.412 126.4 579.886 125.441 578.181 125C585.301 113.9 567.281 103.48 558.361 110.44C553.561 100.9 539.061 103.08 538.741 110.08C529.361 105.28 522.461 114.48 526.201 119.1C519.961 120 518.201 128.74 522.681 132.9ZM315.161 163.82C314.361 163.94 314.361 165.82 315.161 165.94C315.961 166.06 315.741 163.72 315.161 163.82ZM300.521 158.82C301.089 158.313 301.755 157.926 302.476 157.682C303.198 157.438 303.961 157.342 304.721 157.4C304.859 157.4 304.991 157.345 305.089 157.248C305.186 157.15 305.241 157.018 305.241 156.88C305.241 156.742 305.186 156.61 305.089 156.513C304.991 156.415 304.859 156.36 304.721 156.36C302.967 156.397 301.296 157.114 300.061 158.36C299.761 158.66 300.221 159.1 300.521 158.82ZM310.101 172.86C310.497 172.98 310.921 172.959 311.304 172.803C311.686 172.646 312.003 172.363 312.201 172C313.301 170.36 311.701 164.74 311.221 162.96C311.221 162.6 310.521 162.74 310.601 163.1C310.941 164.7 311.241 166.4 311.501 168.04C311.621 168.88 312.141 172.04 310.441 171.76C309.861 171.7 309.501 172.68 310.101 172.86ZM304.481 162.64C303.821 162.5 303.581 164.96 304.481 165.04C305.381 165.12 305.141 162.8 304.481 162.64ZM337.801 270.74C337.461 271.66 336.601 282.98 336.521 283.86C336.521 284.2 337.061 284.26 337.101 283.86C337.221 282.86 338.701 271.86 338.521 270.66C338.441 270.34 337.921 270.44 337.801 270.74ZM443.001 264.92C442.977 264.894 442.947 264.873 442.915 264.859C442.882 264.845 442.847 264.838 442.811 264.838C442.775 264.838 442.74 264.845 442.707 264.859C442.675 264.873 442.645 264.894 442.621 264.92C442.584 264.969 442.564 265.029 442.564 265.09C442.564 265.152 442.584 265.211 442.621 265.26C444.221 267.7 450.321 275.1 452.961 276.4C453.301 276.56 453.601 276.12 453.401 275.84C449.901 272 446.421 269.22 443.001 264.92ZM331.341 270C331.285 270.012 331.233 270.036 331.188 270.071C331.143 270.105 331.107 270.15 331.081 270.2C330.701 271 329.981 282.2 329.941 283.02C329.946 283.102 329.982 283.178 330.042 283.234C330.101 283.289 330.18 283.32 330.261 283.32C330.329 283.313 330.394 283.283 330.444 283.237C330.495 283.19 330.529 283.128 330.541 283.06C330.541 282.34 331.981 271.06 331.761 270.26C331.737 270.171 331.681 270.095 331.603 270.047C331.525 269.998 331.431 269.982 331.341 270Z" fill="#02202C"/>
<path d="M577.261 211.22C567.437 201.482 555.391 194.281 542.161 190.24C542.401 186.32 542.635 182.4 542.861 178.48C544.361 178.96 564.861 164.48 558.281 145.4C552.281 127.4 527.941 128.32 515.301 138.48C512.701 140.48 508.461 144.96 511.581 148.32C510.282 153.668 509.419 159.113 509.001 164.6C508.141 175.04 508.661 182.84 519.981 185.7C519.702 186.852 519.581 188.036 519.621 189.22C494.241 192.76 471.161 210.56 462.541 234.9C458.281 235.58 450.801 237.74 447.521 240.9C445.721 240.5 441.721 240.08 440.921 242.16C439.821 239.62 432.821 223.02 428.921 224.42C427.961 224.76 428.641 228.88 428.921 229.68C425.261 231.88 426.321 233.48 427.481 236.88C430.621 246.08 433.281 246.32 432.561 245.12C430.716 242.085 429.271 238.825 428.261 235.42C427.461 232.96 426.861 232.48 429.261 230.92C430.889 235.764 433.034 240.417 435.661 244.8C433.661 245.6 434.001 249.02 435.421 250.8C435.081 250.8 435.021 251.28 435.021 251.52C412.113 249.394 389.058 249.347 366.141 251.38C374.821 242.86 383.621 214 389.441 184.18C389.441 183.78 389.101 183.22 388.301 182.58C388.991 180.849 389.474 179.044 389.741 177.2L389.161 176.6C391.09 172.18 393.448 167.96 396.201 164C397.001 162.86 401.681 156.2 399.001 155.4C398.735 155.349 398.461 155.353 398.196 155.412C397.932 155.47 397.682 155.582 397.461 155.74C398.021 154.72 399.461 152.2 397.041 152.26C395.869 152.562 394.794 153.162 393.921 154C394.461 152.22 392.601 151.78 391.201 152.58C387.602 154.633 384.55 157.521 382.301 161C381.601 156.48 377.621 151.6 377.161 155.98C377.001 157.66 377.041 169.08 377.321 170.92C375.801 170.82 375.741 170.92 374.721 172.08C373.862 173.014 373.184 174.099 372.721 175.28C371.821 175.08 371.241 175.02 371.061 175.28C357.681 190.82 350.941 207.7 342.561 225.6C342.381 226.04 341.621 225.82 341.761 225.34C343.759 219.545 346.104 213.875 348.781 208.36C342.781 203.94 327.181 197.22 317.821 194.2C321.001 198.58 324.041 203.2 326.841 208C328.101 210.26 327.381 210.44 326.241 212.66C323.561 217.92 323.801 215.52 327.921 223.32C328.981 225.32 328.341 226.34 327.721 228.36C325.721 233.94 323.721 239.22 321.721 244.82C321.501 245.46 320.681 245.26 320.921 244.62C321.521 243.08 327.561 226.62 327.481 225.14C327.401 223.66 323.341 217.94 323.241 216.64C323.354 215.775 323.677 214.951 324.181 214.24C327.001 208.7 326.941 210.24 324.781 206.92L316.241 193.66C312.252 192.402 308.174 191.446 304.041 190.8C304.101 190.517 304.141 190.229 304.161 189.94C306.736 190.383 309.385 189.919 311.657 188.628C313.929 187.337 315.683 185.299 316.621 182.86C319.981 175.36 319.921 163.8 319.621 155.44C320.241 154.8 324.541 142.24 321.621 137.6C321.365 137.051 320.99 136.565 320.525 136.178C320.059 135.79 319.514 135.51 318.927 135.357C318.341 135.204 317.728 135.183 317.132 135.294C316.537 135.405 315.973 135.646 315.481 136C315.221 130.74 308.681 129.9 307.881 134.14C306.941 129.88 302.021 129.3 300.681 132.9C297.961 128.2 291.301 129.46 290.921 134.5C287.241 130.98 282.281 132.38 282.241 137.48C279.321 135.84 275.401 137.48 275.321 142.48C275.241 147.48 279.321 167.7 285.161 173.98C284.788 178.301 283.812 182.549 282.261 186.6C276.921 187.24 271.121 190.26 266.261 192.74L268.881 215.3C269.141 216.3 270.881 216.14 272.001 216.3C273.121 216.46 283.221 218.08 283.081 219.44C283.081 221.58 282.881 223.7 282.761 225.84C282.756 226.165 282.843 226.484 283.013 226.76C283.183 227.037 283.429 227.259 283.721 227.4C292.181 233.08 299.961 238.56 308.421 244.3C309.061 244.74 308.541 245.5 307.901 245.1L283.901 228.98C280.821 226.98 281.181 225.62 281.901 219.74C266.461 214.92 268.301 221.5 266.841 208C266.301 203.08 265.701 198.14 265.321 193.22C217.801 215.22 204.041 292.06 246.101 295.22C262.101 296.42 285.041 289.56 297.241 281.68C300.601 279.52 310.241 272.54 312.221 269.4C312.501 268.98 312.221 268.22 311.701 267.08C312.821 266.36 316.561 264.5 315.921 263.7C319.801 263.7 324.381 261.28 325.221 257.18C327.021 258.26 324.901 261.02 325.221 262.26C325.541 263.5 327.781 262.42 328.341 261.84C329.065 262.084 329.848 262.082 330.571 261.837C331.294 261.591 331.916 261.114 332.341 260.48C332.541 263.88 335.401 264.8 335.961 262.48C336.524 260.195 336.599 257.816 336.181 255.5C369.001 251.06 402.161 249.02 435.001 252.38C435.19 253.048 435.512 253.67 435.948 254.21C436.384 254.75 436.925 255.196 437.538 255.521C438.151 255.846 438.824 256.044 439.515 256.102C440.206 256.16 440.902 256.078 441.561 255.86C442.228 257.509 443.153 259.042 444.301 260.4C430.761 263.7 417.521 266.7 403.841 268.98C402.701 269.14 401.841 269.54 402.061 269.96C402.741 271.28 415.641 293.04 416.741 292.88C417.361 293.38 464.341 277.84 467.681 276.88C467.841 276.88 468.921 276.42 468.641 275.94C463.349 270.122 457.734 264.607 451.821 259.42C451.389 259.22 450.918 259.116 450.441 259.116C449.965 259.116 449.494 259.22 449.061 259.42C448.341 257.62 447.641 255.82 446.941 254.02C459.721 255.88 484.421 260.02 494.781 267.62C508.301 277.62 506.361 292.88 492.661 301.44C475.161 312.36 444.421 314.34 424.521 315.44C392.781 317.16 360.201 316.08 329.281 307.94C316.081 304.46 301.141 297.72 297.881 282.96C297.625 283.149 297.358 283.323 297.081 283.48C299.401 293.74 307.801 300.86 317.081 304.94C329.341 310.34 350.021 313.76 363.441 315.26C388.208 317.72 413.152 317.84 437.941 315.62C455.641 314.24 497.221 310.34 504.041 289.62C502.161 306.1 485.761 313.22 471.541 316.58C440.441 323.92 407.841 324.16 376.101 321.64C356.241 320.04 325.561 317.28 308.361 305.9C299.521 300.08 297.141 293.34 296.901 283.6C283.801 291.88 257.601 298.94 241.901 296.16C241.878 300.371 242.444 304.565 243.581 308.62C259.301 311.42 286.641 307.56 299.081 297.68L299.821 298.88C286.961 308.74 259.961 312.72 243.941 309.74C250.621 331.12 273.801 350.48 317.641 350.56C317.761 347.28 317.641 343.98 317.521 340.68C317.521 340.04 318.501 340.02 318.541 340.68C320.201 360.96 318.361 383.08 318.361 403.62C319.361 403.88 320.361 404.12 321.361 404.32C321.565 406.392 321.368 408.483 320.781 410.48C318.482 410.933 316.102 410.747 313.901 409.94C311.621 394.06 309.121 377.52 306.941 360.96C306.941 360.32 306.941 359.18 306.221 359.18C271.381 358.5 258.621 348.4 255.421 346.48C254.461 345.9 254.181 346.48 253.761 347.24C250.881 353.02 235.761 399.94 234.761 403.84C234.401 403.84 228.141 404.14 228.281 402.24C228.901 402 241.141 344.24 242.481 338.6C242.758 337.52 242.925 336.414 242.981 335.3C242.761 334.08 229.381 320.78 232.581 292.02L231.621 291.22C229.381 306.64 232.301 323.62 242.081 336.04C239.601 343.52 226.941 401.22 227.341 402.04C225.841 405.08 235.241 405.78 235.661 404.74C241.461 386.34 249.021 364.98 254.401 347.36C269.561 357.48 288.121 359.98 305.941 360.34C305.941 366.34 311.701 405.06 312.781 410.34C313.041 411.6 319.181 411.76 320.401 411.6C319.501 414.68 318.581 418.88 319.681 419.74C326.441 425 353.121 424.8 354.261 423.02C355.401 421.24 343.741 412.28 337.521 409.92C337.641 408.5 337.741 407.08 337.841 405.68C340.541 405.68 342.601 405.5 343.601 405.4C352.743 378.094 356.704 349.321 355.281 320.56L356.541 320.72C357.632 334.3 357.115 347.961 355.001 361.42C357.001 370.18 361.001 388.62 361.341 391.2C362.441 391.36 363.641 391.5 364.921 391.6C365.201 393.6 365.481 395.6 365.721 397.6C364.301 400.66 361.721 407.6 364.261 409.24C369.642 410.639 375.219 411.126 380.761 410.68C373.541 413.96 369.961 412.78 368.521 414.98C367.341 416.8 368.201 424.62 368.521 426.4C370.921 438.68 431.001 438.92 440.521 427.72C442.021 425.94 444.201 413.6 438.521 412.34C433.428 411.438 428.627 409.325 424.521 406.18C411.581 394.9 413.861 340.82 413.421 323.74C419.795 323.74 426.155 323.493 432.501 323C433.701 356.32 436.141 372.08 440.721 389.12C440.961 389.96 441.321 389.94 442.121 390.1C442.921 390.26 444.361 390.46 445.161 390.58C445.381 391.6 445.601 392.58 445.861 393.62C443.381 394.74 427.861 403.12 431.621 405.74C436.861 409.4 450.061 405.06 453.321 402.48C453.481 402.64 453.561 405.98 454.001 406.2C455.884 406.388 457.785 406.212 459.601 405.68C460.461 404.92 461.781 395.96 460.341 393.3C460.481 392.8 460.601 392.26 460.721 391.7C461.421 391.7 465.421 392.28 465.241 391.12C466.401 389.96 469.241 368.96 469.521 365.94C471.641 372.16 480.941 397.94 485.141 402.44C485.041 403.28 488.261 403.16 488.761 403.12L491.301 407.12C486.261 409.84 474.161 419.84 478.401 421.88C482.641 423.92 497.141 418.24 499.641 416.2C499.898 417.168 500.362 418.069 501.001 418.84C502.773 418.99 504.556 418.744 506.221 418.12C506.509 413.016 505.914 407.901 504.461 403C504.321 402.44 505.141 402.28 505.341 402.8C506.852 407.816 507.528 413.045 507.341 418.28C508.421 418.4 512.081 418.86 512.361 417.6C514.841 398.08 518.081 377.84 519.761 358.3C534.881 358.46 549.321 359 563.601 353.22C565.881 360.48 584.861 413.22 585.901 413.66C588.641 415.1 595.401 413.66 594.981 411.82C589.301 390 582.981 367.48 577.201 344.96C591.581 332.26 592.361 303.56 589.401 284.26C592.44 281.896 594.978 278.951 596.866 275.596C598.755 272.242 599.957 268.544 600.401 264.72C603.381 245.78 590.421 224.12 577.261 211.22ZM432.541 228.98L430.541 229.94C429.561 230.54 429.101 229.64 430.281 228.92C433.461 227 433.001 228.8 432.541 228.98ZM394.021 155.08C394.401 154.76 397.161 152.46 397.541 153.4C397.781 153.94 395.741 157.04 395.541 157.26C393.986 158.673 392.603 160.264 391.421 162L388.301 160.68C390.11 158.716 392.019 156.846 394.021 155.08ZM378.301 155.36C378.621 155.36 379.681 156.84 379.841 157.1C381.181 159.44 381.161 162.44 382.081 161.9C382.601 162.2 386.081 157.56 388.481 155.62C393.321 151.72 394.941 152.72 390.801 156.72C389.541 157.837 388.401 159.084 387.401 160.44C386.965 160.358 386.524 160.304 386.081 160.28C386.017 160.282 385.955 160.304 385.905 160.344C385.855 160.384 385.818 160.438 385.801 160.5C385.789 160.538 385.784 160.578 385.788 160.618C385.791 160.658 385.803 160.697 385.821 160.732C385.84 160.768 385.865 160.799 385.896 160.824C385.927 160.85 385.963 160.869 386.001 160.88C388.282 161.576 390.471 162.543 392.521 163.76C393.421 163.76 392.781 162.86 392.061 162.36C392.521 161.9 401.481 151.82 398.201 158.82C395.661 164.18 391.661 168.36 388.461 175.94C385.495 173.315 381.836 171.6 377.921 171C378.301 168.42 377.861 155.5 378.301 155.36ZM376.301 171.8C381.002 172.354 385.381 174.466 388.741 177.8L387.461 182C383.069 179.311 378.368 177.162 373.461 175.6C374.336 174.271 375.298 173.002 376.341 171.8H376.301ZM332.741 243.16C333.801 244.14 331.241 247.36 330.901 247.96L327.941 246.84C330.641 245.88 332.141 242.62 332.741 243.16ZM314.081 194C319.361 208.18 318.761 230.88 319.361 246.52L317.921 246.64C317.921 243.76 317.741 240.88 317.641 238C314.561 230.2 307.841 214.8 304.961 210.98C305.484 208.338 305.845 205.666 306.041 202.98C306.281 203.16 307.641 204.22 307.881 203.5C308.78 199.952 309.303 196.318 309.441 192.66L314.081 194ZM308.541 192.5C308.541 195.06 307.301 201.64 307.201 202.64C305.044 200.988 302.668 199.642 300.141 198.64C301.918 196.585 303.197 194.149 303.881 191.52C305.412 191.952 306.968 192.286 308.541 192.52V192.5ZM285.001 162.54C285.09 161.86 285.415 161.233 285.919 160.768C286.424 160.304 287.076 160.032 287.761 160C290.101 160.14 292.601 165.72 295.101 160C296.002 157.833 296.594 155.551 296.861 153.22C304.349 152.782 311.854 153.724 319.001 156C318.821 164.14 319.241 181.82 312.101 187.22C309.733 188.838 306.83 189.476 304.001 189C303.912 188.988 303.821 189.01 303.747 189.062C303.672 189.114 303.621 189.192 303.601 189.28C302.88 192.574 301.355 195.639 299.161 198.2C290.681 194.78 289.501 193.78 283.301 187.22C289.001 171.84 283.601 169.04 285.001 162.54ZM282.661 187.54C286.772 192.742 292.24 196.708 298.461 199C297.112 201.008 295.979 203.154 295.081 205.4C292.001 205.4 288.361 202.74 286.021 200.86C282.128 197.576 278.798 193.678 276.161 189.32C278.341 188.62 280.521 188.12 282.701 187.54H282.661ZM267.981 192.88L275.621 189.54C275.441 190.16 277.621 193.54 278.121 194.16C280.981 198.16 289.461 206.96 295.161 206.56C295.621 206.56 295.901 205.38 296.121 204.96C298.73 206.798 301.049 209.016 303.001 211.54C303.421 212.48 307.841 231.54 308.861 239.1L312.861 246.62L311.381 246.78C301.241 227.52 284.661 206.48 268.021 192.88H267.981ZM311.381 266.32C309.018 260.433 307.816 254.144 307.841 247.8C292.875 248.637 278.012 250.785 263.421 254.22C259.841 255.1 256.281 256.22 252.681 257C252.57 257.012 252.459 256.986 252.365 256.925C252.272 256.864 252.203 256.772 252.17 256.666C252.137 256.559 252.142 256.445 252.184 256.341C252.226 256.238 252.303 256.153 252.401 256.1C257.386 254.424 262.469 253.055 267.621 252C269.324 243.941 270.54 235.786 271.261 227.58C271.261 227 272.161 227.12 272.161 227.7C271.846 235.771 270.842 243.8 269.161 251.7C282.114 248.779 295.311 247.078 308.581 246.62C309.361 246.62 309.061 247.78 309.061 248.22L312.861 247.82C312.121 251.24 314.061 260.48 315.201 263.82C314.003 264.763 312.725 265.599 311.381 266.32ZM335.381 261.04C334.781 264.9 332.901 261.48 333.061 259.04C333.323 257.802 333.232 256.515 332.797 255.327C332.362 254.138 331.601 253.096 330.601 252.32C330.141 251.96 329.501 252.64 329.981 253C333.021 255.36 333.621 261.32 328.741 261.32C329.496 260.098 329.851 258.671 329.758 257.237C329.665 255.804 329.128 254.435 328.221 253.32C327.821 252.84 327.001 253.32 327.421 253.86C329.701 256.54 329.261 261.34 326.441 262.06C325.321 262.34 328.441 257.22 325.221 256.46C325.179 256.397 325.124 256.343 325.061 256.3C324.962 256.248 324.847 256.236 324.74 256.265C324.632 256.295 324.54 256.365 324.481 256.46C323.991 258.25 322.948 259.839 321.501 261C319.728 262.101 317.747 262.823 315.681 263.12C314.422 258.268 313.803 253.273 313.841 248.26C320.101 247.52 328.341 245.66 333.061 251.04C334.165 252.432 334.952 254.048 335.366 255.775C335.781 257.502 335.813 259.299 335.461 261.04H335.381ZM340.141 254C337.921 236 335.821 230.58 330.141 213.66C329.941 213.1 330.761 212.72 331.001 213.28C336.572 226.24 340.146 239.969 341.601 254H340.141ZM336.661 409.7C333.801 410.24 326.861 410.98 322.321 408.7C322.321 407.22 322.421 405.72 322.481 404.24C327.197 405.059 331.975 405.461 336.761 405.44C336.701 406.94 336.661 408.36 336.661 409.78V409.7ZM366.661 397.5C366.481 395.5 366.301 393.62 366.101 391.66C370.421 391.94 374.755 392.007 379.101 391.86L379.341 398.34C375.111 398.874 370.818 398.616 366.681 397.58L366.661 397.5ZM380.261 398.36V391.78C382.631 391.733 384.993 391.486 387.321 391.04C388.121 382.58 390.541 338.36 389.041 323.2L396.081 323.52C396.221 327.28 396.541 331 396.781 334.72C397.761 350.38 400.281 390.62 390.781 403.36C387.522 401.249 383.989 399.594 380.281 398.44L380.261 398.36ZM440.261 426.36C435.061 436.92 371.301 437.52 369.541 426.22C369.135 423.641 369.028 421.024 369.221 418.42C371.273 420.535 373.835 422.085 376.661 422.92C390.661 427.94 417.601 427.08 432.241 422.92C435.592 422.231 438.609 420.426 440.801 417.8C441.001 420.12 441.121 424.5 440.181 426.38L440.261 426.36ZM422.401 405.48C425.781 409.2 430.721 411.48 438.021 413.48C441.441 414.4 441.301 416.52 438.441 418.84C428.441 427 392.441 425.82 381.001 423.12C369.561 420.42 367.881 415.54 370.761 415C380.961 413.1 388.561 409.52 393.041 402.08C401.861 387.44 399.041 340.5 397.041 323.64C402.375 323.84 407.708 323.92 413.041 323.88C412.401 354.28 411.861 394 422.321 405.5L422.401 405.48ZM555.181 196.64L558.641 198.52C558.461 199.08 560.641 207.32 560.741 208.28L550.881 214.12C549.821 214.12 550.981 216.12 551.161 216.58C554.081 223.16 554.721 222.8 552.901 224.04C544.28 230.171 535.091 235.462 525.461 239.84L520.081 238.54C533.661 228.44 546.741 211.56 555.181 196.64ZM510.021 165.12C510.478 159.694 511.246 154.298 512.321 148.96C514.901 151.06 533.601 152.64 536.321 151.94C535.861 154.34 535.141 161.94 537.841 163.3C540.541 164.66 543.121 160.62 545.181 162.88C547.621 165.54 543.861 169.76 542.921 172.32C540.921 177.52 541.101 190.14 540.921 190.32C537.189 197.024 531.455 202.394 524.521 205.68C518.161 194.2 521.701 185.1 520.301 184.74C509.641 182 509.221 175.12 510.021 165.12ZM517.001 238.92C521.07 239.5 525.053 240.575 528.861 242.12C530.381 246.26 528.341 253.42 525.281 256.62C523.228 256.026 521.398 254.836 520.021 253.2C516.861 250.02 517.801 247.84 515.901 247.56C512.781 247.1 511.721 251.14 511.101 253.42C510.281 253.42 509.881 248.3 513.001 244.82C513.301 244.5 513.801 244.16 513.961 243.76C514.121 243.36 513.761 242.54 512.121 244.42C511.221 245.48 509.881 245.84 508.921 246.96C507.681 248.4 506.261 251.86 506.801 248.2C507.381 244.2 509.401 242.96 512.101 241.14C513.041 240.5 511.281 239.84 508.601 242.64C507.441 241.74 502.781 245.84 502.781 245.84C501.701 246 503.701 237.26 517.001 238.92ZM525.001 258C523.621 257.64 520.861 257.06 517.381 256.4C517.241 254.62 517.121 252.84 517.001 251.08C519.321 255.8 524.461 257.18 525.001 258ZM509.001 192.7C508.55 207.821 509.111 222.955 510.681 238C509.506 238.179 508.358 238.501 507.261 238.96C507.261 238.96 498.381 220.04 497.361 218.44C498.021 218.08 504.581 213.34 504.081 212.66C501.913 210.142 500.071 207.36 498.601 204.38C499.861 202.26 504.301 195.02 505.461 193.82C506.601 193.42 507.761 193.04 509.001 192.68V192.7ZM436.021 245.3C436.821 246.58 438.961 251 441.201 249.3C441.201 250 441.201 250.94 442.081 251.3C440.601 254.54 432.181 249.16 435.941 245.28L436.021 245.3ZM442.021 254.4C440.021 256.6 436.281 254.28 435.681 251.2C436.444 252.076 437.462 252.69 438.593 252.956C439.723 253.221 440.909 253.125 441.981 252.68C442.196 252.91 442.317 253.212 442.321 253.526C442.325 253.841 442.211 254.145 442.001 254.38L442.021 254.4ZM451.201 259.72C456.821 264.98 462.161 270.32 467.421 275.92L417.001 291.92C412.321 284.74 407.721 277.2 403.001 270.14C411.801 269.34 436.461 263.48 445.001 261.34C449.621 267.34 453.261 270.3 449.481 260.24C449.741 260 451.001 259.7 451.181 259.7L451.201 259.72ZM449.941 265.42L448.261 263.7L449.441 263.22C449.581 264 449.741 264.66 449.921 265.4L449.941 265.42ZM447.541 258C448.081 259.44 448.601 260.9 449.141 262.36L447.641 263.08L444.661 259.3C445.643 258.916 446.604 258.482 447.541 258ZM453.421 254C451.161 253.62 448.901 253.26 446.621 252.94C446.105 251.301 445.436 249.714 444.621 248.2L445.241 245.3C445.241 244.92 444.741 244.9 444.621 245.2C444.181 246.44 442.401 253.38 442.121 248.66C442.001 246.66 441.901 244.66 441.801 242.82C441.701 240.98 447.001 241.5 448.761 242.24C453.141 244 453.701 249.72 453.421 254ZM492.341 252C486.481 251.02 481.841 250.34 480.621 250.34C477.681 250.34 475.761 253.06 474.441 255.68C477.072 238.524 483.198 222.091 492.441 207.4C492.601 207.12 492.241 206.86 492.061 207.12C484.051 218.915 478.313 232.1 475.141 246C474.184 249.946 473.515 253.957 473.141 258L454.581 254.16C454.941 249.24 453.941 242.92 448.581 241.14C456.461 235.88 465.761 235.14 472.961 235.42C473.281 235.42 473.281 234.98 472.961 234.9C469.889 234.42 466.765 234.38 463.681 234.78C467.204 225.645 472.59 217.344 479.498 210.406C486.405 203.467 494.682 198.043 503.801 194.48C503.121 195.36 496.781 204 497.901 204.8C497.761 206.94 501.501 211.1 502.781 212.8C500.601 214.9 498.121 216.8 496.521 218.24C496.121 218.6 505.421 238.96 506.521 239.38C505.204 239.995 504.037 240.889 503.101 242C497.441 240.72 493.001 244.52 492.341 251.88V252ZM495.401 252.5C496.201 248 496.461 244.86 501.801 244.64C501.501 245.88 501.941 247.58 503.141 246.78L504.841 245.18L506.601 245.62C505.961 247.02 504.841 251.88 507.161 250.76C507.781 250.46 509.161 247.94 509.921 247.02C510.076 247.117 510.201 247.256 510.281 247.42C509.101 250.32 509.301 254.68 511.081 254.42C512.341 254.2 512.061 252.28 513.081 250.42C513.635 252.135 513.839 253.945 513.681 255.74C508.041 254.6 501.341 253.4 495.401 252.38V252.5ZM459.401 393.96C455.274 394.841 451.008 394.841 446.881 393.96C446.701 392.94 446.501 391.96 446.301 390.9L459.781 391.84C459.621 392.48 459.501 393.16 459.381 393.84L459.401 393.96ZM468.761 364C467.681 373 466.201 382 464.601 390.84C456.601 390.84 449.261 389.8 441.501 389.48C435.501 365.6 434.821 345.92 433.501 323.06C442.337 322.415 451.135 321.327 459.861 319.8C461.861 339.22 463.301 345.24 468.681 363.96L468.761 364ZM492.521 407.3C491.661 405.9 490.861 404.48 490.061 403.06C494.608 402.46 499.093 401.456 503.461 400.06C503.581 401.22 503.721 402.34 503.861 403.5C500.646 406.063 496.632 407.415 492.521 407.32V407.3ZM510.521 345.04C510.641 340.94 510.921 336.22 510.841 332.18C510.828 332.057 510.773 331.943 510.686 331.855C510.599 331.768 510.484 331.713 510.361 331.7C510.29 331.692 510.218 331.698 510.15 331.717C510.081 331.737 510.017 331.77 509.961 331.815C509.905 331.859 509.859 331.915 509.824 331.977C509.79 332.04 509.769 332.109 509.761 332.18C508.601 352.18 507.561 377.16 508.201 396.94C504.641 398.94 493.621 402.58 485.961 402.32C483.841 401.22 474.281 375.58 473.581 373.74C471.581 368.14 469.581 362.54 467.921 356.78C465.47 347.86 463.54 338.805 462.141 329.66L461.241 319.66C472.301 317.66 484.281 315.3 493.501 308.44C495.501 309.24 509.161 311.7 512.601 312.44C511.317 300.277 511.714 287.995 513.781 275.94C514.661 271.58 518.261 259.64 523.881 259.12C524.861 259.12 525.121 260.32 524.121 260.42C521.241 260.74 518.401 266.6 517.421 269C512.461 281.3 513.421 299.14 513.881 312.6C517.721 312.12 539.521 306.28 539.721 304.6C539.721 303.98 539.401 299.94 538.741 294.78C549.381 303.18 564.261 308.36 577.521 310.26C569.501 343.46 538.741 344.92 510.441 345.06L510.521 345.04ZM577.721 309.04C561.001 305.72 552.461 302.88 538.581 293.7C537.501 285.3 535.801 274.36 534.201 269.84C544.881 282.2 560.201 292.72 577.421 289.52C578.982 295.966 579.057 302.681 577.641 309.16L577.721 309.04ZM594.741 277.56C591.12 282.796 585.717 286.535 579.541 288.08C566.341 291.62 552.881 285.84 542.961 277.24C536.444 271.307 530.687 264.589 525.821 257.24C529.461 254.62 531.381 245.86 529.821 241.52C543.324 241.687 556.744 243.665 569.721 247.4C571.361 247.86 573.021 248.42 574.701 248.74C574.961 248.74 575.181 248.4 574.901 248.26C570.661 246.26 559.561 243.88 554.901 243.08C553.404 240.441 552.28 237.608 551.561 234.66C551.561 234.34 550.981 234.38 551.041 234.66C551.401 237.539 552.34 240.314 553.801 242.82C551.061 242.34 529.201 239.5 528.401 240.82C527.79 240.542 527.162 240.302 526.521 240.1C534.381 237.54 546.961 229.64 553.601 224.74C555.841 223.08 555.381 223.26 553.501 218.98C552.945 217.421 552.277 215.903 551.501 214.44C552.641 214.02 561.281 209.78 561.341 208.76C562.301 208.28 560.341 200.76 559.901 199.16C575.138 208.194 587.241 221.679 594.581 237.8C600.261 250.34 602.841 265.54 594.661 277.68L594.741 277.56Z" fill="#02202C"/>
<path d="M325.181 269.36C325.074 269.354 324.967 269.387 324.883 269.453C324.798 269.519 324.74 269.614 324.721 269.72C324.121 274 323.641 278.32 323.241 282.62C323.238 282.656 323.243 282.692 323.255 282.726C323.267 282.76 323.285 282.791 323.31 282.817C323.334 282.843 323.364 282.864 323.397 282.879C323.43 282.893 323.465 282.9 323.501 282.9C323.563 282.903 323.625 282.885 323.675 282.848C323.726 282.812 323.763 282.76 323.781 282.7C324.441 278.42 325.041 274.12 325.521 269.82C325.53 269.768 325.527 269.714 325.515 269.662C325.502 269.61 325.479 269.562 325.448 269.519C325.416 269.476 325.376 269.44 325.33 269.413C325.285 269.385 325.234 269.368 325.181 269.36ZM345.381 270.5C345.294 270.507 345.212 270.542 345.147 270.6C345.082 270.658 345.038 270.735 345.021 270.82C344.661 272.82 344.061 282.5 343.901 284.62C343.895 284.663 343.899 284.706 343.911 284.747C343.924 284.788 343.945 284.826 343.973 284.859C344.002 284.891 344.037 284.917 344.076 284.934C344.115 284.952 344.158 284.961 344.201 284.96C344.283 284.966 344.364 284.94 344.427 284.888C344.49 284.836 344.531 284.762 344.541 284.68C344.741 282.54 345.821 272.84 345.781 270.88C345.781 270.829 345.771 270.777 345.75 270.73C345.73 270.683 345.7 270.64 345.663 270.604C345.625 270.569 345.581 270.541 345.533 270.523C345.484 270.505 345.433 270.497 345.381 270.5Z" fill="#02202C"/>
<path d="M375.561 289.64C375.781 289.64 376.421 289.14 376.421 288.9C377.021 282.14 377.701 275.36 377.941 268.58C377.941 268.3 377.661 268.3 377.461 268.3C360.341 268.3 343.248 267.587 326.181 266.16C318.321 265.58 319.321 264.76 318.781 268.66C318.561 270.32 316.481 283.76 316.481 286.48C316.481 287.12 316.361 287.36 317.061 287.52C323.161 288.88 370.261 289.64 375.561 289.64ZM320.081 266.52C331.481 268.34 365.821 269.2 377.341 269.24C376.541 275.72 376.061 282.26 375.541 288.78C363.361 288.36 329.181 287.68 317.181 286.6C318.341 281.46 319.201 272 320.081 266.52Z" fill="#02202C"/>
<path d="M371.181 272.501C371.122 272.509 371.065 272.534 371.019 272.573C370.973 272.612 370.939 272.663 370.921 272.721C370.581 273.601 370.121 284.721 370.121 285.521C370.109 285.565 370.108 285.611 370.117 285.656C370.126 285.702 370.145 285.744 370.173 285.78C370.201 285.817 370.237 285.846 370.279 285.866C370.32 285.887 370.365 285.897 370.411 285.897C370.457 285.897 370.502 285.887 370.544 285.866C370.585 285.846 370.621 285.817 370.649 285.78C370.677 285.744 370.696 285.702 370.705 285.656C370.714 285.611 370.713 285.565 370.701 285.521C370.701 284.721 371.861 273.521 371.661 272.721C371.622 272.632 371.551 272.561 371.463 272.52C371.374 272.48 371.274 272.473 371.181 272.501ZM351.781 271.161C351.441 272.021 351.221 283.801 351.201 284.581C351.201 284.981 351.801 285.081 351.841 284.581C351.841 283.781 352.721 272.021 352.441 271.081C352.361 270.841 351.881 270.901 351.781 271.161ZM364.321 271.501V285.101C364.321 285.191 364.357 285.277 364.421 285.341C364.485 285.405 364.571 285.441 364.661 285.441C364.751 285.441 364.838 285.405 364.902 285.341C364.965 285.277 365.001 285.191 365.001 285.101C365.001 280.581 365.161 276.041 365.121 271.501C365.281 270.941 364.321 270.901 364.321 271.501ZM527.201 156.261C527.881 156.441 529.781 156.761 529.821 158.001C529.821 158.561 530.781 158.281 530.301 157.021C529.821 155.761 527.021 154.501 526.801 155.581C526.765 155.724 526.786 155.876 526.861 156.003C526.936 156.13 527.058 156.223 527.201 156.261ZM358.541 271.841L358.001 285.721C358.001 286.081 358.581 286.081 358.621 285.721C358.861 281.101 359.121 276.461 359.401 271.841C359.401 271.341 358.601 271.341 358.541 271.841ZM515.581 159.641C514.661 159.241 514.081 161.641 514.901 161.901C515.721 162.161 516.301 160.001 515.581 159.641ZM447.001 277.281C443.681 273.881 440.801 270.121 437.661 266.561C437.461 266.321 437.001 266.561 437.181 266.881C439.977 270.974 443.173 274.779 446.721 278.241C447.581 279.121 447.801 277.881 447.001 277.281ZM526.221 163.441C526.881 163.441 527.461 161.301 526.701 161.161C525.621 160.981 525.381 163.461 526.221 163.441ZM518.321 167.601L519.781 161.241C520.021 160.181 518.541 161.061 517.381 167.241C517.081 168.841 519.261 168.941 520.001 168.561C521.141 168.001 518.721 167.641 518.321 167.601ZM527.641 174.501C528.533 174.302 529.345 173.839 529.969 173.171C530.593 172.504 531.002 171.664 531.141 170.761C531.261 170.101 530.181 169.961 530.101 170.621C529.841 173.241 527.921 173.361 525.981 173.781C525.181 174.001 526.021 174.841 527.641 174.501ZM518.281 154.661C517.465 154.321 516.556 154.282 515.714 154.549C514.872 154.816 514.152 155.373 513.681 156.121C513.581 156.361 513.861 156.741 514.121 156.541C514.599 156.044 515.207 155.692 515.874 155.522C516.542 155.352 517.244 155.373 517.901 155.581C518.441 155.721 518.801 154.901 518.281 154.661ZM411.861 271.161C411.8 271.108 411.722 271.08 411.641 271.08C411.561 271.08 411.483 271.108 411.421 271.161C411.371 271.219 411.343 271.293 411.343 271.371C411.343 271.448 411.371 271.522 411.421 271.581C414.096 276.507 417.195 281.191 420.681 285.581C421.041 285.981 421.481 285.281 421.241 284.921C417.881 279.361 415.461 276.961 411.861 271.161ZM424.661 268.801C424.421 268.481 423.981 268.801 424.181 269.181C425.441 271.061 432.821 281.621 434.321 282.541C434.412 282.595 434.521 282.613 434.625 282.591C434.729 282.569 434.82 282.508 434.881 282.421C434.915 282.363 434.932 282.297 434.932 282.231C434.932 282.164 434.915 282.098 434.881 282.041C434.381 280.641 426.141 270.801 424.661 268.801ZM431.181 267.701C430.981 267.481 430.581 267.701 430.761 268.041C433.855 272.567 437.4 276.769 441.341 280.581C441.423 280.656 441.53 280.699 441.641 280.699C441.753 280.699 441.86 280.656 441.941 280.581C441.981 280.541 442.013 280.495 442.034 280.443C442.056 280.392 442.067 280.336 442.067 280.281C442.067 280.225 442.056 280.169 442.034 280.118C442.013 280.066 441.981 280.02 441.941 279.981C438.061 275.881 434.821 272.001 431.181 267.701ZM418.561 270.381C418.509 270.325 418.438 270.29 418.362 270.283C418.286 270.275 418.21 270.294 418.147 270.338C418.084 270.381 418.039 270.446 418.02 270.52C418 270.593 418.008 270.672 418.041 270.741C419.401 272.741 426.661 283.281 428.521 284.341C428.781 284.501 429.121 284.181 429.001 283.881C428.461 282.561 420.201 272.761 418.561 270.381Z" fill="#02202C"/>
<path d="M240.722 43.7695L242.294 48.6064H247.38L243.265 51.5958L244.837 56.4326L240.722 53.4433L236.608 56.4326L238.179 51.5958L234.065 48.6064H239.151L240.722 43.7695Z" fill="#DA7B07"/>
<path d="M637.723 332.77L639.294 337.606H644.38L640.266 340.596L641.837 345.433L637.723 342.443L633.608 345.433L635.18 340.596L631.065 337.606H636.151L637.723 332.77Z" fill="#5747B8"/>
<path d="M131.724 309.77L133.296 314.606H138.382L134.267 317.596L135.839 322.433L131.724 319.443L127.61 322.433L129.181 317.596L125.067 314.606H130.153L131.724 309.77Z" fill="#7568C8"/>
<path d="M359.722 423.77L361.294 428.606H366.38L362.265 431.596L363.837 436.433L359.722 433.443L355.608 436.433L357.179 431.596L353.065 428.606H358.151L359.722 423.77Z" fill="#B968C7"/>
</svg>
