<svg width="126" height="23" viewBox="0 0 126 23" fill="none" xmlns="http://www.w3.org/2000/svg">
<path d="M10.0003 0.871094H23.5871L13.5981 15.6347H0.0112305L10.0003 0.871094Z" fill="#007AFF"/>
<path d="M10.5951 17.0023L6.72607 22.7206H20.9574L30.9465 7.95703H20.4429L14.3228 17.0023H10.5951Z" fill="#312ECB"/>
<path d="M40.6226 4.72266C40.7343 5.54187 40.7715 6.08181 40.7715 7.4782V17.4578C40.7715 18.7052 40.7343 19.4872 40.6226 20.2133H44.7186C44.6069 19.4313 44.5697 18.7424 44.5697 17.4578V7.4782C44.5697 6.11905 44.6069 5.48602 44.7186 4.72266H40.6226Z" fill="#1C1B66"/>
<path d="M50.7092 20.2133C50.5975 19.2451 50.5602 18.4632 50.5602 17.4019V13.641C51.3608 12.3377 52.2917 11.686 53.3344 11.686C53.8929 11.686 54.3212 11.8722 54.5632 12.2073C54.7866 12.5238 54.8611 12.8404 54.8611 13.5851V17.4019C54.8611 18.5376 54.8239 19.3196 54.7122 20.2133H58.5848C58.4917 19.4313 58.4359 18.5004 58.4359 17.4205V12.7473C58.4359 11.2764 58.1194 10.3641 57.3746 9.61934C56.6857 8.93045 55.6617 8.5767 54.377 8.5767C52.8503 8.5767 51.7146 9.04217 50.5416 10.1593C50.5416 10.0289 50.5602 9.74967 50.5602 9.63796V8.85598H46.8551C46.9668 9.60072 47.0041 10.3827 47.0041 11.6674V17.4019C47.0041 18.5563 46.9668 19.3382 46.8551 20.2133H50.7092Z" fill="#1C1B66"/>
<path d="M71.4945 12.3004C70.8801 9.82414 68.8879 8.40913 66.0206 8.40913C62.39 8.40913 60.0441 10.7923 60.0441 14.516C60.0441 16.3406 60.6398 17.9791 61.7197 19.0403C62.7437 20.083 64.2705 20.6415 66.0579 20.6415C68.2176 20.6415 69.9119 19.8782 70.8428 18.5004C71.1966 17.9605 71.42 17.4578 71.6248 16.6572L68.199 16.1172C68.1245 16.5454 68.0314 16.7316 67.8639 16.9737C67.4915 17.495 66.8212 17.7929 66.0951 17.7929C64.6056 17.7929 63.6561 16.4896 63.6561 14.4788C63.6561 12.4307 64.5498 11.2392 66.0579 11.2392C66.7281 11.2392 67.2494 11.4626 67.6218 11.8908C67.8639 12.1701 67.9756 12.4307 68.1431 12.9893L71.4945 12.3004Z" fill="#1C1B66"/>
<path d="M80.5399 12.859C79.1994 12.8962 78.6408 12.9148 77.9147 12.9893C76.239 13.1383 74.9916 13.5292 74.042 14.1995C73.1483 14.8139 72.6829 15.7449 72.6829 16.9178C72.6829 17.9418 73.0366 18.8355 73.7069 19.4499C74.4516 20.1388 75.5129 20.474 76.9279 20.474C78.4546 20.474 79.4973 20.1575 80.5399 19.3569V20.2133H84.1519C84.0588 19.3755 84.0216 18.7052 84.0216 17.5695V12.5425C84.0216 10.8668 83.5003 9.84276 82.3087 9.19111C81.5825 8.80012 80.242 8.53946 78.8642 8.53946C77.0582 8.53946 75.6805 8.89322 74.6751 9.60072C73.8931 10.1593 73.4835 10.7551 73.1111 11.8536L76.6672 12.4307C76.9465 11.5184 77.5795 11.1274 78.7711 11.1274C80 11.1274 80.5399 11.5371 80.5399 12.4307V12.859ZM80.5399 15.7635C80.5399 16.322 80.2979 16.8247 79.8696 17.1971C79.3669 17.6253 78.5291 17.9046 77.7657 17.9046C76.7976 17.9046 76.239 17.5136 76.239 16.8433C76.239 16.3034 76.6486 15.8379 77.3189 15.6145C78.0822 15.3725 78.8828 15.2794 80.5399 15.2421V15.7635Z" fill="#1C1B66"/>
<path d="M89.9827 20.2133C89.871 19.2451 89.8338 18.4632 89.8338 17.4019V13.641C90.6344 12.3377 91.5653 11.686 92.6079 11.686C93.1665 11.686 93.5947 11.8722 93.8368 12.2073C94.0602 12.5238 94.1347 12.8404 94.1347 13.5851V17.4019C94.1347 18.5376 94.0974 19.3196 93.9857 20.2133H97.8584C97.7653 19.4313 97.7094 18.5004 97.7094 17.4205V12.7473C97.7094 11.2764 97.3929 10.3641 96.6482 9.61934C95.9593 8.93045 94.9353 8.5767 93.6506 8.5767C92.1239 8.5767 90.9881 9.04217 89.8151 10.1593C89.8151 10.0289 89.8338 9.74967 89.8338 9.63796V8.85598H86.1287C86.2404 9.60072 86.2776 10.3827 86.2776 11.6674V17.4019C86.2776 18.5563 86.2404 19.3382 86.1287 20.2133H89.9827Z" fill="#1C1B66"/>
<path d="M101.273 8.85598H100.602C99.9506 8.85598 99.4852 8.81874 98.9452 8.74427V11.8536C99.4852 11.7791 99.9692 11.7419 100.565 11.7419H101.273V17.4391C101.273 18.7052 101.533 19.3382 102.241 19.8782C102.837 20.325 103.712 20.5298 104.978 20.5298C105.983 20.5298 106.709 20.4181 107.547 20.1575L107.268 17.3274C106.802 17.5695 106.449 17.6626 105.964 17.6626C105.611 17.6626 105.313 17.5881 105.108 17.4578C104.866 17.2902 104.773 17.0295 104.773 16.5082V11.7419H105.555C106.225 11.7419 106.709 11.7791 107.268 11.8536V8.76289C106.691 8.83736 106.262 8.85598 105.443 8.85598H104.773V8.46499C104.773 7.5713 104.829 6.67761 104.922 5.91424H101.124C101.235 6.78932 101.273 7.53406 101.273 8.46499V8.85598Z" fill="#1C1B66"/>
<path d="M114.352 20.6415C118.057 20.6415 120.515 18.1839 120.515 14.4788C120.515 10.7923 118.132 8.42775 114.371 8.42775C110.61 8.42775 108.227 10.7923 108.227 14.516C108.227 18.2584 110.61 20.6415 114.352 20.6415ZM114.39 11.2205C115.972 11.2205 116.922 12.4494 116.922 14.5346C116.922 16.6013 115.991 17.8115 114.371 17.8115C112.751 17.8115 111.783 16.5641 111.783 14.4974C111.783 12.4494 112.751 11.2205 114.39 11.2205Z" fill="#1C1B66"/>
<path d="M121.983 16.4524V20.2133H125.744V16.4524H121.983Z" fill="#1C1B66"/>
</svg>
