<svg width="109" height="28" viewBox="0 0 109 28" fill="none" xmlns="http://www.w3.org/2000/svg">
<path d="M18.3452 6.62351H20.0406V18.3841H25.1269V20.0739H18.3452V6.62351ZM30.4082 6.62351C31.4142 6.62351 32.3975 6.92082 33.234 7.47784C34.0704 8.03486 34.7224 8.82651 35.1074 9.75282C35.4923 10.6791 35.593 11.6984 35.3968 12.6817C35.2005 13.665 34.7161 14.5682 34.0047 15.2772C33.2934 15.9862 32.3871 16.469 31.4005 16.6645C30.4139 16.8601 29.3912 16.7598 28.4618 16.3761C27.5323 15.9924 26.738 15.3427 26.1791 14.509C25.6202 13.6754 25.3219 12.6953 25.3219 11.6927C25.3219 11.0271 25.4535 10.3678 25.7091 9.75282C25.9647 9.13776 26.3393 8.57896 26.8117 8.10828C27.284 7.63752 27.8446 7.26409 28.4618 7.00936C29.0788 6.75463 29.7403 6.62351 30.4082 6.62351ZM30.4082 15.0722C31.0788 15.0722 31.7345 14.874 32.2921 14.5027C32.8497 14.1313 33.2843 13.6035 33.5409 12.986C33.7976 12.3685 33.8648 11.689 33.7339 11.0334C33.6031 10.3779 33.2801 9.77572 32.8059 9.3031C32.3317 8.83048 31.7275 8.50858 31.0698 8.37822C30.4119 8.24777 29.7302 8.31468 29.1106 8.57051C28.491 8.82625 27.9614 9.25942 27.5888 9.81517C27.2162 10.3709 27.0173 11.0244 27.0173 11.6927C27.0218 12.5861 27.381 13.4414 28.0165 14.0715C28.6519 14.7016 29.5118 15.0553 30.4082 15.0553V15.0722ZM27.0173 18.401H33.7991V20.0907H27.0173V18.401ZM48.7189 20.0907H47.0234V18.8826C45.9301 19.6453 44.6281 20.0553 43.2935 20.057C42.1554 20.0646 41.0337 19.7866 40.0318 19.2487C39.0298 18.7107 38.1798 17.9301 37.5601 16.9788C36.9404 16.0274 36.5708 14.9359 36.4855 13.8048C36.4001 12.6738 36.6018 11.5395 37.0718 10.5065C37.5419 9.47351 38.2653 8.57499 39.1752 7.89385C40.0852 7.21263 41.1526 6.7706 42.2789 6.60855C43.4054 6.44642 44.5546 6.56952 45.6207 6.96635C46.6869 7.36319 47.6357 8.02101 48.3798 8.87931L47.1336 9.98609C46.5677 9.35548 45.8525 8.8761 45.053 8.59163C44.2536 8.30708 43.3955 8.22648 42.5568 8.35718C41.7181 8.48788 40.9256 8.82575 40.2515 9.33985C39.5774 9.85404 39.043 10.5281 38.6973 11.3008C38.3516 12.0734 38.2053 12.92 38.272 13.7634C38.3386 14.6069 38.6159 15.4202 39.0787 16.1294C39.5416 16.8386 40.1751 17.4211 40.9217 17.8238C41.6682 18.2265 42.504 18.4365 43.3528 18.4348C44.0573 18.4362 44.7538 18.286 45.3946 17.9944C46.0354 17.7027 46.6055 17.2766 47.0658 16.7451H42.4882V15.0553H48.7358L48.7189 20.0907ZM54.9581 6.6573C55.964 6.6573 56.9474 6.95461 57.7838 7.51163C58.6203 8.06866 59.2723 8.8603 59.6572 9.78662C60.0421 10.7129 60.1429 11.7322 59.9466 12.7154C59.7504 13.6988 59.266 14.602 58.5546 15.311C57.8433 16.02 56.937 16.5027 55.9503 16.6983C54.9637 16.8939 53.9411 16.7936 53.0116 16.4099C52.0822 16.0262 51.2879 15.3765 50.729 14.5428C50.1701 13.7092 49.8718 12.7291 49.8718 11.7265C49.8673 11.0565 49.9961 10.3924 50.2508 9.77234C50.5054 9.15229 50.8809 8.58867 51.3554 8.1142C51.83 7.63963 52.3942 7.26358 53.0155 7.00767C53.6368 6.75184 54.3028 6.62122 54.975 6.62351L54.9581 6.6573ZM54.9581 15.106C55.6287 15.106 56.2843 14.9078 56.8419 14.5365C57.3996 14.1651 57.8342 13.6373 58.0908 13.0198C58.3475 12.4023 58.4146 11.7228 58.2837 11.0672C58.1529 10.4117 57.8299 9.80951 57.3557 9.33689C56.8815 8.86427 56.2774 8.54238 55.6196 8.41201C54.9618 8.28156 54.28 8.34848 53.6605 8.6043C53.0409 8.86005 52.5112 9.29321 52.1386 9.84897C51.7661 10.4047 51.5672 11.0581 51.5672 11.7265C51.5806 12.6169 51.946 13.4661 52.5842 14.0895C53.2223 14.7127 54.0815 15.0599 54.975 15.0553L54.9581 15.106ZM51.5672 18.4348H58.3489V20.1245H51.5672V18.4348ZM61.85 6.62351H63.5454V20.057H61.85V6.62351ZM65.8936 6.62351H67.589C67.6763 6.6143 67.7644 6.6143 67.8518 6.62351C68.5619 6.54671 69.2802 6.61987 69.96 6.8381C70.6398 7.05642 71.2659 7.4149 71.7974 7.8903C72.329 8.36571 72.7542 8.94741 73.0452 9.59745C73.3363 10.2475 73.4867 10.9514 73.4867 11.6632C73.4867 12.375 73.3363 13.0788 73.0452 13.7289C72.7542 14.3789 72.329 14.9606 71.7974 15.436C71.2659 15.9114 70.6398 16.2699 69.96 16.4882C69.2802 16.7064 68.5619 16.7796 67.8518 16.7028H67.589V20.0823H65.8936V6.62351ZM67.589 8.31325V14.9962H67.8518C68.3307 15.0597 68.8176 15.0206 69.2801 14.8813C69.7426 14.742 70.1698 14.5059 70.5332 14.1887C70.8967 13.8716 71.1879 13.4806 71.3875 13.0422C71.587 12.6037 71.6903 12.1278 71.6903 11.6463C71.6903 11.1648 71.587 10.6889 71.3875 10.2504C71.1879 9.81188 70.8967 9.42096 70.5332 9.10379C70.1698 8.78654 69.7426 8.55049 69.2801 8.41117C68.8176 8.27193 68.3307 8.23282 67.8518 8.29635C67.7595 8.3059 67.6684 8.32575 67.5805 8.35549L67.589 8.31325ZM79.8046 7.59511L78.55 8.58361C78.3336 8.35819 78.057 8.19902 77.753 8.12484C77.4489 8.05066 77.1299 8.06452 76.8334 8.1648C76.5369 8.265 76.2754 8.4475 76.0794 8.69082C75.8834 8.93414 75.7612 9.22816 75.7271 9.53831V9.67349C75.7271 10.417 76.2442 10.9154 77.253 10.983C81.1355 11.2196 82.9157 13.0361 82.9157 15.4355V15.5876C82.8154 16.5372 82.4436 17.4382 81.8445 18.1834C81.2453 18.9285 80.4439 19.4864 79.5359 19.7908C78.6277 20.0951 77.651 20.1332 76.7218 19.9002C75.7926 19.6674 74.9501 19.1734 74.2944 18.477L75.5915 17.4801C75.8933 17.8026 76.262 18.0557 76.6719 18.2221C77.0817 18.3883 77.523 18.4639 77.9651 18.4432C78.7816 18.4862 79.5831 18.213 80.2023 17.6808C80.8215 17.1487 81.2105 16.3987 81.2881 15.5876V15.4693C81.2881 13.2135 79.0671 12.7995 77.1428 12.6136C75.3626 12.4447 74.0825 11.3379 74.0825 9.74108V9.67349C74.1453 8.84214 74.526 8.06654 75.1459 7.5069C75.7658 6.94718 76.5778 6.64606 77.4141 6.66575C77.8572 6.65274 78.2981 6.73241 78.7085 6.89978C79.1188 7.06715 79.4893 7.31841 79.7961 7.63735L79.8046 7.59511ZM89.5533 18.3419C91.6641 18.3419 93.3342 16.0692 93.3342 13.2726V6.51367H95.0296V13.2726C95.0296 16.9901 92.5882 19.9894 89.5872 19.9894C86.5863 19.9894 84.1449 16.9901 84.1449 13.2726V6.51367H85.8403V13.2726C85.7725 16.1114 87.4425 18.3841 89.5449 18.3841L89.5533 18.3419ZM108.042 20.0316H106.347V11.6674L102.439 16.7366L98.5306 11.6674V20.057H96.8352V6.62351L102.43 13.9654L108.025 6.62351L108.042 20.0316Z" fill="#27272A"/>
<path d="M10.207 4.60391C10.207 3.38495 9.72121 2.21591 8.85637 1.35398C7.99153 0.492042 6.81853 0.0078125 5.59546 0.0078125C4.37239 0.0078125 3.19943 0.492042 2.33459 1.35398C1.46975 2.21591 0.983887 3.38495 0.983887 4.60391V18.502L4.78165 21.2141V27.821H6.40927V21.2141L10.207 18.502V4.60391ZM8.57942 12.3767L6.40927 14.5396V12.5119L8.57942 10.349V12.3767ZM2.64541 10.349L4.81556 12.5119V14.5396L2.64541 12.3767V10.349ZM8.57942 8.05098L5.59546 11.0249L2.6115 7.98339V5.9557L5.59546 8.92965L8.57942 5.9557V8.05098ZM5.59546 1.62996C6.25172 1.63285 6.88893 1.85008 7.40949 2.24835C7.93007 2.64662 8.30527 3.20398 8.47769 3.83508L5.59546 6.69919L2.71323 3.83508C2.87933 3.19771 3.25184 2.63278 3.77298 2.22797C4.29412 1.82315 4.93474 1.60106 5.59546 1.59616V1.62996ZM2.6115 17.6825V14.641L4.78165 16.8038V19.2202L2.6115 17.6825ZM6.40927 19.2286V16.8038L8.57942 14.641V17.6741L6.40927 19.2286Z" fill="#27272A"/>
</svg>
