<svg width="243" height="70" viewBox="0 0 243 70" fill="none" xmlns="http://www.w3.org/2000/svg">
<path d="M216.62 59.7265C215.468 59.7151 214.443 60.5056 213.253 60.3915C212.698 61.0021 211.947 60.7106 211.297 60.9053C211.049 61.2081 210.635 60.9597 210.391 61.2976C209.969 61.3322 209.551 61.4018 209.13 61.4364C208.907 61.6666 208.6 61.6212 208.33 61.6434C208.119 61.6607 207.873 61.6103 207.743 61.8682C207.352 61.9003 206.964 61.9675 206.573 61.9996C206.377 62.1923 206.133 62.177 205.923 62.1943C205.742 62.2091 205.529 62.1913 205.366 62.4166C203.88 62.3974 202.494 63.2175 201.006 63.1632C200.726 63.4334 200.383 63.3203 200.056 63.3825C199.848 63.4349 199.569 63.3519 199.408 63.6123C198.807 63.6617 198.238 63.7437 197.637 63.7931C197.299 64.1034 196.863 63.9626 196.475 64.0298C196.268 64.0821 195.988 63.9992 195.828 64.2595C195.167 64.3139 194.508 64.4033 193.846 64.4576C193.361 64.8153 192.772 64.6518 192.234 64.7314C191.996 64.7862 191.717 64.7032 191.526 64.966C190.654 65.0377 189.815 65.1419 188.943 65.2136C188.777 65.4038 188.563 65.386 188.323 65.4058C187.721 65.4552 187.12 65.5046 186.518 65.554C186.338 65.5688 186.157 65.5837 186.021 65.7714C184.788 65.8727 183.558 66.0091 182.325 66.1104C182.129 66.303 181.886 66.2877 181.675 66.305C180.261 66.4211 178.848 66.5373 177.434 66.6534C177.224 66.6707 176.978 66.6203 176.847 66.8782C171.494 67.318 166.141 67.7577 160.818 68.195C160.647 67.9619 160.412 68.0518 160.202 68.0691C158.758 68.1877 157.315 68.3063 155.841 68.4273C155.6 68.4471 155.363 68.5019 155.168 68.3414C153.875 68.4476 152.579 68.5188 151.285 68.625C151.121 68.462 150.91 68.4793 150.7 68.4966C149.978 68.5559 149.256 68.6152 148.564 68.672C148.354 68.6893 148.143 68.7066 147.921 68.5836C146.869 68.6701 145.783 68.7239 144.73 68.8104C144.566 68.6474 144.385 68.6622 144.205 68.677C143.573 68.7289 142.942 68.7808 142.31 68.8327C142.099 68.85 141.889 68.8673 141.667 68.7443C140.644 68.8283 139.619 68.8772 138.566 68.9637C138.402 68.8006 138.221 68.8155 138.041 68.8303C137.469 68.8772 136.898 68.9242 136.357 68.9687C136.146 68.9859 135.935 69.0032 135.713 68.8802C134.721 68.9618 133.726 69.0082 132.733 69.0898C132.568 68.9267 132.388 68.9415 132.208 68.9564C131.636 69.0033 131.065 69.0503 130.523 69.0947C130.313 69.112 130.102 69.1293 129.88 69.0063C129.038 69.0755 128.223 69.1071 127.381 69.1763C127.216 69.0133 127.036 69.0281 126.856 69.0429C126.344 69.0849 125.863 69.1245 125.352 69.1665C125.171 69.1813 124.991 69.1961 124.829 69.0682C124.047 69.1324 123.232 69.164 122.45 69.2283C122.22 69 121.958 69.1275 121.714 69.1122C121.227 69.0816 120.763 69.3316 120.289 69.088C119.567 69.1473 118.843 69.1715 118.091 69.2333C117.86 69.0051 117.598 69.1325 117.354 69.1172C116.931 69.1167 116.521 69.2916 116.14 69.0757C115.478 69.1301 114.814 69.1494 114.152 69.2037C113.954 69.0081 113.72 69.098 113.476 69.0827C113.082 69.0797 112.673 69.2546 112.292 69.0388C111.63 69.0931 110.966 69.1124 110.304 69.1668C110.073 68.9385 109.811 69.066 109.568 69.0507C109.144 69.0502 108.734 69.2251 108.353 69.0092C107.752 69.0586 107.147 69.0729 106.576 69.1199C106.345 68.8917 106.083 69.0191 105.84 69.0038C105.476 68.9984 105.097 69.1708 104.715 68.9549C104.114 69.0043 103.51 69.0187 102.938 69.0656C102.708 68.8374 102.445 68.9648 102.202 68.9495C101.838 68.9441 101.459 69.1165 101.078 68.9006C100.476 68.9501 99.8719 68.9644 99.3004 69.0113C99.0998 68.7806 98.8679 68.9056 98.6244 68.8903C98.3208 68.8799 98.0287 69.0099 97.7407 68.8217C97.1693 68.8686 96.6251 68.878 96.0537 68.9249C95.853 68.6942 95.6211 68.8192 95.3776 68.8039C95.0439 68.796 94.7217 68.9284 94.4037 68.7427C93.8022 68.7921 93.2279 68.804 92.6264 68.8534C92.4287 68.6577 92.1939 68.7477 91.9504 68.7324C91.6468 68.722 91.3546 68.8519 91.0667 68.6637C90.5855 68.7032 90.0714 68.7102 89.5902 68.7497C89.3895 68.519 89.1576 68.644 88.9141 68.6287C88.6105 68.6183 88.3184 68.7482 88.0304 68.56C87.5492 68.5995 87.0351 68.6065 86.5539 68.646C86.3562 68.4504 86.1514 68.5378 85.938 68.52C85.7275 68.5373 85.517 68.5546 85.2949 68.4316C84.8137 68.4712 84.2996 68.4781 83.8184 68.5176C83.6178 68.2869 83.3858 68.4119 83.1423 68.3966C82.8387 68.3862 82.5466 68.5161 82.2586 68.3279C81.8677 68.3601 81.4767 68.3922 81.0829 68.3892C80.8822 68.1585 80.6503 68.2835 80.4068 68.2682C80.1032 68.2578 79.8111 68.3878 79.5231 68.1995C79.1322 68.2317 78.7383 68.2287 78.3473 68.2608C78.1496 68.0652 77.9449 68.1526 77.7314 68.1349C77.5209 68.1521 77.3133 68.2045 77.0884 68.0464C76.6974 68.0786 76.3064 68.1107 75.9126 68.1077C75.7148 67.9121 75.5101 67.9995 75.2967 67.9818C75.0862 67.999 74.8785 68.0514 74.6536 67.8933C74.2626 67.9255 73.8688 67.9225 73.4778 67.9546C73.2801 67.759 73.0753 67.8464 72.8619 67.8287C72.6514 67.8459 72.4437 67.8983 72.2188 67.7402C71.8278 67.7724 71.434 67.7694 71.043 67.8015C70.8453 67.6059 70.6405 67.6933 70.4271 67.6755C70.2166 67.6928 70.009 67.7452 69.784 67.5871C69.4532 67.6143 69.1496 67.6039 68.8188 67.6311C68.0368 67.6954 67.2389 67.1959 66.4442 67.4731C66.2464 67.2774 66.0417 67.3649 65.8283 67.3471C65.6177 67.3644 65.4101 67.4168 65.1852 67.2587C64.7641 67.2933 64.2343 67.4781 63.8862 67.2948C63.2831 66.9559 62.7261 67.1782 62.146 67.1199C61.9483 66.9243 61.7435 67.0117 61.5301 66.994C61.3196 67.0113 61.112 67.0636 60.887 66.9055C60.5562 66.9327 60.1739 67.0701 59.8917 66.952C59.1712 66.6581 58.3822 67.0054 57.7247 66.7416C57.0973 66.4753 56.5403 66.6976 55.9573 66.6043C55.3114 66.4808 54.6568 66.2521 54.0038 66.4117C53.6771 66.1207 53.2791 66.4359 52.9553 66.18C52.0016 66.3643 51.0746 65.7695 50.1267 66.0239C49.5722 65.5398 48.9451 66.0151 48.4108 65.7764C47.7232 65.5151 47.0488 65.7824 46.4543 65.5487C45.953 65.3427 45.4289 65.5977 45.045 65.3467C44.4991 64.9678 43.842 65.4455 43.3419 64.8863C43.3089 64.8537 43.2789 64.8562 43.2517 64.8937C42.5142 65.1309 41.7879 64.7668 41.0789 64.6132C40.5232 64.4823 39.8731 64.6769 39.3787 64.1878L39.3458 64.1552C38.7859 64.3425 38.2672 63.926 37.7444 63.8277C37.1916 63.7319 36.5328 63.8213 36.0113 63.3698C35.9783 63.3372 35.9482 63.3397 35.9182 63.3421C35.2808 63.3239 34.6291 63.1302 34.0561 62.7889C34.0231 62.7563 33.963 62.7612 33.9028 62.7661C33.2082 62.7879 32.5722 62.4164 31.9262 62.2929C31.4635 62.1897 30.9679 62.0538 30.5325 61.913C30.0942 61.7372 29.5643 61.9219 29.1932 61.4581C29.1602 61.4255 29.0671 61.3978 29.007 61.4027C28.5044 61.55 28.0516 61.1987 27.6162 61.0579C26.9945 60.8618 26.3457 60.7033 25.7397 60.3293C25.2626 60.0507 24.6982 59.8145 24.1969 59.6085C23.8817 59.4579 23.5365 59.3097 23.2456 59.0864C22.7027 58.7425 22.1268 58.3661 21.5838 58.0223C20.8789 57.5505 20.1139 57.0837 19.5121 56.3916C18.946 55.7671 18.2655 55.2227 17.7539 54.5232C17.4457 54.0894 17.1018 53.588 16.7908 53.1192C16.4826 52.6855 16.6112 52.0393 16.1614 51.7231C16.0954 51.6579 16.0782 51.4474 16.0637 51.2721C15.9687 50.1146 15.8134 48.962 15.8114 47.8322C15.8255 47.266 15.9269 46.6574 16.1543 46.109C16.2845 45.8511 16.3158 45.4955 16.4432 45.2025C16.6191 44.7643 16.765 44.3286 16.9409 43.8904C17.4201 42.721 18.1329 41.815 18.8399 40.8387C19.3022 40.2005 19.6899 39.3917 20.2869 38.919C20.6849 38.6038 21.0442 38.1858 21.4422 37.8706C21.8974 37.5154 22.4157 37.1903 22.7334 36.6345C22.9208 36.3366 23.2158 36.2418 23.4177 36.1193C23.9059 35.7967 24.3311 35.4439 24.8494 35.1188C25.1085 34.9563 25.4637 34.8565 25.6483 34.5235C25.7298 34.4109 25.8201 34.4035 25.9074 34.361C26.3857 34.2864 26.7149 33.8709 27.1215 33.6609C27.4709 33.491 27.7099 33.0829 28.1367 33.1185C28.5005 33.1239 28.7423 32.7509 29.0616 32.5834C29.2664 32.496 29.5342 32.4387 29.673 32.286C30.0352 31.9032 30.5221 31.9338 30.9201 31.6186C31.2036 31.3834 31.5801 31.1759 31.9596 31.0035C32.3963 30.7911 32.9104 30.7841 33.2367 30.3336C33.2639 30.296 33.3542 30.2886 33.4114 30.2486C33.9713 30.0614 34.5312 29.8741 35.0108 29.4463C35.038 29.4087 35.0981 29.4038 35.1583 29.3989C35.7742 29.5248 36.3468 29.1247 36.7147 28.8119C37.1972 28.4192 37.8934 28.7857 38.2296 28.0872C38.7825 28.183 39.1661 27.6924 39.6687 27.5452C40.2587 27.3555 40.9504 27.2987 41.4543 26.7982C41.4543 26.7982 41.4815 26.7607 41.5144 26.7933C42.1905 26.9143 42.6886 26.3437 43.3144 26.2217C44.0003 26.0947 44.7106 25.8951 45.2775 25.4248C45.3047 25.3872 45.3348 25.3847 45.3648 25.3823C46.1913 25.4909 46.9386 25.0058 47.6431 24.736C48.3175 24.4688 49.1196 24.6501 49.7022 24.0019C49.7294 23.9643 49.7595 23.9619 49.7896 23.9594C50.7606 23.9856 51.578 23.2475 52.5548 23.3438C52.7208 23.1536 52.9973 23.2015 53.1604 22.9762C53.4912 22.9491 53.8278 22.992 54.0899 22.8646C54.8702 22.412 55.7654 22.621 56.4913 22.2435C57.0726 21.9486 57.6197 21.9743 58.1825 21.8221C58.3786 21.6294 58.6221 21.6447 58.8326 21.6274C59.0131 21.6126 59.2265 21.6304 59.3595 21.4076C59.7505 21.3755 60.1386 21.3083 60.5296 21.2762C60.6956 21.086 60.9391 21.1013 61.1496 21.084C61.33 21.0692 61.5105 21.0543 61.6465 20.8666C62.0976 20.8295 62.5759 20.7549 63.027 20.7179C63.2503 20.4877 63.5568 20.5331 63.8275 20.5109C64.038 20.4936 64.2815 20.5089 64.4146 20.2861C65.0461 20.2342 65.6748 20.1472 66.3064 20.0953C66.6743 19.7826 67.1097 19.9234 67.4978 19.8562C67.7356 19.8014 68.0149 19.8844 68.2052 19.6215C69.0774 19.5499 69.9166 19.4456 70.7887 19.374C70.9548 19.1838 71.1682 19.2016 71.4088 19.1818C72.2509 19.1126 73.0929 19.0434 73.9651 18.9718C74.1756 18.9545 74.359 18.9747 74.5221 18.7495C77.6198 18.495 80.7175 18.2405 83.8151 17.986C83.9799 18.1491 84.1904 18.1318 84.4009 18.1145C85.213 18.0478 86.025 17.981 86.837 17.9143C87.0475 17.897 87.258 17.8798 87.4801 18.0028C87.841 17.9731 88.2047 17.9785 88.5928 17.9113C89.1614 17.8293 89.617 18.2156 90.1126 18.3515C90.7314 18.5125 90.6757 18.9408 90.7461 19.4294C90.8079 19.8128 90.5574 20.0806 90.3526 20.168C89.9159 20.3804 89.5567 20.7984 89.0339 20.7001C88.8678 20.8903 88.6573 20.9076 88.4167 20.9274C87.8453 20.9743 87.2739 21.0212 86.7325 21.0657C86.5521 21.0805 86.3717 21.0954 86.2357 21.2831C84.5515 21.4214 82.8402 21.5974 81.156 21.7357C80.9599 21.9284 80.7164 21.9131 80.5059 21.9304C79.0623 22.049 77.6187 22.1676 76.1451 22.2886C75.9346 22.3059 75.6911 22.2906 75.558 22.5134C74.2347 22.6221 72.9143 22.7659 71.561 22.8771C71.3949 23.0673 71.1815 23.0495 70.9409 23.0693C70.3394 23.1187 69.7379 23.1681 69.1365 23.2175C68.956 23.2323 68.7756 23.2472 68.6396 23.4349C67.8877 23.4967 67.1087 23.596 66.3568 23.6577C66.019 23.968 65.5835 23.8272 65.1954 23.8944C64.9577 23.9492 64.7085 23.8638 64.5482 24.1241C64.0069 24.1686 63.4985 24.2457 62.9571 24.2901C62.7038 24.5228 62.3973 24.4774 62.0965 24.5021C61.8889 24.5545 61.6096 24.4715 61.4493 24.7318C60.9681 24.7714 60.4597 24.8484 59.9785 24.888C59.7824 25.0806 59.5389 25.0653 59.3284 25.0826C59.148 25.0975 58.9346 25.0797 58.8015 25.3025C58.4105 25.3346 58.0224 25.4018 57.6314 25.4339C57.3809 25.7017 56.9698 25.4883 56.7251 25.8262C55.7784 25.7274 54.9609 26.4655 54.02 26.4368C53.2624 26.4285 52.5694 26.8385 51.8921 27.0707C51.3895 27.2179 50.7793 27.1621 50.3813 27.4773C49.7572 27.9877 48.9077 27.5984 48.3853 28.2416C48.3581 28.2792 48.328 28.2816 48.2979 28.2841C47.5317 28.1705 46.8387 28.5805 46.2302 28.913C45.6789 29.2055 44.9971 29.0143 44.5921 29.6126L44.5649 29.6501C43.9519 29.5593 43.5053 30.0197 42.9755 30.2045C42.3282 30.4342 41.6695 30.5236 41.1026 30.9939C41.0453 31.034 40.988 31.074 40.925 31.0438C40.3091 30.9179 39.8654 31.4134 39.3356 31.5982C38.6611 31.8655 37.9566 32.1352 37.288 32.4726C36.6766 32.77 36.0953 33.065 35.481 33.3273C34.9269 33.5847 34.3427 33.8446 33.8544 34.1672C33.4836 34.4448 32.9938 34.3791 32.6374 34.8322C32.4442 35.0599 31.9572 35.0293 31.6795 35.3346C31.2873 35.72 30.746 35.7644 30.3179 36.0821C30.0316 36.2822 29.6163 36.3869 29.2999 36.5895C28.9864 36.8271 28.6642 36.9595 28.3836 37.2297C28.1574 37.4249 27.874 37.66 27.6634 37.6773C26.9775 37.8043 26.5066 38.3374 25.9611 38.7C25.6146 38.905 25.294 39.4257 24.9146 39.5981C24.4177 39.8155 24.229 40.4667 23.7206 40.5437C23.513 40.5961 23.5604 40.8041 23.4458 40.8841C22.8975 41.2117 22.4867 41.7398 22.0071 42.1676C21.5247 42.5604 21.1827 43.1888 20.7748 43.752C20.5844 44.0148 20.364 44.2801 20.2396 44.6081C19.9034 45.3067 19.444 45.98 19.2639 46.7364C18.9923 47.8534 18.937 49.0232 19.2426 50.1634C19.3287 50.4742 19.4263 50.9252 19.7501 51.1811C19.975 51.3392 20.0698 51.7551 20.1472 51.9607C20.4182 52.6799 20.9855 52.9511 21.3896 53.4476C21.7579 53.8764 22.1592 54.3379 22.6004 54.5488C23.0745 54.7923 23.4399 55.1861 23.9442 55.4271C24.4484 55.6682 25.007 55.8342 25.4627 56.2205C25.6905 56.4137 25.964 56.4265 26.1861 56.5495C26.8164 56.8509 27.4467 57.1522 28.077 57.4535C28.4222 57.6017 28.8161 57.6047 29.1642 57.788C29.8002 58.1595 30.5492 58.0626 31.1367 58.5794C31.2026 58.6446 31.2928 58.6372 31.383 58.6297C31.8885 58.5176 32.3685 58.8313 32.7738 58.9745C33.1821 59.1529 33.7062 58.898 34.0229 59.4369C34.0258 59.472 34.116 59.4646 34.1762 59.4596C34.7661 59.2699 35.3664 59.5737 35.8076 59.7847C36.2488 59.9956 36.7972 59.6681 37.0867 60.2446C37.0867 60.2446 37.1168 60.2421 37.1469 60.2397C37.764 60.0124 38.3729 60.4214 38.9587 60.5499C39.5417 60.6432 40.2033 60.5889 40.752 61.0029C40.785 61.0355 40.8151 61.033 40.8452 61.0305C41.4924 60.8008 42.1285 61.1723 42.6871 61.3383C43.2758 61.5018 43.9531 61.2696 44.4775 61.7562C44.5105 61.7888 44.5405 61.7863 44.5706 61.7838C45.3682 61.5417 46.1847 61.8984 46.9238 62.0496C47.6328 62.2032 48.3975 61.9285 49.0751 62.4378C49.1081 62.4704 49.1382 62.468 49.1682 62.4655C50.089 62.2486 50.9887 62.8809 51.8766 62.6314C52.0772 62.8621 52.3965 62.6947 52.6243 62.8878C53.0152 62.8557 53.4091 62.8587 53.8001 62.8265C54.0308 63.0548 54.32 62.8898 54.5478 63.0829C54.9087 63.0533 55.3211 62.9135 55.6333 63.0291C56.4742 63.3131 57.3534 62.9584 58.1641 63.2449C58.8818 63.5037 59.529 63.274 60.2022 63.36C60.3999 63.5556 60.6046 63.4681 60.818 63.4859C60.9985 63.4711 61.1789 63.4563 61.3408 63.5842C61.6717 63.557 62.0025 63.5299 62.3362 63.5378C63.3402 63.5965 64.3586 63.8307 65.3424 63.6439C65.5401 63.8396 65.7449 63.7521 65.9583 63.7699C66.1688 63.7526 66.3764 63.7002 66.6014 63.8583C66.9923 63.8262 67.4105 63.7565 67.8072 63.7946C68.8112 63.8533 69.8296 64.0875 70.8134 63.9007C71.0111 64.0963 71.2159 64.0089 71.4293 64.0267C71.6398 64.0094 71.8475 63.957 72.0724 64.1151C72.5536 64.0756 73.0677 64.0686 73.5489 64.0291C73.7467 64.2247 73.9514 64.1373 74.1648 64.1551C74.3753 64.1378 74.583 64.0854 74.8079 64.2435C75.2891 64.204 75.8032 64.197 76.2844 64.1575C76.4822 64.3531 76.6869 64.2657 76.9003 64.2835C77.1438 64.2988 77.4087 64.2064 77.6336 64.3645C78.0848 64.3274 78.5688 64.323 79.02 64.2859C79.2206 64.5166 79.4525 64.3916 79.696 64.4069C79.9996 64.4173 80.2917 64.2874 80.5797 64.4756C81.0609 64.436 81.575 64.4291 82.0562 64.3896C82.254 64.5852 82.4587 64.4978 82.6721 64.5156C82.8826 64.4983 83.0903 64.4459 83.3152 64.604C83.7964 64.5644 84.3106 64.5575 84.7917 64.518C84.9924 64.7487 85.2243 64.6237 85.4678 64.639C85.7714 64.6494 86.0635 64.5194 86.3515 64.7077C86.7424 64.6755 87.1363 64.6785 87.5273 64.6464C87.7279 64.8771 87.9598 64.7521 88.2033 64.7674C88.5069 64.7778 88.799 64.6478 89.087 64.8361C89.5682 64.7965 90.0823 64.7896 90.5635 64.7501C90.7641 64.9808 90.9961 64.8558 91.2396 64.8711C91.5432 64.8815 91.8353 64.7515 92.1233 64.9397C92.6044 64.9002 93.1186 64.8933 93.5998 64.8538C93.7975 65.0494 94.0023 64.9619 94.2157 64.9797C94.4892 64.9926 94.7813 64.8626 95.0392 65.0533C95.4603 65.0187 95.92 65.0869 96.3324 64.9471C96.8952 64.7949 97.3895 65.284 97.9552 65.1669C98.5237 65.0849 99.098 65.073 99.6422 65.0636C99.8428 65.2943 100.075 65.1693 100.318 65.1846C100.622 65.195 100.914 65.0651 101.202 65.2533C101.743 65.2088 102.257 65.2019 102.799 65.1574C102.999 65.3881 103.231 65.2631 103.475 65.2784C103.809 65.2863 104.131 65.1539 104.449 65.3397C104.87 65.3051 105.291 65.2705 105.715 65.271C106.951 65.2048 108.167 65.6345 109.383 65.3228C109.583 65.5535 109.815 65.4285 110.059 65.4438C110.392 65.4517 110.715 65.3193 111.033 65.505C111.604 65.4581 112.148 65.4487 112.72 65.4018C112.95 65.63 113.212 65.5025 113.456 65.5178C113.82 65.5233 114.199 65.3508 114.58 65.5667C115.182 65.5173 115.756 65.5054 116.357 65.456C116.555 65.6517 116.79 65.5617 117.033 65.5771C117.337 65.5874 117.629 65.4575 117.917 65.6457C118.609 65.5889 119.303 65.5671 119.995 65.5103C120.226 65.7385 120.488 65.6111 120.731 65.6264C121.095 65.6318 121.475 65.4594 121.856 65.6753C122.547 65.6184 123.242 65.5967 123.934 65.5399C124.164 65.7681 124.426 65.6406 124.67 65.656C125.217 65.6816 125.741 65.4267 126.305 65.6628C127.147 65.5937 127.962 65.562 128.804 65.4929C128.969 65.6559 129.15 65.6411 129.33 65.6262C129.841 65.5842 130.323 65.5447 130.834 65.5027C131.014 65.4879 131.195 65.473 131.357 65.601C132.289 65.5244 133.224 65.4829 134.156 65.4063C134.321 65.5693 134.502 65.5545 134.682 65.5397C135.314 65.4878 135.945 65.4359 136.577 65.384C136.787 65.3667 136.998 65.3494 137.22 65.4724C138.272 65.386 139.358 65.3321 140.411 65.2456C140.578 65.4437 140.786 65.3914 140.996 65.3741C141.718 65.3148 142.44 65.2555 143.132 65.1986C143.342 65.1813 143.553 65.1641 143.775 65.2871C144.948 65.1907 146.093 65.1319 147.266 65.0355C147.431 65.1986 147.642 65.1813 147.852 65.164C148.544 65.1071 149.206 65.0528 149.897 64.996C150.108 64.9787 150.318 64.9614 150.54 65.0844C152.194 64.9485 153.881 64.8452 155.536 64.7093C155.7 64.8723 155.911 64.8551 156.121 64.8378C163.429 64.2374 170.768 63.6345 178.076 63.0342C178.286 63.0169 178.47 63.0371 178.633 62.8118C180.558 62.6537 182.479 62.4605 184.434 62.2999C184.6 62.1097 184.814 62.1275 185.054 62.1077C185.836 62.0435 186.618 61.9793 187.4 61.915C187.611 61.8977 187.794 61.918 187.957 61.6927C188.919 61.6137 189.879 61.4995 190.841 61.4205C191.327 61.0628 191.915 61.2263 192.454 61.1467C192.692 61.0919 192.971 61.1749 193.161 60.9121C193.883 60.8528 194.602 60.7584 195.354 60.6966C195.722 60.3839 196.157 60.5247 196.545 60.4575C196.783 60.4027 197.062 60.4856 197.253 60.2228C197.854 60.1734 198.423 60.0914 199.024 60.042C199.278 59.8093 199.584 59.8547 199.885 59.83C200.092 59.7777 200.372 59.8606 200.532 59.6003C201.013 59.5608 201.522 59.4837 202.003 59.4441C202.256 59.2115 202.563 59.2569 202.863 59.2322C203.071 59.1798 203.35 59.2628 203.511 59.0025C203.902 58.9704 204.293 58.9382 204.681 58.871C204.877 58.6784 205.12 58.6937 205.331 58.6764C205.511 58.6616 205.725 58.6793 205.888 58.4541C206.369 58.4145 206.877 58.3374 207.359 58.2979C207.609 58.0302 208.02 58.2436 208.265 57.9056C208.596 57.8785 208.929 57.8864 209.255 57.789C210.142 57.5395 211.039 57.3953 211.894 57.1132C212.424 56.9284 213.1 57.0494 213.492 56.6641C214.083 56.1211 214.941 56.6156 215.458 55.9023C215.485 55.8647 215.515 55.8622 215.548 55.8948C216.344 56.006 217.067 55.5935 217.676 55.261C218.312 54.8909 219.095 55.215 219.585 54.5392C219.585 54.5392 219.615 54.5367 219.645 54.5342C220.321 54.6552 220.855 54.1523 221.442 53.9275C221.969 53.7077 222.639 53.7586 223.08 53.228C223.107 53.1904 223.164 53.1504 223.227 53.1805C223.843 53.3065 224.356 52.9113 224.814 52.5911C225.302 52.2685 225.987 52.4948 226.359 51.8639C226.386 51.8264 226.476 51.8189 226.537 51.814C227.152 51.94 227.596 51.4445 228.123 51.2246C228.798 50.9573 229.508 50.7577 230.143 50.3877C230.403 50.2252 230.758 50.1254 230.945 49.8275C231.024 49.6797 231.144 49.6699 231.234 49.6625C231.683 49.5903 232.048 49.2425 232.386 48.9323C232.582 48.7396 232.844 48.6121 233.076 48.4871C233.597 48.1971 233.876 47.5386 234.378 47.3914C234.908 47.2066 235.064 46.5229 235.602 46.4433C235.813 46.426 235.763 46.183 235.874 46.0679C236.997 44.9869 238.017 43.7731 238.837 42.3285C239.049 41.958 239.066 41.427 239.316 41.1592C239.784 40.5911 239.33 39.8515 239.642 39.2256C239.824 38.8575 239.848 38.0434 239.356 37.5894C239.29 37.5242 239.276 37.3488 239.264 37.2085C239.24 36.5396 238.808 36.0806 238.612 35.5318C238.412 34.9479 237.935 34.6692 237.739 34.1204C237.548 33.6417 237.068 33.328 236.706 32.9693C235.882 32.1542 235.082 31.2665 234.183 30.6341C233.475 30.1273 232.952 29.2875 232.084 29.041C231.867 28.9881 231.712 28.5771 231.46 28.4565C230.89 28.1503 230.344 27.7713 229.831 27.425C229.349 27.0763 228.787 26.8752 228.356 26.4163C228.155 26.1856 227.813 26.0725 227.503 25.9919C227.317 25.9366 227.216 25.8037 227.057 25.7108C226.64 25.4273 226.198 25.2163 225.757 25.0054C225.409 24.8221 224.952 24.789 224.71 24.4205C224.468 24.052 224.071 24.0139 223.789 23.8959C223.257 23.6923 222.747 23.3811 222.213 23.1425C221.712 22.9365 221.177 22.6979 220.697 22.3842C220.409 22.196 220.053 21.9075 219.635 21.9772C219.277 22.0419 218.977 21.7134 218.665 21.5978C218.322 21.4846 217.944 21.3038 217.593 21.0855C216.987 20.7115 216.323 20.7308 215.714 20.3218C215.426 20.1335 215.042 19.8826 214.651 19.9147C214.293 19.9794 213.991 19.6158 213.618 19.5052C213.495 19.48 213.33 19.317 213.18 19.3293C212.765 19.4341 212.432 19.0729 212.09 18.9598C211.561 18.7914 211.054 18.5152 210.507 18.4895C210.203 18.4792 209.852 18.2608 209.751 18.1279C209.355 17.7367 208.864 18.0242 208.472 17.668C208.241 17.4398 207.738 17.587 207.384 17.3336C206.965 17.0149 206.417 16.9893 205.952 16.8509C205.547 16.7077 205.111 16.5669 204.648 16.4637C204.186 16.3604 203.669 16.3323 203.216 15.981C203.153 15.9509 203.09 15.9208 203.03 15.9257C202.53 16.108 202.102 15.6841 201.609 15.5834C200.966 15.4949 200.338 15.2287 199.687 15.035C199.095 14.8365 198.476 14.6754 197.858 14.5144C197.206 14.3207 196.587 14.1597 195.935 13.966C195.251 13.7398 194.545 13.6212 193.86 13.395C193.457 13.2868 192.949 13.3639 192.553 12.9726C192.29 12.7118 191.809 12.7513 191.505 12.7409C190.925 12.6827 190.342 12.5893 189.868 12.3458C189.334 12.1072 188.768 12.2243 188.201 11.953C187.852 11.7698 187.324 11.6013 186.87 11.6033C186.266 11.6176 185.704 11.4166 185.134 11.1103C185.101 11.0777 185.071 11.0802 185.041 11.0826C184.394 11.3124 183.785 10.9033 183.169 10.7774C182.616 10.6815 181.96 10.806 181.438 10.3545C181.406 10.3219 181.375 10.3244 181.345 10.3269C180.698 10.5566 180.089 10.1475 179.473 10.0216C178.921 9.92575 178.265 10.0503 177.743 9.59873C177.71 9.56613 177.68 9.5686 177.65 9.57107C177.003 9.8008 176.282 9.50687 175.748 9.26827C175.057 8.97187 174.31 9.45701 173.684 8.83752C173.684 8.83752 173.654 8.83999 173.624 8.84246C172.914 9.04206 172.245 8.63796 171.571 8.55201C170.991 8.49373 170.302 8.58563 169.751 8.13658C169.718 8.10397 169.688 8.10644 169.658 8.10891C168.999 8.19834 168.356 8.10992 167.731 7.87873C166.981 7.58727 166.126 7.86938 165.391 7.40007C165.391 7.40007 165.361 7.40254 165.331 7.40501C164.699 7.45689 164.08 7.29586 163.47 7.24004C162.587 7.17139 161.737 6.78212 160.849 7.03161C160.391 6.61022 159.815 6.97531 159.404 6.7619C158.837 6.4907 158.253 6.75056 157.781 6.54209C157.181 6.23828 156.573 6.57077 156.068 6.3297C155.411 6.0659 154.736 6.33318 154.142 6.09952C153.548 5.86586 152.933 6.12819 152.432 5.9222C151.744 5.66087 151.07 5.92815 150.475 5.69449C149.974 5.48849 149.526 5.56063 149.039 5.53001C148.871 5.33191 148.664 5.38428 148.483 5.3991C148.243 5.41887 148.005 5.47371 147.81 5.31315C146.76 5.4347 145.749 4.91748 144.681 5.1818C144.033 4.67001 143.349 5.18529 142.724 4.95409C141.943 4.66511 141.124 5.01489 140.407 4.75604C139.689 4.49718 139.042 4.72691 138.369 4.64097C138.072 4.34752 137.704 4.66025 137.411 4.40188C136.929 4.44141 136.415 4.44833 135.934 4.48787C135.607 4.19689 135.209 4.51209 134.886 4.25619C134.434 4.29325 133.95 4.2977 133.499 4.33476C133.301 4.13914 133.097 4.22658 132.883 4.2088C132.673 4.22609 132.465 4.27847 132.24 4.12038C131.819 4.15497 131.395 4.15448 130.944 4.19155C130.746 3.99592 130.542 4.08336 130.328 4.06558C130.055 4.05274 129.763 4.18267 129.505 3.99199C129.023 4.03152 128.509 4.03844 128.028 4.07797C127.83 3.88235 127.626 3.96979 127.412 3.95201C127.139 3.93917 126.847 4.0691 126.589 3.87842C126.047 3.92289 125.533 3.92982 124.992 3.97429C124.794 3.77866 124.559 3.86857 124.316 3.85326C124.012 3.8429 123.72 3.97283 123.432 3.78461C122.861 3.83156 122.317 3.84095 121.745 3.88789C121.545 3.65719 121.313 3.78218 121.069 3.76687C120.675 3.76391 120.266 3.93881 119.885 3.72293C119.253 3.77481 118.619 3.79162 117.987 3.8435C117.786 3.6128 117.555 3.73779 117.311 3.72248C116.857 3.72446 116.39 3.93937 115.946 3.69336C115.224 3.75265 114.5 3.77688 113.748 3.83864C113.517 3.61041 113.255 3.73787 113.012 3.72256C112.434 3.69935 111.85 3.95922 111.286 3.72309C110.384 3.79721 109.509 3.83378 108.606 3.9079C108.439 3.7098 108.231 3.76217 108.021 3.77947C107.329 3.83629 106.667 3.89065 105.975 3.94747C105.765 3.96477 105.554 3.98206 105.332 3.85906C103.859 3.98012 102.412 4.06364 100.939 4.1847C100.741 3.98907 100.533 4.04144 100.323 4.05873C98.2476 4.22921 96.1724 4.39969 94.1274 4.56769C93.8868 4.58746 93.619 4.64477 93.3941 4.48669C91.0483 4.6794 88.7325 4.86964 86.3867 5.06235C86.1935 5.2901 85.9171 5.24219 85.6765 5.26195C83.6314 5.42996 81.6164 5.5955 79.5713 5.7635C79.3608 5.7808 79.1173 5.76549 78.9843 5.98829C77.6008 6.10194 76.1902 6.25314 74.8068 6.36679C74.6407 6.55699 74.4273 6.53921 74.1867 6.55898C73.4349 6.62075 72.683 6.68251 71.9312 6.74428C71.7206 6.76157 71.5373 6.74132 71.3742 6.9666C70.3817 7.04813 69.3921 7.16474 68.3997 7.24627C68.2336 7.43647 68.0202 7.41869 67.7796 7.43846C67.2383 7.48293 66.727 7.52493 66.1857 7.5694C66.0052 7.58423 65.8248 7.59905 65.6888 7.78678C64.967 7.84608 64.2481 7.94045 63.4963 8.00222C63.041 8.35743 62.4824 8.19145 62.0041 8.26605C61.7663 8.32089 61.487 8.2379 61.2967 8.50073C60.605 8.55755 59.9161 8.64945 59.2244 8.70628C58.8866 9.01653 58.4511 8.87574 58.0631 8.94294C57.8554 8.99531 57.5761 8.91232 57.4158 9.17267C56.8143 9.22208 56.2157 9.30657 55.6443 9.35352C55.3938 9.62128 55.0543 9.54323 54.7536 9.56794C54.4557 9.62772 54.1163 9.54967 53.8658 9.81744C53.3846 9.85697 52.8762 9.93405 52.395 9.97358C52.1717 10.2038 51.8652 10.1584 51.5945 10.1806C51.384 10.1979 51.1405 10.1826 51.0074 10.4054C50.5262 10.4449 50.0179 10.522 49.5367 10.5615C49.2833 10.7942 48.9768 10.7488 48.676 10.7735C48.4684 10.8258 48.1891 10.7428 48.0288 11.0032C47.6378 11.0353 47.2497 11.1025 46.8588 11.1346C46.6355 11.3649 46.329 11.3194 46.0583 11.3416C45.8478 11.3589 45.6043 11.3436 45.4712 11.5664C45.0502 11.601 44.632 11.6707 44.1809 11.7077C43.9848 11.9004 43.7413 11.8851 43.5308 11.9024C43.3503 11.9172 43.1369 11.8994 42.9738 12.1247C42.5828 12.1568 42.1947 12.224 41.8037 12.2562C41.6076 12.4488 41.3642 12.4335 41.1536 12.4508C40.9732 12.4656 40.7598 12.4479 40.6267 12.6707C39.5898 12.5793 38.6821 13.3248 37.6209 13.306C36.773 13.3051 35.9898 13.7225 35.1894 13.9295C34.6266 14.0817 34.0609 14.1988 33.5254 14.3134C33.3292 14.5061 33.0858 14.4908 32.8752 14.5081C32.6948 14.5229 32.4814 14.5051 32.3483 14.7279C31.2928 14.7793 30.3794 15.4547 29.3124 15.3658C28.8444 15.9339 28.1181 15.5698 27.6299 15.8924C27.1116 16.2175 26.5974 16.2244 26.0618 16.3391C25.8958 16.5293 25.6824 16.5115 25.4418 16.5312C25.2614 16.5461 25.0809 16.5609 24.9449 16.7486C23.9739 16.7225 23.1565 17.4605 22.1797 17.3642C21.6243 17.9748 20.8651 17.5782 20.2866 17.9082C19.6509 18.2782 18.909 18.092 18.3334 18.4571C17.7851 18.7846 17.1964 18.6211 16.7053 18.9086C16.0696 19.2787 15.3305 19.1275 14.752 19.4575C14.2338 19.7826 13.6451 19.6191 13.184 19.9042C12.5211 20.3117 11.7462 20.0929 11.2007 20.4555C10.6524 20.7831 10.1296 20.6848 9.62985 20.8671C8.89527 21.1393 8.11622 21.2386 7.37877 21.4758C6.93629 21.618 6.46375 21.7628 5.98832 21.8725C5.7407 22.1753 5.32956 21.9619 5.08194 22.2648C4.55213 22.4495 4.16116 22.4816 3.77019 22.5138C3.60415 22.704 3.32772 22.6561 3.16456 22.8813C2.74352 22.9159 2.32248 22.9505 1.93439 23.0177C1.33578 23.1022 0.807225 22.9337 0.315767 22.4797C0.27993 22.4121 0.192588 22.4545 0.132439 22.4595C0.103623 22.1087 0.0748082 21.758 0.0459929 21.4072C0.463791 20.596 1.06654 20.1934 1.86702 19.9864C2.39972 19.8367 2.88793 19.5141 3.49519 19.5348C3.76874 19.5477 4.00357 19.4577 4.16385 19.1974C4.97298 19.0956 5.75905 18.7132 6.55954 18.5062C7.24261 18.3442 7.99447 18.2824 8.62153 17.8071C8.6788 17.7671 8.76614 17.7246 8.85636 17.7172C9.33755 17.6777 9.77426 17.4652 10.2468 17.3205C10.894 17.0907 11.5528 17.0013 12.2 16.7716C13.0821 16.4519 14.0058 16.2701 14.8792 15.8452C15.0539 15.7603 15.2644 15.743 15.4749 15.7257C15.8659 15.6936 16.2568 15.6614 16.6276 15.3838C16.9111 15.1486 17.3107 15.2217 17.6415 15.1946C17.9151 15.2074 18.1829 15.1501 18.3403 14.8547C18.5722 14.7297 18.8157 14.745 19.0864 14.7227C19.327 14.703 19.5346 14.6506 19.7336 14.493C19.7909 14.453 19.8452 14.3779 19.9054 14.373C20.6931 14.3789 21.3688 13.7584 22.1565 13.7643C22.4902 13.7722 22.788 13.7124 23.0385 13.4446C23.0958 13.4046 23.1531 13.3646 23.2132 13.3597C24.094 13.3932 24.8356 12.8379 25.6777 12.7688C25.7379 12.7638 25.831 12.7915 25.8853 12.7164C26.4794 12.2085 27.2902 12.495 27.8686 12.165C28.649 11.7125 29.547 11.9565 30.2886 11.4012C30.5449 11.2036 30.9445 11.2767 31.2753 11.2495C31.6906 11.1448 32.1949 11.3859 32.5183 10.9002C32.7202 10.7777 32.9307 10.7604 33.1412 10.7431C33.442 10.7184 33.7427 10.6937 33.9932 10.426C34.0505 10.3859 34.1077 10.3459 34.1679 10.341C35.1389 10.3671 35.9893 9.66166 36.9933 9.72043C37.2969 9.7308 37.5589 9.60334 37.8481 9.43833C38.3664 9.11325 38.9823 9.23922 39.5809 9.15473C39.9962 9.04999 40.5005 9.29106 40.8239 8.80543C41.1704 8.6004 41.57 8.67351 41.9581 8.60632C42.3733 8.50158 42.8776 8.74265 43.201 8.25702C43.5475 8.05199 43.9471 8.1251 44.3352 8.05791C44.7505 7.95317 45.2547 8.19424 45.5753 7.67354C46.0421 7.45863 46.5319 7.52432 46.983 7.48726C47.2537 7.46503 47.4914 7.41019 47.765 7.42303C48.0084 7.43834 48.2103 7.31581 48.3434 7.09301C48.8703 6.87316 49.4203 6.93391 49.9617 6.88944C50.2925 6.86226 50.6204 6.80001 50.9541 6.80791C51.1947 6.78814 51.3694 6.70317 51.5025 6.48036C52.0595 6.25804 52.6395 6.31632 53.2382 6.23183C53.569 6.20466 53.8969 6.1424 54.2306 6.1503C54.4712 6.13054 54.6459 6.04556 54.779 5.82275C55.336 5.60043 55.9461 5.65625 56.5147 5.57423C56.9958 5.5347 57.5071 5.4927 57.9883 5.45317C58.2289 5.4334 58.4036 5.34842 58.5395 5.16069C59.1237 4.90083 59.7668 4.98924 60.3955 4.90229C60.9068 4.86028 61.388 4.82075 61.8992 4.77875C62.1398 4.75899 62.3145 4.67401 62.4476 4.4512C63.1822 4.17898 63.9456 4.25752 64.6945 4.16068C65.3261 4.10879 65.9577 4.05691 66.5892 4.00502C66.8298 3.98526 67.0045 3.90028 67.1405 3.71255C67.9653 3.43292 68.849 3.50157 69.6882 3.39732C70.5303 3.32814 71.3723 3.25896 72.2144 3.18978C72.455 3.17002 72.6627 3.11765 72.8258 2.89237C72.9976 2.77232 73.1781 2.75749 73.3585 2.74267C74.6818 2.63396 75.975 2.52772 77.2983 2.41901C78.9524 2.28312 80.5764 2.14971 82.2305 2.01382C82.441 1.99653 82.6874 2.04691 82.8176 1.78903C87.2686 1.42337 91.7196 1.05771 96.1406 0.69452C96.3111 0.927695 96.5459 0.837779 96.7565 0.820484C98.17 0.704362 99.5835 0.58824 100.997 0.472119C101.238 0.452353 101.475 0.397512 101.673 0.593142C102.975 0.592129 104.298 0.483419 105.591 0.377181C105.756 0.540205 105.937 0.52538 106.117 0.510556C106.749 0.458672 107.38 0.406788 108.012 0.354904C108.222 0.337609 108.433 0.320315 108.655 0.443322C109.587 0.366731 110.522 0.325215 111.455 0.248624C111.685 0.476858 111.947 0.349396 112.191 0.364705C112.708 0.392855 113.202 0.1404 113.706 0.381474C114.458 0.319707 115.243 0.290545 115.995 0.228778C116.195 0.459482 116.427 0.334491 116.671 0.349801C117.095 0.350287 117.531 0.137849 117.945 0.386335C118.607 0.33198 119.271 0.3127 119.933 0.258345C120.164 0.486579 120.426 0.359117 120.669 0.374427C121.093 0.374913 121.503 0.200021 121.884 0.415902C122.365 0.376372 122.879 0.369445 123.36 0.329915C123.561 0.560619 123.793 0.435627 124.036 0.450937C124.4 0.456365 124.749 0.286415 125.131 0.502296C125.672 0.457823 126.186 0.450897 126.727 0.406425C126.925 0.602054 127.16 0.512138 127.403 0.527448C127.707 0.537817 127.999 0.407882 128.287 0.5961C128.678 0.563981 129.069 0.531863 129.463 0.53482C129.664 0.765524 129.895 0.640533 130.139 0.655843C130.443 0.666211 130.735 0.536277 131.023 0.724494C131.504 0.684963 132.018 0.678038 132.499 0.638507C132.697 0.834136 132.902 0.746691 133.115 0.764472C133.326 0.747176 133.533 0.694806 133.758 0.852889C134.059 0.828182 134.36 0.803475 134.663 0.813844C135.571 0.809875 136.478 1.15913 137.369 0.94471C137.566 1.14034 137.771 1.05289 137.985 1.07067C138.195 1.05338 138.406 1.03608 138.628 1.15909C138.928 1.13438 139.232 1.14475 139.533 1.12005C140.345 1.05334 141.143 1.55278 141.938 1.27562C142.135 1.47125 142.34 1.3838 142.553 1.40158C142.764 1.38429 142.972 1.33192 143.197 1.49C143.497 1.46529 143.798 1.44059 144.072 1.45343C144.239 1.65153 144.474 1.56161 144.687 1.57939C144.898 1.5621 145.106 1.50973 145.331 1.66781C145.752 1.63322 146.281 1.44845 146.63 1.63172C147.137 1.90787 147.579 1.76558 148.066 1.7962C148.234 1.9943 148.441 1.94193 148.622 1.92711C148.862 1.90734 149.1 1.8525 149.295 2.01306C150.249 1.82877 151.176 2.42355 152.124 2.16911C152.678 2.65325 153.335 2.17551 153.87 2.41412C154.527 2.67791 155.171 2.4131 155.733 2.61416C156.294 2.81522 156.851 2.5929 157.296 2.83891C157.896 3.14272 158.456 2.95548 159.036 3.01376C159.233 3.20939 159.498 3.117 159.693 3.27756C160.554 3.06561 161.376 3.49243 162.227 3.52847C162.714 3.55909 163.285 3.51215 163.726 3.72309C164.261 3.96169 164.788 3.74184 165.259 3.95031C165.793 4.18892 166.38 3.96412 166.822 4.17506C167.326 4.41614 167.937 4.11872 168.264 4.4097C168.815 4.85875 169.464 4.27579 169.907 4.87504C169.94 4.90764 169.97 4.90517 170 4.9027C170.737 4.66555 171.515 4.91947 172.143 5.18573C172.83 5.44706 173.583 5.03207 174.207 5.61648C174.207 5.61648 174.237 5.61401 174.267 5.61154C174.914 5.38181 175.577 5.71575 176.109 5.91928C176.826 6.17813 177.579 5.76314 178.203 6.34756C178.203 6.34756 178.233 6.34509 178.263 6.34262C178.91 6.11289 179.519 6.52193 180.135 6.64789C180.688 6.74372 181.344 6.61921 181.865 7.07074C181.898 7.10334 181.928 7.10087 181.958 7.0984C182.548 6.90869 183.115 7.1799 183.617 7.38589C184.181 7.62203 184.823 7.32214 185.32 7.84629C185.353 7.8789 185.383 7.87642 185.413 7.87395C186.063 7.6793 186.672 8.08834 187.315 8.17675C187.712 8.21479 188.283 8.16784 188.652 8.59665C188.684 8.62925 188.747 8.65939 188.778 8.65692C189.368 8.4672 189.965 8.73594 190.409 8.98195C190.979 9.28824 191.558 8.95822 192.079 9.40974C192.34 9.63551 192.824 9.63105 193.128 9.64142C193.678 9.70217 194.291 9.79306 194.765 10.0366C195.302 10.3103 195.865 10.1581 196.432 10.4293C196.78 10.6126 197.303 10.7109 197.766 10.8141C198.228 10.9174 198.742 10.9105 199.135 11.2666C199.168 11.2992 199.231 11.3294 199.261 11.3269C199.791 11.1421 200.274 11.4909 200.712 11.6668C201.12 11.8451 201.604 11.8407 202.015 12.0541C202.394 12.2349 202.886 12.3356 203.349 12.4389C203.812 12.5421 204.326 12.5352 204.718 12.8914C204.751 12.924 204.814 12.9541 204.844 12.9516C205.344 12.7693 205.748 13.2658 206.265 13.294C206.539 13.3068 206.941 13.415 207.208 13.7109C207.244 13.7786 207.337 13.8063 207.367 13.8038C207.867 13.6215 208.322 14.0078 208.758 14.1486C209.379 14.3447 210.107 14.3556 210.634 14.8772C210.7 14.9424 210.79 14.935 210.881 14.9276C211.365 14.9232 211.779 15.1717 212.196 15.4552C212.259 15.4854 212.322 15.5155 212.382 15.5105C212.896 15.5036 213.319 15.8573 213.787 16.0307C214.159 16.1414 214.492 16.5025 214.937 16.3953C215.232 16.3004 215.499 16.5963 215.721 16.7194C216.45 17.1185 217.243 17.1946 217.912 17.5987C218.611 18.0003 219.362 18.2918 220.091 18.6909C220.596 18.932 221.13 19.1706 221.664 19.4092C222.168 19.6503 222.727 19.8162 223.183 20.2026C223.38 20.3982 223.684 20.4086 223.906 20.5316C224.635 20.9307 225.364 21.3299 226.091 21.694C226.724 22.0304 227.339 22.5096 228.026 22.7709C228.401 22.9166 228.78 23.0974 229.106 23.3884C229.403 23.6818 229.778 23.8276 230.151 23.9382C230.337 23.9936 230.381 24.1665 230.507 24.2267C231.105 24.4955 231.653 24.9094 232.196 25.2533C232.676 25.567 233.189 25.9133 233.699 26.2245C234.146 26.5056 234.52 27.0045 235.04 27.0678C235.254 27.0856 235.241 27.2985 235.37 27.3938C236.666 28.0642 237.702 29.2503 238.675 30.4063C239.112 30.9354 239.697 31.4171 239.971 32.1714C240.123 32.5474 240.482 32.8709 240.727 33.2746C240.934 33.5754 241.113 33.9138 241.259 34.2196C241.621 34.9315 241.927 35.7185 242.174 36.5104C242.457 37.37 242.466 38.2167 242.598 39.0887C242.727 39.9256 242.52 40.7194 242.25 41.4832C242.128 41.8463 242.259 42.33 242.017 42.703C241.938 42.8507 241.835 43.071 241.759 43.2538C241.14 44.929 239.93 46.0525 239.017 47.4693C238.337 47.6665 238.103 48.4979 237.527 48.863C237.066 49.1481 236.682 49.6386 236.23 50.0289C235.805 50.3817 235.416 50.8021 234.99 51.1548C234.535 51.51 234.008 51.7299 233.622 52.1854C233.456 52.3756 233.166 52.5406 232.962 52.628C232.377 52.8879 231.951 53.5939 231.254 53.5805C231.141 54.0489 230.675 53.9106 230.427 54.2134C230.207 54.4787 229.717 54.413 229.412 54.7559C229.05 55.1387 228.47 55.0805 228.111 55.4984C227.888 55.7286 227.469 55.7983 227.204 55.8907C226.702 56.0379 226.274 56.3556 225.774 56.5379C225.184 56.7276 224.522 56.7819 224.049 57.2799C224.021 57.3175 223.991 57.3199 223.961 57.3224C223.285 57.2014 222.683 57.604 222.194 57.9266C221.531 58.3342 220.718 58.0126 220.198 58.6909C220.171 58.7285 220.141 58.7309 220.111 58.7334C219.14 58.7072 218.322 59.4453 217.346 59.349C217.059 59.5491 216.753 59.5036 216.62 59.7265Z" fill="#DA7B07"/>
</svg>
