<svg width="243" height="69" viewBox="0 0 243 69" fill="none" xmlns="http://www.w3.org/2000/svg">
<path d="M216.573 59.4977C215.421 59.4864 214.396 60.2768 213.206 60.1627C212.651 60.7733 211.9 60.4819 211.25 60.6765C211.002 60.9794 210.588 60.7309 210.344 61.0688C209.923 61.1034 209.504 61.1731 209.083 61.2077C208.86 61.4379 208.554 61.3924 208.283 61.4147C208.072 61.432 207.826 61.3816 207.696 61.6395C207.305 61.6716 206.917 61.7388 206.526 61.7709C206.33 61.9636 206.086 61.9482 205.876 61.9655C205.695 61.9804 205.482 61.9626 205.319 62.1879C203.834 62.1686 202.448 62.9887 200.96 62.9344C200.679 63.2046 200.337 63.0915 200.009 63.1538C199.801 63.2061 199.522 63.1232 199.361 63.3835C198.76 63.4329 198.191 63.5149 197.59 63.5644C197.252 63.8746 196.817 63.7338 196.429 63.801C196.221 63.8534 195.942 63.7704 195.781 64.0307C195.12 64.0851 194.461 64.1745 193.799 64.2289C193.314 64.5866 192.725 64.4231 192.187 64.5026C191.949 64.5574 191.67 64.4745 191.479 64.7373C190.607 64.8089 189.768 64.9132 188.896 64.9848C188.73 65.175 188.516 65.1573 188.276 65.177C187.674 65.2264 187.073 65.2758 186.471 65.3253C186.291 65.3401 186.11 65.3549 185.975 65.5426C184.741 65.6439 183.511 65.7803 182.278 65.8816C182.082 66.0743 181.839 66.059 181.628 66.0763C180.215 66.1924 178.801 66.3085 177.388 66.4246C177.177 66.4419 176.931 66.3915 176.801 66.6494C171.447 67.0892 166.094 67.529 160.771 67.9663C160.6 67.7331 160.365 67.823 160.155 67.8403C158.711 67.9589 157.268 68.0775 155.794 68.1986C155.554 68.2183 155.316 68.2732 155.121 68.1126C153.828 68.2189 152.532 68.29 151.238 68.3963C151.074 68.2332 150.863 68.2505 150.653 68.2678C149.931 68.3271 149.209 68.3864 148.517 68.4433C148.307 68.4605 148.096 68.4778 147.874 68.3548C146.822 68.4413 145.736 68.4952 144.684 68.5816C144.519 68.4186 144.338 68.4334 144.158 68.4483C143.526 68.5002 142.895 68.552 142.263 68.6039C142.053 68.6212 141.842 68.6385 141.62 68.5155C140.598 68.5995 139.572 68.6484 138.519 68.7349C138.355 68.5719 138.174 68.5867 137.994 68.6015C137.422 68.6485 136.851 68.6954 136.31 68.7399C136.099 68.7572 135.889 68.7745 135.667 68.6515C134.674 68.733 133.679 68.7795 132.686 68.861C132.522 68.698 132.341 68.7128 132.161 68.7276C131.589 68.7746 131.018 68.8215 130.476 68.866C130.266 68.8833 130.055 68.9006 129.833 68.7776C128.991 68.8467 128.176 68.8784 127.334 68.9475C127.17 68.7845 126.989 68.7993 126.809 68.8142C126.297 68.8562 125.816 68.8957 125.305 68.9377C125.124 68.9525 124.944 68.9674 124.782 68.8394C124 68.9036 123.185 68.9353 122.403 68.9995C122.173 68.7713 121.911 68.8987 121.667 68.8834C121.18 68.8528 120.716 69.1028 120.242 68.8593C119.52 68.9185 118.796 68.9428 118.044 69.0045C117.813 68.7763 117.551 68.9038 117.308 68.8885C116.884 68.888 116.474 69.0629 116.093 68.847C115.431 68.9013 114.767 68.9206 114.105 68.975C113.908 68.7793 113.673 68.8693 113.429 68.8539C113.035 68.851 112.626 69.0259 112.245 68.81C111.583 68.8644 110.919 68.8836 110.257 68.938C110.026 68.7098 109.764 68.8372 109.521 68.8219C109.097 68.8214 108.687 68.9963 108.306 68.7804C107.705 68.8299 107.1 68.8442 106.529 68.8911C106.298 68.6629 106.036 68.7904 105.793 68.775C105.429 68.7696 105.05 68.942 104.669 68.7262C104.067 68.7756 103.463 68.7899 102.891 68.8368C102.661 68.6086 102.399 68.7361 102.155 68.7208C101.791 68.7153 101.412 68.8878 101.031 68.6719C100.429 68.7213 99.825 68.7356 99.2536 68.7826C99.0529 68.5519 98.821 68.6769 98.5775 68.6616C98.2739 68.6512 97.9818 68.7811 97.6938 68.5929C97.1224 68.6398 96.5782 68.6492 96.0068 68.6962C95.8062 68.4655 95.5742 68.5905 95.3307 68.5752C94.997 68.5673 94.6749 68.6997 94.3568 68.5139C93.7553 68.5633 93.181 68.5752 92.5796 68.6246C92.3818 68.429 92.147 68.5189 91.9035 68.5036C91.5999 68.4932 91.3078 68.6232 91.0198 68.4349C90.5386 68.4745 90.0245 68.4814 89.5433 68.5209C89.3427 68.2902 89.1107 68.4152 88.8672 68.3999C88.5636 68.3895 88.2715 68.5195 87.9836 68.3313C87.5024 68.3708 86.9882 68.3777 86.507 68.4172C86.3093 68.2216 86.1045 68.3091 85.8911 68.2913C85.6806 68.3086 85.4701 68.3259 85.248 68.2029C84.7668 68.2424 84.2527 68.2493 83.7715 68.2888C83.5709 68.0581 83.3389 68.1831 83.0955 68.1678C82.7918 68.1575 82.4997 68.2874 82.2118 68.0992C81.8208 68.1313 81.4298 68.1634 81.036 68.1605C80.8354 67.9297 80.6034 68.0547 80.3599 68.0394C80.0563 68.0291 79.7642 68.159 79.4763 67.9708C79.0853 68.0029 78.6914 67.9999 78.3005 68.0321C78.1027 67.8364 77.898 67.9239 77.6846 67.9061C77.4741 67.9234 77.2664 67.9758 77.0415 67.8177C76.6505 67.8498 76.2595 67.8819 75.8657 67.879C75.668 67.6833 75.4632 67.7708 75.2498 67.753C75.0393 67.7703 74.8316 67.8227 74.6067 67.6646C74.2157 67.6967 73.8219 67.6937 73.4309 67.7259C73.2332 67.5302 73.0284 67.6177 72.815 67.5999C72.6045 67.6172 72.3969 67.6696 72.1719 67.5115C71.781 67.5436 71.3871 67.5406 70.9961 67.5728C70.7984 67.3771 70.5937 67.4646 70.3803 67.4468C70.1697 67.4641 69.9621 67.5165 69.7372 67.3584C69.4063 67.3856 69.1027 67.3752 68.7719 67.4024C67.99 67.4666 67.192 66.9672 66.3973 67.2443C66.1995 67.0487 65.9948 67.1361 65.7814 67.1184C65.5709 67.1356 65.3632 67.188 65.1383 67.0299C64.7172 67.0645 64.1874 67.2493 63.8393 67.066C63.2362 66.7271 62.6792 66.9495 62.0991 66.8912C61.9014 66.6955 61.6967 66.783 61.4832 66.7652C61.2727 66.7825 61.0651 66.8349 60.8402 66.6768C60.5093 66.704 60.127 66.8413 59.8448 66.7232C59.1243 66.4293 58.3353 66.7766 57.6778 66.5128C57.0504 66.2466 56.4934 66.4689 55.9105 66.3755C55.2645 66.252 54.6099 66.0233 53.9569 66.1829C53.6302 65.8919 53.2322 66.2071 52.9084 65.9512C51.9547 66.1355 51.0278 65.5407 50.0798 65.7952C49.5253 65.311 48.8982 65.7863 48.3639 65.5477C47.6764 65.2864 47.0019 65.5536 46.4075 65.32C45.9061 65.114 45.382 65.3689 44.9981 65.118C44.4523 64.739 43.7951 65.2168 43.295 64.6576C43.2621 64.6249 43.232 64.6274 43.2048 64.665C42.4673 64.9021 41.7411 64.538 41.032 64.3844C40.4763 64.2535 39.8262 64.4482 39.3318 63.9591L39.2989 63.9265C38.739 64.1137 38.2203 63.6973 37.6976 63.599C37.1447 63.5031 36.4859 63.5926 35.9644 63.141C35.9314 63.1084 35.9014 63.1109 35.8713 63.1134C35.234 63.0951 34.5822 62.9015 34.0092 62.5601C33.9762 62.5275 33.9161 62.5324 33.8559 62.5374C33.1614 62.5591 32.5253 62.1876 31.8793 62.0641C31.4167 61.9609 30.9211 61.8251 30.4856 61.6843C30.0473 61.5084 29.5175 61.6932 29.1463 61.2293C29.1134 61.1967 29.0203 61.169 28.9601 61.174C28.4575 61.3212 28.0047 60.97 27.5693 60.8292C26.9476 60.6331 26.2988 60.4745 25.6928 60.1005C25.2157 59.8219 24.6513 59.5858 24.15 59.3798C23.8348 59.2291 23.4896 59.0809 23.1988 58.8576C22.6558 58.5138 22.0799 58.1374 21.5369 57.7935C20.8321 57.3217 20.067 56.8549 19.4652 56.1628C18.8992 55.5384 18.2186 54.994 17.707 54.2944C17.3989 53.8607 17.0549 53.3593 16.7439 52.8904C16.4358 52.4567 16.5643 51.8105 16.1145 51.4943C16.0486 51.4291 16.0313 51.2187 16.0169 51.0433C15.9218 49.8858 15.7665 48.7333 15.7646 47.6034C15.7786 47.0373 15.88 46.4286 16.1074 45.8803C16.2376 45.6224 16.269 45.2667 16.3963 44.9737C16.5722 44.5355 16.7181 44.0998 16.894 43.6616C17.3732 42.4922 18.086 41.5862 18.793 40.61C19.2553 39.9717 19.643 39.163 20.24 38.6902C20.638 38.375 20.9973 37.957 21.3953 37.6419C21.8505 37.2866 22.3688 36.9616 22.6865 36.4058C22.874 36.1079 23.169 36.013 23.3708 35.8905C23.859 35.5679 24.2842 35.2152 24.8025 34.8901C25.0617 34.7275 25.4168 34.6277 25.6014 34.2948C25.683 34.1821 25.7732 34.1747 25.8605 34.1322C26.3388 34.0576 26.668 33.6422 27.0747 33.4322C27.424 33.2622 27.663 32.8542 28.0898 32.8897C28.4536 32.8952 28.6954 32.5222 29.0147 32.3547C29.2195 32.2672 29.4873 32.2099 29.6261 32.0573C29.9883 31.6744 30.4752 31.705 30.8732 31.3898C31.1567 31.1547 31.5332 30.9472 31.9127 30.7747C32.3494 30.5623 32.8635 30.5554 33.1899 30.1048C33.217 30.0673 33.3073 30.0599 33.3645 30.0199C33.9244 29.8326 34.4843 29.6454 34.9639 29.2175C34.9911 29.18 35.0512 29.175 35.1114 29.1701C35.7273 29.2961 36.3 28.8959 36.6679 28.5832C37.1503 28.1904 37.8465 28.557 38.1828 27.8584C38.7356 27.9542 39.1192 27.4637 39.6218 27.3164C40.2118 27.1267 40.9035 27.0699 41.4074 26.5694C41.4074 26.5694 41.4346 26.5319 41.4675 26.5645C42.1436 26.6855 42.6417 26.1149 43.2675 25.9929C43.9534 25.8659 44.6637 25.6663 45.2306 25.196C45.2578 25.1584 45.2879 25.156 45.318 25.1535C46.1444 25.2622 46.8917 24.777 47.5962 24.5073C48.2707 24.24 49.0728 24.4213 49.6553 23.7731C49.6825 23.7356 49.7126 23.7331 49.7427 23.7306C50.7137 23.7568 51.5311 23.0187 52.5079 23.115C52.674 22.9248 52.9504 22.9727 53.1135 22.7475C53.4444 22.7203 53.7809 22.7633 54.043 22.6358C54.8233 22.1833 55.7185 22.3922 56.4444 22.0148C57.0257 21.7198 57.5728 21.7455 58.1356 21.5933C58.3317 21.4007 58.5752 21.416 58.7857 21.3987C58.9662 21.3839 59.1796 21.4016 59.3127 21.1788C59.7036 21.1467 60.0917 21.0795 60.4827 21.0474C60.6487 20.8572 60.8922 20.8725 61.1027 20.8552C61.2832 20.8404 61.4636 20.8256 61.5996 20.6378C62.0507 20.6008 62.529 20.5262 62.9801 20.4891C63.2034 20.2589 63.5099 20.3043 63.7806 20.2821C63.9911 20.2648 64.2346 20.2801 64.3677 20.0573C64.9993 20.0054 65.6279 19.9185 66.2595 19.8666C66.6274 19.5539 67.0629 19.6946 67.451 19.6275C67.6887 19.5726 67.968 19.6556 68.1583 19.3928C69.0305 19.3211 69.8697 19.2169 70.7419 19.1452C70.9079 18.955 71.1213 18.9728 71.3619 18.953C72.204 18.8839 73.0461 18.8147 73.9182 18.743C74.1288 18.7257 74.3121 18.746 74.4752 18.5207C77.5729 18.2662 80.6706 18.0117 83.7683 17.7573C83.933 17.9203 84.1436 17.903 84.3541 17.8857C85.1661 17.819 85.9781 17.7523 86.7901 17.6856C87.0006 17.6683 87.2112 17.651 87.4332 17.774C87.7941 17.7443 88.1579 17.7498 88.546 17.6826C89.1145 17.6006 89.5701 17.9869 90.0657 18.1227C90.6845 18.2838 90.6288 18.7121 90.6993 19.2007C90.761 19.584 90.5105 19.8518 90.3058 19.9392C89.8691 20.1517 89.5098 20.5696 88.987 20.4713C88.821 20.6615 88.6104 20.6788 88.3698 20.6986C87.7984 20.7455 87.227 20.7925 86.6857 20.837C86.5052 20.8518 86.3248 20.8666 86.1888 21.0543C84.5046 21.1927 82.7933 21.3686 81.1091 21.507C80.913 21.6996 80.6695 21.6843 80.459 21.7016C79.0154 21.8202 77.5718 21.9388 76.0982 22.0599C75.8877 22.0771 75.6442 22.0618 75.5111 22.2846C74.1878 22.3934 72.8674 22.5371 71.5141 22.6483C71.348 22.8385 71.1346 22.8207 70.8941 22.8405C70.2926 22.8899 69.6911 22.9393 69.0896 22.9887C68.9091 23.0036 68.7287 23.0184 68.5927 23.2061C67.8409 23.2679 67.0618 23.3672 66.3099 23.429C65.9721 23.7392 65.5367 23.5984 65.1486 23.6656C64.9109 23.7205 64.6616 23.635 64.5013 23.8954C63.96 23.9398 63.4516 24.0169 62.9103 24.0614C62.6569 24.2941 62.3504 24.2486 62.0496 24.2733C61.842 24.3257 61.5627 24.2427 61.4024 24.5031C60.9212 24.5426 60.4128 24.6197 59.9316 24.6592C59.7355 24.8519 59.492 24.8366 59.2815 24.8539C59.1011 24.8687 58.8877 24.8509 58.7546 25.0737C58.3636 25.1058 57.9755 25.173 57.5846 25.2051C57.3341 25.4729 56.9229 25.2595 56.6782 25.5974C55.7315 25.4986 54.9141 26.2367 53.9731 26.2081C53.2155 26.1997 52.5225 26.6098 51.8452 26.842C51.3426 26.9892 50.7325 26.9334 50.3345 27.2486C49.7103 27.7589 48.8608 27.3696 48.3384 28.0129C48.3112 28.0504 48.2811 28.0529 48.251 28.0553C47.4848 27.9417 46.7918 28.3518 46.1833 28.6843C45.632 28.9767 44.9502 28.7856 44.5452 29.3838L44.518 29.4214C43.905 29.3305 43.4584 29.7909 42.9286 29.9757C42.2814 30.2054 41.6226 30.2949 41.0557 30.7652C40.9984 30.8052 40.9412 30.8452 40.8781 30.8151C40.2622 30.6891 39.8185 31.1846 39.2887 31.3694C38.6143 31.6367 37.9098 31.9064 37.2411 32.2439C36.6297 32.5413 36.0484 32.8362 35.4341 33.0986C34.88 33.356 34.2958 33.6158 33.8076 33.9384C33.4368 34.2161 32.9469 34.1504 32.5905 34.6034C32.3973 34.8312 31.9104 34.8005 31.6327 35.1058C31.2404 35.4912 30.6991 35.5357 30.271 35.8533C29.9847 36.0534 29.5694 36.1582 29.253 36.3607C28.9395 36.5983 28.6173 36.7307 28.3367 37.001C28.1105 37.1961 27.8271 37.4313 27.6166 37.4486C26.9306 37.5756 26.4597 38.1086 25.9142 38.4712C25.5677 38.6763 25.2472 39.197 24.8677 39.3694C24.3709 39.5868 24.1821 40.2379 23.6738 40.315C23.4661 40.3673 23.5135 40.5753 23.3989 40.6554C22.8506 40.9829 22.4398 41.511 21.9602 41.9389C21.4778 42.3316 21.1358 42.96 20.7279 43.5232C20.5376 43.786 20.3171 44.0513 20.1927 44.3794C19.8565 45.0779 19.3971 45.7513 19.217 46.5076C18.9454 47.6246 18.8901 48.7945 19.1958 49.9347C19.2818 50.2454 19.3794 50.6964 19.7032 50.9523C19.9282 51.1104 20.0229 51.5264 20.1003 51.7319C20.3714 52.4512 20.9386 52.7224 21.3428 53.2189C21.711 53.6477 22.1123 54.1091 22.5535 54.32C23.0277 54.5636 23.3931 54.9573 23.8973 55.1984C24.4015 55.4395 24.9602 55.6054 25.4158 55.9917C25.6436 56.1849 25.9172 56.1977 26.1392 56.3208C26.7695 56.6221 27.3998 56.9234 28.0301 57.2248C28.3753 57.373 28.7692 57.3759 29.1173 57.5592C29.7534 57.9307 30.5024 57.8339 31.0898 58.3506C31.1557 58.4158 31.2459 58.4084 31.3362 58.401C31.8417 58.2888 32.3216 58.6025 32.727 58.7458C33.1352 58.9241 33.6593 58.6692 33.9761 59.2082C33.9789 59.2432 34.0692 59.2358 34.1293 59.2309C34.7193 59.0412 35.3195 59.345 35.7607 59.5559C36.2019 59.7669 36.7503 59.4393 37.0399 60.0158C37.0399 60.0158 37.0699 60.0134 37.1 60.0109C37.7172 59.7836 38.326 60.1927 38.9119 60.3211C39.4948 60.4145 40.1565 60.3601 40.7052 60.7741C40.7381 60.8067 40.7682 60.8042 40.7983 60.8018C41.4455 60.572 42.0816 60.9435 42.6402 61.1095C43.2289 61.273 43.9062 61.0408 44.4306 61.5274C44.4636 61.56 44.4937 61.5575 44.5237 61.5551C45.3213 61.313 46.1379 61.6697 46.8769 61.8208C47.5859 61.9744 48.3506 61.6997 49.0283 62.2091C49.0612 62.2417 49.0913 62.2392 49.1214 62.2367C50.0421 62.0198 50.9419 62.6522 51.8297 62.4027C52.0303 62.6334 52.3496 62.4659 52.5774 62.6591C52.9684 62.6269 53.3622 62.6299 53.7532 62.5978C53.9839 62.826 54.2731 62.661 54.5009 62.8542C54.8618 62.8245 55.2742 62.6847 55.5865 62.8003C56.4273 63.0843 57.3065 62.7296 58.1172 63.0161C58.8349 63.275 59.4821 63.0453 60.1553 63.1312C60.353 63.3268 60.5578 63.2394 60.7712 63.2572C60.9516 63.2423 61.1321 63.2275 61.294 63.3555C61.6248 63.3283 61.9556 63.3011 62.2893 63.309C63.2933 63.3678 64.3117 63.6019 65.2955 63.4152C65.4932 63.6108 65.698 63.5234 65.9114 63.5411C66.1219 63.5238 66.3296 63.4715 66.5545 63.6296C66.9454 63.5974 67.3636 63.5278 67.7603 63.5658C68.7643 63.6246 69.7827 63.8587 70.7665 63.672C70.9643 63.8676 71.169 63.7801 71.3824 63.7979C71.5929 63.7806 71.8006 63.7283 72.0255 63.8863C72.5067 63.8468 73.0209 63.8399 73.502 63.8004C73.6998 63.996 73.9045 63.9085 74.1179 63.9263C74.3285 63.909 74.5361 63.8567 74.761 64.0147C75.2422 63.9752 75.7564 63.9683 76.2376 63.9287C76.4353 64.1244 76.6401 64.0369 76.8535 64.0547C77.0969 64.07 77.3618 63.9776 77.5868 64.1357C78.0379 64.0987 78.522 64.0942 78.9731 64.0571C79.1737 64.2878 79.4056 64.1629 79.6491 64.1782C79.9528 64.1885 80.2449 64.0586 80.5328 64.2468C81.014 64.2073 81.5282 64.2004 82.0093 64.1608C82.2071 64.3565 82.4118 64.269 82.6252 64.2868C82.8358 64.2695 83.0434 64.2171 83.2683 64.3752C83.7495 64.3357 84.2637 64.3288 84.7449 64.2892C84.9455 64.5199 85.1774 64.3949 85.4209 64.4102C85.7245 64.4206 86.0166 64.2907 86.3046 64.4789C86.6956 64.4468 87.0894 64.4497 87.4804 64.4176C87.681 64.6483 87.9129 64.5233 88.1564 64.5386C88.4601 64.549 88.7522 64.4191 89.0401 64.6073C89.5213 64.5678 90.0355 64.5608 90.5166 64.5213C90.7173 64.752 90.9492 64.627 91.1927 64.6423C91.4963 64.6527 91.7884 64.5228 92.0764 64.711C92.5576 64.6715 93.0717 64.6645 93.5529 64.625C93.7506 64.8206 93.9554 64.7332 94.1688 64.751C94.4424 64.7638 94.7344 64.6339 94.9923 64.8246C95.4134 64.79 95.8732 64.8581 96.2855 64.7183C96.8483 64.5661 97.3427 65.0552 97.9083 64.9381C98.4768 64.8561 99.0511 64.8442 99.5954 64.8348C99.796 65.0655 100.028 64.9406 100.271 64.9559C100.575 64.9662 100.867 64.8363 101.155 65.0245C101.696 64.98 102.211 64.9731 102.752 64.9286C102.953 65.1593 103.184 65.0344 103.428 65.0497C103.762 65.0576 104.084 64.9252 104.402 65.1109C104.823 65.0763 105.244 65.0417 105.668 65.0422C106.904 64.976 108.12 65.4058 109.336 65.094C109.536 65.3247 109.768 65.1997 110.012 65.215C110.345 65.2229 110.668 65.0905 110.986 65.2763C111.557 65.2293 112.101 65.2199 112.673 65.173C112.903 65.4012 113.165 65.2738 113.409 65.2891C113.773 65.2945 114.152 65.1221 114.533 65.338C115.135 65.2886 115.709 65.2767 116.31 65.2273C116.508 65.4229 116.743 65.333 116.987 65.3483C117.29 65.3587 117.582 65.2287 117.87 65.4169C118.562 65.3601 119.257 65.3384 119.948 65.2815C120.179 65.5098 120.441 65.3823 120.684 65.3976C121.048 65.4031 121.428 65.2306 121.809 65.4465C122.5 65.3897 123.195 65.3679 123.887 65.3111C124.117 65.5394 124.379 65.4119 124.623 65.4272C125.17 65.4529 125.694 65.1979 126.258 65.4341C127.101 65.3649 127.915 65.3333 128.758 65.2641C128.922 65.4271 129.103 65.4123 129.283 65.3975C129.794 65.3555 130.276 65.3159 130.787 65.2739C130.967 65.2591 131.148 65.2443 131.31 65.3722C132.242 65.2956 133.177 65.2541 134.11 65.1775C134.274 65.3406 134.455 65.3257 134.635 65.3109C135.267 65.259 135.898 65.2071 136.53 65.1553C136.74 65.138 136.951 65.1207 137.173 65.2437C138.226 65.1572 139.311 65.1033 140.364 65.0169C140.531 65.215 140.739 65.1626 140.95 65.1453C141.671 65.086 142.393 65.0267 143.085 64.9699C143.295 64.9526 143.506 64.9353 143.728 65.0583C144.901 64.9619 146.047 64.9031 147.219 64.8068C147.384 64.9698 147.595 64.9525 147.805 64.9352C148.497 64.8784 149.159 64.824 149.85 64.7672C150.061 64.7499 150.271 64.7326 150.493 64.8556C152.148 64.7197 153.835 64.6165 155.489 64.4806C155.653 64.6436 155.864 64.6263 156.075 64.609C163.383 64.0086 170.721 63.4058 178.029 62.8054C178.239 62.7881 178.423 62.8084 178.586 62.5831C180.511 62.425 182.433 62.2318 184.387 62.0712C184.553 61.881 184.767 61.8987 185.007 61.879C185.789 61.8147 186.571 61.7505 187.353 61.6863C187.564 61.669 187.747 61.6892 187.91 61.464C188.873 61.3849 189.832 61.2708 190.795 61.1917C191.28 60.834 191.869 60.9975 192.407 60.918C192.645 60.8631 192.924 60.9461 193.114 60.6833C193.836 60.624 194.555 60.5296 195.307 60.4679C195.675 60.1551 196.11 60.2959 196.498 60.2287C196.736 60.1739 197.015 60.2569 197.206 59.9941C197.807 59.9447 198.376 59.8626 198.977 59.8132C199.231 59.5805 199.537 59.626 199.838 59.6013C200.046 59.5489 200.325 59.6319 200.485 59.3715C200.966 59.332 201.475 59.2549 201.956 59.2154C202.209 58.9827 202.516 59.0281 202.817 59.0034C203.024 58.9511 203.304 59.0341 203.464 58.7737C203.855 58.7416 204.246 58.7095 204.634 58.6423C204.83 58.4496 205.073 58.4649 205.284 58.4476C205.464 58.4328 205.678 58.4506 205.841 58.2253C206.322 58.1858 206.831 58.1087 207.312 58.0692C207.562 57.8014 207.973 58.0148 208.218 57.6769C208.549 57.6497 208.883 57.6576 209.208 57.5603C210.095 57.3108 210.992 57.1665 211.847 56.8844C212.377 56.6996 213.053 56.8207 213.445 56.4353C214.036 55.8924 214.894 56.3869 215.411 55.6735C215.438 55.6359 215.468 55.6335 215.501 55.6661C216.297 55.7772 217.021 55.3647 217.629 55.0322C218.265 54.6622 219.048 54.9862 219.538 54.3104C219.538 54.3104 219.568 54.3079 219.598 54.3055C220.274 54.4265 220.808 53.9236 221.395 53.6988C221.922 53.4789 222.592 53.5298 223.033 52.9992C223.06 52.9617 223.118 52.9216 223.181 52.9518C223.796 53.0777 224.309 52.6825 224.767 52.3624C225.255 52.0398 225.94 52.266 226.312 51.6351C226.339 51.5976 226.429 51.5902 226.49 51.5852C227.106 51.7112 227.549 51.2157 228.076 50.9959C228.751 50.7286 229.461 50.529 230.097 50.1589C230.356 49.9964 230.711 49.8966 230.898 49.5987C230.977 49.451 231.097 49.4411 231.188 49.4337C231.636 49.3616 232.001 49.0138 232.339 48.7035C232.535 48.5108 232.797 48.3834 233.029 48.2584C233.55 47.9684 233.829 47.3098 234.332 47.1626C234.861 46.9778 235.017 46.2941 235.556 46.2146C235.766 46.1973 235.716 45.9542 235.827 45.8391C236.95 44.7582 237.97 43.5443 238.79 42.0998C239.002 41.7293 239.019 41.1982 239.269 40.9304C239.738 40.3623 239.283 39.6227 239.595 38.9968C239.777 38.6288 239.801 37.8146 239.309 37.3606C239.243 37.2954 239.229 37.12 239.217 36.9797C239.193 36.3108 238.761 35.8519 238.565 35.303C238.366 34.7191 237.889 34.4405 237.692 33.8916C237.501 33.4129 237.021 33.0992 236.659 32.7406C235.835 31.9255 235.035 31.0377 234.136 30.4054C233.428 29.8985 232.905 29.0587 232.037 28.8122C231.82 28.7593 231.666 28.3483 231.413 28.2278C230.843 27.9215 230.297 27.5426 229.785 27.1963C229.302 26.8475 228.74 26.6465 228.309 26.1875C228.108 25.9568 227.766 25.8437 227.457 25.7632C227.27 25.7078 227.169 25.575 227.01 25.4821C226.593 25.1985 226.152 24.9876 225.71 24.7766C225.362 24.5934 224.905 24.5603 224.663 24.1917C224.421 23.8232 224.024 23.7852 223.742 23.6671C223.211 23.4636 222.701 23.1524 222.166 22.9137C221.665 22.7078 221.131 22.4691 220.651 22.1555C220.363 21.9672 220.006 21.6787 219.588 21.7484C219.23 21.8131 218.93 21.4846 218.618 21.369C218.276 21.2559 217.897 21.0751 217.546 20.8567C216.94 20.4828 216.276 20.502 215.667 20.093C215.379 19.9048 214.995 19.6538 214.604 19.6859C214.246 19.7507 213.944 19.3871 213.571 19.2764C213.448 19.2512 213.283 19.0882 213.133 19.1006C212.718 19.2053 212.385 18.8442 212.043 18.7311C211.514 18.5626 211.007 18.2865 210.46 18.2608C210.157 18.2504 209.806 18.0321 209.704 17.8992C209.308 17.5079 208.817 17.7954 208.425 17.4393C208.194 17.211 207.691 17.3582 207.337 17.1048C206.918 16.7862 206.371 16.7605 205.905 16.6222C205.5 16.4789 205.064 16.3381 204.602 16.2349C204.139 16.1317 203.622 16.1035 203.169 15.7523C203.106 15.7221 203.043 15.692 202.983 15.6969C202.483 15.8792 202.055 15.4554 201.562 15.3546C200.919 15.2662 200.292 14.9999 199.64 14.8063C199.048 14.6077 198.429 14.4467 197.811 14.2856C197.159 14.092 196.54 13.9309 195.888 13.7373C195.204 13.511 194.498 13.3925 193.813 13.1662C193.41 13.058 192.902 13.1351 192.507 12.7439C192.243 12.483 191.762 12.5226 191.458 12.5122C190.878 12.4539 190.295 12.3605 189.821 12.117C189.287 11.8784 188.721 11.9955 188.154 11.7243C187.806 11.541 187.277 11.3726 186.823 11.3745C186.219 11.3889 185.657 11.1878 185.087 10.8815C185.054 10.8489 185.024 10.8514 184.994 10.8539C184.347 11.0836 183.738 10.6746 183.122 10.5486C182.569 10.4528 181.913 10.5773 181.392 10.1258C181.359 10.0932 181.329 10.0956 181.299 10.0981C180.651 10.3278 180.042 9.91879 179.427 9.79282C178.874 9.69699 178.218 9.8215 177.696 9.36997C177.663 9.33737 177.633 9.33984 177.603 9.34231C176.956 9.57204 176.235 9.27811 175.701 9.03951C175.011 8.74311 174.263 9.22825 173.637 8.60876C173.637 8.60876 173.607 8.61123 173.577 8.6137C172.867 8.8133 172.198 8.4092 171.524 8.32325C170.944 8.26497 170.256 8.35687 169.704 7.90782C169.671 7.87521 169.641 7.87768 169.611 7.88015C168.952 7.96958 168.309 7.88116 167.684 7.64997C166.934 7.35851 166.079 7.64062 165.344 7.17131C165.344 7.17131 165.314 7.17378 165.284 7.17625C164.652 7.22813 164.034 7.0671 163.423 7.01128C162.54 6.94263 161.69 6.55336 160.802 6.80285C160.344 6.38146 159.768 6.74655 159.357 6.53314C158.79 6.26194 158.206 6.5218 157.735 6.31333C157.134 6.00952 156.526 6.34201 156.022 6.10094C155.364 5.83714 154.69 6.10442 154.095 5.87076C153.501 5.6371 152.886 5.89943 152.385 5.69344C151.697 5.43211 151.023 5.69939 150.429 5.46573C149.927 5.25973 149.479 5.33187 148.992 5.30125C148.824 5.10315 148.617 5.15552 148.436 5.17034C148.196 5.19011 147.958 5.24495 147.763 5.08439C146.713 5.20594 145.702 4.68872 144.634 4.95304C143.986 4.44125 143.302 4.95653 142.677 4.72533C141.897 4.43635 141.078 4.78613 140.36 4.52728C139.642 4.26842 138.995 4.49815 138.322 4.41221C138.025 4.11876 137.657 4.43149 137.364 4.17312C136.882 4.21265 136.368 4.21957 135.887 4.25911C135.56 3.96813 135.162 4.28333 134.839 4.02743C134.388 4.06449 133.903 4.06894 133.452 4.106C133.255 3.91038 133.05 3.99782 132.836 3.98004C132.626 3.99733 132.418 4.04971 132.193 3.89162C131.772 3.92621 131.348 3.92573 130.897 3.96279C130.7 3.76716 130.495 3.8546 130.281 3.83682C130.008 3.82398 129.716 3.95392 129.458 3.76323C128.977 3.80276 128.462 3.80968 127.981 3.84921C127.784 3.65359 127.579 3.74103 127.365 3.72325C127.092 3.71041 126.8 3.84035 126.542 3.64966C126.001 3.69413 125.486 3.70106 124.945 3.74553C124.747 3.5499 124.512 3.63981 124.269 3.6245C123.965 3.61414 123.673 3.74407 123.385 3.55585C122.814 3.6028 122.27 3.61219 121.698 3.65913C121.498 3.42843 121.266 3.55342 121.022 3.53811C120.628 3.53515 120.219 3.71005 119.838 3.49417C119.206 3.54605 118.572 3.56286 117.94 3.61474C117.74 3.38404 117.508 3.50903 117.264 3.49372C116.81 3.4957 116.343 3.71061 115.899 3.4646C115.177 3.52389 114.453 3.54812 113.701 3.60988C113.47 3.38165 113.208 3.50911 112.965 3.4938C112.388 3.47059 111.803 3.73046 111.239 3.49433C110.337 3.56845 109.462 3.60502 108.559 3.67914C108.392 3.48104 108.184 3.53341 107.974 3.55071C107.282 3.60753 106.62 3.66189 105.929 3.71871C105.718 3.73601 105.508 3.7533 105.286 3.6303C103.812 3.75136 102.365 3.83488 100.892 3.95594C100.694 3.76031 100.486 3.81268 100.276 3.82997C98.2007 4.00045 96.1256 4.17093 94.0805 4.33893C93.8399 4.3587 93.5721 4.41601 93.3472 4.25793C91.0014 4.45064 88.6857 4.64088 86.3398 4.8336C86.1466 5.06134 85.8702 5.01343 85.6296 5.03319C83.5845 5.2012 81.5695 5.36674 79.5245 5.53474C79.3139 5.55204 79.0705 5.53673 78.9374 5.75953C77.5539 5.87318 76.1433 6.02438 74.7599 6.13803C74.5939 6.32823 74.3805 6.31045 74.1399 6.33022C73.388 6.39199 72.6361 6.45375 71.8843 6.51552C71.6738 6.53281 71.4904 6.51256 71.3273 6.73784C70.3348 6.81937 69.3452 6.93598 68.3528 7.01751C68.1867 7.20771 67.9733 7.18993 67.7328 7.2097C67.1914 7.25417 66.6801 7.29617 66.1388 7.34064C65.9584 7.35547 65.7779 7.37029 65.6419 7.55802C64.9202 7.61732 64.2012 7.71169 63.4494 7.77346C62.9941 8.12867 62.4355 7.96269 61.9572 8.03729C61.7195 8.09214 61.4402 8.00914 61.2498 8.27197C60.5581 8.32879 59.8693 8.4207 59.1776 8.47752C58.8397 8.78777 58.4043 8.64698 58.0162 8.71418C57.8085 8.76655 57.5292 8.68356 57.3689 8.94391C56.7675 8.99333 56.1688 9.07781 55.5974 9.12476C55.3469 9.39252 55.0075 9.31447 54.7067 9.33918C54.4089 9.39896 54.0694 9.32091 53.8189 9.58868C53.3377 9.62821 52.8293 9.70529 52.3481 9.74482C52.1248 9.97503 51.8183 9.92959 51.5476 9.95183C51.3371 9.96912 51.0936 9.95381 50.9606 10.1766C50.4794 10.2161 49.971 10.2932 49.4898 10.3328C49.2364 10.5654 48.9299 10.52 48.6292 10.5447C48.4215 10.5971 48.1422 10.5141 47.9819 10.7744C47.591 10.8066 47.2029 10.8738 46.8119 10.9059C46.5886 11.1361 46.2821 11.0906 46.0114 11.1129C45.8009 11.1302 45.5574 11.1149 45.4243 11.3377C45.0033 11.3723 44.5851 11.4419 44.134 11.479C43.9379 11.6717 43.6944 11.6564 43.4839 11.6736C43.3035 11.6885 43.0901 11.6707 42.9269 11.896C42.5359 11.9281 42.1478 11.9953 41.7569 12.0274C41.5608 12.2201 41.3173 12.2048 41.1068 12.2221C40.9263 12.2369 40.7129 12.2191 40.5798 12.4419C39.5429 12.3505 38.6353 13.096 37.574 13.0773C36.7262 13.0763 35.943 13.4938 35.1425 13.7008C34.5797 13.8529 34.0141 13.97 33.4785 14.0847C33.2824 14.2773 33.0389 14.262 32.8284 14.2793C32.6479 14.2941 32.4345 14.2764 32.3014 14.4992C31.2459 14.5506 30.3325 15.2259 29.2655 15.137C28.7975 15.7051 28.0712 15.3411 27.583 15.6637C27.0647 15.9887 26.5505 15.9957 26.015 16.1103C25.8489 16.3005 25.6355 16.2827 25.3949 16.3025C25.2145 16.3173 25.034 16.3321 24.8981 16.5199C23.927 16.4937 23.1096 17.2318 22.1328 17.1355C21.5775 17.7461 20.8182 17.3494 20.2398 17.6794C19.6041 18.0495 18.8621 17.8632 18.2866 18.2283C17.7382 18.5559 17.1495 18.3924 16.6584 18.6799C16.0227 19.0499 15.2836 18.8988 14.7052 19.2288C14.1869 19.5539 13.5982 19.3903 13.1372 19.6754C12.4743 20.083 11.6993 19.8641 11.1539 20.2268C10.6055 20.5543 10.0827 20.456 9.58297 20.6383C8.8484 20.9105 8.06934 21.0099 7.33189 21.247C6.88942 21.3893 6.41687 21.534 5.94144 21.6437C5.69382 21.9466 5.28268 21.7332 5.03507 22.036C4.50525 22.2208 4.11428 22.2529 3.72332 22.285C3.55728 22.4752 3.28084 22.4273 3.11769 22.6526C2.69664 22.6872 2.2756 22.7217 1.88751 22.7889C1.28891 22.8734 0.76035 22.705 0.268892 22.251C0.233055 22.1833 0.145713 22.2258 0.0855636 22.2307C0.0567485 21.88 0.0279332 21.5292 -0.000882063 21.1785C0.416916 20.3673 1.01966 19.9646 1.82015 19.7576C2.35285 19.6079 2.84106 19.2853 3.44831 19.3061C3.72186 19.3189 3.9567 19.229 4.11697 18.9686C4.9261 18.8668 5.71218 18.4845 6.51266 18.2774C7.19573 18.1154 7.94759 18.0536 8.57465 17.5784C8.63192 17.5383 8.71926 17.4959 8.80949 17.4884C9.29068 17.4489 9.72739 17.2365 10.1999 17.0917C10.8472 16.862 11.5059 16.7726 12.1532 16.5428C13.0352 16.2232 13.9589 16.0414 14.8323 15.6165C15.007 15.5315 15.2175 15.5142 15.428 15.4969C15.819 15.4648 16.21 15.4327 16.5808 15.155C16.8642 14.9199 17.2638 14.993 17.5946 14.9658C17.8682 14.9786 18.136 14.9213 18.2934 14.6259C18.5253 14.5009 18.7688 14.5162 19.0395 14.494C19.2801 14.4742 19.4877 14.4218 19.6867 14.2643C19.744 14.2242 19.7984 14.1491 19.8585 14.1442C20.6462 14.1501 21.3219 13.5296 22.1096 13.5355C22.4433 13.5434 22.7412 13.4836 22.9917 13.2159C23.0489 13.1759 23.1062 13.1358 23.1663 13.1309C24.0471 13.1645 24.7887 12.6092 25.6308 12.54C25.691 12.5351 25.7841 12.5627 25.8385 12.4876C26.4326 11.9798 27.2433 12.2663 27.8218 11.9363C28.6021 11.4837 29.5002 11.7278 30.2418 11.1725C30.498 10.9748 30.8976 11.048 31.2285 11.0208C31.6437 10.916 32.148 11.1571 32.4714 10.6715C32.6733 10.549 32.8838 10.5317 33.0943 10.5144C33.3951 10.4897 33.6958 10.465 33.9463 10.1972C34.0036 10.1572 34.0609 10.1172 34.121 10.1122C35.092 10.1384 35.9424 9.4329 36.9464 9.49167C37.25 9.50204 37.512 9.37458 37.8013 9.20957C38.3195 8.88449 38.9354 9.01046 39.534 8.92597C39.9493 8.82123 40.4536 9.0623 40.777 8.57667C41.1235 8.37164 41.5231 8.44475 41.9112 8.37756C42.3265 8.27282 42.8307 8.51389 43.1542 8.02826C43.5006 7.82323 43.9002 7.89634 44.2883 7.82915C44.7036 7.72441 45.2079 7.96548 45.5284 7.44478C45.9952 7.22987 46.485 7.29556 46.9362 7.2585C47.2068 7.23627 47.4445 7.18143 47.7181 7.19427C47.9616 7.20958 48.1634 7.08705 48.2965 6.86425C48.8235 6.6444 49.3734 6.70515 49.9148 6.66068C50.2456 6.6335 50.5735 6.57125 50.9072 6.57915C51.1478 6.55938 51.3225 6.47441 51.4556 6.2516C52.0126 6.02928 52.5927 6.08756 53.1913 6.00307C53.5221 5.9759 53.85 5.91364 54.1837 5.92154C54.4243 5.90178 54.599 5.8168 54.7321 5.594C55.2891 5.37167 55.8992 5.42749 56.4678 5.34547C56.949 5.30594 57.4602 5.26394 57.9414 5.22441C58.182 5.20464 58.3567 5.11966 58.4927 4.93193C59.0769 4.67207 59.72 4.76049 60.3486 4.67353C60.8599 4.63152 61.3411 4.59199 61.8524 4.54999C62.093 4.53023 62.2676 4.44525 62.4007 4.22244C63.1353 3.95022 63.8987 4.02876 64.6477 3.93192C65.2792 3.88003 65.9108 3.82815 66.5424 3.77626C66.783 3.7565 66.9576 3.67152 67.0936 3.48379C67.9184 3.20416 68.8021 3.27281 69.6413 3.16856C70.4834 3.09938 71.3255 3.0302 72.1676 2.96102C72.4081 2.94126 72.6158 2.88889 72.7789 2.66361C72.9507 2.54356 73.1312 2.52873 73.3116 2.51391C74.6349 2.4052 75.9281 2.29896 77.2514 2.19025C78.9055 2.05437 80.5295 1.92095 82.1836 1.78506C82.3941 1.76777 82.6405 1.81815 82.7707 1.56027C87.2217 1.19461 91.6727 0.82895 96.0937 0.46576C96.2642 0.698935 96.4991 0.609019 96.7096 0.591724C98.1231 0.475603 99.5366 0.35948 100.95 0.243359C101.191 0.223593 101.428 0.168753 101.626 0.364382C102.928 0.363369 104.251 0.254659 105.544 0.148421C105.709 0.311445 105.89 0.29662 106.07 0.281797C106.702 0.229913 107.333 0.178028 107.965 0.126144C108.175 0.108849 108.386 0.0915548 108.608 0.214562C109.54 0.137971 110.475 0.0964551 111.408 0.0198643C111.638 0.248098 111.9 0.120636 112.144 0.135946C112.661 0.164095 113.155 -0.0883596 113.659 0.152714C114.411 0.0909471 115.196 0.0617852 115.948 1.83328e-05C116.148 0.230723 116.38 0.105731 116.624 0.121041C117.048 0.121527 117.484 -0.0909104 117.898 0.157575C118.56 0.10322 119.225 0.0839405 119.886 0.0295853C120.117 0.25782 120.379 0.130357 120.622 0.145667C121.046 0.146153 121.456 -0.0287384 121.837 0.187142C122.318 0.147612 122.832 0.140685 123.313 0.101155C123.514 0.33186 123.746 0.206867 123.989 0.222177C124.353 0.227605 124.703 0.0576548 125.084 0.273536C125.625 0.229063 126.139 0.222137 126.681 0.177665C126.878 0.373294 127.113 0.283378 127.357 0.298688C127.66 0.309057 127.952 0.179122 128.24 0.36734C128.631 0.335221 129.022 0.303103 129.416 0.30606C129.617 0.536764 129.849 0.411773 130.092 0.427083C130.396 0.437452 130.688 0.307517 130.976 0.495735C131.457 0.456203 131.971 0.449278 132.452 0.409748C132.65 0.605376 132.855 0.517931 133.068 0.535712C133.279 0.518416 133.486 0.466046 133.711 0.624129C134.012 0.599422 134.313 0.574716 134.616 0.585084C135.524 0.581115 136.431 0.930373 137.322 0.71595C137.52 0.911579 137.724 0.824133 137.938 0.841914C138.148 0.824619 138.359 0.807324 138.581 0.930332C138.882 0.905625 139.185 0.915994 139.486 0.891287C140.298 0.824579 141.096 1.32402 141.891 1.04686C142.088 1.24249 142.293 1.15504 142.507 1.17282C142.717 1.15553 142.925 1.10316 143.15 1.26124C143.45 1.23653 143.751 1.21183 144.025 1.22467C144.192 1.42277 144.427 1.33285 144.641 1.35063C144.851 1.33334 145.059 1.28097 145.284 1.43905C145.705 1.40446 146.235 1.21969 146.583 1.40296C147.09 1.67911 147.532 1.53682 148.019 1.56744C148.187 1.76554 148.394 1.71317 148.575 1.69835C148.816 1.67858 149.053 1.62374 149.248 1.7843C150.202 1.60001 151.129 2.19479 152.077 1.94035C152.631 2.42449 153.288 1.94675 153.823 2.18536C154.48 2.44915 155.125 2.18434 155.686 2.3854C156.248 2.58646 156.805 2.36414 157.249 2.61015C157.849 2.91396 158.409 2.72672 158.989 2.785C159.187 2.98063 159.451 2.88824 159.646 3.0488C160.507 2.83685 161.329 3.26367 162.18 3.29971C162.667 3.33033 163.238 3.28339 163.68 3.49433C164.214 3.73293 164.741 3.51308 165.212 3.72155C165.746 3.96016 166.333 3.73536 166.775 3.9463C167.279 4.18738 167.89 3.88996 168.217 4.18094C168.769 4.62999 169.417 4.04703 169.86 4.64628C169.893 4.67888 169.923 4.67641 169.953 4.67394C170.69 4.43679 171.468 4.69071 172.096 4.95697C172.783 5.2183 173.536 4.80331 174.16 5.38772C174.16 5.38772 174.19 5.38525 174.22 5.38278C174.867 5.15305 175.53 5.48699 176.062 5.69052C176.779 5.94938 177.533 5.53438 178.156 6.1188C178.156 6.1188 178.186 6.11633 178.216 6.11386C178.863 5.88413 179.472 6.29317 180.088 6.41913C180.641 6.51496 181.297 6.39045 181.818 6.84198C181.851 6.87458 181.881 6.87211 181.911 6.86964C182.501 6.67993 183.069 6.95114 183.57 7.15713C184.134 7.39327 184.776 7.09338 185.273 7.61753C185.306 7.65014 185.336 7.64766 185.366 7.64519C186.016 7.45054 186.625 7.85958 187.268 7.94799C187.665 7.98603 188.236 7.93908 188.605 8.36789C188.638 8.40049 188.701 8.43063 188.731 8.42816C189.321 8.23844 189.918 8.50718 190.362 8.75319C190.932 9.05948 191.511 8.72946 192.032 9.18098C192.293 9.40675 192.777 9.40229 193.081 9.41266C193.631 9.47342 194.244 9.5643 194.718 9.80785C195.255 10.0815 195.818 9.92936 196.385 10.2006C196.733 10.3838 197.256 10.4821 197.719 10.5854C198.181 10.6886 198.695 10.6817 199.088 11.0379C199.121 11.0705 199.184 11.1006 199.214 11.0982C199.744 10.9134 200.227 11.2621 200.665 11.438C201.073 11.6163 201.557 11.6119 201.969 11.8253C202.347 12.0061 202.839 12.1069 203.302 12.2101C203.765 12.3134 204.279 12.3064 204.671 12.6626C204.704 12.6952 204.767 12.7254 204.798 12.7229C205.297 12.5406 205.701 13.0371 206.218 13.0652C206.492 13.0781 206.894 13.1862 207.161 13.4822C207.197 13.5498 207.29 13.5775 207.32 13.575C207.82 13.3927 208.275 13.779 208.711 13.9198C209.332 14.1159 210.06 14.1268 210.587 14.6485C210.653 14.7137 210.743 14.7063 210.834 14.6989C211.318 14.6944 211.732 14.9429 212.149 15.2265C212.212 15.2566 212.275 15.2867 212.335 15.2818C212.849 15.2749 213.272 15.6286 213.74 15.802C214.113 15.9126 214.445 16.2737 214.89 16.1665C215.185 16.0717 215.452 16.3676 215.674 16.4906C216.403 16.8897 217.196 16.9658 217.866 17.3699C218.565 17.7715 219.315 18.063 220.044 18.4622C220.549 18.7032 221.083 18.9418 221.617 19.1804C222.122 19.4215 222.68 19.5875 223.136 19.9738C223.333 20.1694 223.637 20.1798 223.859 20.3028C224.588 20.702 225.318 21.1011 226.044 21.4652C226.677 21.8016 227.292 22.2808 227.979 22.5421C228.355 22.6879 228.733 22.8687 229.059 23.1596C229.356 23.4531 229.731 23.5988 230.104 23.7095C230.29 23.7648 230.334 23.9377 230.46 23.998C231.058 24.2667 231.607 24.6807 232.149 25.0245C232.629 25.3382 233.142 25.6845 233.652 25.9957C234.099 26.2768 234.473 26.7758 234.993 26.839C235.207 26.8568 235.194 27.0697 235.323 27.1651C236.619 27.8354 237.655 29.0216 238.628 30.1775C239.065 30.7066 239.65 31.1883 239.924 31.9427C240.076 32.3186 240.435 32.6422 240.681 33.0458C240.887 33.3467 241.066 33.6851 241.212 33.9909C241.574 34.7027 241.881 35.4897 242.127 36.2816C242.41 37.1412 242.419 37.988 242.551 38.8599C242.68 39.6968 242.473 40.4907 242.203 41.2545C242.081 41.6176 242.212 42.1012 241.97 42.4742C241.891 42.6219 241.788 42.8422 241.712 43.025C241.093 44.7003 239.883 45.8237 238.97 47.2406C238.29 47.4377 238.056 48.2692 237.48 48.6342C237.019 48.9193 236.636 49.4099 236.183 49.8002C235.758 50.1529 235.369 50.5733 234.943 50.9261C234.488 51.2813 233.961 51.5011 233.575 51.9566C233.409 52.1468 233.12 52.3118 232.915 52.3993C232.331 52.6591 231.904 53.3651 231.207 53.3518C231.094 53.8201 230.628 53.6818 230.381 53.9846C230.16 54.2499 229.67 54.1842 229.365 54.5271C229.003 54.91 228.423 54.8517 228.064 55.2696C227.841 55.4999 227.423 55.5695 227.158 55.6619C226.655 55.8091 226.227 56.1268 225.727 56.3091C225.137 56.4988 224.476 56.5532 224.002 57.0512C223.975 57.0887 223.944 57.0912 223.914 57.0937C223.238 56.9726 222.636 57.3753 222.147 57.6979C221.485 58.1055 220.671 57.7839 220.151 58.4622C220.124 58.4997 220.094 58.5022 220.064 58.5046C219.093 58.4785 218.276 59.2166 217.299 59.1203C217.012 59.3203 216.706 59.2749 216.573 59.4977Z" fill="#DA7B07"/>
</svg>
