<svg width="805" height="545" viewBox="0 0 805 545" fill="none" xmlns="http://www.w3.org/2000/svg">
<g opacity="0.5">
<path d="M151.645 591.559C151.645 591.559 293.843 623.307 371.266 441.096C448.689 258.885 490.064 461.15 581.363 293.563C672.662 125.977 757.181 171.815 787.518 170.48C817.855 169.145 932.464 46.5737 932.464 46.5737" stroke="#275C70" stroke-width="2"/>
<path d="M155.281 598.168C155.281 598.168 297.479 629.916 374.902 447.705C452.325 265.494 493.7 467.759 584.999 300.173C676.297 132.586 760.817 178.424 791.154 177.089C821.491 175.754 936.1 53.1831 936.1 53.1831" stroke="#275C70" stroke-width="2"/>
<path d="M158.918 604.776C158.918 604.776 301.116 636.524 378.539 454.313C455.962 272.102 497.337 474.366 588.636 306.78C679.935 139.194 764.454 185.031 794.791 183.697C825.128 182.362 939.737 59.7905 939.737 59.7905" stroke="#275C70" stroke-width="2"/>
<path d="M162.554 611.384C162.554 611.384 304.752 643.132 382.175 460.921C459.598 278.71 500.973 480.975 592.272 313.388C683.57 145.802 768.09 191.64 798.427 190.305C828.764 188.97 943.373 66.3989 943.373 66.3989" stroke="#275C70" stroke-width="2"/>
<path d="M166.191 617.992C166.191 617.992 308.389 649.74 385.812 467.529C463.235 285.318 504.61 487.582 595.909 319.996C687.208 152.41 771.727 198.247 802.064 196.912C832.401 195.578 947.01 73.0063 947.01 73.0063" stroke="#275C70" stroke-width="2"/>
<path d="M169.826 624.6C169.826 624.6 312.024 656.348 389.447 474.137C466.87 291.926 508.245 494.191 599.544 326.604C690.842 159.018 775.362 204.856 805.699 203.521C836.036 202.186 950.645 79.6147 950.645 79.6147" stroke="#275C70" stroke-width="2"/>
<path d="M173.463 631.209C173.463 631.209 315.661 662.956 393.084 480.745C470.507 298.534 511.882 500.799 603.181 333.213C694.48 165.626 778.999 211.464 809.336 210.129C839.673 208.794 954.282 86.2231 954.282 86.2231" stroke="#275C70" stroke-width="2"/>
<path d="M177.099 637.816C177.099 637.816 319.297 669.564 396.72 487.353C474.143 305.142 515.518 507.406 606.817 339.82C698.116 172.234 782.635 218.071 812.972 216.737C843.31 215.402 957.918 92.8306 957.918 92.8306" stroke="#275C70" stroke-width="2"/>
<path d="M180.735 644.424C180.735 644.424 322.933 676.172 400.356 493.961C477.779 311.75 519.154 514.015 610.453 346.429C701.751 178.842 786.271 224.68 816.608 223.345C846.945 222.01 961.554 99.439 961.554 99.439" stroke="#275C70" stroke-width="2"/>
<path d="M184.372 651.033C184.372 651.033 326.57 682.781 403.993 500.57C481.416 318.359 522.791 520.623 614.09 353.037C705.389 185.451 789.908 231.288 820.245 229.953C850.582 228.619 965.191 106.047 965.191 106.047" stroke="#275C70" stroke-width="2"/>
<path d="M188.008 657.641C188.008 657.641 330.206 689.389 407.629 507.178C485.052 324.967 526.427 527.232 617.726 359.645C709.024 192.059 793.544 237.897 823.881 236.562C854.218 235.227 968.827 112.656 968.827 112.656" stroke="#275C70" stroke-width="2"/>
<path d="M191.645 664.249C191.645 664.249 333.843 695.996 411.266 513.785C488.689 331.575 530.064 533.839 621.363 366.253C712.662 198.666 797.181 244.504 827.518 243.169C857.855 241.835 972.464 119.263 972.464 119.263" stroke="#275C70" stroke-width="2"/>
<path d="M195.281 670.858C195.281 670.858 337.479 702.606 414.902 520.395C492.325 338.184 533.7 540.448 624.999 372.862C716.297 205.276 800.817 251.113 831.154 249.779C861.491 248.444 976.1 125.873 976.1 125.873" stroke="#275C70" stroke-width="2"/>
<path d="M198.916 677.465C198.916 677.465 341.114 709.213 418.537 527.002C495.96 344.791 537.335 547.056 628.634 379.47C719.933 211.883 804.452 257.721 834.789 256.386C865.126 255.051 979.735 132.48 979.735 132.48" stroke="#275C70" stroke-width="2"/>
<path d="M202.552 684.074C202.552 684.074 344.75 715.822 422.173 533.611C499.596 351.4 540.971 553.664 632.27 386.078C723.568 218.492 808.088 264.329 838.425 262.995C868.762 261.66 983.371 139.088 983.371 139.088" stroke="#275C70" stroke-width="2"/>
<path d="M206.189 690.682C206.189 690.682 348.387 722.43 425.81 540.219C503.233 358.008 544.608 560.273 635.907 392.686C727.206 225.1 811.725 270.938 842.062 269.603C872.399 268.268 987.008 145.697 987.008 145.697" stroke="#275C70" stroke-width="2"/>
<path d="M209.825 697.29C209.825 697.29 352.023 729.037 429.446 546.826C506.869 364.616 548.245 566.88 639.543 399.294C730.842 231.708 815.361 277.545 845.698 276.21C876.036 274.876 990.644 152.304 990.644 152.304" stroke="#275C70" stroke-width="2"/>
<path d="M213.462 703.898C213.462 703.898 355.66 735.646 433.083 553.435C510.506 371.224 551.881 573.488 643.18 405.902C734.479 238.316 818.998 284.154 849.335 282.819C879.672 281.484 994.281 158.913 994.281 158.913" stroke="#275C70" stroke-width="2"/>
<path d="M217.098 710.506C217.098 710.506 359.296 742.254 436.719 560.043C514.142 377.832 555.517 580.097 646.816 412.511C738.115 244.924 822.634 290.762 852.971 289.427C883.309 288.092 997.917 165.521 997.917 165.521" stroke="#275C70" stroke-width="2"/>
<path d="M220.735 717.115C220.735 717.115 362.933 748.863 440.356 566.652C517.779 384.441 559.154 586.705 650.453 419.119C741.751 251.533 826.271 297.37 856.608 296.036C886.945 294.701 1001.55 172.129 1001.55 172.129" stroke="#275C70" stroke-width="2"/>
<path d="M224.37 723.723C224.37 723.723 366.568 755.471 443.991 573.26C521.414 391.049 562.789 593.314 654.088 425.727C745.387 258.141 829.906 303.979 860.243 302.644C890.581 301.309 1005.19 178.738 1005.19 178.738" stroke="#275C70" stroke-width="2"/>
<path d="M228.006 730.331C228.006 730.331 370.204 762.078 447.627 579.868C525.05 397.657 566.425 599.921 657.724 432.335C749.022 264.749 833.542 310.586 863.879 309.251C894.216 307.917 1008.82 185.345 1008.82 185.345" stroke="#275C70" stroke-width="2"/>
<path d="M231.643 736.939C231.643 736.939 373.841 768.687 451.264 586.476C528.687 404.265 570.062 606.529 661.361 438.943C752.66 271.357 837.179 317.195 867.516 315.86C897.853 314.525 1012.46 191.954 1012.46 191.954" stroke="#275C70" stroke-width="2"/>
<path d="M235.279 743.547C235.279 743.547 377.477 775.295 454.9 593.084C532.323 410.873 573.698 613.138 664.997 445.552C756.295 277.965 840.815 323.803 871.152 322.468C901.489 321.133 1016.1 198.562 1016.1 198.562" stroke="#275C70" stroke-width="2"/>
<path d="M238.916 750.155C238.916 750.155 381.114 781.903 458.537 599.692C535.96 417.481 577.335 619.745 668.634 452.159C759.933 284.573 844.452 330.41 874.789 329.076C905.126 327.741 1019.73 205.169 1019.73 205.169" stroke="#275C70" stroke-width="2"/>
<path d="M242.552 756.763C242.552 756.763 384.75 788.511 462.173 606.3C539.596 424.089 580.972 626.354 672.27 458.767C763.569 291.181 848.088 337.019 878.425 335.684C908.763 334.349 1023.37 211.778 1023.37 211.778" stroke="#275C70" stroke-width="2"/>
<path d="M246.189 763.372C246.189 763.372 388.387 795.12 465.81 612.909C543.233 430.698 584.608 632.962 675.907 465.376C767.206 297.79 851.725 343.627 882.062 342.292C912.399 340.958 1027.01 218.386 1027.01 218.386" stroke="#275C70" stroke-width="2"/>
<path d="M249.824 769.979C249.824 769.979 392.022 801.727 469.445 619.516C546.868 437.305 588.244 639.569 679.542 471.983C770.841 304.397 855.36 350.235 885.697 348.9C916.035 347.565 1030.64 224.994 1030.64 224.994" stroke="#275C70" stroke-width="2"/>
<path d="M253.46 776.587C253.46 776.587 395.658 808.335 473.081 626.124C550.504 443.913 591.879 646.178 683.178 478.592C774.477 311.005 858.996 356.843 889.333 355.508C919.67 354.173 1034.28 231.602 1034.28 231.602" stroke="#275C70" stroke-width="2"/>
<path d="M257.096 783.197C257.096 783.197 399.294 814.945 476.717 632.734C554.14 450.523 595.515 652.787 686.814 485.201C778.112 317.615 862.632 363.452 892.969 362.118C923.306 360.783 1037.91 238.211 1037.91 238.211" stroke="#275C70" stroke-width="2"/>
<path d="M260.733 789.804C260.733 789.804 402.931 821.552 480.354 639.341C557.777 457.13 599.152 659.395 690.451 491.808C781.75 324.222 866.269 370.06 896.606 368.725C926.943 367.39 1041.55 244.819 1041.55 244.819" stroke="#275C70" stroke-width="2"/>
</g>
</svg>
