<svg width="202" height="62" viewBox="0 0 202 62" fill="none" xmlns="http://www.w3.org/2000/svg">
<rect x="0.5" y="1.21973" width="201" height="60" rx="9.5" fill="#00ADEF" stroke="url(#paint0_linear_922_33763)"/>
<path d="M78.784 45.2216H77.0111L76.8092 42.9798C76.4202 43.6822 75.7843 44.2875 74.9016 44.7957C74.0189 45.3038 72.9567 45.5579 71.715 45.5579C70.3535 45.5579 69.0968 45.2515 67.9448 44.6387C66.7928 44.011 65.8428 43.0546 65.0947 41.7693C64.3617 40.484 63.9951 38.982 63.9951 37.2633C63.9951 35.5446 64.3841 34.0427 65.1621 32.7574C65.94 31.4721 66.9125 30.5231 68.0795 29.9103C69.2614 29.2976 70.5256 28.9912 71.872 28.9912C73.5776 28.9912 75.0587 29.4321 76.3154 30.3139C77.5871 31.1807 78.4549 32.3389 78.9187 33.7886L76.9214 34.6405C76.5623 33.4897 75.9339 32.6005 75.0363 31.9728C74.1536 31.3301 73.0988 31.0088 71.872 31.0088C70.3311 31.0088 69.007 31.5543 67.8999 32.6453C66.7928 33.7363 66.2393 35.2756 66.2393 37.2633C66.2393 39.266 66.7778 40.8203 67.855 41.9262C68.9472 43.0172 70.2563 43.5627 71.7823 43.5627C72.6201 43.5627 73.3607 43.4282 74.004 43.1592C74.6623 42.8902 75.1709 42.5389 75.53 42.1055C75.904 41.6572 76.1808 41.2088 76.3603 40.7605C76.5548 40.3121 76.667 39.8638 76.6969 39.4154H71.1764V37.4427H78.784V45.2216ZM84.162 42.666C84.8203 43.3385 85.6207 43.6748 86.5633 43.6748C87.5058 43.6748 88.2987 43.3385 88.942 42.666C89.6003 41.9785 89.9295 41.0295 89.9295 39.8189C89.9295 38.6233 89.6003 37.6893 88.942 37.0167C88.2987 36.3293 87.5058 35.9855 86.5633 35.9855C85.6207 35.9855 84.8203 36.3293 84.162 37.0167C83.5187 37.6893 83.197 38.6233 83.197 39.8189C83.197 41.0295 83.5187 41.9785 84.162 42.666ZM82.5911 35.7389C83.6384 34.6479 84.9624 34.1024 86.5633 34.1024C88.1641 34.1024 89.4806 34.6479 90.5129 35.7389C91.5602 36.815 92.0838 38.175 92.0838 39.8189C92.0838 41.4778 91.5677 42.8528 90.5354 43.9438C89.5031 45.0198 88.179 45.5579 86.5633 45.5579C84.9475 45.5579 83.6234 45.0198 82.5911 43.9438C81.5588 42.8528 81.0427 41.4778 81.0427 39.8189C81.0427 38.175 81.5588 36.815 82.5911 35.7389ZM97.0045 42.666C97.6628 43.3385 98.4632 43.6748 99.4057 43.6748C100.348 43.6748 101.141 43.3385 101.785 42.666C102.443 41.9785 102.772 41.0295 102.772 39.8189C102.772 38.6233 102.443 37.6893 101.785 37.0167C101.141 36.3293 100.348 35.9855 99.4057 35.9855C98.4632 35.9855 97.6628 36.3293 97.0045 37.0167C96.3612 37.6893 96.0395 38.6233 96.0395 39.8189C96.0395 41.0295 96.3612 41.9785 97.0045 42.666ZM95.4336 35.7389C96.4809 34.6479 97.8049 34.1024 99.4057 34.1024C101.007 34.1024 102.323 34.6479 103.355 35.7389C104.403 36.815 104.926 38.175 104.926 39.8189C104.926 41.4778 104.41 42.8528 103.378 43.9438C102.346 45.0198 101.021 45.5579 99.4057 45.5579C97.7899 45.5579 96.4659 45.0198 95.4336 43.9438C94.4013 42.8528 93.8851 41.4778 93.8851 39.8189C93.8851 38.175 94.4013 36.815 95.4336 35.7389ZM106.84 45.8045L108.882 45.3337C108.957 46.0959 109.263 46.7236 109.802 47.2168C110.341 47.7249 111.014 47.979 111.822 47.979C114.021 47.979 115.121 46.8132 115.121 44.4818V42.935C114.851 43.4581 114.425 43.884 113.842 44.2128C113.273 44.5416 112.6 44.706 111.822 44.706C110.386 44.706 109.196 44.2203 108.254 43.2488C107.326 42.2625 106.862 41.0071 106.862 39.4827C106.862 38.0031 107.326 36.7627 108.254 35.7613C109.181 34.7451 110.371 34.2369 111.822 34.2369C113.467 34.2369 114.575 34.8049 115.143 35.9407V34.4387H117.23V44.4146C117.23 45.1319 117.133 45.797 116.939 46.4097C116.759 47.0374 116.467 47.6128 116.063 48.1359C115.659 48.659 115.091 49.07 114.358 49.3689C113.64 49.6678 112.794 49.8172 111.822 49.8172C110.49 49.8172 109.361 49.4361 108.433 48.6739C107.506 47.9267 106.974 46.9702 106.84 45.8045ZM112.136 42.935C113.049 42.935 113.789 42.6211 114.358 41.9935C114.926 41.3508 115.21 40.5139 115.21 39.4827C115.21 38.4515 114.926 37.622 114.358 36.9943C113.789 36.3517 113.049 36.0304 112.136 36.0304C111.208 36.0304 110.453 36.3442 109.869 36.9719C109.301 37.5996 109.017 38.4365 109.017 39.4827C109.017 40.5438 109.293 41.3882 109.847 42.0159C110.415 42.6286 111.178 42.935 112.136 42.935ZM122.708 45.2216H120.599V28.9912H122.708V45.2216ZM127.666 38.7205H133.568C133.538 37.9134 133.269 37.2559 132.76 36.7477C132.251 36.2246 131.533 35.9631 130.605 35.9631C129.768 35.9631 129.079 36.2396 128.541 36.7926C128.002 37.3306 127.711 37.9732 127.666 38.7205ZM133.882 41.5227L135.7 42.1504C135.385 43.1517 134.802 43.9737 133.949 44.6163C133.096 45.244 132.064 45.5579 130.852 45.5579C129.341 45.5579 128.055 45.0423 126.992 44.011C125.945 42.9649 125.421 41.56 125.421 39.7965C125.421 38.1526 125.93 36.7926 126.948 35.7165C127.965 34.6405 129.177 34.1024 130.583 34.1024C132.214 34.1024 133.485 34.618 134.398 35.6493C135.311 36.6655 135.767 38.033 135.767 39.7517C135.767 40.0207 135.752 40.2449 135.722 40.4242H127.598C127.613 41.3807 127.927 42.1653 128.541 42.7781C129.169 43.3908 129.94 43.6972 130.852 43.6972C132.393 43.6972 133.403 42.9724 133.882 41.5227ZM146.494 36.7477H149.681C150.623 36.7477 151.371 36.5086 151.925 36.0304C152.478 35.5372 152.755 34.8796 152.755 34.0576C152.755 33.2207 152.478 32.5556 151.925 32.0624C151.371 31.5543 150.623 31.3002 149.681 31.3002H146.494V36.7477ZM150.085 38.7205H146.494V45.2216H144.295V29.3275H150.085C151.536 29.3275 152.718 29.7758 153.63 30.6725C154.543 31.5692 154.999 32.6901 154.999 34.0352C154.999 35.3952 154.543 36.5161 153.63 37.3978C152.718 38.2796 151.536 38.7205 150.085 38.7205ZM159.351 45.2216H157.241V28.9912H159.351V45.2216ZM162.266 42.3297C162.266 41.4031 162.565 40.6633 163.164 40.1104C163.762 39.5425 164.555 39.1912 165.542 39.0567L168.46 38.6308C169.013 38.5561 169.29 38.2871 169.29 37.8238C169.29 37.2559 169.096 36.7926 168.707 36.4339C168.318 36.0752 167.734 35.8958 166.956 35.8958C166.238 35.8958 165.67 36.0976 165.251 36.5011C164.832 36.8897 164.585 37.4128 164.51 38.0704L162.49 37.5996C162.595 36.5684 163.066 35.7315 163.904 35.0888C164.742 34.4312 165.744 34.1024 166.911 34.1024C168.437 34.1024 169.567 34.4761 170.3 35.2233C171.033 35.9556 171.4 36.8972 171.4 38.0479V43.4506C171.4 44.0932 171.445 44.6836 171.534 45.2216H169.47C169.395 44.7732 169.357 44.2875 169.357 43.7644C169.058 44.2427 168.617 44.6612 168.033 45.0198C167.465 45.3785 166.747 45.5579 165.879 45.5579C164.817 45.5579 163.949 45.244 163.276 44.6163C162.603 43.9737 162.266 43.2115 162.266 42.3297ZM166.171 43.7869C167.113 43.7869 167.869 43.5328 168.437 43.0247C169.006 42.5165 169.29 41.7095 169.29 40.6036V40.1104L165.991 40.6036C165.513 40.6783 165.131 40.8502 164.847 41.1192C164.562 41.3882 164.42 41.7543 164.42 42.2176C164.42 42.6361 164.577 43.0022 164.892 43.3161C165.221 43.6299 165.647 43.7869 166.171 43.7869ZM177.161 49.7275H174.849L177.542 44.0335L172.897 34.4387H175.32L178.687 41.8814L181.918 34.4387H184.185L177.161 49.7275Z" fill="white"/>
<path opacity="0.6" d="M70.2348 20.6693V17.518H67.2084V18.5429H69.1234C69.055 18.9699 68.619 19.7214 67.4991 19.7214C66.4817 19.7214 65.5841 19.0126 65.5841 17.6461C65.5841 16.2114 66.5758 15.588 67.4905 15.588C68.4737 15.588 68.9781 16.2114 69.132 16.7494L70.2604 16.3481C69.9612 15.4172 69.0807 14.4863 67.4905 14.4863C65.8491 14.4863 64.3872 15.6905 64.3872 17.6461C64.3872 19.6018 65.7807 20.7974 67.4136 20.7974C68.3283 20.7974 68.9268 20.3875 69.2004 19.9776L69.2773 20.6693H70.2348ZM76.824 20.6693V19.5591H74.208V18.1586H76.5761V17.1081H74.208V15.7246H76.824V14.6144H73.0282V20.6693H76.824ZM84.1698 15.7332V14.6144H79.1515V15.7332H81.0665V20.6693H82.2548V15.7332H84.1698ZM91.5153 20.6693V14.6144H90.3185V20.6693H91.5153ZM98.9638 15.7332V14.6144H93.9455V15.7332H95.8605V20.6693H97.0488V15.7332H98.9638ZM105.976 17.6376C105.976 16.2712 106.933 15.6222 107.865 15.6222C108.806 15.6222 109.763 16.2712 109.763 17.6376C109.763 19.004 108.806 19.6531 107.865 19.6531C106.933 19.6531 105.976 19.004 105.976 17.6376ZM104.753 17.6461C104.753 19.5933 106.224 20.7974 107.865 20.7974C109.515 20.7974 110.986 19.5933 110.986 17.6461C110.986 15.6905 109.515 14.4863 107.865 14.4863C106.224 14.4863 104.753 15.6905 104.753 17.6461ZM118.784 20.6693V14.6144H117.604V18.6197L115.082 14.6144H113.611V20.6693H114.791V16.3737L117.544 20.6693H118.784Z" fill="white"/>
<path d="M29.9199 44.7846C29.2869 45.1933 28.5267 45.3168 27.8135 45.1485L40.3455 32.6299L44.4071 36.6872L29.9199 44.7846Z" fill="white"/>
<path d="M26.2582 44.1311C25.9087 43.667 25.7075 43.097 25.7075 42.4941V20.1946C25.7075 19.5917 25.9087 19.0218 26.2582 18.5576L39.0585 31.3443L26.2582 44.1311Z" fill="white"/>
<path d="M49.7083 33.7247L46.0579 35.7649L41.6328 31.3445L46.0583 26.9238L49.7089 28.9643C50.5835 29.4537 51.1056 30.3435 51.1056 31.3445C51.1056 32.3455 50.5835 33.2351 49.7083 33.7247Z" fill="white"/>
<path d="M40.3456 30.059L27.8145 17.5411C28.0198 17.4927 28.229 17.4668 28.438 17.4668C28.9548 17.4668 29.4697 17.6136 29.9201 17.9043L44.4074 26.0016L40.3456 30.059Z" fill="white"/>
<defs>
<linearGradient id="paint0_linear_922_33763" x1="0" y1="0.719727" x2="188.037" y2="90.851" gradientUnits="userSpaceOnUse">
<stop stop-color="#6DDCFF"/>
<stop offset="1" stop-color="#7F60F9"/>
</linearGradient>
</defs>
</svg>
