<svg width="88" height="24" viewBox="0 0 88 24" fill="none" xmlns="http://www.w3.org/2000/svg">
<path d="M28.1049 11.9778C28.1049 9.03159 26.9345 6.20605 24.8513 4.12278C22.768 2.03951 19.9425 0.869141 16.9963 0.869141C14.0501 0.86914 11.2246 2.03951 9.14135 4.12278C7.05807 6.20605 5.8877 9.03159 5.8877 11.9778H9.35919C10.5095 11.9778 11.4067 11.0138 11.828 9.94333C12.1046 9.24055 12.5244 8.5947 13.0688 8.05025C14.1104 7.00863 15.5232 6.42345 16.9963 6.42345C18.4694 6.42345 19.8822 7.00863 20.9238 8.05025C21.9655 9.09189 22.5506 10.5047 22.5506 11.9778H28.1049Z" fill="url(#paint0_linear_922_33464)"/>
<path d="M21.7054 16.2296C22.2637 14.8818 22.551 13.4373 22.551 11.9785H28.1048C28.1048 18.1136 23.1312 23.0871 16.9961 23.0871C16.0353 23.0871 15.103 22.9651 14.2139 22.7358C14.7169 22.6062 15.2114 22.4411 15.6935 22.2415C17.0412 21.6832 18.2658 20.865 19.2974 19.8335C20.3289 18.8019 21.1472 17.5773 21.7054 16.2296Z" fill="#FBCF8E"/>
<path d="M0.333984 11.9785C0.333984 13.4374 0.621317 14.8819 1.17958 16.2296C1.73784 17.5774 2.55609 18.802 3.58762 19.8335C4.61915 20.865 5.84376 21.6833 7.19151 22.2416C8.53926 22.7998 9.98377 23.0871 11.4426 23.0871C12.9014 23.0871 14.3459 22.7998 15.6937 22.2416C17.0414 21.6833 18.266 20.865 19.2976 19.8335C20.3291 18.802 21.1473 17.5774 21.7056 16.2296C22.2639 14.8819 22.5512 13.4374 22.5512 11.9785H19.0797C17.9294 11.9785 17.0323 12.9425 16.6109 14.0129C16.599 14.0434 16.5866 14.0737 16.5741 14.1041C16.295 14.778 15.8859 15.3903 15.3701 15.906C14.8543 16.4218 14.242 16.8309 13.5681 17.1101C12.8943 17.3892 12.172 17.5329 11.4426 17.5329C10.7132 17.5329 9.99094 17.3892 9.31709 17.1101C8.64317 16.8309 8.0309 16.4218 7.5151 15.906C6.99934 15.3903 6.59022 14.778 6.31109 14.1041C6.03195 13.4302 5.88829 12.7079 5.88829 11.9785H0.333984Z" fill="url(#paint1_linear_922_33464)"/>
<path d="M0.335449 11.9778C0.335449 5.84262 5.30893 0.869141 11.444 0.869141C12.4046 0.869141 13.3367 0.991054 14.2257 1.22026C12.3181 1.71168 10.5583 2.70618 9.14168 4.12279C7.05842 6.20603 5.88807 9.03159 5.88807 11.9778H0.335449Z" fill="#73E5E2"/>
<path d="M39.0747 6.31116V12.0815H40.3408C40.7628 12.0815 41.0874 11.9679 41.3147 11.7406C41.5419 11.5134 41.6555 11.0914 41.6555 10.4746V7.91808C41.6555 7.30128 41.5419 6.87926 41.3147 6.65202C41.0874 6.42478 40.7628 6.31116 40.3408 6.31116H39.0747ZM40.3408 3.87642C41.688 3.87642 42.6862 4.23351 43.3355 4.9477C44.001 5.66189 44.3337 6.70883 44.3337 8.08851V10.3041C44.3337 11.6838 44.001 12.7307 43.3355 13.4449C42.6862 14.1591 41.688 14.5162 40.3408 14.5162H39.0747V20.9196H36.3965V3.87642H40.3408Z" fill="#1A1A29"/>
<path d="M49.6847 6.31116V11.5458H50.7316C51.2348 11.5458 51.6244 11.416 51.9003 11.1563C52.1925 10.8966 52.3386 10.4259 52.3386 9.74413V8.06417C52.3386 7.44737 52.2249 7.001 51.9977 6.72506C51.7867 6.44912 51.4458 6.31116 50.9751 6.31116H49.6847ZM52.6064 20.9196C52.5739 20.806 52.5415 20.7004 52.509 20.6031C52.4765 20.5057 52.4441 20.3839 52.4116 20.2378C52.3954 20.0918 52.3791 19.9051 52.3629 19.6779C52.3629 19.4506 52.3629 19.1666 52.3629 18.8257V16.1475C52.3629 15.3521 52.2249 14.7922 51.949 14.4675C51.6731 14.1429 51.2267 13.9806 50.6099 13.9806H49.6847V20.9196H47.0065V3.87642H51.0482C52.4441 3.87642 53.4504 4.20105 54.0672 4.85031C54.7003 5.49958 55.0168 6.48159 55.0168 7.79634V9.13545C55.0168 10.8885 54.4324 12.0409 53.2638 12.5928C53.9455 12.8687 54.4081 13.3232 54.6516 13.9562C54.9113 14.573 55.0411 15.3278 55.0411 16.2205V18.85C55.0411 19.2721 55.0574 19.6454 55.0898 19.97C55.1223 20.2784 55.2034 20.5949 55.3333 20.9196H52.6064Z" fill="#1A1A29"/>
<path d="M60.9129 11.0589H64.5894V13.4936H60.9129V18.4848H65.5389V20.9196H58.2347V3.87642H65.5389V6.31116H60.9129V11.0589Z" fill="#1A1A29"/>
<path d="M68.2899 7.96678C68.2899 6.58709 68.6145 5.53204 69.2638 4.80162C69.9292 4.05497 70.9194 3.68164 72.2341 3.68164C73.5489 3.68164 74.5309 4.05497 75.1802 4.80162C75.8457 5.53204 76.1784 6.58709 76.1784 7.96678V8.62416H73.6463V7.79634C73.6463 7.17954 73.5245 6.74941 73.2811 6.50593C73.0538 6.24623 72.7292 6.11638 72.3072 6.11638C71.8852 6.11638 71.5524 6.24623 71.3089 6.50593C71.0817 6.74941 70.9681 7.17954 70.9681 7.79634C70.9681 8.38068 71.0979 8.90009 71.3576 9.35458C71.6173 9.79283 71.942 10.2148 72.3315 10.6206C72.7211 11.0102 73.135 11.4079 73.5732 11.8137C74.0277 12.2032 74.4497 12.6334 74.8393 13.1041C75.2289 13.5748 75.5535 14.1104 75.8132 14.711C76.0729 15.3116 76.2028 16.0176 76.2028 16.8292C76.2028 18.2089 75.8619 19.2721 75.1802 20.0187C74.5147 20.7491 73.5245 21.1144 72.2098 21.1144C70.895 21.1144 69.8968 20.7491 69.2151 20.0187C68.5496 19.2721 68.2168 18.2089 68.2168 16.8292V15.6605H70.7489V16.9996C70.7489 17.6164 70.8707 18.0466 71.1142 18.2901C71.3739 18.5335 71.7147 18.6553 72.1367 18.6553C72.5588 18.6553 72.8915 18.5335 73.135 18.2901C73.3947 18.0466 73.5245 17.6164 73.5245 16.9996C73.5245 16.4153 73.3947 15.904 73.135 15.4658C72.8753 15.0113 72.5506 14.5893 72.1611 14.1997C71.7715 13.7939 71.3495 13.3962 70.895 13.0067C70.4568 12.6009 70.0429 12.1626 69.6533 11.6919C69.2637 11.2212 68.9391 10.6856 68.6794 10.085C68.4197 9.48443 68.2899 8.77835 68.2899 7.96678Z" fill="#1A1A29"/>
<path d="M78.9503 7.96678C78.9503 6.58709 79.2993 5.53204 79.9972 4.80162C80.6952 4.05497 81.7015 3.68164 83.0163 3.68164C84.331 3.68164 85.3374 4.05497 86.0354 4.80162C86.7333 5.53204 87.0823 6.58709 87.0823 7.96678V16.8292C87.0823 18.2089 86.7333 19.2721 86.0354 20.0187C85.3374 20.7491 84.331 21.1144 83.0163 21.1144C81.7015 21.1144 80.6952 20.7491 79.9972 20.0187C79.2993 19.2721 78.9503 18.2089 78.9503 16.8292V7.96678ZM81.6285 16.9996C81.6285 17.6164 81.7502 18.0547 81.9937 18.3144C82.2534 18.5579 82.5943 18.6796 83.0163 18.6796C83.4383 18.6796 83.771 18.5579 84.0145 18.3144C84.2742 18.0547 84.4041 17.6164 84.4041 16.9996V7.79634C84.4041 7.17954 84.2742 6.74941 84.0145 6.50593C83.771 6.24623 83.4383 6.11638 83.0163 6.11638C82.5943 6.11638 82.2534 6.24623 81.9937 6.50593C81.7502 6.74941 81.6285 7.17954 81.6285 7.79634V16.9996Z" fill="#1A1A29"/>
<defs>
<linearGradient id="paint0_linear_922_33464" x1="28.1049" y1="6.42345" x2="5.8877" y2="6.42345" gradientUnits="userSpaceOnUse">
<stop stop-color="#73E5E2"/>
<stop offset="1" stop-color="#394F87"/>
</linearGradient>
<linearGradient id="paint1_linear_922_33464" x1="0.333985" y1="17.5329" x2="22.5512" y2="17.5329" gradientUnits="userSpaceOnUse">
<stop stop-color="#FBDC8E"/>
<stop offset="1" stop-color="#FB958E"/>
</linearGradient>
</defs>
</svg>
