<svg width="662" height="552" viewBox="0 0 662 552" fill="none" xmlns="http://www.w3.org/2000/svg">
<path d="M662 280.5C662 435.416 536.455 361 360 361C183.545 361 0 558.916 0 404C0 249.084 69.545 46.5 246 46.5C422.455 46.5 662 125.584 662 280.5Z" fill="#EDFAFF"/>
<path fill-rule="evenodd" clip-rule="evenodd" d="M440.813 38.8056C445.312 41.3724 451.853 45.0432 457.594 44.3256C458.303 44.2019 458.974 43.9168 459.555 43.4924C460.136 43.068 460.612 42.5156 460.945 41.8779C461.279 41.2403 461.461 40.5345 461.478 39.8151C461.495 39.0957 461.347 38.382 461.044 37.7292C459.444 34.3683 457.035 31.4569 454.033 29.256V28.566C459.553 26.8272 467.088 23.9016 464.604 18.6852C463.944 17.1948 462.782 15.9835 461.32 15.2628C455.248 12.3096 446.968 14.49 440.896 16.0908C435.652 17.4984 430.739 18.216 429.055 22.4664C425.826 30.1668 432.892 34.2792 440.813 38.8056ZM461.899 17.8296C466.591 22.1628 458.698 25.0332 455.745 26.1096C455.277 26.268 454.797 26.388 454.309 26.4684C454.412 24.6278 453.96 22.7986 453.01 21.2187C452.06 19.6387 450.657 18.381 448.983 17.6088C447.423 17.3089 445.847 17.0969 444.263 16.974C449.038 16.008 458.311 14.49 461.899 17.8296ZM445.201 37.5084C447.085 37.5289 448.921 36.9213 450.42 35.7817C451.92 34.6422 452.997 33.0355 453.481 31.2156C455.895 33.0231 457.867 35.3538 459.25 38.0328C459.995 39.5232 459.664 42.4764 457.511 42.5592C451.551 42.3152 445.794 40.3289 440.951 36.846C442.348 37.1813 443.769 37.4028 445.201 37.5084ZM388.511 142.223C390.436 142.787 392.289 143.574 394.031 144.569C394.082 144.616 394.141 144.653 394.206 144.677C394.271 144.701 394.34 144.712 394.409 144.709C394.479 144.707 394.547 144.691 394.609 144.662C394.672 144.633 394.729 144.592 394.776 144.541C394.823 144.49 394.86 144.431 394.884 144.366C394.908 144.301 394.919 144.232 394.917 144.163C394.914 144.094 394.898 144.026 394.869 143.963C394.84 143.9 394.799 143.843 394.749 143.796C393.654 142.116 392.076 140.807 390.222 140.042C388.652 139.353 386.955 138.997 385.24 138.997C383.525 138.997 381.829 139.353 380.259 140.042L379.541 140.456C377.14 142.333 383.488 140.76 388.511 142.223ZM326.521 220.579C328.331 219.332 329.587 217.433 330.027 215.28C330.045 214.879 329.931 214.483 329.701 214.153C329.472 213.824 329.14 213.58 328.757 213.458C327.073 213.1 324.672 215.142 323.982 217.709C323.541 219.448 324.424 222.014 326.521 220.579ZM308.471 248.759C310.426 247.748 311.911 246.015 312.611 243.929C312.679 243.535 312.616 243.131 312.431 242.776C312.247 242.422 311.951 242.139 311.59 241.969C309.961 241.39 307.312 243.101 306.318 245.585C305.628 247.268 306.18 249.946 308.471 248.759ZM438.936 230.515C438.658 230.299 438.305 230.203 437.956 230.247C437.607 230.291 437.289 230.472 437.073 230.75C436.857 231.028 436.761 231.381 436.805 231.73C436.849 232.079 437.03 232.397 437.308 232.613C438.084 233.243 438.937 233.772 439.847 234.186C440.008 234.251 440.181 234.284 440.355 234.283C440.529 234.281 440.701 234.245 440.861 234.178C441.021 234.11 441.166 234.011 441.288 233.887C441.41 233.763 441.507 233.616 441.572 233.455C441.637 233.293 441.67 233.121 441.669 232.947C441.667 232.773 441.631 232.601 441.564 232.441C441.496 232.28 441.397 232.135 441.273 232.013C441.149 231.891 441.002 231.795 440.841 231.73C440.157 231.406 439.517 230.998 438.936 230.515ZM429.607 220.027C429.452 220.103 429.313 220.21 429.199 220.341C429.085 220.471 428.999 220.623 428.945 220.788C428.891 220.953 428.87 221.127 428.884 221.299C428.899 221.472 428.947 221.64 429.028 221.794C429.442 222.649 429.883 223.422 430.297 224.167C430.489 224.43 430.77 224.614 431.088 224.683C431.406 224.752 431.739 224.701 432.022 224.541C432.305 224.381 432.519 224.122 432.624 223.814C432.728 223.505 432.715 223.169 432.588 222.87C432.174 222.152 431.76 221.407 431.374 220.607C431.214 220.298 430.94 220.064 430.609 219.955C430.279 219.847 429.919 219.873 429.607 220.027ZM425.219 211.72C425.34 212.021 425.568 212.266 425.858 212.411C426.149 212.555 426.482 212.588 426.795 212.503C427.108 212.418 427.379 212.221 427.557 211.949C427.734 211.678 427.806 211.35 427.758 211.03C427.51 210.202 427.289 209.374 427.096 208.518C427.064 208.34 426.995 208.17 426.895 208.019C426.795 207.868 426.665 207.74 426.513 207.641C426.361 207.543 426.19 207.476 426.011 207.446C425.833 207.416 425.65 207.423 425.474 207.467C425.298 207.51 425.133 207.589 424.989 207.699C424.845 207.809 424.725 207.947 424.636 208.105C424.548 208.263 424.493 208.438 424.474 208.618C424.456 208.798 424.474 208.98 424.529 209.153C424.75 210.036 424.971 210.892 425.219 211.72ZM420.941 194.552C420.594 194.587 420.275 194.758 420.053 195.026C419.831 195.295 419.723 195.64 419.754 195.988C419.754 196.622 419.975 198.002 420.058 198.748C420.075 198.921 420.127 199.089 420.21 199.242C420.293 199.395 420.407 199.53 420.543 199.638C420.68 199.746 420.837 199.825 421.004 199.872C421.172 199.918 421.348 199.93 421.521 199.907C421.863 199.859 422.172 199.679 422.384 199.406C422.595 199.132 422.692 198.787 422.652 198.444C422.652 197.782 422.431 196.54 422.376 195.877C422.373 195.695 422.333 195.515 422.258 195.348C422.183 195.182 422.075 195.032 421.941 194.908C421.807 194.785 421.649 194.689 421.478 194.628C421.306 194.567 421.123 194.541 420.941 194.552ZM422.155 186.024C422.404 185.224 422.652 184.478 422.928 183.706C422.99 183.552 423.021 183.387 423.018 183.221C423.016 183.055 422.98 182.892 422.913 182.74C422.846 182.588 422.749 182.451 422.629 182.338C422.508 182.224 422.366 182.135 422.211 182.077C421.899 181.96 421.554 181.969 421.25 182.103C420.945 182.237 420.705 182.486 420.582 182.795C420.251 183.623 419.975 184.451 419.727 185.306C419.658 185.62 419.711 185.948 419.874 186.224C420.038 186.5 420.299 186.704 420.607 186.795C420.915 186.886 421.246 186.857 421.533 186.714C421.82 186.571 422.043 186.324 422.155 186.024ZM399.496 157.32C399.803 157.449 400.15 157.453 400.46 157.329C400.77 157.205 401.018 156.964 401.152 156.658C401.483 155.912 401.814 155.167 402.201 154.45C402.357 154.153 402.389 153.806 402.291 153.486C402.193 153.165 401.972 152.897 401.676 152.738C401.378 152.589 401.034 152.561 400.716 152.658C400.397 152.756 400.128 152.972 399.965 153.263C399.551 154.063 399.165 154.836 398.833 155.664C398.704 155.972 398.701 156.318 398.825 156.628C398.949 156.938 399.19 157.186 399.496 157.32ZM384.73 149.951C385.04 149.197 385.39 148.46 385.779 147.743C385.873 147.595 385.936 147.429 385.963 147.256C385.99 147.083 385.981 146.906 385.936 146.737C385.891 146.567 385.812 146.409 385.703 146.271C385.595 146.134 385.458 146.021 385.304 145.938C385.149 145.856 384.979 145.807 384.804 145.794C384.629 145.781 384.454 145.804 384.288 145.862C384.123 145.92 383.971 146.011 383.843 146.131C383.715 146.25 383.613 146.395 383.543 146.556C383.129 147.356 382.743 148.129 382.411 148.93C382.331 149.084 382.282 149.253 382.27 149.426C382.257 149.6 382.28 149.774 382.337 149.938C382.395 150.103 382.486 150.253 382.604 150.381C382.722 150.509 382.865 150.611 383.024 150.681C383.183 150.751 383.355 150.788 383.529 150.789C383.703 150.79 383.876 150.755 384.035 150.686C384.195 150.618 384.34 150.517 384.459 150.391C384.578 150.264 384.671 150.114 384.73 149.951ZM433.03 170.678C432.897 170.567 432.743 170.484 432.577 170.434C432.411 170.383 432.237 170.367 432.064 170.385C431.892 170.403 431.725 170.455 431.573 170.539C431.421 170.622 431.288 170.736 431.181 170.872C430.629 171.589 430.077 172.279 429.552 173.024C429.394 173.31 429.347 173.644 429.42 173.963C429.492 174.281 429.68 174.561 429.947 174.749C430.214 174.938 430.541 175.021 430.866 174.982C431.19 174.944 431.489 174.788 431.705 174.542C432.202 173.88 432.699 173.19 433.251 172.5C433.356 172.366 433.433 172.212 433.479 172.048C433.525 171.884 433.538 171.713 433.518 171.543C433.497 171.374 433.443 171.211 433.36 171.062C433.276 170.914 433.164 170.783 433.03 170.678ZM442.414 161.46C442.293 161.337 442.149 161.24 441.99 161.173C441.832 161.107 441.661 161.073 441.489 161.073C441.317 161.073 441.147 161.107 440.988 161.173C440.829 161.24 440.685 161.337 440.565 161.46L438.55 163.226C438.427 163.347 438.33 163.491 438.263 163.65C438.197 163.809 438.162 163.979 438.162 164.151C438.162 164.323 438.197 164.493 438.263 164.652C438.33 164.811 438.427 164.955 438.55 165.076C438.671 165.198 438.814 165.296 438.973 165.362C439.132 165.429 439.302 165.463 439.474 165.463C439.646 165.463 439.817 165.429 439.976 165.362C440.134 165.296 440.278 165.198 440.399 165.076L442.359 163.364C442.493 163.247 442.603 163.103 442.679 162.941C442.755 162.779 442.798 162.603 442.803 162.424C442.808 162.245 442.776 162.067 442.709 161.901C442.642 161.736 442.542 161.585 442.414 161.46ZM451.191 153.346C450.473 153.815 449.728 154.312 449.01 154.836C448.725 155.034 448.529 155.337 448.467 155.678C448.405 156.02 448.481 156.372 448.679 156.658C448.877 156.943 449.18 157.138 449.521 157.2C449.863 157.263 450.215 157.186 450.501 156.989L452.653 155.526C452.823 155.443 452.973 155.324 453.093 155.178C453.213 155.032 453.3 154.862 453.349 154.68C453.398 154.497 453.407 154.306 453.377 154.12C453.346 153.933 453.275 153.756 453.17 153.599C453.064 153.442 452.927 153.309 452.766 153.21C452.605 153.11 452.425 153.047 452.238 153.023C452.05 152.999 451.86 153.015 451.679 153.071C451.499 153.127 451.332 153.22 451.191 153.346ZM462.589 146.556L460.271 147.826C460.099 147.899 459.945 148.007 459.818 148.144C459.691 148.281 459.594 148.443 459.534 148.62C459.475 148.796 459.453 148.984 459.47 149.169C459.488 149.355 459.544 149.535 459.636 149.698C459.728 149.86 459.854 150.001 460.004 150.112C460.154 150.222 460.326 150.3 460.508 150.34C460.691 150.379 460.88 150.38 461.062 150.341C461.245 150.303 461.417 150.226 461.568 150.116C462.313 149.675 463.086 149.261 463.831 148.874C463.986 148.793 464.122 148.682 464.234 148.548C464.345 148.414 464.429 148.259 464.48 148.092C464.531 147.925 464.549 147.75 464.533 147.577C464.516 147.403 464.465 147.234 464.383 147.08C464.302 146.926 464.191 146.789 464.056 146.678C463.921 146.568 463.765 146.486 463.598 146.437C463.43 146.388 463.255 146.373 463.081 146.394C462.908 146.414 462.741 146.469 462.589 146.556ZM473.188 144.265L475.589 143.216C475.892 143.065 476.126 142.804 476.242 142.485C476.358 142.167 476.348 141.817 476.214 141.506C476.08 141.195 475.831 140.947 475.52 140.813C475.209 140.68 474.858 140.671 474.54 140.788L472.111 141.864C471.833 142.03 471.625 142.293 471.527 142.603C471.43 142.912 471.449 143.247 471.582 143.543C471.715 143.839 471.952 144.076 472.248 144.21C472.544 144.343 472.878 144.362 473.188 144.265ZM483.4 138.221C483.564 138.525 483.841 138.753 484.171 138.856C484.501 138.96 484.858 138.93 485.166 138.773L487.512 137.531C487.819 137.362 488.046 137.078 488.145 136.742C488.243 136.406 488.204 136.044 488.037 135.737C487.863 135.435 487.579 135.213 487.245 135.115C486.911 135.017 486.552 135.052 486.243 135.212L483.952 136.454C483.647 136.619 483.419 136.895 483.316 137.225C483.213 137.555 483.243 137.913 483.4 138.221ZM495.13 129.72C494.846 129.925 494.652 130.233 494.591 130.578C494.529 130.923 494.603 131.278 494.799 131.569C494.999 131.851 495.302 132.044 495.642 132.106C495.982 132.168 496.333 132.094 496.62 131.9C497.365 131.404 498.083 130.879 498.801 130.355C499.035 130.134 499.18 129.835 499.21 129.514C499.239 129.194 499.151 128.873 498.962 128.613C498.773 128.352 498.495 128.17 498.181 128.099C497.867 128.029 497.537 128.075 497.255 128.23C496.565 128.782 495.847 129.278 495.13 129.72ZM507.246 119.977L505.342 121.744C505.118 121.986 504.993 122.304 504.991 122.634C504.989 122.964 505.111 123.283 505.332 123.528C505.553 123.774 505.858 123.927 506.186 123.96C506.515 123.992 506.844 123.901 507.108 123.703L509.04 121.882C509.165 121.764 509.266 121.623 509.336 121.466C509.407 121.309 509.446 121.14 509.451 120.968C509.456 120.797 509.427 120.626 509.366 120.465C509.305 120.304 509.213 120.157 509.095 120.032C508.978 119.907 508.836 119.807 508.68 119.736C508.523 119.666 508.354 119.627 508.182 119.622C508.01 119.617 507.839 119.645 507.679 119.706C507.518 119.767 507.371 119.859 507.246 119.977ZM514.477 114.264C514.61 114.375 514.765 114.458 514.93 114.509C515.096 114.559 515.27 114.576 515.443 114.558C515.615 114.54 515.782 114.487 515.934 114.404C516.086 114.32 516.219 114.207 516.327 114.071C516.906 113.381 517.458 112.691 518.01 111.973C518.114 111.837 518.19 111.683 518.233 111.517C518.277 111.352 518.287 111.18 518.264 111.011C518.241 110.842 518.185 110.679 518.099 110.531C518.013 110.384 517.898 110.255 517.762 110.152C517.484 109.944 517.137 109.852 516.793 109.893C516.449 109.934 516.134 110.106 515.913 110.372C515.388 111.062 514.864 111.752 514.312 112.415C514.092 112.683 513.985 113.027 514.016 113.373C514.047 113.719 514.213 114.039 514.477 114.264ZM522.04 103.528C522.347 103.695 522.709 103.734 523.045 103.636C523.381 103.537 523.665 103.31 523.834 103.003C524.248 102.23 524.662 101.43 525.048 100.63C525.128 100.474 525.175 100.305 525.187 100.131C525.199 99.9569 525.177 99.7823 525.12 99.6174C525.063 99.4525 524.974 99.3007 524.857 99.1711C524.741 99.0416 524.599 98.9368 524.441 98.8632C524.288 98.7843 524.12 98.7374 523.948 98.7254C523.776 98.7134 523.604 98.7365 523.441 98.7933C523.278 98.8501 523.129 98.9394 523.002 99.0559C522.875 99.1723 522.773 99.3133 522.702 99.4704L521.515 101.761C521.433 101.911 521.381 102.077 521.363 102.247C521.345 102.417 521.361 102.589 521.409 102.754C521.458 102.918 521.539 103.071 521.647 103.204C521.755 103.337 521.889 103.447 522.04 103.528ZM527.201 91.4664C527.541 91.5425 527.897 91.4845 528.195 91.3046C528.493 91.1246 528.711 90.8366 528.802 90.5004C528.995 89.6172 529.188 88.734 529.354 87.7404C529.411 87.3973 529.334 87.0453 529.139 86.7575C528.944 86.4696 528.645 86.2681 528.305 86.1948C527.958 86.1381 527.603 86.2188 527.314 86.4197C527.025 86.6207 526.827 86.9261 526.759 87.2712C526.621 88.0992 526.428 88.9272 526.235 89.7552C526.176 89.9309 526.155 90.1168 526.173 90.3011C526.191 90.4854 526.247 90.664 526.338 90.8252C526.429 90.9864 526.553 91.1268 526.702 91.2372C526.85 91.3477 527.02 91.4257 527.201 91.4664ZM527.284 77.28C527.294 77.453 527.339 77.6221 527.416 77.7774C527.493 77.9327 527.6 78.0711 527.731 78.1843C527.862 78.2975 528.015 78.3833 528.18 78.4365C528.345 78.4898 528.519 78.5095 528.691 78.4944C529.038 78.4662 529.36 78.3027 529.587 78.0394C529.814 77.776 529.929 77.4339 529.906 77.0868C529.906 76.176 529.713 75.2652 529.602 74.3268C529.579 74.1556 529.521 73.9909 529.433 73.8423C529.345 73.6937 529.228 73.5641 529.089 73.4613C528.95 73.3584 528.792 73.2844 528.625 73.2434C528.457 73.2025 528.282 73.1955 528.112 73.2228C527.767 73.2774 527.457 73.463 527.247 73.7407C527.036 74.0184 526.94 74.3668 526.98 74.7132C527.118 75.5412 527.201 76.3692 527.284 77.28ZM524.137 64.998C524.287 65.3168 524.556 65.5643 524.886 65.6881C525.216 65.8118 525.581 65.8018 525.904 65.6604C526.216 65.5108 526.457 65.2452 526.575 64.9203C526.694 64.5953 526.681 64.2369 526.539 63.9216C526.152 63.0936 525.738 62.2656 525.297 61.4652C525.128 61.1614 524.846 60.937 524.512 60.8412C524.178 60.7455 523.82 60.7862 523.516 60.9546C523.213 61.123 522.988 61.4051 522.892 61.739C522.797 62.0728 522.837 62.431 523.006 62.7348C523.42 63.48 523.779 64.2528 524.137 64.998ZM516.961 54.5928C517.081 54.716 517.224 54.8145 517.381 54.8826C517.539 54.9507 517.709 54.987 517.88 54.9896C518.052 54.9921 518.223 54.9609 518.382 54.8975C518.542 54.8342 518.687 54.74 518.811 54.6204C518.934 54.5008 519.032 54.3581 519.1 54.2004C519.168 54.0428 519.205 53.8732 519.207 53.7015C519.21 53.5298 519.179 53.3593 519.115 53.1996C519.052 53.04 518.958 52.8944 518.838 52.7712C518.231 52.1364 517.596 51.5016 516.906 50.8944C516.779 50.7784 516.631 50.6886 516.469 50.6299C516.308 50.5713 516.136 50.5451 515.964 50.5528C515.793 50.5605 515.624 50.6019 515.468 50.6748C515.313 50.7476 515.173 50.8503 515.057 50.9772C514.941 51.1041 514.851 51.2525 514.792 51.4141C514.734 51.5757 514.708 51.7472 514.715 51.9189C514.723 52.0907 514.765 52.2592 514.837 52.4149C514.91 52.5706 515.013 52.7104 515.14 52.8264L516.961 54.5928ZM504.762 45.2364C505.507 45.678 506.253 46.1196 506.97 46.5888C507.117 46.6976 507.284 46.7749 507.462 46.8159C507.64 46.857 507.824 46.8608 508.004 46.8272C508.183 46.7936 508.354 46.7233 508.505 46.6207C508.655 46.5181 508.784 46.3854 508.881 46.2309C508.978 46.0765 509.042 45.9036 509.07 45.7231C509.097 45.5426 509.087 45.3585 509.039 45.1822C508.992 45.0059 508.909 44.8412 508.795 44.6986C508.681 44.5559 508.539 44.4383 508.378 44.3532L506.087 42.9732C505.786 42.8011 505.43 42.7539 505.094 42.8416C504.759 42.9293 504.471 43.145 504.293 43.4424C504.121 43.7434 504.074 44.0998 504.161 44.4352C504.249 44.7706 504.465 45.0582 504.762 45.2364ZM493.115 39.5784L495.516 40.5996C495.834 40.7165 496.185 40.7073 496.496 40.5737C496.807 40.4401 497.056 40.1924 497.19 39.8815C497.324 39.5705 497.334 39.2199 497.218 38.9017C497.102 38.5836 496.868 38.322 496.565 38.1708L494.109 37.1496C493.945 37.0543 493.763 36.9953 493.574 36.9764C493.386 36.9576 493.195 36.9794 493.016 37.0404C492.836 37.1014 492.672 37.2001 492.534 37.33C492.396 37.4598 492.288 37.6177 492.216 37.7931C492.144 37.9684 492.111 38.1571 492.119 38.3464C492.126 38.5357 492.174 38.7212 492.259 38.8904C492.344 39.0596 492.465 39.2086 492.612 39.3273C492.76 39.446 492.931 39.5316 493.115 39.5784ZM480.805 35.3556L483.317 36.1284C483.65 36.2232 484.007 36.1838 484.311 36.0187C484.616 35.8537 484.843 35.576 484.945 35.2452C485.001 35.0823 485.022 34.9098 485.008 34.7383C484.995 34.5668 484.947 34.3998 484.867 34.2475C484.787 34.0953 484.677 33.9608 484.543 33.8524C484.409 33.744 484.255 33.6638 484.09 33.6168L481.551 32.844C481.386 32.7933 481.212 32.776 481.041 32.7931C480.869 32.8102 480.703 32.8614 480.551 32.9436C480.399 33.0259 480.266 33.1375 480.158 33.2721C480.05 33.4066 479.97 33.5614 479.922 33.7272C479.872 33.8921 479.854 34.0654 479.871 34.2371C479.888 34.4087 479.94 34.5752 480.022 34.7269C480.104 34.8785 480.216 35.0122 480.35 35.1202C480.485 35.2281 480.64 35.3082 480.805 35.3556ZM468.137 32.1816L470.704 32.7612C471.044 32.8356 471.4 32.773 471.694 32.5871C471.989 32.4011 472.198 32.1067 472.277 31.7676C472.318 31.5989 472.324 31.4238 472.296 31.2527C472.268 31.0815 472.205 30.9177 472.113 30.771C472.02 30.6243 471.899 30.4977 471.756 30.3987C471.614 30.2996 471.453 30.2302 471.283 30.1944L468.689 29.6148C468.369 29.5902 468.052 29.6823 467.795 29.8739C467.538 30.0656 467.36 30.3439 467.292 30.6572C467.225 30.9705 467.273 31.2976 467.429 31.5779C467.584 31.8582 467.836 32.0727 468.137 32.1816Z" fill="#043547"/>
<path fill-rule="evenodd" clip-rule="evenodd" d="M593.8 192.262C591.857 188.395 588.938 185.103 585.331 182.711C581.725 180.32 577.556 178.912 573.238 178.627C563.909 178.048 560.625 178.158 535.647 178.048V170.844C535.647 170.844 551.048 169.243 553.532 169.05C553.387 164.479 552.926 159.923 552.152 155.416C552.152 155.25 551.268 155.085 550.689 155.085C551.627 155.085 538.324 154.312 523.089 154.257C522.903 154.235 522.714 154.25 522.534 154.303C522.354 154.355 522.186 154.442 522.04 154.56C521.543 155.085 521.598 153.429 521.709 178.048C505.365 177.498 489.003 177.978 472.719 179.483C467.434 179.797 462.482 182.164 458.919 186.079C453.733 192.143 450.518 199.643 449.7 207.58C448.403 215.639 443.822 257.95 444.65 263.001C429.893 274.575 418.026 289.418 409.984 306.36C406.948 312.819 405.761 318.642 407.224 323.721C404.608 322.488 401.814 321.677 398.944 321.319C398.944 321.319 398.64 320.519 398.502 319.939C397.84 317.179 402.891 317.345 405.209 319.249C405.458 319.525 405.872 319.249 405.623 318.863C402.339 314.088 394.39 317.179 398.364 321.292C394.859 321.126 393.866 323.113 395.301 325.57C393.231 326.508 393.7 328.854 395.301 330.593C398.061 333.353 401.207 333.353 400.821 332.249C400.782 332.124 400.699 332.019 400.586 331.952C400.474 331.886 400.341 331.864 400.214 331.89C398.42 332.332 394.859 328.661 395.632 327.391C396.405 326.122 406.672 327.585 405.954 334.899C405.513 341.302 387.821 336.996 385.613 321.871C385.613 321.54 385.448 321.43 384.923 320.905C384.399 320.381 382.798 318.753 380.811 316.821C384.44 312.778 388.514 309.158 392.955 306.029C393.745 308.253 395.2 310.18 397.122 311.549C397.409 311.683 397.718 311.768 398.033 311.797C400.827 312.308 403.672 312.475 406.506 312.294C406.572 312.305 406.638 312.303 406.703 312.288C406.767 312.273 406.828 312.246 406.882 312.207C406.936 312.169 406.981 312.12 407.016 312.064C407.051 312.008 407.075 311.945 407.086 311.88C407.097 311.815 407.095 311.748 407.08 311.684C407.065 311.619 407.037 311.558 406.999 311.505C406.961 311.451 406.912 311.405 406.856 311.37C406.8 311.335 406.737 311.311 406.672 311.301C403.961 310.243 401.121 309.556 398.226 309.258C396.765 307.999 395.408 306.624 394.169 305.146C395.577 304.152 397.785 302.386 396.653 301.033C383.484 285.66 373.199 268.035 366.293 249.007C367.452 232.447 366.293 207.607 358.703 192.427C361.242 192.841 365.769 193.504 367.977 192.427C368.486 192.191 368.902 191.791 369.157 191.29C369.412 190.79 369.492 190.219 369.384 189.667C373.46 190.896 377.833 190.691 381.777 189.088C396.184 181.636 409.956 153.208 413.075 132.949C414.4 132.811 415.835 132.204 415.2 130.576C414.897 129.831 413.434 129.941 413.572 129.058C413.71 128.175 417.188 127.678 415.752 125.994C415.024 125.481 414.197 125.124 413.324 124.945C411.723 124.035 413.13 123.124 413.324 123.069C413.517 123.013 414.152 122.875 414.4 122.406C414.523 121.983 414.523 121.533 414.4 121.109C414.207 119.619 411.64 120.667 410.978 119.784C409.46 118.018 414.897 117.438 412.578 115.644C411.336 114.678 408.466 116.527 407.666 115.092C406.865 113.657 411.06 112.029 408.438 110.179C406.589 108.91 404.022 112.553 402.918 110.373C402.394 109.407 403.912 108.661 404.188 107.971C404.281 107.632 404.286 107.274 404.204 106.932C404.122 106.589 403.955 106.273 403.719 106.012C403.443 105.653 402.477 105.791 402.118 106.012C401.207 106.509 399.772 108.247 398.558 107.309C396.736 105.901 400.048 104.908 398.364 103.362C398.165 103.117 397.922 102.911 397.647 102.755C396.432 102.148 395.522 102.948 394.556 103.5C393.81 103.887 395.273 103.721 394.556 103.5C393.866 103.252 394.804 102.672 394.942 102.286C395.012 101.943 394.952 101.586 394.774 101.285C394.595 100.984 394.311 100.76 393.976 100.657C392.541 100.161 391.851 102.617 390.112 101.596C389.45 101.209 390.112 100.602 390.36 100.243C390.481 100.047 390.557 99.8261 390.583 99.5969C390.609 99.3677 390.584 99.1355 390.511 98.9169C390.437 98.6983 390.316 98.4986 390.156 98.332C389.997 98.1653 389.803 98.0358 389.588 97.9526C386.828 97.1798 386 100.989 383.378 99.9122C381.418 99.0842 385.172 96.2414 382.66 95.5238C381.556 95.1926 380.976 95.6894 380.231 96.545C379.486 97.4006 379.403 98.3666 378.134 98.5322C375.594 98.891 377.085 96.407 376.754 95.5514C376.422 94.6958 375.705 94.6682 374.904 94.7786C372.586 95.1098 373.662 98.063 371.868 98.3114C370.074 98.5598 371.123 95.7998 369.522 96.131C367.508 96.545 370.406 98.891 368.253 99.3602C366.1 99.8294 367.811 96.269 365.493 96.7934C363.174 97.3178 364.472 100.161 362.733 100.74C360.994 101.32 362.291 98.9738 360.884 99.167C358.124 99.5258 359.09 101.927 358.4 102.396C356.937 103.114 357.213 100.326 355.64 100.519C352.493 100.961 353.818 103.721 352.88 105.515C352.217 106.785 350.616 104.521 349.761 105.708C348.905 106.895 350.368 107.916 349.761 109.103C349.43 109.793 348.27 108.22 346.752 109.71C345.234 111.201 345.759 112.663 345.98 114.264C346.283 116.665 343.22 114.457 342.75 115.893C342.392 116.776 344.517 118.432 343.716 119.039C342.916 119.646 342.695 118.542 341.232 119.481C339.77 120.419 339.742 121.495 340.791 122.737C341.26 123.289 342.226 123.648 341.674 124.752C341.122 125.856 339.88 124.449 338.914 125.608C337.7 127.319 341.398 126.933 340.57 128.561C339.742 130.189 337.644 130.051 337.644 130.051C335.988 132.397 339.273 133.419 340.404 134.633C341.536 135.847 338.721 136.537 338.666 137.559C338.666 139.711 340.322 139.629 340.791 140.181C341.26 140.733 339.494 140.871 339.825 142.306C340.02 142.806 340.368 143.232 340.819 143.524C341.269 143.816 341.8 143.96 342.336 143.934C342.133 144.134 341.981 144.38 341.895 144.652L295.886 131.459C255.7 119.536 199.424 145.259 195.201 182.519C175.881 197.395 153.801 233.22 150.02 251.767C142.485 279.864 143.754 302.331 151.179 322.147C159.459 344.503 181.539 396.088 181.539 396.088C181.539 396.088 144.61 483 147.094 513.857C147.094 515.679 145.052 534.391 145.024 534.667C149.274 535.275 169.036 537.841 176.764 538.145C180.932 538.592 185.146 538.024 189.046 536.489C192.22 534.75 188.328 528.54 187.5 527.464C181.484 519.57 173.921 520.398 165.862 520.729V520.233C173.726 520.251 181.576 519.577 189.322 518.218C191.916 517.197 240.658 473.423 256.97 426.089C262.49 409.777 253.851 345.718 255.755 345.304C258.515 344.724 270.135 407.983 261.027 428.269C259.472 431.502 257.673 434.612 255.645 437.571C255.645 437.571 252.443 441.076 248.91 490.314C248.91 490.59 244.55 516.948 244.494 517.224C244.439 517.5 286.888 526.829 289.151 521.061C289.698 518.657 289.438 516.141 288.41 513.9C287.382 511.66 285.644 509.821 283.466 508.668C277.946 504.335 273.005 504.859 266.74 504.639C267.044 503.479 267.513 501.879 268.065 499.809C274.899 499.897 281.708 498.967 288.268 497.049C295.886 484.049 312.473 443.615 313.108 397.413C313.605 362.554 290.393 311.687 286.833 304.097C298.895 292.246 308.994 278.55 316.751 263.525C327.791 296.259 351.472 316.6 374.711 322.065C374.884 322.107 375.063 322.114 375.239 322.086C375.414 322.057 375.582 321.994 375.732 321.899C376.754 320.767 378.492 318.642 379.79 317.373C380.756 318.477 382.798 320.878 383.709 322.009C385.254 339.453 406.81 345.055 408.162 335.285C409.587 334.075 410.624 332.471 411.143 330.676C415.111 334.34 419.959 336.913 425.217 338.147C430.474 339.38 435.962 339.231 441.144 337.714C449.368 335.316 456.844 330.861 462.866 324.769C468.744 319.249 495.599 285.025 498.332 278.484L529.934 276.607V508.779C526.015 499.285 520.673 490.443 514.091 482.559C513.992 482.45 513.859 482.377 513.714 482.353C513.568 482.328 513.419 482.352 513.289 482.422C513.159 482.492 513.056 482.603 512.997 482.737C512.937 482.872 512.924 483.023 512.96 483.166C512.96 483.166 517.1 495.945 519.639 504.087C516.467 500.164 513.018 496.474 509.316 493.047C509.206 492.956 509.068 492.904 508.926 492.898C508.783 492.892 508.642 492.932 508.524 493.013C508.406 493.094 508.317 493.211 508.271 493.346C508.225 493.482 508.223 493.628 508.268 493.764C508.268 493.764 512.435 504.473 514.008 509.055C512.242 507.592 502.665 499.781 501.009 501.299C500.894 501.417 500.83 501.576 500.83 501.741C500.83 501.905 500.894 502.064 501.009 502.182C503.685 504.915 506.054 507.932 508.074 511.18C512.49 518.577 510.144 520.564 511.745 520.536C511.923 520.529 512.092 520.453 512.215 520.325C512.339 520.196 512.408 520.025 512.408 519.846C512.132 516.51 511.032 513.295 509.206 510.49C505.287 503.921 501.864 502.044 505.176 504.087C508.574 506.362 511.845 508.822 514.974 511.456C515.057 511.502 515.148 511.53 515.241 511.538C515.335 511.546 515.43 511.534 515.518 511.503C515.607 511.471 515.688 511.421 515.756 511.356C515.824 511.291 515.878 511.212 515.913 511.125C516.006 510.809 516.006 510.474 515.913 510.159C515.306 508.061 512.325 500.25 510.724 496.027C523.448 508.365 520.439 510.573 522.206 511.097C522.3 511.121 522.399 511.125 522.495 511.108C522.591 511.092 522.683 511.055 522.764 511C522.845 510.945 522.913 510.874 522.964 510.791C523.016 510.707 523.049 510.614 523.061 510.517C523.061 509.717 516.906 490.507 515.526 486.257C521.046 493.599 527.864 504.39 529.851 513.333V523.986H541.36V518.052C546.326 507.929 554.976 500.088 565.538 496.138C565.262 496.441 550.496 511.539 552.014 517.114C552.053 517.295 552.162 517.454 552.316 517.557C552.471 517.66 552.659 517.699 552.842 517.666C554.718 517.279 559.438 507.868 577.682 502.845C575.308 504.887 571.278 508.365 570.202 509.055C567.028 511.373 561.729 517.666 561.646 519.653C561.635 519.772 561.66 519.892 561.72 519.995C561.779 520.099 561.869 520.182 561.977 520.233C562.391 520.481 562.64 520.233 563.054 519.957C565.51 518.218 574.839 511.677 577.847 512.091C576.522 514.05 572.907 518.135 572.962 521.751C572.993 521.9 573.074 522.034 573.192 522.13C573.311 522.226 573.458 522.279 573.611 522.279C573.763 522.279 573.911 522.226 574.029 522.13C574.147 522.034 574.228 521.9 574.259 521.751C574.259 517.914 579.282 513.084 579.365 511.953C579.448 510.821 578.289 510.821 577.488 510.821C574.066 510.821 566.78 515.817 563.992 517.749C568.353 511.125 572.852 509.137 580.11 502.486C580.856 501.796 580.414 501.216 579.945 501.161C578.73 501.023 566.586 503.121 553.697 515.32C557.81 503.203 567.056 497.932 567.911 495.337C568.077 494.813 567.69 494.344 566.669 494.482C556.402 495.779 547.736 505.273 542.409 514.188V276C544.893 276 596.753 271.915 596.753 271.915C597.147 271.889 597.518 271.721 597.798 271.442C598.077 271.163 598.245 270.791 598.271 270.397L601.031 228.611C601.031 216.301 599.762 202.833 593.8 192.262ZM168.015 523.075L166 532.901L147.315 530.886C148.198 525.366 148.502 522.606 148.805 518.521C153.682 519.542 158.645 520.096 163.626 520.177C163.295 521.419 162.964 522.109 163.626 522.717C164.289 523.324 164.344 523.075 168.015 523.075ZM365.272 185.831C364.509 185.873 363.744 185.873 362.981 185.831C362.705 185.831 353.652 184.727 353.376 184.727C351.996 184.727 351.389 186.852 353.57 187.239C359.09 188.205 363.947 188.232 364.61 188.425C368.253 189.391 368.501 191.185 362.733 190.992C356.964 190.799 348.574 188.619 347.525 189.115C345.113 190.175 342.811 191.469 340.653 192.979C339.599 188.083 337.541 183.46 334.608 179.4C336.237 178.848 342.06 177.855 342.06 177.855C342.204 177.838 342.338 177.776 342.443 177.676C342.548 177.576 342.617 177.445 342.64 177.303C343.059 174.82 343.734 172.387 344.655 170.044C345.124 168.995 346.118 167.008 347.415 167.008C347.801 167.008 347.718 168.25 347.691 168.636C347.12 171.491 346.355 174.304 345.4 177.054C345.366 177.211 345.368 177.374 345.407 177.531C345.447 177.687 345.521 177.832 345.625 177.954C345.729 178.077 345.86 178.174 346.008 178.238C346.155 178.302 346.316 178.332 346.476 178.324C351.058 177.805 355.665 177.538 360.276 177.523C361.85 177.523 367.094 177.855 367.425 179.4C367.59 180.145 367.259 180.256 366.486 180.421C362.221 180.77 357.933 180.705 353.68 180.228C353.397 180.187 353.108 180.24 352.859 180.38C352.609 180.52 352.413 180.738 352.3 181.001C352.3 181.001 352.107 182.491 353.404 182.657C359.172 183.375 362.181 182.657 365.382 183.623C366.128 183.844 367.756 184.423 367.701 185.086C367.646 185.748 365.907 185.776 365.272 185.831ZM383.129 175.84C383.107 175.856 383.083 175.868 383.056 175.875C383.03 175.881 383.003 175.883 382.976 175.879C382.949 175.875 382.923 175.866 382.899 175.852C382.876 175.838 382.856 175.82 382.839 175.798C382.823 175.777 382.811 175.752 382.804 175.726C382.798 175.699 382.796 175.672 382.8 175.645C382.804 175.618 382.813 175.592 382.827 175.569C382.841 175.545 382.859 175.525 382.881 175.509C383.243 175.183 383.55 174.8 383.792 174.377C385.254 171.617 378.023 171.893 374.96 171.893C374.917 171.877 374.881 171.849 374.855 171.812C374.829 171.775 374.816 171.731 374.816 171.686C374.816 171.641 374.829 171.597 374.855 171.56C374.881 171.523 374.917 171.495 374.96 171.479C384.702 169.63 386.966 173.494 383.129 175.84ZM341.895 145.48C341.992 145.633 342.127 145.758 342.286 145.845C342.446 145.932 342.624 145.977 342.806 145.977C344.324 145.977 344.103 146.887 344.13 147.053C344.379 147.881 343.468 148.488 344.324 149.206C345.179 149.923 346.2 148.819 347.084 149.206C347.249 149.206 347.553 150.862 348.16 151.027C348.767 151.193 355.17 154.339 352.714 150.448C346.2 140.236 357.323 134.605 363.147 146.473C363.644 147.412 367.784 122.185 367.784 122.185C398.337 118.101 410.232 128.561 411.75 131.625C410.618 137.165 409.059 142.609 407.086 147.909C406.354 147.292 405.493 146.845 404.567 146.602C403.641 146.358 402.673 146.324 401.732 146.501C400.757 146.686 399.823 147.041 398.972 147.55C398.843 147.586 398.735 147.672 398.67 147.789C398.606 147.905 398.59 148.043 398.627 148.171C398.663 148.299 398.749 148.407 398.866 148.472C398.982 148.537 399.119 148.552 399.248 148.516C400.103 148.516 401.538 148.681 401.814 148.709C403.526 148.709 405.651 149.095 406.01 150.751C402.457 160.461 397.4 169.551 391.023 177.689C391.216 176.861 391.382 176.005 391.52 175.15C392.016 172.086 391.023 167.643 384.951 164.745C388.622 166.042 390.83 166.815 392.789 163.917C395.825 159.418 397.812 147.357 397.895 146.915C397.917 146.853 397.926 146.788 397.923 146.723C397.919 146.658 397.903 146.594 397.875 146.535C397.847 146.476 397.807 146.423 397.758 146.379C397.71 146.336 397.653 146.302 397.592 146.28C397.53 146.258 397.465 146.249 397.399 146.253C397.334 146.256 397.27 146.272 397.211 146.301C397.152 146.329 397.1 146.368 397.056 146.417C397.012 146.465 396.978 146.522 396.957 146.584C394.031 152.711 392.679 159.445 390.719 162.537C390.057 163.585 389.698 163.641 387.959 163.365C382.191 162.537 381.749 162.316 381.611 162.978C381.614 163.197 381.704 163.405 381.86 163.558L381.363 163.392C366.21 159.114 355.226 171.341 355.502 175.343C352.3 175.536 349.319 175.895 347.636 176.088C348.712 172.39 351.03 165.048 347.139 165.241C343.247 165.435 341.867 172.942 341.343 176.64C338.883 177.18 336.466 177.9 334.112 178.793C332.704 176.64 333.008 176.778 331.6 176.861C327.69 170.48 325.84 163.05 326.301 155.581C326.767 151.158 328.513 146.967 331.324 143.52L341.895 145.48ZM330.275 142.941C328.01 145.14 326.277 147.827 325.206 150.797C324.134 153.767 323.754 156.941 324.093 160.08C324.398 166.129 326.61 171.926 330.413 176.64H328.15C322.05 172.169 319.87 152.049 327.902 142.03L330.275 142.941ZM295.416 133.087L326.88 142.085C317.027 151.828 319.263 171.341 326.632 177.082C311.148 177.772 299.694 177.993 286.75 180.863C296.907 174.57 299.336 162.481 298.37 150.503C298.37 150.371 298.317 150.245 298.224 150.152C298.131 150.059 298.004 150.006 297.873 150.006C297.741 150.006 297.615 150.059 297.521 150.152C297.428 150.245 297.376 150.371 297.376 150.503C296.576 162.647 294.23 173.218 284.68 180.256C281.506 182.602 283.079 181.498 273.833 184.341C273.705 184.381 273.598 184.47 273.536 184.589C273.474 184.708 273.462 184.847 273.502 184.975C273.542 185.103 273.632 185.21 273.751 185.272C273.87 185.335 274.009 185.347 274.137 185.307C295.251 179.152 304.497 179.538 331.959 178.6C336.927 186.328 338.666 189.171 339.88 200.183C334.94 205.51 317.607 216.743 308.609 221.739C277.283 238.961 240.492 247.931 215.266 222.925C161.391 169.63 242.397 117.963 295.416 133.087ZM335.298 206.807C333.863 210.699 325.197 230.957 321.802 235.787C306.098 258.115 301.544 259.44 301.24 259.771C298.529 259.974 295.816 259.419 293.402 258.171C300.771 248.4 312.28 240.12 322.244 216.163C327.212 212.934 331.904 209.512 335.298 206.807ZM268.341 507.123L265.581 516.865L247.53 513.691C248.741 508.419 249.662 503.084 250.29 497.711C255.399 498.796 260.586 499.479 265.802 499.753C263.842 505.77 263.649 505.798 264.118 506.46C264.587 507.123 265.36 506.874 268.341 507.123ZM374.849 319.608C367.481 317.616 360.476 314.467 354.094 310.279C336.88 298.882 324.014 282.01 317.579 262.393C322.775 252.223 327.105 241.633 330.524 230.736C330.575 230.582 330.563 230.415 330.49 230.27C330.418 230.125 330.291 230.015 330.137 229.963C329.983 229.912 329.816 229.924 329.671 229.997C329.526 230.069 329.416 230.196 329.364 230.35C319.012 258.063 303.545 283.585 283.769 305.587C257.549 325.708 183.747 308.568 150.903 253.147C154.491 238.602 177.371 200.707 195.063 184.147C194.152 196.843 199.396 210.754 213.5 224.719C242.507 253.396 286.253 239.375 320.56 217.212C309.989 239.292 298.232 247.351 290.614 257.757C290.522 257.876 290.455 258.012 290.416 258.157C290.377 258.303 290.368 258.454 290.388 258.603C290.409 258.752 290.459 258.896 290.535 259.025C290.612 259.155 290.714 259.268 290.835 259.357C293.518 261.246 296.786 262.117 300.053 261.814C301.224 261.57 302.327 261.071 303.282 260.351C309.624 255.173 315.119 249.036 319.566 242.163C326.996 230.898 332.734 218.605 336.596 205.675C338.407 204.285 340.097 202.743 341.646 201.066C341.789 200.856 341.848 200.6 341.812 200.349C341.536 197.92 341.232 195.877 340.874 194.056C343.207 192.668 345.643 191.459 348.16 190.44C349.485 190.44 353.68 191.544 357.461 192.207C357.213 191.599 367.342 210.616 364.03 249.035C364.03 250.415 374.132 278.981 394.114 301.944C386.9 306.905 380.415 312.85 374.849 319.608ZM524.276 156.961C529.078 156.299 550.082 156.327 550.578 156.354C550.882 159.39 551.765 167.532 551.765 167.532L533.163 169.05V207.166C531.635 206.461 529.96 206.133 528.279 206.21C526.598 206.287 524.96 206.766 523.503 207.607C524.055 184.92 524.303 157.789 524.276 156.961ZM522.482 216.274C522.661 214.183 523.581 212.226 525.076 210.754C525.163 210.674 525.276 210.63 525.393 210.63C525.511 210.63 525.624 210.674 525.711 210.754C524.962 212.44 524.353 214.185 523.889 215.97C523.889 217.461 524.883 223.201 523.53 220.993C522.591 219.612 522.216 217.923 522.482 216.274ZM472.112 246.634L474.402 246.827C474.677 246.887 474.921 247.044 475.089 247.271C475.256 247.497 475.335 247.777 475.311 248.057C475.288 248.338 475.163 248.6 474.96 248.795C474.757 248.99 474.49 249.105 474.209 249.118L471.891 248.925C471.634 248.847 471.412 248.683 471.263 248.46C471.114 248.237 471.046 247.969 471.072 247.702C471.098 247.435 471.216 247.186 471.406 246.996C471.595 246.806 471.845 246.688 472.112 246.661V246.634ZM453.399 205.068C456.38 189.667 471.256 185.389 469.572 186.631C459.885 193.945 458.146 197.533 455.414 205.951C454.254 209.484 452.433 231.343 451.274 231.343C450.556 231.371 451.55 214.728 453.399 205.068ZM462.728 247.655L460.437 247.213C460.29 247.183 460.151 247.123 460.027 247.039C459.903 246.954 459.797 246.846 459.715 246.72C459.633 246.595 459.577 246.454 459.549 246.307C459.521 246.159 459.523 246.008 459.554 245.861C459.584 245.714 459.644 245.575 459.728 245.451C459.813 245.327 459.921 245.221 460.047 245.139C460.172 245.057 460.313 245.001 460.46 244.973C460.608 244.945 460.759 244.947 460.906 244.978L463.142 245.419C463.438 245.474 463.701 245.645 463.871 245.893C464.042 246.142 464.107 246.448 464.052 246.744C463.997 247.041 463.827 247.303 463.579 247.474C463.33 247.645 463.024 247.71 462.728 247.655ZM450.114 241.776L452.212 242.577C452.497 242.679 452.73 242.891 452.86 243.165C452.989 243.439 453.004 243.754 452.902 244.039C452.799 244.325 452.588 244.558 452.313 244.687C452.039 244.817 451.725 244.832 451.439 244.729L449.259 243.929C448.985 243.807 448.769 243.585 448.656 243.307C448.543 243.03 448.541 242.72 448.652 242.441C448.762 242.163 448.977 241.938 449.249 241.814C449.522 241.69 449.832 241.677 450.114 241.776ZM408.494 334.429C408.523 332.811 408.096 331.218 407.261 329.831C406.426 328.445 405.218 327.322 403.774 326.591C401.357 325.215 398.533 324.736 395.798 325.239C395.571 324.763 395.439 324.247 395.411 323.721C395.411 322.672 396.156 322.396 397.233 322.368C400.972 322.652 404.602 323.765 407.859 325.625C408.483 327.112 409.341 328.491 410.398 329.71C410.302 331.45 409.632 333.11 408.494 334.429ZM461.32 322.92C448.762 334.678 432.533 340.833 417.767 332.139C407.693 326.232 407.445 317.759 412.247 307.299C420.224 289.717 433.941 272.357 444.953 263.746C445.119 263.746 497.752 277.546 497.752 277.546C493.998 285.384 465.819 318.835 461.32 322.92ZM483.4 247.186H485.663C485.936 247.228 486.185 247.367 486.365 247.577C486.545 247.787 486.644 248.055 486.644 248.331C486.644 248.608 486.545 248.875 486.365 249.085C486.185 249.295 485.936 249.434 485.663 249.477H483.4C483.166 249.402 482.962 249.254 482.817 249.056C482.672 248.858 482.594 248.618 482.594 248.373C482.594 248.127 482.672 247.888 482.817 247.689C482.962 247.491 483.166 247.343 483.4 247.269V247.186ZM497.2 248.98L494.909 249.173C494.63 249.155 494.366 249.036 494.167 248.839C493.969 248.642 493.848 248.379 493.828 248.1C493.807 247.82 493.889 247.543 494.057 247.319C494.226 247.096 494.47 246.94 494.744 246.882L497.007 246.689C497.321 246.663 497.634 246.764 497.874 246.968C498.115 247.173 498.265 247.464 498.29 247.779C498.316 248.094 498.215 248.406 498.011 248.647C497.806 248.887 497.515 249.037 497.2 249.063V248.98ZM597.636 228.28L595.07 268.631C590.626 268.962 498.47 277.187 498.47 277.187C498.773 275.31 503.576 187.294 480.309 180.366C486.629 180.366 504.624 180.035 521.488 179.014C521.488 188.508 522.15 208.077 522.15 208.353C520.469 209.687 519.239 211.508 518.631 213.567C518.022 215.625 518.063 217.822 518.749 219.856C519.434 221.891 520.731 223.664 522.461 224.935C524.192 226.205 526.272 226.911 528.419 226.956C530.565 227 532.673 226.381 534.455 225.184C536.237 223.986 537.606 222.268 538.375 220.264C539.145 218.259 539.277 216.066 538.754 213.984C538.231 211.902 537.079 210.032 535.454 208.629V179.4C539.98 179.566 564.075 180.477 572.852 181.277C576.709 181.598 580.416 182.921 583.606 185.114C586.796 187.306 589.358 190.293 591.04 193.78C598.796 207.856 597.747 228.363 597.747 228.363L597.636 228.28Z" fill="#043547"/>
<path d="M131.789 106.712C129.583 106.712 127.398 107.147 125.36 107.992C123.322 108.837 121.47 110.075 119.911 111.636C118.352 113.197 117.116 115.05 116.273 117.089C115.43 119.128 114.998 121.313 115 123.519C115 132.791 131.789 150.086 131.789 150.086C131.789 150.086 148.597 132.791 148.597 123.519C148.597 119.062 146.826 114.787 143.674 111.635C140.522 108.483 136.247 106.712 131.789 106.712ZM131.789 130.206C130.663 130.206 129.561 129.872 128.625 129.246C127.688 128.619 126.959 127.729 126.528 126.688C126.098 125.647 125.986 124.501 126.207 123.396C126.428 122.291 126.972 121.277 127.77 120.482C128.568 119.686 129.584 119.145 130.69 118.928C131.795 118.71 132.941 118.825 133.981 119.259C135.021 119.693 135.908 120.425 136.532 121.364C137.155 122.302 137.486 123.405 137.482 124.532C137.473 126.035 136.869 127.474 135.802 128.534C134.736 129.593 133.293 130.188 131.789 130.188V130.206Z" fill="#DA7B07"/>
<path d="M306.19 29C303.984 29 301.799 29.4349 299.761 30.2797C297.722 31.1246 295.871 32.363 294.312 33.9239C292.752 35.4849 291.516 37.3378 290.673 39.3769C289.831 41.416 289.398 43.6012 289.4 45.8075C289.4 55.0788 306.19 72.3742 306.19 72.3742C306.19 72.3742 322.997 55.0788 322.997 45.8075C322.997 41.3499 321.227 37.0748 318.075 33.9228C314.923 30.7708 310.647 29 306.19 29ZM306.19 52.4944C305.063 52.4944 303.962 52.16 303.025 51.5337C302.089 50.9074 301.359 50.0172 300.929 48.9759C300.498 47.9346 300.387 46.789 300.608 45.6842C300.829 44.5794 301.373 43.5651 302.171 42.7697C302.969 41.9742 303.985 41.4335 305.09 41.2158C306.196 40.9982 307.341 41.1135 308.381 41.5472C309.421 41.9808 310.309 42.7133 310.932 43.6519C311.555 44.5905 311.886 45.6929 311.883 46.8196C311.873 48.3232 311.269 49.7619 310.203 50.8217C309.136 51.8815 307.693 52.4764 306.19 52.4763V52.4944Z" fill="#DA7B07"/>
<path d="M492.808 212C490.601 211.998 488.416 212.43 486.377 213.273C484.338 214.116 482.485 215.352 480.924 216.911C479.363 218.47 478.125 220.322 477.28 222.36C476.435 224.398 476 226.583 476 228.789C476 238.079 492.808 255.356 492.808 255.356C492.808 255.356 509.597 238.079 509.597 228.789C509.597 224.337 507.828 220.066 504.679 216.918C501.531 213.769 497.26 212 492.808 212ZM492.808 235.494C491.687 235.494 490.591 235.162 489.659 234.54C488.726 233.918 487.999 233.034 487.568 232C487.138 230.965 487.023 229.826 487.239 228.726C487.455 227.626 487.992 226.615 488.782 225.82C489.572 225.025 490.58 224.481 491.678 224.258C492.777 224.035 493.917 224.142 494.954 224.566C495.992 224.99 496.881 225.712 497.508 226.641C498.136 227.569 498.475 228.663 498.482 229.783C498.482 231.288 497.884 232.732 496.82 233.796C495.756 234.86 494.313 235.458 492.808 235.458V235.494Z" fill="#DA7B07"/>
<path d="M614.798 136.514C612.591 136.511 610.406 136.944 608.367 137.787C606.328 138.629 604.475 139.866 602.914 141.425C601.353 142.984 600.115 144.836 599.27 146.874C598.425 148.912 597.99 151.097 597.99 153.303C597.99 162.592 614.798 179.87 614.798 179.87C614.798 179.87 631.587 162.592 631.587 153.303C631.587 148.85 629.818 144.58 626.67 141.431C623.521 138.283 619.251 136.514 614.798 136.514ZM614.798 160.008C613.677 160.008 612.581 159.676 611.649 159.054C610.716 158.432 609.989 157.548 609.558 156.513C609.128 155.478 609.013 154.339 609.23 153.239C609.446 152.14 609.982 151.128 610.772 150.333C611.563 149.538 612.57 148.995 613.669 148.772C614.767 148.549 615.907 148.656 616.944 149.08C617.982 149.504 618.871 150.226 619.499 151.154C620.127 152.083 620.465 153.176 620.473 154.297C620.473 155.802 619.875 157.246 618.81 158.31C617.746 159.374 616.303 159.972 614.798 159.972V160.008Z" fill="#DA7B07"/>
<path d="M422.325 189.828C420.118 189.826 417.933 190.258 415.894 191.101C413.855 191.944 412.002 193.18 410.441 194.739C408.88 196.299 407.642 198.15 406.797 200.188C405.952 202.227 405.517 204.411 405.517 206.618C405.517 215.907 422.325 233.184 422.325 233.184C422.325 233.184 439.114 215.907 439.114 206.618C439.114 204.413 438.68 202.23 437.836 200.193C436.993 198.156 435.756 196.305 434.197 194.746C432.638 193.187 430.787 191.95 428.75 191.106C426.713 190.262 424.53 189.828 422.325 189.828ZM422.325 213.323C421.204 213.323 420.108 212.991 419.176 212.369C418.244 211.747 417.516 210.862 417.086 209.828C416.655 208.793 416.541 207.654 416.757 206.554C416.973 205.454 417.51 204.443 418.3 203.648C419.09 202.853 420.097 202.309 421.196 202.086C422.294 201.863 423.434 201.971 424.472 202.395C425.509 202.819 426.398 203.54 427.026 204.469C427.654 205.397 427.993 206.491 428 207.612C428 209.117 427.402 210.56 426.338 211.624C425.273 212.689 423.83 213.286 422.325 213.286V213.323Z" fill="#DA7B07"/>
<path d="M492.808 44.3438C490.601 44.3414 488.416 44.7739 486.377 45.6166C484.338 46.4593 482.485 47.6956 480.924 49.2549C479.363 50.8142 478.125 52.6658 477.28 54.704C476.435 56.7422 476 58.9269 476 61.1332C476 70.4225 492.808 87.6999 492.808 87.6999C492.808 87.6999 509.597 70.4225 509.597 61.1332C509.597 56.6804 507.828 52.4099 504.68 49.2613C501.531 46.1126 497.261 44.3438 492.808 44.3438ZM492.808 67.8381C491.687 67.8381 490.591 67.5062 489.659 66.8842C488.726 66.2622 487.999 65.3781 487.568 64.3433C487.138 63.3084 487.023 62.1693 487.24 61.0695C487.456 59.9697 487.992 58.9585 488.782 58.1634C489.573 57.3684 490.58 56.8251 491.679 56.602C492.777 56.379 493.917 56.4862 494.954 56.9102C495.992 57.3342 496.881 58.0559 497.509 58.9844C498.137 59.9128 498.475 61.0064 498.483 62.1272C498.483 63.6322 497.885 65.0757 496.82 66.1399C495.756 67.2041 494.313 67.802 492.808 67.802V67.8381Z" fill="#DA7B07"/>
</svg>
