<svg width="365" height="100" viewBox="0 0 365 100" fill="none" xmlns="http://www.w3.org/2000/svg">
<path d="M314.176 27.4265C321.39 29.1949 328.41 31.4292 335.159 34.1046C342.128 36.8104 348.589 40.2443 354.35 44.3036C355.81 45.3728 357.197 46.4981 358.506 47.6748L359.006 48.1144L359.516 48.6381L360.523 49.6946C361.171 50.4105 361.692 51.1943 362.256 51.9493C364.231 55.0695 365.113 58.5046 364.812 61.9106C364.51 65.3166 363.038 68.5739 360.541 71.3562L360.089 71.8761L359.575 72.3618L358.536 73.3251C357.792 73.9302 357.006 74.5115 356.194 75.0614L354.902 75.8239C354.481 76.0858 354.033 76.3222 353.563 76.5312C352.693 76.9532 351.793 77.3404 350.869 77.6915C336.884 83.1159 321.772 86.4824 306.715 88.9301C296.657 90.5836 286.524 91.7916 276.42 92.8591C271.368 93.3954 266.316 93.866 261.263 94.3728C256.208 94.8571 251.137 95.2826 246.074 95.7405C225.797 97.455 205.398 98.6778 184.907 99.1975C164.389 99.7589 143.81 99.4684 123.261 98.3275C102.653 97.1828 82.1308 94.917 61.8532 91.5476C60.2837 91.3209 58.7376 90.9958 57.1807 90.7147L52.5196 89.8359C49.4124 89.239 46.3089 88.6853 43.2032 87.9992C36.8381 86.6991 30.6125 84.9917 24.5938 82.8956C21.5085 81.7872 18.5327 80.5012 15.6931 79.0491C14.9792 78.6795 14.2653 78.3106 13.577 77.9067C12.851 77.516 12.1549 77.0932 11.4926 76.6406L9.41745 75.2214C8.77592 74.7083 8.17075 74.1651 7.55292 73.6342C6.93211 73.1038 6.36708 72.5373 5.86337 71.9403C5.30835 71.37 4.80743 70.7709 4.36463 70.1477C3.9283 69.5222 3.48309 68.8997 3.06966 68.2674L2.05213 66.2993C0.85224 63.6421 0.247261 60.8631 0.263035 58.081C0.358925 55.3107 1.05957 52.5866 2.33626 50.0203C3.64642 47.4588 5.55453 45.1112 7.97054 43.0883L9.84926 41.6272C10.5306 41.1892 11.2357 40.771 11.9334 40.3468C12.2771 40.147 12.6484 39.9011 12.9707 39.7417L13.9502 39.2392L15.9093 38.2344C17.2183 37.5683 18.5143 36.8863 19.8352 36.2342L23.8434 34.3308C29.1835 31.7875 34.7076 29.4791 40.2797 27.2472C43.0992 26.1812 45.9112 25.1014 48.759 24.0799L53.0575 22.5902L55.2067 21.8456L57.3837 21.1484C68.9683 17.4064 80.8651 14.2158 93.0076 11.5946C105.131 8.9933 117.449 6.89567 129.911 5.31076C154.804 2.13429 180.065 0.78429 205.301 0.555453C220.534 0.40043 235.918 0.884088 250.927 1.57337C265.305 2.25046 274.572 3.35656 280.29 4.47804C284.453 5.29474 284.404 5.92859 280.779 6.28107C277.154 6.63356 269.952 6.69061 259.802 6.47429C246.958 6.19473 232.939 5.84114 219.689 5.70711C189.198 5.40309 158.738 6.61421 129.051 10.7163C99.419 14.8218 70.5195 21.8063 44.2472 32.446C37.0234 35.4072 29.8768 38.7081 23.0027 42.2202C21.2996 43.1145 19.6003 44.0067 17.9048 44.8969C17.1273 45.3362 16.5133 45.756 15.801 46.1747C15.1403 46.6161 14.5774 47.1308 13.9502 47.5936C11.6545 49.576 10.0182 51.9564 9.1728 54.5435C8.53566 56.594 8.38613 58.7263 8.73118 60.8406L8.88472 61.6306C8.9189 61.8952 8.9843 62.1576 9.08011 62.4147L9.61696 63.9626L10.3822 65.4555L10.5722 65.8296L10.823 66.1826L11.3192 66.8906C11.4862 67.1258 11.6396 67.3673 11.8146 67.5992L12.4204 68.2574C12.7946 68.7116 13.2146 69.1434 13.6765 69.549L15.0768 70.7591L16.6693 71.8336C17.2252 72.2155 17.8128 72.5695 18.428 72.8933C19.0351 73.2506 19.6848 73.5695 20.3209 73.9009C21.6033 74.5551 22.9421 75.154 24.2995 75.7339C29.9478 77.9836 35.8806 79.7665 41.9934 81.051C48.1955 82.4621 54.6639 83.4771 61.0032 84.6904C64.1941 85.2494 67.4143 85.6997 70.6183 86.2096L75.43 86.9535C77.0378 87.1833 78.6552 87.37 80.2672 87.5806L89.9466 88.8069L99.6661 89.7957C101.287 89.9518 102.902 90.1478 104.527 90.2718L109.4 90.6543C112.65 90.8943 115.893 91.2021 119.147 91.3921C125.656 91.7585 132.158 92.1918 138.673 92.3877C177.412 93.9103 216.374 91.8459 254.896 88.463C272.077 86.8916 289.286 85.3524 305.962 82.6357C314.274 81.3031 322.449 79.5656 330.437 77.4335C332.4 76.8623 334.395 76.3396 336.318 75.7059C337.285 75.3979 338.261 75.1028 339.221 74.7845L342.075 73.7911C343.035 73.4706 343.967 73.1143 344.895 72.7513C345.815 72.3931 346.784 72.0346 347.664 71.6774C348.435 71.3491 349.173 70.9777 349.87 70.5663C350.228 70.3702 350.569 70.1581 350.893 69.9311L351.834 69.2258C354.255 67.2361 355.776 64.6993 356.184 61.97C356.397 60.6168 356.314 59.239 355.938 57.8921C355.894 57.7246 355.866 57.5538 355.811 57.3878L355.61 56.8968C355.465 56.5725 355.378 56.2326 355.196 55.9188L354.659 54.9721C354.471 54.6592 354.257 54.3552 354.018 54.0623C353.568 53.4604 353.061 52.8838 352.499 52.3375C351.867 51.7617 351.181 51.1634 350.5 50.5896C349.076 49.4455 347.57 48.3628 345.988 47.3468C342.744 45.2878 339.281 43.4414 335.638 41.8284C328.179 38.5713 320.32 35.903 312.189 33.8667C303.896 31.745 295.548 29.7635 287.145 27.9222C273.734 25.0015 260.648 22.3198 248.03 19.9395C241.724 18.738 235.534 17.6175 229.486 16.5502C223.445 15.4507 217.534 14.4677 211.791 13.5151C206.505 12.6652 204.065 11.9874 204.512 11.6042C204.956 11.2388 208.299 11.1168 214.549 11.5737C232.811 12.9026 250.987 15.0666 268.977 18.0541C276.48 19.261 284.011 20.7623 291.536 22.3601C299.059 23.9674 306.569 25.6989 314 27.5102C314.056 27.4807 314.109 27.4542 314.176 27.4265Z" fill="#5344B1"/>
</svg>
