<svg width="79" height="80" viewBox="0 0 79 80" fill="none" xmlns="http://www.w3.org/2000/svg">
<circle cx="39.5" cy="40.1318" r="39.5" fill="#FDF7FE"/>
<path d="M40 39.7568C38.8397 39.7568 37.7269 39.2959 36.9064 38.4754C36.0859 37.655 35.625 36.5422 35.625 35.3818C35.625 34.2215 36.0859 33.1087 36.9064 32.2882C37.7269 31.4678 38.8397 31.0068 40 31.0068C41.1603 31.0068 42.2731 31.4678 43.0936 32.2882C43.9141 33.1087 44.375 34.2215 44.375 35.3818C44.375 35.9564 44.2618 36.5253 44.042 37.0561C43.8221 37.5869 43.4998 38.0692 43.0936 38.4754C42.6873 38.8817 42.205 39.2039 41.6742 39.4238C41.1434 39.6437 40.5745 39.7568 40 39.7568ZM40 23.1318C36.7511 23.1318 33.6353 24.4225 31.3379 26.7198C29.0406 29.0171 27.75 32.1329 27.75 35.3818C27.75 44.5693 40 58.1318 40 58.1318C40 58.1318 52.25 44.5693 52.25 35.3818C52.25 32.1329 50.9594 29.0171 48.6621 26.7198C46.3647 24.4225 43.2489 23.1318 40 23.1318Z" fill="#872B97"/>
</svg>
