<svg width="56" height="56" viewBox="0 0 56 56" fill="none" xmlns="http://www.w3.org/2000/svg">
<rect x="4" y="4" width="48" height="48" rx="24" fill="#F4EBFF"/>
<rect x="4" y="4" width="48" height="48" rx="24" stroke="#F9F5FF" stroke-width="8"/>
<path d="M28 17V39M33 21H25.5C24.5717 21 23.6815 21.3687 23.0251 22.0251C22.3687 22.6815 22 23.5717 22 24.5C22 25.4283 22.3687 26.3185 23.0251 26.9749C23.6815 27.6313 24.5717 28 25.5 28H30.5C31.4283 28 32.3185 28.3687 32.9749 29.0251C33.6313 29.6815 34 30.5717 34 31.5C34 32.4283 33.6313 33.3185 32.9749 33.9749C32.3185 34.6313 31.4283 35 30.5 35H22" stroke="#7F56D9" stroke-width="2" stroke-linecap="round" stroke-linejoin="round"/>
</svg>
