<svg width="106" height="26" viewBox="0 0 106 26" fill="none" xmlns="http://www.w3.org/2000/svg">
<path d="M17.8799 11.9115C18.774 11.1627 19.3426 10.0381 19.3426 8.7806C19.3426 7.5232 18.774 6.39857 17.8799 5.64982C17.9824 5.60019 18.081 5.54634 18.1749 5.48798C18.768 5.11922 19.468 4.90625 20.2177 4.90625C22.3575 4.90625 24.0921 6.6409 24.0921 8.7806C24.0921 10.9204 22.3575 12.655 20.2177 12.655C19.468 12.655 18.768 12.442 18.1749 12.0733C18.081 12.0149 17.9824 11.9611 17.8799 11.9115Z" fill="url(#paint0_linear_922_33470)"/>
<path d="M16.8037 9.39202C17.2036 8.29654 17.1338 7.03828 16.505 5.94931C15.8763 4.86034 14.8215 4.17067 13.6729 3.9693C13.7368 3.87511 13.7952 3.77916 13.8474 3.68164C14.1766 3.06576 14.6764 2.53131 15.3257 2.15643C17.1788 1.08655 19.5484 1.72147 20.6182 3.57455C21.6881 5.42764 21.0532 7.7972 19.2001 8.86705C18.5508 9.24193 17.838 9.40749 17.1401 9.38472C17.0296 9.38107 16.9172 9.38379 16.8037 9.39202Z" fill="url(#paint1_linear_922_33470)"/>
<path d="M14.6112 7.74632C14.4098 6.59762 13.7202 5.54288 12.6312 4.91416C11.5422 4.28544 10.284 4.21555 9.18848 4.6155C9.19678 4.50197 9.19943 4.38963 9.19578 4.27912C9.17301 3.58112 9.33857 2.8684 9.71345 2.21908C10.7834 0.366 13.1529 -0.268915 15.006 0.800965C16.859 1.87085 17.494 4.24038 16.4241 6.09349C16.0492 6.74277 15.5148 7.24254 14.8989 7.5718C14.8014 7.62393 14.7054 7.68237 14.6112 7.74632Z" fill="url(#paint2_linear_922_33470)"/>
<path d="M11.8895 7.41733C11.1408 6.52321 10.0161 5.95463 8.75866 5.95463C7.50119 5.95463 6.37658 6.52321 5.62784 7.41733C5.57824 7.31486 5.52438 7.21625 5.46599 7.1223C5.09725 6.52922 4.88428 5.82924 4.88428 5.07947C4.88428 2.9397 6.6189 1.20508 8.75866 1.20508C10.8984 1.20508 12.633 2.9397 12.633 5.07947C12.633 5.82924 12.4201 6.52922 12.0514 7.1223C11.9929 7.21625 11.9391 7.31486 11.8895 7.41733Z" fill="url(#paint3_linear_922_33470)"/>
<path d="M9.36814 8.49443C8.27265 8.09449 7.01437 8.16438 5.9254 8.79305C4.83642 9.42178 4.14675 10.4765 3.94538 11.6252C3.85119 11.5613 3.75524 11.5028 3.65772 11.4507C3.04184 11.1214 2.50739 10.6217 2.13251 9.97239C1.06263 8.11927 1.69754 5.74977 3.55063 4.67988C5.40372 3.60999 7.77324 4.2449 8.84317 6.09801C9.21805 6.7473 9.38361 7.46003 9.36076 8.15801C9.35718 8.26851 9.35983 8.38086 9.36814 8.49443Z" fill="url(#paint4_linear_922_33470)"/>
<path d="M7.72244 10.6861C6.57372 10.8875 5.51898 11.5772 4.89026 12.6661C4.26154 13.7551 4.19165 15.0134 4.59161 16.1089C4.47806 16.1005 4.36571 16.0979 4.25519 16.1015C3.55719 16.1243 2.84447 15.9588 2.19517 15.5839C0.342074 14.514 -0.292842 12.1445 0.77704 10.2913C1.84692 8.43829 4.21646 7.80333 6.06955 8.87325C6.71886 9.24813 7.2186 9.78255 7.54785 10.3984C7.59999 10.4959 7.65849 10.5919 7.72244 10.6861Z" fill="url(#paint5_linear_922_33470)"/>
<path d="M7.39339 13.4077C6.49927 14.1564 5.93066 15.281 5.93066 16.5384C5.93066 17.7959 6.49927 18.9205 7.39339 19.6693C7.29092 19.7189 7.1923 19.7728 7.09839 19.8311C6.50531 20.1999 5.8053 20.4128 5.05553 20.4128C2.91577 20.4128 1.18115 18.6782 1.18115 16.5384C1.18115 14.3987 2.91577 12.6641 5.05553 12.6641C5.8053 12.6641 6.50531 12.877 7.09839 13.2458C7.1923 13.3042 7.29092 13.358 7.39339 13.4077Z" fill="url(#paint6_linear_922_33470)"/>
<path d="M8.46906 15.9297C8.06904 17.0252 8.13894 18.2834 8.76767 19.3724C9.39641 20.4614 10.4511 21.151 11.5998 21.3524C11.5359 21.4467 11.4775 21.5426 11.4253 21.6401C11.0961 22.256 10.5963 22.7904 9.94701 23.1653C8.09389 24.2352 5.72436 23.6003 4.65448 21.7472C3.5846 19.8941 4.21952 17.5246 6.0726 16.4547C6.72192 16.0798 7.43465 15.9142 8.13263 15.9371C8.24313 15.9406 8.35548 15.938 8.46906 15.9297Z" fill="url(#paint7_linear_922_33470)"/>
<path d="M10.6617 17.5762C10.863 18.7249 11.5527 19.7796 12.6417 20.4083C13.7306 21.037 14.989 21.1069 16.0845 20.707C16.0761 20.8205 16.0735 20.9328 16.0771 21.0434C16.0999 21.7414 15.9344 22.4541 15.5595 23.1034C14.4896 24.9565 12.1201 25.5914 10.2669 24.5215C8.41382 23.4516 7.77893 21.0821 8.84885 19.229C9.22373 18.5797 9.75815 18.0799 10.374 17.7507C10.4715 17.6986 10.5675 17.64 10.6617 17.5762Z" fill="url(#paint8_linear_922_33470)"/>
<path d="M13.3837 17.9043C14.1324 18.7984 15.257 19.367 16.5145 19.367C17.772 19.367 18.8966 18.7984 19.6454 17.9043C19.6949 18.0068 19.7488 18.1054 19.8072 18.1993C20.1759 18.7923 20.3889 19.4924 20.3889 20.2421C20.3889 22.3819 18.6543 24.1165 16.5145 24.1165C14.3747 24.1165 12.6401 22.3819 12.6401 20.2421C12.6401 19.4924 12.8531 18.7923 13.2218 18.1993C13.2803 18.1054 13.3341 18.0068 13.3837 17.9043Z" fill="url(#paint9_linear_922_33470)"/>
<path d="M15.9053 16.83C17.0008 17.2299 18.259 17.1601 19.348 16.5314C20.437 15.9027 21.1266 14.8479 21.328 13.6992C21.4222 13.7631 21.5181 13.8216 21.6157 13.8737C22.2316 14.203 22.766 14.7028 23.1409 15.352C24.2108 17.2052 23.5758 19.5747 21.7228 20.6446C19.8697 21.7144 17.5002 21.0795 16.4302 19.2264C16.0554 18.5771 15.8898 17.8644 15.9126 17.1664C15.9162 17.0559 15.9136 16.9436 15.9053 16.83Z" fill="url(#paint10_linear_922_33470)"/>
<path d="M20.3852 12.6531C20.3845 12.6544 20.3837 12.6558 20.3829 12.6572C19.7542 13.7461 18.6995 14.4358 17.5508 14.6372C17.6147 14.7314 17.6732 14.8274 17.7253 14.9248C18.0546 15.5408 18.5543 16.0752 19.2036 16.4501C21.0567 17.52 23.4262 16.885 24.4962 15.032C25.4133 13.4432 25.0776 11.475 23.7954 10.2715C23.2321 11.6233 21.925 12.5875 20.3852 12.6531Z" fill="url(#paint11_linear_922_33470)"/>
<path d="M33.8398 21.2041V5.58008H40.004C41.1839 5.58008 42.1909 5.79115 43.025 6.21328C43.8642 6.63033 44.5025 7.22284 44.9399 7.99081C45.3824 8.7537 45.6036 9.65137 45.6036 10.6838C45.6036 11.7213 45.3798 12.6139 44.9323 13.3616C44.4847 14.1041 43.8362 14.6737 42.9869 15.0704C42.1426 15.4671 41.1204 15.6655 39.9201 15.6655H35.7928V13.0106H39.386C40.0167 13.0106 40.5406 12.9242 40.9576 12.7512C41.3746 12.5783 41.6849 12.3189 41.8883 11.9731C42.0968 11.6273 42.2011 11.1975 42.2011 10.6838C42.2011 10.165 42.0968 9.72766 41.8883 9.37164C41.6849 9.01563 41.3721 8.74607 40.95 8.56298C40.5329 8.3748 40.0065 8.28071 39.3708 8.28071H37.1432V21.2041H33.8398ZM42.2774 14.0939L46.1605 21.2041H42.5139L38.7147 14.0939H42.2774Z" fill="#27272A"/>
<path d="M47.877 21.2041V9.48607H51.1269V21.2041H47.877ZM49.5096 7.97555C49.0264 7.97555 48.6119 7.81535 48.2661 7.49493C47.9253 7.16943 47.7549 6.78036 47.7549 6.32771C47.7549 5.88015 47.9253 5.49616 48.2661 5.17575C48.6119 4.85025 49.0264 4.6875 49.5096 4.6875C49.9928 4.6875 50.4047 4.85025 50.7455 5.17575C51.0913 5.49616 51.2642 5.88015 51.2642 6.32771C51.2642 6.78036 51.0913 7.16943 50.7455 7.49493C50.4047 7.81535 49.9928 7.97555 49.5096 7.97555Z" fill="#27272A"/>
<path d="M58.0482 21.3948C57.1582 21.3948 56.3521 21.1659 55.6299 20.7082C54.9128 20.2454 54.3431 19.5664 53.921 18.6713C53.504 17.7711 53.2954 16.6674 53.2954 15.3603C53.2954 14.0176 53.5116 12.9013 53.9439 12.0112C54.3762 11.1161 54.9509 10.4473 55.668 10.0048C56.3902 9.55728 57.1811 9.3335 58.0406 9.3335C58.6967 9.3335 59.2434 9.44539 59.6808 9.66917C60.1233 9.88786 60.4793 10.1625 60.7489 10.4931C61.0235 10.8186 61.232 11.139 61.3744 11.4543H61.4736V5.58008H64.7159V21.2041H61.5117V19.3273H61.3744C61.2218 19.6528 61.0057 19.9758 60.726 20.2962C60.4513 20.6115 60.0928 20.8735 59.6503 21.082C59.2129 21.2905 58.6789 21.3948 58.0482 21.3948ZM59.0781 18.8086C59.602 18.8086 60.0445 18.6662 60.4056 18.3814C60.7717 18.0915 61.0515 17.6871 61.2447 17.1684C61.4431 16.6496 61.5423 16.0418 61.5423 15.3451C61.5423 14.6483 61.4456 14.0431 61.2524 13.5294C61.0591 13.0157 60.7794 12.619 60.4132 12.3393C60.047 12.0596 59.602 11.9197 59.0781 11.9197C58.5441 11.9197 58.094 12.0646 57.7278 12.3545C57.3616 12.6444 57.0844 13.0462 56.8963 13.5599C56.7081 14.0736 56.614 14.6686 56.614 15.3451C56.614 16.0266 56.7081 16.6293 56.8963 17.1531C57.0895 17.6719 57.3667 18.0788 57.7278 18.3737C58.094 18.6636 58.5441 18.8086 59.0781 18.8086Z" fill="#27272A"/>
<path d="M72.6824 21.4329C71.4973 21.4329 70.4725 21.1812 69.6079 20.6777C68.7484 20.1691 68.0847 19.4621 67.6168 18.5568C67.1489 17.6464 66.9149 16.5911 66.9149 15.3908C66.9149 14.1804 67.1489 13.1225 67.6168 12.2172C68.0847 11.3068 68.7484 10.5999 69.6079 10.0964C70.4725 9.58779 71.4973 9.3335 72.6824 9.3335C73.8674 9.3335 74.8896 9.58779 75.7492 10.0964C76.6138 10.5999 77.28 11.3068 77.7479 12.2172C78.2158 13.1225 78.4498 14.1804 78.4498 15.3908C78.4498 16.5911 78.2158 17.6464 77.7479 18.5568C77.28 19.4621 76.6138 20.1691 75.7492 20.6777C74.8896 21.1812 73.8674 21.4329 72.6824 21.4329ZM72.6976 18.9154C73.2367 18.9154 73.6868 18.7628 74.0479 18.4577C74.409 18.1474 74.6811 17.7253 74.8642 17.1913C75.0524 16.6572 75.1465 16.0495 75.1465 15.368C75.1465 14.6864 75.0524 14.0787 74.8642 13.5446C74.6811 13.0106 74.409 12.5885 74.0479 12.2783C73.6868 11.968 73.2367 11.8129 72.6976 11.8129C72.1534 11.8129 71.6957 11.968 71.3244 12.2783C70.9582 12.5885 70.681 13.0106 70.4929 13.5446C70.3098 14.0787 70.2182 14.6864 70.2182 15.368C70.2182 16.0495 70.3098 16.6572 70.4929 17.1913C70.681 17.7253 70.9582 18.1474 71.3244 18.4577C71.6957 18.7628 72.1534 18.9154 72.6976 18.9154Z" fill="#27272A"/>
<path d="M80.563 21.2041V9.48607H83.7137V11.5306H83.8358C84.0494 10.8033 84.408 10.254 84.9115 9.88278C85.415 9.50642 85.9948 9.31824 86.6509 9.31824C86.8136 9.31824 86.9891 9.32841 87.1772 9.34875C87.3654 9.3691 87.5307 9.39707 87.6731 9.43267V12.3164C87.5205 12.2706 87.3095 12.2299 87.0399 12.1943C86.7704 12.1587 86.5237 12.1409 86.2999 12.1409C85.8218 12.1409 85.3946 12.2452 85.0183 12.4537C84.647 12.6572 84.352 12.942 84.1333 13.3082C83.9197 13.6743 83.8129 14.0965 83.8129 14.5745V21.2041H80.563Z" fill="#27272A"/>
<path d="M89.3534 21.2041V9.48607H92.6033V21.2041H89.3534ZM90.986 7.97555C90.5028 7.97555 90.0883 7.81535 89.7425 7.49493C89.4017 7.16943 89.2313 6.78036 89.2313 6.32771C89.2313 5.88015 89.4017 5.49616 89.7425 5.17575C90.0883 4.85025 90.5028 4.6875 90.986 4.6875C91.4691 4.6875 91.8811 4.85025 92.2219 5.17575C92.5677 5.49616 92.7406 5.88015 92.7406 6.32771C92.7406 6.78036 92.5677 7.16943 92.2219 7.49493C91.8811 7.81535 91.4691 7.97555 90.986 7.97555Z" fill="#27272A"/>
<path d="M98.5481 21.4253C97.8005 21.4253 97.1342 21.2956 96.5493 21.0362C95.9645 20.7718 95.5016 20.3827 95.1609 19.869C94.8252 19.3502 94.6574 18.7043 94.6574 17.9313C94.6574 17.2803 94.7769 16.7335 95.0159 16.291C95.255 15.8486 95.5805 15.4926 95.9924 15.223C96.4044 14.9535 96.8723 14.75 97.3962 14.6127C97.9251 14.4754 98.4795 14.3787 99.0593 14.3228C99.7408 14.2516 100.29 14.1855 100.707 14.1244C101.124 14.0583 101.427 13.9617 101.615 13.8345C101.803 13.7074 101.897 13.5192 101.897 13.27V13.2242C101.897 12.7411 101.745 12.3673 101.439 12.1028C101.139 11.8383 100.712 11.7061 100.158 11.7061C99.5729 11.7061 99.1076 11.8358 98.7617 12.0952C98.4159 12.3495 98.187 12.6699 98.0751 13.0564L95.0693 12.8123C95.2219 12.1002 95.522 11.4848 95.9695 10.9661C96.4171 10.4422 96.9944 10.0404 97.7013 9.76071C98.4133 9.4759 99.2373 9.3335 100.173 9.3335C100.824 9.3335 101.447 9.40979 102.042 9.56236C102.642 9.71494 103.174 9.95144 103.637 10.2719C104.104 10.5923 104.473 11.0042 104.743 11.5077C105.012 12.0062 105.147 12.6038 105.147 13.3005V21.2041H102.065V19.5791H101.973C101.785 19.9453 101.534 20.2682 101.218 20.548C100.903 20.8226 100.524 21.0388 100.082 21.1964C99.639 21.349 99.1279 21.4253 98.5481 21.4253ZM99.4788 19.1824C99.9569 19.1824 100.379 19.0883 100.745 18.9001C101.111 18.7069 101.399 18.4475 101.607 18.122C101.816 17.7965 101.92 17.4278 101.92 17.0158V15.7723C101.818 15.8384 101.679 15.8994 101.5 15.9554C101.328 16.0062 101.132 16.0546 100.913 16.1003C100.694 16.141 100.476 16.1792 100.257 16.2148C100.038 16.2453 99.8399 16.2732 99.6619 16.2987C99.2805 16.3546 98.9474 16.4436 98.6626 16.5657C98.3777 16.6878 98.1565 16.853 97.9988 17.0616C97.8412 17.265 97.7623 17.5193 97.7623 17.8245C97.7623 18.2669 97.9225 18.6051 98.243 18.8391C98.5685 19.068 98.9804 19.1824 99.4788 19.1824Z" fill="#27272A"/>
<defs>
<linearGradient id="paint0_linear_922_33470" x1="18.365" y1="4.90625" x2="18.365" y2="12.655" gradientUnits="userSpaceOnUse">
<stop stop-color="#25136D"/>
<stop offset="1" stop-color="#3D9BA2"/>
</linearGradient>
<linearGradient id="paint1_linear_922_33470" x1="13.7212" y1="3.0828" x2="17.5956" y2="9.79347" gradientUnits="userSpaceOnUse">
<stop stop-color="#25136D"/>
<stop offset="1" stop-color="#3D9BA2"/>
</linearGradient>
<linearGradient id="paint2_linear_922_33470" x1="8.7871" y1="3.82361" x2="15.4977" y2="7.69798" gradientUnits="userSpaceOnUse">
<stop stop-color="#25136D"/>
<stop offset="1" stop-color="#3D9BA2"/>
</linearGradient>
<linearGradient id="paint3_linear_922_33470" x1="4.88428" y1="6.93217" x2="12.633" y2="6.93217" gradientUnits="userSpaceOnUse">
<stop stop-color="#25136D"/>
<stop offset="1" stop-color="#3D9BA2"/>
</linearGradient>
<linearGradient id="paint4_linear_922_33470" x1="3.05889" y1="11.5769" x2="9.76951" y2="7.7025" gradientUnits="userSpaceOnUse">
<stop stop-color="#25136D"/>
<stop offset="1" stop-color="#3D9BA2"/>
</linearGradient>
<linearGradient id="paint5_linear_922_33470" x1="3.7997" y1="16.5102" x2="7.6741" y2="9.7996" gradientUnits="userSpaceOnUse">
<stop stop-color="#25136D"/>
<stop offset="1" stop-color="#3D9BA2"/>
</linearGradient>
<linearGradient id="paint6_linear_922_33470" x1="6.90828" y1="20.4128" x2="6.90828" y2="12.6641" gradientUnits="userSpaceOnUse">
<stop stop-color="#25136D"/>
<stop offset="1" stop-color="#3D9BA2"/>
</linearGradient>
<linearGradient id="paint7_linear_922_33470" x1="11.5515" y1="22.2389" x2="7.67712" y2="15.5283" gradientUnits="userSpaceOnUse">
<stop stop-color="#25136D"/>
<stop offset="1" stop-color="#3D9BA2"/>
</linearGradient>
<linearGradient id="paint8_linear_922_33470" x1="16.4858" y1="21.4989" x2="9.7752" y2="17.6244" gradientUnits="userSpaceOnUse">
<stop stop-color="#25136D"/>
<stop offset="1" stop-color="#3D9BA2"/>
</linearGradient>
<linearGradient id="paint9_linear_922_33470" x1="20.3889" y1="18.3894" x2="12.6401" y2="18.3894" gradientUnits="userSpaceOnUse">
<stop stop-color="#25136D"/>
<stop offset="1" stop-color="#3D9BA2"/>
</linearGradient>
<linearGradient id="paint10_linear_922_33470" x1="22.2145" y1="13.7476" x2="15.5039" y2="17.6219" gradientUnits="userSpaceOnUse">
<stop stop-color="#25136D"/>
<stop offset="1" stop-color="#3D9BA2"/>
</linearGradient>
<linearGradient id="paint11_linear_922_33470" x1="21.4735" y1="8.81308" x2="17.5991" y2="15.5237" gradientUnits="userSpaceOnUse">
<stop stop-color="#25136D"/>
<stop offset="1" stop-color="#3D9BA2"/>
</linearGradient>
</defs>
</svg>
