<svg width="64" height="64" viewBox="0 0 64 64" fill="none" xmlns="http://www.w3.org/2000/svg">
<circle cx="32" cy="32" r="32" fill="#F0F5FF"/>
<path d="M33.3631 25.045L33.3631 22.75L30.6431 22.75L30.6231 25.045L25.1231 25.045L22.8281 27.34L25.1431 29.63L30.6431 29.63M33.3631 25.045L35.4431 25.045L35.4431 29.63L33.3631 29.63M33.3631 25.045L30.6431 25.045M33.3631 29.63L33.3631 31.28M33.3631 29.63L30.6431 29.63M33.3631 31.28L38.8631 31.28L41.1581 33.575L38.8631 35.87L33.3631 35.87L33.3631 42.25L30.6431 42.25L30.6431 35.87M33.3631 31.28L30.6431 31.28M30.6431 35.87L28.5631 35.87L28.5631 31.28L30.6431 31.28M30.6431 35.87L33.4881 35.87M30.6431 31.28L30.6431 29.63" stroke="black" stroke-linecap="round" stroke-linejoin="round"/>
</svg>
