<svg width="130" height="24" viewBox="0 0 130 24" fill="none" xmlns="http://www.w3.org/2000/svg">
<path d="M0.593262 19.7013C4.11251 19.7013 6.9654 16.8484 6.9654 13.3292C6.9654 9.80994 4.11251 6.95703 0.593262 6.95703V11.4175C1.64903 11.4175 2.50489 12.2734 2.50489 13.3292C2.50489 14.385 1.64903 15.2408 0.593262 15.2408V19.7013Z" fill="#E11D48"/>
<path d="M21.8337 9.08184C20.7448 8.7369 19.5852 8.55078 18.3821 8.55078C12.0767 8.55078 6.96533 13.6623 6.96533 19.9675C6.96533 20.6004 7.01683 21.2213 7.11584 21.8261H14.2094C13.9562 21.2584 13.8154 20.6294 13.8154 19.9675C13.8154 17.4454 15.86 15.4008 18.3821 15.4008C19.7606 15.4008 20.9963 16.0116 21.8337 16.9773V9.08184Z" fill="#FDA4AF"/>
<path d="M1.71338 0.585938C2.24167 5.365 6.2934 9.08216 11.2133 9.08216C16.1331 9.08216 20.1849 5.365 20.7131 0.585938H13.8776C13.4556 1.64383 12.4217 2.39137 11.2133 2.39137C10.0048 2.39137 8.97096 1.64383 8.54889 0.585938H1.71338Z" fill="#FB7185"/>
<path d="M39.1309 5.8902H41.6372C43.0809 5.8902 43.8428 5.9303 44.5847 6.03055V3.34375C43.8228 3.444 43.0809 3.4841 41.6372 3.4841H33.6971C32.5542 3.4841 31.692 3.444 30.9702 3.34375V6.03055C31.672 5.9303 32.5342 5.8902 33.7172 5.8902H36.424V16.8379C36.424 17.9207 36.3839 18.6024 36.2636 19.4445H39.2913C39.171 18.6224 39.1309 17.9207 39.1309 16.8379V5.8902Z" fill="#001A49"/>
<path d="M46.1283 3.4841V6.03055H49.0757V3.4841H46.1283ZM46.1283 7.93538C46.2486 8.75746 46.2887 9.43918 46.2887 10.542V16.8379C46.2887 17.8405 46.2486 18.5422 46.1283 19.4445H49.0557C48.9554 18.6024 48.9153 17.9207 48.9153 16.8179V10.562C48.9153 9.33893 48.9554 8.67725 49.0557 7.93538H46.1283Z" fill="#001A49"/>
<path d="M54.4591 19.4445C54.3388 18.5823 54.2987 17.8204 54.2987 16.8379V12.7877C55.1809 10.8026 56.3639 9.8001 57.8075 9.8001C58.5695 9.8001 59.171 10.1009 59.4918 10.6222C59.7324 11.0031 59.8327 11.5445 59.8327 12.3866V16.8379C59.8327 17.8605 59.7926 18.5422 59.6923 19.4445H62.5997C62.4794 18.7026 62.4393 17.9407 62.4393 16.8379V12.0257C62.4393 10.6823 62.2388 9.8803 61.7575 9.21863C61.0357 8.23614 59.8928 7.73487 58.3489 7.73487C56.5443 7.73487 55.4816 8.29629 54.2586 9.86025C54.2987 9.35898 54.2987 9.29883 54.2987 8.99807V7.93538H51.5718C51.6921 8.75746 51.7322 9.43918 51.7322 10.542V16.8379C51.7322 17.9608 51.6921 18.5823 51.5718 19.4445H54.4591Z" fill="#001A49"/>
<path d="M68.8926 18.6425L68.2109 20.1864C67.9302 20.808 67.3487 21.1889 66.647 21.1889C66.1858 21.1889 65.8048 21.0887 65.2434 20.8481L64.7822 23.1339C65.7046 23.3143 66.286 23.3745 66.8876 23.3745C68.7523 23.3745 69.9353 22.6727 70.5769 21.1488L75.1485 10.4217C75.75 9.01812 76.1109 8.19604 76.2312 7.93538H73.2437C73.1233 8.577 72.9629 9.07827 72.4817 10.3014L70.2561 15.9757L67.8099 10.2813C67.449 9.45923 67.1482 8.51685 67.048 7.93538H64.0002C64.2409 8.37649 64.2609 8.43665 65.1431 10.4217L68.8926 18.6425Z" fill="#001A49"/>
<path d="M77.4128 21.2892C78.7763 22.8331 80.0996 23.3745 82.4455 23.3745C84.5108 23.3745 86.175 22.9133 87.1775 22.0912C88.3405 21.1087 88.8618 19.5648 88.8618 17.1587V10.4417C88.8618 9.35898 88.9019 8.79756 89.0021 7.93538H86.3153V8.85771C86.3153 9.07827 86.3153 9.11837 86.3554 9.51939C85.4933 8.29629 84.3103 7.75492 82.5257 7.75492C79.2775 7.75492 77.1722 10.0006 77.1722 13.4694C77.1722 16.8981 79.2174 19.0836 82.4054 19.0836C84.1499 19.0836 85.3329 18.5222 86.3354 17.259C86.2953 18.6224 86.1549 19.3242 85.8141 19.9257C85.2527 20.8882 84.0697 21.4295 82.5257 21.4295C81.0821 21.4295 80.1999 20.9884 79.4179 19.9057L77.4128 21.2892ZM79.7988 13.5295C79.7988 11.1435 81.042 9.63969 83.0471 9.63969C83.7689 9.63969 84.4306 9.90035 84.992 10.3615C85.794 11.0432 86.195 12.0458 86.195 13.329C86.195 14.2514 86.0146 14.9932 85.6336 15.6148C85.0722 16.5572 83.9494 17.1988 82.8466 17.1988C82.0846 17.1988 81.2224 16.8379 80.7212 16.2965C80.1197 15.695 79.7988 14.7125 79.7988 13.5295Z" fill="#001A49"/>
<path d="M97.0502 19.8255C100.619 19.8255 102.965 17.3793 102.965 13.6699C102.965 9.9605 100.659 7.59451 97.0301 7.59451C93.3809 7.59451 91.055 9.98055 91.055 13.71C91.055 17.4595 93.3809 19.8255 97.0502 19.8255ZM97.0301 9.67979C99.1555 9.67979 100.379 11.1635 100.379 13.7501C100.379 16.1963 99.0954 17.7001 97.0101 17.7001C94.9248 17.7001 93.6415 16.1762 93.6415 13.71C93.6415 11.2037 94.9248 9.67979 97.0301 9.67979Z" fill="#001A49"/>
<path d="M107.856 19.4445C107.736 18.5823 107.696 17.8204 107.696 16.8379V12.7877C108.578 10.8026 109.761 9.8001 111.204 9.8001C111.966 9.8001 112.568 10.1009 112.889 10.6222C113.129 11.0031 113.23 11.5445 113.23 12.3866V16.8379C113.23 17.8605 113.189 18.5422 113.089 19.4445H115.997C115.876 18.7026 115.836 17.9407 115.836 16.8379V12.0257C115.836 10.6823 115.636 9.8803 115.154 9.21863C114.433 8.23614 113.29 7.73487 111.746 7.73487C109.941 7.73487 108.879 8.29629 107.655 9.86025C107.696 9.35898 107.696 9.29883 107.696 8.99807V7.93538H104.969C105.089 8.75746 105.129 9.43918 105.129 10.542V16.8379C105.129 17.9608 105.089 18.5823 104.969 19.4445H107.856Z" fill="#001A49"/>
<path d="M129.247 14.3516C129.207 13.8905 129.207 13.8303 129.207 13.7902C129.147 12.4267 129.007 11.7049 128.626 10.7425C127.824 8.73741 125.979 7.57446 123.633 7.57446C120.204 7.57446 117.979 10.0006 117.979 13.71C117.979 17.4595 120.224 19.8255 123.773 19.8255C125.458 19.8255 126.861 19.3042 127.904 18.2816C128.405 17.7803 128.666 17.3993 129.127 16.4369L126.761 15.675C126.56 16.2163 126.42 16.4369 126.179 16.7176C125.598 17.3592 124.756 17.7202 123.773 17.7202C122.751 17.7202 121.848 17.3191 121.267 16.5973C120.806 16.0158 120.625 15.4544 120.525 14.3516H129.247ZM120.585 12.3666C120.886 10.6823 122.029 9.63969 123.593 9.63969C124.535 9.63969 125.217 9.90035 125.758 10.4417C126.26 10.943 126.5 11.4844 126.641 12.3666H120.585Z" fill="#001A49"/>
</svg>
