<svg width="791" height="724" viewBox="0 0 791 724" fill="none" xmlns="http://www.w3.org/2000/svg">
<path fill-rule="evenodd" clip-rule="evenodd" d="M411.426 77.0134C257.872 34.1808 290.263 196.219 199.636 220.836C109.01 245.453 -43.0383 257.99 121.77 470.25C286.579 682.51 633.476 723.54 688.494 574.65C743.511 425.76 564.98 119.846 411.426 77.0134Z" fill="#FFF6EA"/>
<path d="M492.315 473.912V524.417C492.316 526.276 491.95 528.117 491.238 529.833C490.526 531.55 489.482 533.11 488.167 534.423C486.851 535.736 485.289 536.776 483.571 537.485C481.852 538.194 480.011 538.556 478.152 538.552H290.842C288.985 538.553 287.146 538.188 285.43 537.478C283.715 536.768 282.156 535.728 280.842 534.415C279.529 533.102 278.488 531.544 277.777 529.828C277.067 528.112 276.702 526.274 276.702 524.417V268.812C276.713 265.066 278.207 261.477 280.856 258.829C283.506 256.18 287.096 254.688 290.842 254.678H329.71V281.535C329.72 283.406 330.467 285.199 331.79 286.522C333.113 287.847 334.905 288.595 336.777 288.607H432.212C434.085 288.597 435.878 287.848 437.202 286.524C438.526 285.2 439.274 283.407 439.284 281.535V254.678H478.152C481.898 254.688 485.488 256.18 488.137 258.829C490.787 261.477 492.28 265.066 492.292 268.812V310.728" stroke="#020064" stroke-width="3" stroke-linecap="round" stroke-linejoin="round"/>
<path d="M492.296 360.633V372.085L481.977 367.345C485.266 364.885 488.714 362.643 492.296 360.633Z" stroke="#020064" stroke-width="3" stroke-linecap="round" stroke-linejoin="round"/>
<path d="M414.543 274.466H354.459" stroke="#020064" stroke-width="3" stroke-linecap="round" stroke-linejoin="round"/>
<path d="M471.091 395.41C469.669 394.348 468.195 393.22 466.64 392.092C465.863 391.528 465.086 390.959 464.308 390.324C463.601 389.991 462.916 389.615 462.256 389.196L461.407 388.556C460.865 388.165 460.367 387.715 459.924 387.214C456.388 390.959 452.857 394.993 449.392 399.301C447.024 402.179 443.616 404.007 439.909 404.388C436.202 404.769 432.494 403.673 429.59 401.337C426.687 399.001 424.821 395.614 424.399 391.912C423.977 388.209 425.033 384.489 427.336 381.559C439.644 365.729 454.417 351.981 471.091 340.843" stroke="#020064" stroke-width="3" stroke-linecap="round" stroke-linejoin="round"/>
<path d="M439.284 274.466H464.027C465.898 274.477 467.689 275.225 469.012 276.548C470.335 277.871 471.083 279.662 471.094 281.533V320.278" stroke="#020064" stroke-width="3" stroke-linecap="round" stroke-linejoin="round"/>
<path d="M471.087 458.321V497.127C471.075 498.997 470.326 500.787 469.003 502.109C467.68 503.431 465.889 504.179 464.02 504.19H304.974C303.104 504.179 301.313 503.431 299.99 502.109C298.667 500.787 297.919 498.997 297.906 497.127V281.533C297.917 279.662 298.666 277.871 299.989 276.548C301.311 275.225 303.103 274.477 304.974 274.466H329.716" stroke="#020064" stroke-width="3" stroke-linecap="round" stroke-linejoin="round"/>
<path d="M458.246 423.136V423.207L460.72 426.667C461.82 428.191 463.479 429.218 465.333 429.522C467.188 429.827 469.088 429.385 470.618 428.293L471.092 427.942" stroke="#020064" stroke-width="3" stroke-linecap="round" stroke-linejoin="round"/>
<path d="M322.598 331.015H430.585" stroke="#020064" stroke-width="3" stroke-linecap="round" stroke-linejoin="round"/>
<path d="M420.055 362.826H322.577" stroke="#020064" stroke-width="3" stroke-linecap="round" stroke-linejoin="round"/>
<path d="M322.598 398.171H397.86" stroke="#020064" stroke-width="3" stroke-linecap="round" stroke-linejoin="round"/>
<path d="M329.72 266.407V249.727C329.73 247.856 330.477 246.063 331.801 244.739C333.124 243.415 334.916 242.667 336.787 242.655H368.948" stroke="#020064" stroke-width="3" stroke-linecap="round" stroke-linejoin="round"/>
<path d="M403.58 242.655H432.21C434.083 242.665 435.875 243.414 437.2 244.738C438.523 246.062 439.272 247.855 439.282 249.727V266.407" stroke="#020064" stroke-width="3" stroke-linecap="round" stroke-linejoin="round"/>
<path d="M386.271 256.796C396.03 256.796 403.941 248.884 403.941 239.125C403.941 229.366 396.03 221.454 386.271 221.454C376.511 221.454 368.6 229.366 368.6 239.125C368.6 248.884 376.511 256.796 386.271 256.796Z" stroke="#020064" stroke-width="3" stroke-linecap="round" stroke-linejoin="round"/>
<path d="M333.393 434.923C331.568 436.748 330.221 438.994 329.472 441.464C328.722 443.934 328.593 446.55 329.096 449.081C329.6 451.613 330.719 453.981 332.357 455.976C333.994 457.972 336.097 459.532 338.482 460.52C340.866 461.508 343.457 461.893 346.026 461.64C348.594 461.388 351.061 460.506 353.207 459.072C355.353 457.638 357.113 455.698 358.329 453.422C359.546 451.146 360.183 448.605 360.184 446.024V449.133C360.248 452.428 361.601 455.566 363.954 457.874C366.307 460.181 369.471 461.474 372.766 461.474C376.061 461.474 379.225 460.181 381.578 457.874C383.931 455.566 385.284 452.428 385.348 449.133C385.351 451.71 386.14 454.226 387.609 456.343" stroke="#020064" stroke-width="3" stroke-linecap="round" stroke-linejoin="round"/>
<path d="M494.772 413.009C506.503 421.423 515.059 427.229 521.704 431.391L520.927 446.36C520.825 448.212 520.359 450.026 519.556 451.698C518.753 453.37 517.628 454.868 516.246 456.105C514.864 457.343 513.252 458.296 511.502 458.911C509.752 459.525 507.898 459.788 506.046 459.687C504.193 459.584 502.38 459.119 500.707 458.315C499.035 457.512 497.538 456.387 496.3 455.006C495.063 453.624 494.11 452.012 493.495 450.261C492.881 448.511 492.617 446.657 492.719 444.805L494.416 413.772V412.801" stroke="#020064" stroke-width="3" stroke-linecap="round" stroke-linejoin="round"/>
<path d="M494.772 413.011L494.416 413.788L492.298 417.888L484.453 433.156C483.188 435.564 481.254 437.555 478.883 438.889C476.512 440.223 473.806 440.843 471.091 440.673C469.059 440.583 467.076 440.026 465.294 439.048C462.465 437.563 460.24 435.14 459.004 432.194" stroke="#020064" stroke-width="3" stroke-linecap="round" stroke-linejoin="round"/>
<path d="M493.43 412.02C493.075 411.741 492.653 411.456 492.297 411.177C486.287 406.792 479.575 401.772 471.797 395.904" stroke="#020064" stroke-width="3" stroke-linecap="round" stroke-linejoin="round"/>
<path d="M471.092 427.927L470.618 428.277C469.088 429.37 467.188 429.812 465.333 429.507C463.479 429.202 461.82 428.176 460.72 426.652L458.246 423.191" stroke="#020064" stroke-width="3" stroke-linecap="round" stroke-linejoin="round"/>
<path d="M703.303 440.644L679.504 416.845C678.178 415.521 676.382 414.776 674.508 414.776C672.634 414.776 670.837 415.521 669.512 416.845L602.033 484.324C600.708 485.65 599.964 487.448 599.964 489.322C599.964 491.197 600.708 492.994 602.033 494.32L625.828 518.115" stroke="#020064" stroke-width="3" stroke-linecap="round" stroke-linejoin="round"/>
<path d="M669.505 416.83L602.003 484.332L592.049 474.297C591.226 473.48 590.62 472.468 590.289 471.356C589.958 470.244 589.911 469.066 590.153 467.932C590.239 467.5 590.358 467.075 590.508 466.661C590.865 465.788 591.394 464.995 592.063 464.329L649.502 406.861C649.721 406.631 649.957 406.419 650.209 406.226C651.578 405.185 653.278 404.676 654.994 404.793C656.711 404.909 658.326 405.645 659.542 406.861L669.505 416.83Z" stroke="#020064" stroke-width="3" stroke-linecap="round" stroke-linejoin="round"/>
<path d="M494.794 413.012C494.76 412.948 494.709 412.894 494.646 412.857C494.583 412.82 494.511 412.802 494.438 412.803C494.142 412.505 493.811 412.242 493.452 412.021L494.794 413.012ZM493.85 372.793L492.296 372.087L493.85 372.793ZM514.702 382.264L493.846 372.784L514.702 382.325C515.988 382.945 517.31 383.488 518.66 383.951C517.389 383.468 516.072 382.904 514.702 382.264Z" stroke="#020064" stroke-width="3" stroke-linecap="round" stroke-linejoin="round"/>
<path d="M561.995 324.301L526.369 349.665C514.31 350.597 502.639 354.351 492.298 360.624C488.716 362.635 485.269 364.879 481.979 367.34L476.04 364.653C474.493 363.904 472.809 363.481 471.091 363.411C468.253 363.218 465.424 363.887 462.973 365.33C460.523 366.774 458.565 368.924 457.358 371.499C456.15 374.074 455.749 376.954 456.207 379.761C456.665 382.568 457.961 385.171 459.924 387.229C456.388 390.974 452.857 395.008 449.392 399.316C447.024 402.194 443.616 404.022 439.909 404.403C436.202 404.784 432.494 403.688 429.59 401.352C426.687 399.016 424.821 395.629 424.399 391.927C423.977 388.224 425.033 384.504 427.336 381.574C439.645 365.745 454.418 351.997 471.091 340.858C477.795 336.459 484.894 332.696 492.298 329.619C509.7 322.228 528.727 319.498 547.505 321.699C552.388 322.243 557.229 323.112 561.995 324.301Z" stroke="#020064" stroke-width="3" stroke-linecap="round" stroke-linejoin="round"/>
<path d="M494.772 413.014C506.504 421.428 515.06 427.234 521.705 431.396C528.826 436.033 536.435 439.872 544.395 442.843C565.318 451.043 574.575 454.935 589.985 468.856C589.998 468.547 590.045 468.24 590.127 467.942C590.212 467.508 590.331 467.082 590.483 466.666C590.839 465.793 591.368 465 592.037 464.334L649.505 406.867C649.724 406.637 649.96 406.425 650.211 406.231C632.256 390.68 626.957 358.869 596.28 339.009L556.411 367.283C556.374 369.974 555.565 372.599 554.079 374.843C551.288 378.507 547.649 381.438 543.474 383.384C539.3 385.33 534.715 386.233 530.114 386.015C528.934 386.013 527.754 385.942 526.583 385.802C523.882 385.484 521.226 384.868 518.662 383.963C517.312 383.499 515.99 382.957 514.704 382.337L493.848 372.795" stroke="#020064" stroke-width="3" stroke-linecap="round" stroke-linejoin="round"/>
<path d="M493.431 412.02C493.076 411.74 492.654 411.456 492.299 411.176C486.288 406.791 479.576 401.772 471.798 395.904C471.534 395.794 471.294 395.633 471.092 395.43C469.67 394.368 468.196 393.24 466.641 392.112C465.864 391.548 465.086 390.979 464.309 390.344C463.602 390.011 462.916 389.635 462.256 389.216L461.408 388.576C460.865 388.185 460.368 387.735 459.924 387.234C457.962 385.176 456.667 382.572 456.21 379.765C455.752 376.958 456.154 374.078 457.36 371.504C458.568 368.928 460.524 366.778 462.975 365.334C465.425 363.89 468.254 363.219 471.092 363.411C472.811 363.492 474.496 363.926 476.04 364.686L481.98 367.374L492.299 372.114" stroke="#020064" stroke-width="3" stroke-linecap="round" stroke-linejoin="round"/>
<path d="M669.505 416.83L602.003 484.332L592.049 474.297C591.226 473.48 590.62 472.468 590.289 471.356C589.958 470.244 589.911 469.066 590.153 467.932C590.239 467.5 590.358 467.075 590.508 466.661C590.865 465.788 591.394 464.995 592.063 464.329L649.502 406.861C649.721 406.631 649.957 406.419 650.209 406.226C651.578 405.185 653.278 404.676 654.994 404.793C656.711 404.909 658.326 405.645 659.542 406.861L669.505 416.83Z" stroke="#020064" stroke-width="3" stroke-linecap="round" stroke-linejoin="round"/>
<path d="M604.76 324.797C604.759 327.332 604.149 329.831 602.981 332.082C601.813 334.333 600.121 336.271 598.049 337.732L596.281 339.007L556.412 367.281L541.851 377.671L523.469 351.729L526.37 349.677L561.996 324.304L579.596 311.79C581.986 310.117 584.788 309.129 587.699 308.934C590.61 308.739 593.519 309.344 596.111 310.684C598.703 312.024 600.879 314.047 602.404 316.534C603.928 319.022 604.743 321.879 604.76 324.797Z" stroke="#020064" stroke-width="3" stroke-linecap="round" stroke-linejoin="round"/>
<path d="M525.94 336.951L566.278 308.293C567.402 307.458 568.684 306.859 570.046 306.532C571.408 306.205 572.823 306.157 574.203 306.391C575.585 306.625 576.904 307.135 578.083 307.892C579.261 308.65 580.275 309.637 581.062 310.796" stroke="#020064" stroke-width="3" stroke-linecap="round" stroke-linejoin="round"/>
<path d="M441.401 436.059L435.604 440.159C435.889 448.43 418.853 450.549 406.975 451.061C406.22 451.088 405.477 450.87 404.857 450.44C404.236 450.01 403.772 449.39 403.534 448.674C403.295 447.957 403.295 447.183 403.533 446.466C403.772 445.75 404.236 445.13 404.856 444.7L433.201 424.555L441.401 436.059Z" stroke="#020064" stroke-width="3" stroke-linecap="round" stroke-linejoin="round"/>
<path d="M462.747 429.555L459.003 432.171L448.328 439.727C447.578 440.269 446.643 440.492 445.729 440.346C444.814 440.2 443.995 439.698 443.451 438.949L441.403 436.053L433.203 424.559C432.93 424.18 432.735 423.75 432.63 423.294C432.525 422.839 432.511 422.367 432.59 421.907C432.67 421.446 432.839 421.006 433.09 420.612C433.341 420.217 433.668 419.877 434.051 419.61L448.399 409.362L449.821 411.258C449.984 411.581 450.174 411.888 450.39 412.178C450.409 412.178 450.427 412.185 450.44 412.199C450.454 412.212 450.461 412.23 450.461 412.249L458.235 423.151V423.222L460.709 426.682L462.747 429.555Z" stroke="#020064" stroke-width="3" stroke-linecap="round" stroke-linejoin="round"/>
<path d="M471.091 427.929L492.298 412.87L493.431 412.021C493.075 411.742 492.653 411.457 492.298 411.178C486.288 406.793 479.576 401.773 471.797 395.905C471.533 395.795 471.293 395.634 471.091 395.431C469.669 394.37 468.195 393.241 466.64 392.113L452.15 402.432C450.767 403.381 449.77 404.795 449.341 406.416C448.912 408.037 449.08 409.759 449.813 411.268C449.976 411.59 450.166 411.898 450.382 412.187C450.401 412.187 450.419 412.195 450.432 412.208C450.446 412.221 450.453 412.239 450.453 412.258L458.227 423.16" stroke="#020064" stroke-width="3" stroke-linecap="round" stroke-linejoin="round"/>
<path d="M541.85 377.67L530.114 386.012C528.934 386.01 527.754 385.938 526.583 385.799C523.882 385.481 521.226 384.864 518.662 383.96C517.312 383.496 515.99 382.953 514.704 382.334L493.848 372.792L523.464 351.728L541.85 377.67Z" stroke="#020064" stroke-width="3" stroke-linecap="round" stroke-linejoin="round"/>
<path d="M493.848 372.792L492.296 372.087" stroke="#020064" stroke-width="3" stroke-linecap="round" stroke-linejoin="round"/>
<path d="M494.764 413.011C494.73 412.947 494.679 412.893 494.617 412.856C494.554 412.82 494.483 412.802 494.41 412.804C494.115 412.506 493.785 412.244 493.428 412.024" stroke="#020064" stroke-width="3" stroke-linecap="round" stroke-linejoin="round"/>
<path d="M493.848 372.792L492.296 372.087" stroke="#020064" stroke-width="3" stroke-linecap="round" stroke-linejoin="round"/>
<path d="M494.764 413.011C494.73 412.947 494.679 412.893 494.617 412.856C494.554 412.82 494.483 412.802 494.41 412.804C494.115 412.506 493.785 412.244 493.428 412.024" stroke="#020064" stroke-width="3" stroke-linecap="round" stroke-linejoin="round"/>
<circle cx="674.214" cy="243.186" r="4.30909" fill="#DA7B07"/>
<path d="M169.789 383.712C167.583 383.712 165.398 384.147 163.36 384.992C161.322 385.837 159.47 387.075 157.911 388.636C156.352 390.197 155.116 392.05 154.273 394.089C153.43 396.128 152.998 398.313 153 400.519C153 409.791 169.789 427.086 169.789 427.086C169.789 427.086 186.597 409.791 186.597 400.519C186.597 396.062 184.826 391.787 181.674 388.635C178.522 385.483 174.247 383.712 169.789 383.712ZM169.789 407.206C168.663 407.206 167.561 406.872 166.625 406.246C165.688 405.619 164.959 404.729 164.528 403.688C164.098 402.647 163.986 401.501 164.207 400.396C164.428 399.291 164.972 398.277 165.77 397.482C166.568 396.686 167.584 396.145 168.69 395.928C169.795 395.71 170.941 395.825 171.981 396.259C173.021 396.693 173.908 397.425 174.532 398.364C175.155 399.302 175.486 400.405 175.482 401.532C175.473 403.035 174.869 404.474 173.802 405.534C172.736 406.593 171.293 407.188 169.789 407.188V407.206Z" fill="#DA7B07"/>
<path d="M344.19 306C341.984 306 339.799 306.435 337.761 307.28C335.723 308.125 333.871 309.363 332.312 310.924C330.752 312.485 329.516 314.338 328.673 316.377C327.831 318.416 327.398 320.601 327.401 322.808C327.401 332.079 344.19 349.374 344.19 349.374C344.19 349.374 360.998 332.079 360.998 322.808C360.998 318.35 359.227 314.075 356.075 310.923C352.923 307.771 348.648 306 344.19 306ZM344.19 329.494C343.063 329.494 341.962 329.16 341.025 328.534C340.089 327.907 339.359 327.017 338.929 325.976C338.498 324.935 338.387 323.789 338.608 322.684C338.829 321.579 339.373 320.565 340.171 319.77C340.969 318.974 341.985 318.433 343.091 318.216C344.196 317.998 345.341 318.114 346.381 318.547C347.421 318.981 348.309 319.713 348.932 320.652C349.556 321.59 349.886 322.693 349.883 323.82C349.873 325.323 349.269 326.762 348.203 327.822C347.136 328.882 345.694 329.476 344.19 329.476V329.494Z" fill="#DA7B07"/>
<path d="M482.808 574C480.601 573.998 478.416 574.43 476.377 575.273C474.338 576.116 472.485 577.352 470.924 578.911C469.363 580.47 468.125 582.322 467.28 584.36C466.435 586.398 466 588.583 466 590.789C466 600.079 482.808 617.356 482.808 617.356C482.808 617.356 499.597 600.079 499.597 590.789C499.597 586.337 497.828 582.066 494.679 578.918C491.531 575.769 487.26 574 482.808 574ZM482.808 597.494C481.687 597.494 480.591 597.162 479.659 596.54C478.726 595.918 477.999 595.034 477.568 594C477.138 592.965 477.023 591.826 477.239 590.726C477.455 589.626 477.992 588.615 478.782 587.82C479.572 587.025 480.58 586.481 481.678 586.258C482.777 586.035 483.917 586.142 484.954 586.566C485.992 586.99 486.881 587.712 487.508 588.641C488.136 589.569 488.475 590.663 488.482 591.783C488.482 593.288 487.884 594.732 486.82 595.796C485.756 596.86 484.313 597.458 482.808 597.458V597.494Z" fill="#DA7B07"/>
<path d="M531.808 196C529.601 195.998 527.416 196.43 525.377 197.273C523.338 198.116 521.485 199.352 519.924 200.911C518.363 202.47 517.125 204.322 516.28 206.36C515.435 208.398 515 210.583 515 212.789C515 222.079 531.808 239.356 531.808 239.356C531.808 239.356 548.597 222.079 548.597 212.789C548.597 208.337 546.828 204.066 543.679 200.918C540.531 197.769 536.26 196 531.808 196ZM531.808 219.494C530.687 219.494 529.591 219.162 528.659 218.54C527.726 217.918 526.999 217.034 526.568 216C526.138 214.965 526.023 213.826 526.239 212.726C526.455 211.626 526.992 210.615 527.782 209.82C528.572 209.025 529.58 208.481 530.678 208.258C531.777 208.035 532.917 208.142 533.954 208.566C534.992 208.99 535.881 209.712 536.508 210.641C537.136 211.569 537.475 212.663 537.482 213.783C537.482 215.288 536.884 216.732 535.82 217.796C534.756 218.86 533.313 219.458 531.808 219.458V219.494Z" fill="#DA7B07"/>
</svg>
