<svg width="805" height="544" viewBox="0 0 805 544" fill="none" xmlns="http://www.w3.org/2000/svg">
<g opacity="0.5">
<path d="M151.645 590.839C151.645 590.839 293.843 622.587 371.266 440.376C448.689 258.165 490.064 460.43 581.363 292.844C672.662 125.257 757.181 171.095 787.518 169.76C817.855 168.425 932.464 45.854 932.464 45.854" stroke="#275C70" stroke-width="2"/>
<path d="M155.281 597.449C155.281 597.449 297.479 629.197 374.902 446.986C452.325 264.775 493.7 467.039 584.999 299.453C676.297 131.867 760.817 177.704 791.154 176.37C821.491 175.035 936.1 52.4634 936.1 52.4634" stroke="#275C70" stroke-width="2"/>
<path d="M158.918 604.056C158.918 604.056 301.116 635.804 378.539 453.593C455.962 271.382 497.337 473.647 588.636 306.06C679.935 138.474 764.454 184.312 794.791 182.977C825.128 181.642 939.737 59.0708 939.737 59.0708" stroke="#275C70" stroke-width="2"/>
<path d="M162.554 610.665C162.554 610.665 304.752 642.412 382.175 460.201C459.598 277.991 500.973 480.255 592.272 312.669C683.57 145.083 768.09 190.92 798.427 189.585C828.764 188.251 943.373 65.6792 943.373 65.6792" stroke="#275C70" stroke-width="2"/>
<path d="M166.191 617.272C166.191 617.272 308.389 649.02 385.812 466.809C463.235 284.598 504.61 486.862 595.909 319.276C687.208 151.69 771.727 197.528 802.064 196.193C832.401 194.858 947.01 72.2866 947.01 72.2866" stroke="#275C70" stroke-width="2"/>
<path d="M169.826 623.88C169.826 623.88 312.024 655.628 389.447 473.417C466.87 291.206 508.245 493.471 599.544 325.885C690.842 158.298 775.362 204.136 805.699 202.801C836.036 201.466 950.645 78.895 950.645 78.895" stroke="#275C70" stroke-width="2"/>
<path d="M173.463 630.489C173.463 630.489 315.661 662.237 393.084 480.026C470.507 297.815 511.882 500.079 603.181 332.493C694.48 164.907 778.999 210.744 809.336 209.41C839.673 208.075 954.282 85.5034 954.282 85.5034" stroke="#275C70" stroke-width="2"/>
<path d="M177.099 637.096C177.099 637.096 319.297 668.844 396.72 486.633C474.143 304.422 515.518 506.687 606.817 339.1C698.116 171.514 782.635 217.352 812.972 216.017C843.31 214.682 957.918 92.1108 957.918 92.1108" stroke="#275C70" stroke-width="2"/>
<path d="M180.735 643.705C180.735 643.705 322.933 675.453 400.356 493.242C477.779 311.031 519.154 513.295 610.453 345.709C701.751 178.123 786.271 223.96 816.608 222.625C846.945 221.291 961.554 98.7192 961.554 98.7192" stroke="#275C70" stroke-width="2"/>
<path d="M184.372 650.313C184.372 650.313 326.57 682.061 403.993 499.85C481.416 317.639 522.791 519.903 614.09 352.317C705.389 184.731 789.908 230.569 820.245 229.234C850.582 227.899 965.191 105.328 965.191 105.328" stroke="#275C70" stroke-width="2"/>
<path d="M188.008 656.921C188.008 656.921 330.206 688.669 407.629 506.458C485.052 324.247 526.427 526.512 617.726 358.926C709.024 191.339 793.544 237.177 823.881 235.842C854.218 234.507 968.827 111.936 968.827 111.936" stroke="#275C70" stroke-width="2"/>
<path d="M191.645 663.529C191.645 663.529 333.843 695.277 411.266 513.066C488.689 330.855 530.064 533.119 621.363 365.533C712.662 197.947 797.181 243.784 827.518 242.45C857.855 241.115 972.464 118.543 972.464 118.543" stroke="#275C70" stroke-width="2"/>
<path d="M195.281 670.138C195.281 670.138 337.479 701.886 414.902 519.675C492.325 337.464 533.7 539.729 624.999 372.142C716.297 204.556 800.817 250.394 831.154 249.059C861.491 247.724 976.1 125.153 976.1 125.153" stroke="#275C70" stroke-width="2"/>
<path d="M198.916 676.746C198.916 676.746 341.114 708.494 418.537 526.283C495.96 344.072 537.335 546.336 628.634 378.75C719.933 211.164 804.452 257.001 834.789 255.666C865.126 254.332 979.735 131.76 979.735 131.76" stroke="#275C70" stroke-width="2"/>
<path d="M202.552 683.354C202.552 683.354 344.75 715.102 422.173 532.891C499.596 350.68 540.971 552.944 632.27 385.358C723.568 217.772 808.088 263.61 838.425 262.275C868.762 260.94 983.371 138.369 983.371 138.369" stroke="#275C70" stroke-width="2"/>
<path d="M206.189 689.962C206.189 689.962 348.387 721.71 425.81 539.499C503.233 357.288 544.608 559.553 635.907 391.967C727.206 224.38 811.725 270.218 842.062 268.883C872.399 267.548 987.008 144.977 987.008 144.977" stroke="#275C70" stroke-width="2"/>
<path d="M209.825 696.57C209.825 696.57 352.023 728.318 429.446 546.107C506.869 363.896 548.245 566.16 639.543 398.574C730.842 230.988 815.361 276.825 845.698 275.491C876.036 274.156 990.644 151.584 990.644 151.584" stroke="#275C70" stroke-width="2"/>
<path d="M213.462 703.178C213.462 703.178 355.66 734.926 433.083 552.715C510.506 370.504 551.881 572.769 643.18 405.182C734.479 237.596 818.998 283.434 849.335 282.099C879.672 280.764 994.281 158.193 994.281 158.193" stroke="#275C70" stroke-width="2"/>
<path d="M217.098 709.787C217.098 709.787 359.296 741.535 436.719 559.324C514.142 377.113 555.517 579.377 646.816 411.791C738.115 244.205 822.634 290.042 852.971 288.707C883.309 287.373 997.917 164.801 997.917 164.801" stroke="#275C70" stroke-width="2"/>
<path d="M220.735 716.395C220.735 716.395 362.933 748.143 440.356 565.932C517.779 383.721 559.154 585.985 650.453 418.399C741.751 250.813 826.271 296.651 856.608 295.316C886.945 293.981 1001.55 171.41 1001.55 171.41" stroke="#275C70" stroke-width="2"/>
<path d="M224.37 723.003C224.37 723.003 366.568 754.751 443.991 572.54C521.414 390.329 562.789 592.594 654.088 425.008C745.387 257.421 829.906 303.259 860.243 301.924C890.581 300.589 1005.19 178.018 1005.19 178.018" stroke="#275C70" stroke-width="2"/>
<path d="M228.006 729.611C228.006 729.611 370.204 761.359 447.627 579.148C525.05 396.937 566.425 599.201 657.724 431.615C749.022 264.029 833.542 309.866 863.879 308.532C894.216 307.197 1008.82 184.625 1008.82 184.625" stroke="#275C70" stroke-width="2"/>
<path d="M231.643 736.219C231.643 736.219 373.841 767.967 451.264 585.756C528.687 403.545 570.062 605.81 661.361 438.223C752.66 270.637 837.179 316.475 867.516 315.14C897.853 313.805 1012.46 191.234 1012.46 191.234" stroke="#275C70" stroke-width="2"/>
<path d="M235.279 742.828C235.279 742.828 377.477 774.576 454.9 592.365C532.323 410.154 573.698 612.418 664.997 444.832C756.295 277.246 840.815 323.083 871.152 321.748C901.489 320.414 1016.1 197.842 1016.1 197.842" stroke="#275C70" stroke-width="2"/>
<path d="M238.916 749.435C238.916 749.435 381.114 781.183 458.537 598.972C535.96 416.761 577.335 619.026 668.634 451.439C759.933 283.853 844.452 329.691 874.789 328.356C905.126 327.021 1019.73 204.45 1019.73 204.45" stroke="#275C70" stroke-width="2"/>
<path d="M242.552 756.043C242.552 756.043 384.75 787.791 462.173 605.58C539.596 423.369 580.972 625.634 672.27 458.048C763.569 290.461 848.088 336.299 878.425 334.964C908.763 333.629 1023.37 211.058 1023.37 211.058" stroke="#275C70" stroke-width="2"/>
<path d="M246.189 762.652C246.189 762.652 388.387 794.4 465.81 612.189C543.233 429.978 584.608 632.242 675.907 464.656C767.206 297.07 851.725 342.907 882.062 341.573C912.399 340.238 1027.01 217.666 1027.01 217.666" stroke="#275C70" stroke-width="2"/>
<path d="M249.824 769.259C249.824 769.259 392.022 801.007 469.445 618.796C546.868 436.585 588.244 638.85 679.542 471.263C770.841 303.677 855.36 349.515 885.697 348.18C916.035 346.845 1030.64 224.274 1030.64 224.274" stroke="#275C70" stroke-width="2"/>
<path d="M253.46 775.868C253.46 775.868 395.658 807.616 473.081 625.405C550.504 443.194 591.879 645.458 683.178 477.872C774.477 310.286 858.996 356.123 889.333 354.788C919.67 353.454 1034.28 230.882 1034.28 230.882" stroke="#275C70" stroke-width="2"/>
<path d="M257.096 782.477C257.096 782.477 399.294 814.225 476.717 632.014C554.14 449.803 595.515 652.068 686.814 484.481C778.112 316.895 862.632 362.733 892.969 361.398C923.306 360.063 1037.91 237.492 1037.91 237.492" stroke="#275C70" stroke-width="2"/>
<path d="M260.733 789.084C260.733 789.084 402.931 820.832 480.354 638.621C557.777 456.41 599.152 658.675 690.451 491.089C781.75 323.502 866.269 369.34 896.606 368.005C926.943 366.67 1041.55 244.099 1041.55 244.099" stroke="#275C70" stroke-width="2"/>
</g>
</svg>
