<svg width="124" height="31" viewBox="0 0 124 31" fill="none" xmlns="http://www.w3.org/2000/svg">
<path d="M42.2819 22.3042L37.8276 7.20102H42.3999L44.4648 16.493H44.5828L47.0311 7.20102H50.6299L53.0783 16.5225H53.1963L55.2612 7.20102H59.8334L55.3792 22.3042H51.4559L48.8895 13.8677H48.7715L46.2052 22.3042H42.2819Z" fill="#1F143F"/>
<path d="M63.058 22.4812C62.3353 22.4812 61.6961 22.3632 61.1406 22.1272C60.5899 21.8863 60.1573 21.5225 59.8427 21.0358C59.528 20.549 59.3707 19.9296 59.3707 19.1774C59.3707 18.5579 59.4764 18.0294 59.6878 17.5918C59.8992 17.1493 60.1942 16.788 60.5727 16.5078C60.9513 16.2275 61.3913 16.0137 61.8928 15.8662C62.3992 15.7187 62.9449 15.6228 63.53 15.5786C64.1642 15.5294 64.673 15.4704 65.0565 15.4016C65.4449 15.3278 65.7251 15.227 65.8972 15.0992C66.0693 14.9665 66.1553 14.7919 66.1553 14.5756V14.5461C66.1553 14.2511 66.0422 14.025 65.8161 13.8677C65.5899 13.7103 65.2999 13.6317 64.9459 13.6317C64.5575 13.6317 64.2404 13.7177 63.9946 13.8898C63.7536 14.0569 63.6086 14.315 63.5595 14.6641H59.8132C59.8623 13.9758 60.0811 13.3416 60.4695 12.7615C60.8628 12.1764 61.4356 11.7094 62.1878 11.3603C62.94 11.0063 63.879 10.8293 65.0049 10.8293C65.8161 10.8293 66.5437 10.9252 67.1878 11.1169C67.8318 11.3038 68.38 11.5668 68.8323 11.906C69.2846 12.2403 69.6287 12.6336 69.8647 13.0859C70.1056 13.5333 70.2261 14.0201 70.2261 14.5461V22.3042H66.4208V20.7113H66.3323C66.1061 21.1341 65.8308 21.4758 65.5063 21.7363C65.1868 21.9969 64.8205 22.1862 64.4075 22.3042C63.9995 22.4222 63.5496 22.4812 63.058 22.4812ZM64.3854 19.9148C64.6951 19.9148 64.9852 19.8509 65.2556 19.7231C65.5309 19.5953 65.7546 19.4109 65.9267 19.17C66.0988 18.9291 66.1848 18.6366 66.1848 18.2924V17.3485C66.0766 17.3927 65.9611 17.4345 65.8382 17.4738C65.7202 17.5132 65.5924 17.55 65.4547 17.5844C65.322 17.6189 65.1794 17.6508 65.027 17.6803C64.8795 17.7098 64.7246 17.7369 64.5624 17.7614C64.2477 17.8106 63.9896 17.8917 63.7881 18.0048C63.5914 18.113 63.4439 18.2482 63.3456 18.4104C63.2522 18.5677 63.2055 18.7447 63.2055 18.9414C63.2055 19.256 63.3161 19.4969 63.5373 19.6641C63.7586 19.8312 64.0413 19.9148 64.3854 19.9148Z" fill="#1F143F"/>
<path d="M83.1814 10.9768L79.3761 22.3042H74.6564L70.8511 10.9768H75.1283L76.9572 18.4694H77.0752L78.9041 10.9768H83.1814Z" fill="#1F143F"/>
<path d="M89.4222 22.5107C88.2127 22.5107 87.1705 22.2796 86.2953 21.8175C85.4251 21.3504 84.754 20.6818 84.2821 19.8116C83.815 18.9365 83.5815 17.8893 83.5815 16.67C83.5815 15.4999 83.8175 14.4773 84.2894 13.6022C84.7614 12.727 85.4276 12.0461 86.288 11.5594C87.1483 11.0727 88.1636 10.8293 89.3337 10.8293C90.1891 10.8293 90.9635 10.9621 91.6567 11.2275C92.3499 11.493 92.9423 11.879 93.4339 12.3854C93.9256 12.8868 94.3041 13.4965 94.5696 14.2143C94.8351 14.9321 94.9679 15.7408 94.9679 16.6405V17.5844H84.8499V15.3426H91.2216C91.2166 15.0181 91.1331 14.7329 90.9708 14.4871C90.8135 14.2364 90.5996 14.0422 90.3292 13.9045C90.0638 13.762 89.7614 13.6907 89.4222 13.6907C89.0928 13.6907 88.7904 13.762 88.5151 13.9045C88.2398 14.0422 88.0185 14.2339 87.8514 14.4797C87.6891 14.7256 87.6031 15.0132 87.5933 15.3426V17.7614C87.5933 18.1253 87.6695 18.4497 87.8219 18.7349C87.9743 19.02 88.1931 19.2437 88.4782 19.406C88.7634 19.5682 89.1075 19.6493 89.5107 19.6493C89.7909 19.6493 90.0466 19.61 90.2776 19.5313C90.5136 19.4527 90.7152 19.3396 90.8823 19.1921C91.0495 19.0397 91.1724 18.8578 91.2511 18.6464H94.9679C94.84 19.433 94.5377 20.1164 94.0608 20.6965C93.5839 21.2717 92.9521 21.7191 92.1655 22.0387C91.3838 22.3534 90.4694 22.5107 89.4222 22.5107Z" fill="#1F143F"/>
<path d="M96.629 22.3042V10.9768H100.582V13.1302H100.7C100.906 12.3337 101.233 11.7511 101.681 11.3824C102.133 11.0137 102.661 10.8293 103.266 10.8293C103.443 10.8293 103.618 10.8441 103.79 10.8736C103.967 10.8981 104.136 10.935 104.299 10.9842V14.4576C104.097 14.3888 103.849 14.3372 103.554 14.3028C103.259 14.2683 103.006 14.2511 102.794 14.2511C102.396 14.2511 102.037 14.3421 101.717 14.524C101.403 14.701 101.155 14.9517 100.973 15.2762C100.791 15.5958 100.7 15.9719 100.7 16.4045V22.3042H96.629Z" fill="#1F143F"/>
<path d="M105.633 22.3042V10.9768H109.704V22.3042H105.633ZM107.669 9.79687C107.118 9.79687 106.646 9.61497 106.253 9.25116C105.86 8.88734 105.663 8.44978 105.663 7.93848C105.663 7.42717 105.86 6.98961 106.253 6.6258C106.646 6.26198 107.118 6.08008 107.669 6.08008C108.224 6.08008 108.696 6.26198 109.085 6.6258C109.478 6.98961 109.675 7.42717 109.675 7.93848C109.675 8.44978 109.478 8.88734 109.085 9.25116C108.696 9.61497 108.224 9.79687 107.669 9.79687Z" fill="#1F143F"/>
<path d="M117.235 22.5107C116.006 22.5107 114.954 22.2673 114.079 21.7806C113.204 21.289 112.533 20.6056 112.066 19.7305C111.599 18.8504 111.365 17.8303 111.365 16.67C111.365 15.5097 111.599 14.492 112.066 13.6169C112.533 12.7369 113.204 12.0535 114.079 11.5668C114.954 11.0751 116.006 10.8293 117.235 10.8293C118.465 10.8293 119.517 11.0751 120.392 11.5668C121.267 12.0535 121.938 12.7369 122.405 13.6169C122.872 14.492 123.106 15.5097 123.106 16.67C123.106 17.8303 122.872 18.8504 122.405 19.7305C121.938 20.6056 121.267 21.289 120.392 21.7806C119.517 22.2673 118.465 22.5107 117.235 22.5107ZM117.265 19.5018C117.609 19.5018 117.907 19.3863 118.157 19.1552C118.408 18.9242 118.602 18.5948 118.74 18.167C118.878 17.7393 118.946 17.2305 118.946 16.6405C118.946 16.0456 118.878 15.5368 118.74 15.114C118.602 14.6862 118.408 14.3568 118.157 14.1258C117.907 13.8947 117.609 13.7792 117.265 13.7792C116.901 13.7792 116.589 13.8947 116.328 14.1258C116.068 14.3568 115.869 14.6862 115.731 15.114C115.593 15.5368 115.525 16.0456 115.525 16.6405C115.525 17.2305 115.593 17.7393 115.731 18.167C115.869 18.5948 116.068 18.9242 116.328 19.1552C116.589 19.3863 116.901 19.5018 117.265 19.5018Z" fill="#1F143F"/>
<path fill-rule="evenodd" clip-rule="evenodd" d="M6.42307 2.92269C5.34865 3.67395 4.37709 4.5622 3.53368 5.56209C6.98023 5.24211 11.3589 5.76459 16.4426 8.30644C21.8712 11.0207 26.2426 11.1125 29.2849 10.5256C29.0089 9.68985 28.6613 8.88658 28.2497 8.12297C24.7671 8.49028 20.3024 8.00409 15.0992 5.40256C11.7951 3.75052 8.88261 3.06999 6.42307 2.92269ZM26.2153 5.22733C23.4651 2.15452 19.4684 0.220703 15.0199 0.220703C13.7135 0.220703 12.446 0.387505 11.2377 0.70095C12.8742 1.1475 14.6128 1.80079 16.4426 2.71571C20.2521 4.62043 23.541 5.23372 26.2153 5.22733ZM29.9354 13.4593C26.26 14.1851 21.1847 14.036 15.0992 10.9933C9.40996 8.14865 4.8818 8.18448 1.82785 8.86315C1.67022 8.89815 1.51629 8.93495 1.36609 8.97325C0.966247 9.84283 0.647084 10.7572 0.418081 11.7068C0.662669 11.6415 0.915412 11.5794 1.17618 11.5214C4.88115 10.6981 10.116 10.7338 16.4426 13.8972C22.1319 16.7418 26.66 16.706 29.714 16.0273C29.8187 16.0041 29.9218 15.98 30.0232 15.9553C30.0343 15.7185 30.0398 15.4802 30.0398 15.2406C30.0398 14.6379 30.0044 14.0435 29.9354 13.4593ZM29.5328 19.125C25.8931 19.7613 20.9655 19.5171 15.0992 16.584C9.40996 13.7394 4.8818 13.7752 1.82785 14.4539C1.14996 14.6044 0.540146 14.7879 0.00220042 14.9816C0.000733724 15.0677 0 15.1541 0 15.2406C0 23.5359 6.72464 30.2605 15.0199 30.2605C21.9719 30.2605 27.8209 25.5375 29.5328 19.125Z" fill="#7F57F1"/>
</svg>
