<svg width="24" height="24" viewBox="0 0 24 24" fill="none" xmlns="http://www.w3.org/2000/svg">
<path fill-rule="evenodd" clip-rule="evenodd" d="M12.9494 10.741C13.4044 11.195 14.5264 11.389 15.8024 11.389C17.7464 11.389 20.0494 10.938 20.8994 10.27C21.6764 9.65795 21.9834 8.74195 21.7634 7.69095C21.3104 5.52695 18.5594 2.87695 16.1034 2.23895C14.8404 1.90995 13.7664 2.16395 13.0794 2.95395C12.1114 4.06995 11.8324 9.62095 12.9494 10.741ZM14.0214 9.69295C13.5324 9.03595 13.6804 4.68295 14.2164 3.93295C14.5184 3.58995 15.0254 3.50895 15.7254 3.68995C17.6114 4.18095 19.9594 6.39495 20.2954 7.99795C20.4284 8.63595 20.1924 8.91695 19.9714 9.09095C19.0064 9.85095 14.6594 10.153 14.0214 9.69295Z" fill="#6C707A"/>
<path fill-rule="evenodd" clip-rule="evenodd" d="M2.16797 13.4498C2.16797 18.1098 5.95897 21.9008 10.619 21.9008C15.172 21.9008 17.82 18.4388 18.668 16.3928C19.227 15.0428 19.216 13.9368 18.636 13.3568C17.916 12.6369 16.6334 12.6764 15.149 12.722L15.124 12.7228C13.766 12.7668 12.228 12.8158 11.615 12.2018C10.937 11.5238 10.881 9.92882 10.836 8.64682L10.8359 8.64476C10.7899 7.33774 10.7537 6.30652 10.175 5.72882C9.50697 5.06082 8.41697 4.96982 7.18497 5.48082C4.75297 6.48782 2.16797 9.62382 2.16797 13.4498ZM7.75897 6.86682C8.10497 6.72282 8.42397 6.65082 8.67397 6.65082C8.86797 6.65082 9.02097 6.69482 9.10997 6.78382C9.27669 6.99946 9.31285 8.01942 9.33685 8.69644L9.33697 8.69982C9.39097 10.2438 9.45897 12.1668 10.554 13.2628C11.624 14.3328 13.4995 14.2742 15.1581 14.2223L15.1909 14.2212C16.0248 14.1952 17.2602 14.1567 17.558 14.4018C17.632 14.5948 17.584 15.4818 16.791 16.7718C16.269 17.6238 14.278 20.4008 10.619 20.4008C6.78597 20.4008 3.66797 17.2828 3.66797 13.4498C3.66797 9.88882 6.17697 7.52182 7.75897 6.86682Z" fill="#6C707A"/>
</svg>
