<svg width="24" height="24" viewBox="0 0 24 24" fill="none" xmlns="http://www.w3.org/2000/svg">
<path fill-rule="evenodd" clip-rule="evenodd" d="M16.7173 9.27144C17.0447 9.52515 17.1045 9.99625 16.8508 10.3237L13.9218 14.1037C13.7994 14.2616 13.6192 14.3641 13.4209 14.3886C13.2227 14.4131 13.0229 14.3576 12.8658 14.2342L10.0474 12.0218L7.51627 15.3107C7.26364 15.639 6.79274 15.7003 6.46449 15.4477C6.13623 15.195 6.07492 14.7241 6.32755 14.3959L9.32055 10.5069C9.44263 10.3482 9.62305 10.245 9.82165 10.2201C10.0203 10.1952 10.2206 10.2508 10.378 10.3744L13.1983 12.5883L15.6651 9.40491C15.9188 9.07749 16.3899 9.01774 16.7173 9.27144Z" fill="#6C707A"/>
<path fill-rule="evenodd" clip-rule="evenodd" d="M19.672 3.09961C19.0242 3.09961 18.5 3.62382 18.5 4.27161C18.5 4.91865 19.0245 5.44361 19.672 5.44361C20.3195 5.44361 20.844 4.91865 20.844 4.27161C20.844 3.62382 20.3198 3.09961 19.672 3.09961ZM17 4.27161C17 2.7954 18.1958 1.59961 19.672 1.59961C21.1482 1.59961 22.344 2.7954 22.344 4.27161C22.344 5.74657 21.1485 6.94361 19.672 6.94361C18.1955 6.94361 17 5.74657 17 4.27161Z" fill="#6C707A"/>
<path fill-rule="evenodd" clip-rule="evenodd" d="M5.00708 5.60669C3.78411 6.82966 3.20312 8.87583 3.20312 12.3027C3.20312 15.7302 3.78412 17.7763 5.00706 18.9991C6.23001 20.222 8.27616 20.8027 11.7031 20.8027C15.1306 20.8027 17.1767 20.222 18.3995 18.9992C19.6224 17.7763 20.2031 15.7302 20.2031 12.3027C20.2031 11.1971 20.1434 10.2276 20.0173 9.37898C19.9564 8.96926 20.2392 8.58777 20.6489 8.52688C21.0586 8.466 21.4401 8.74878 21.501 9.15849C21.6409 10.0999 21.7031 11.1464 21.7031 12.3027C21.7031 15.8132 21.1279 18.3921 19.4602 20.0598C17.7925 21.7275 15.2136 22.3027 11.7031 22.3027C8.19309 22.3027 5.61424 21.7275 3.94644 20.0598C2.27863 18.3922 1.70312 15.8133 1.70312 12.3027C1.70312 8.79264 2.27864 6.21381 3.94642 4.54603C5.6142 2.87825 8.19303 2.30273 11.7031 2.30273C12.8382 2.30273 13.8667 2.36296 14.7938 2.49751C15.2038 2.557 15.4878 2.93753 15.4283 3.34745C15.3689 3.75737 14.9883 4.04145 14.5784 3.98196C13.7415 3.86051 12.7881 3.80273 11.7031 3.80273C8.27622 3.80273 6.23005 4.38372 5.00708 5.60669Z" fill="#6C707A"/>
</svg>
