<svg width="24" height="24" viewBox="0 0 24 24" fill="none" xmlns="http://www.w3.org/2000/svg">
<path fill-rule="evenodd" clip-rule="evenodd" d="M11.9609 13.1387C12.3752 13.1387 12.7109 13.4745 12.7109 13.8887V16.5167C12.7109 16.9309 12.3752 17.2667 11.9609 17.2667C11.5467 17.2667 11.2109 16.9309 11.2109 16.5167V13.8887C11.2109 13.4745 11.5467 13.1387 11.9609 13.1387Z" fill="#6C707A"/>
<path fill-rule="evenodd" clip-rule="evenodd" d="M2.22158 11.0475C2.45911 10.7082 2.92676 10.6256 3.2661 10.8632L3.27789 10.8714C5.56631 12.2763 8.60889 13.1416 11.96 13.1416C15.309 13.1416 18.3584 12.2775 20.6471 10.8745L20.6531 10.8702C20.9886 10.6272 21.4575 10.7022 21.7005 11.0377C21.9434 11.3732 21.8684 11.8421 21.5329 12.0851L21.5039 12.1061C21.4888 12.117 21.4733 12.1274 21.4574 12.1372C18.9047 13.7097 15.5675 14.6416 11.96 14.6416C8.35211 14.6416 5.02401 13.7095 2.47252 12.1371C2.46008 12.1294 2.44787 12.1214 2.43591 12.113L2.40591 12.092C2.06657 11.8545 1.98404 11.3868 2.22158 11.0475Z" fill="#6C707A"/>
<path fill-rule="evenodd" clip-rule="evenodd" d="M5.2638 7.50205C4.07181 8.5636 3.5 10.3336 3.5 13.3505C3.5 16.3674 4.07181 18.1373 5.2638 19.1989C6.48218 20.2839 8.53488 20.8035 11.961 20.8035C15.3877 20.8035 17.4403 20.2839 18.6586 19.1989C19.8504 18.1374 20.422 16.3674 20.422 13.3505C20.422 10.3335 19.8504 8.56355 18.6586 7.50203C17.4403 6.41701 15.3877 5.89746 11.961 5.89746C8.53488 5.89746 6.48218 6.417 5.2638 7.50205ZM4.2662 6.38187C5.92632 4.90342 8.47912 4.39746 11.961 4.39746C15.4434 4.39746 17.9962 4.90341 19.6562 6.38189C21.3426 7.88387 21.922 10.2154 21.922 13.3505C21.922 16.4855 21.3426 18.8171 19.6562 20.319C17.9962 21.7975 15.4434 22.3035 11.961 22.3035C8.47912 22.3035 5.92632 21.7975 4.2662 20.3191C2.57969 18.8171 2 16.4856 2 13.3505C2 10.2154 2.57969 7.88382 4.2662 6.38187Z" fill="#6C707A"/>
<path fill-rule="evenodd" clip-rule="evenodd" d="M7.94531 4.7392C7.94531 3.13717 9.13181 1.7002 10.7553 1.7002H13.1603C14.7838 1.7002 15.9703 3.13717 15.9703 4.7392V5.3692C15.9703 5.78341 15.6345 6.11919 15.2203 6.11919C14.8061 6.11919 14.4703 5.78341 14.4703 5.3692V4.7392C14.4703 3.81322 13.8108 3.2002 13.1603 3.2002H10.7553C10.1048 3.2002 9.44531 3.81322 9.44531 4.7392V5.3692C9.44531 5.78341 9.10953 6.11919 8.69531 6.11919C8.2811 6.11919 7.94531 5.78341 7.94531 5.3692V4.7392Z" fill="#6C707A"/>
</svg>
