<svg width="20" height="21" viewBox="0 0 20 21" fill="none" xmlns="http://www.w3.org/2000/svg">
<path fill-rule="evenodd" clip-rule="evenodd" d="M7.52934 10.229H7.55934C10.3793 10.229 12.6733 7.935 12.6733 5.114C12.6733 2.294 10.3793 0 7.55934 0C4.74034 0 2.44634 2.294 2.44634 5.111C2.44034 6.474 2.96634 7.756 3.92634 8.723C4.88534 9.688 6.16434 10.224 7.52934 10.229ZM3.94634 5.114C3.94634 3.121 5.56734 1.5 7.55934 1.5C9.55234 1.5 11.1733 3.121 11.1733 5.114C11.1733 7.107 9.55234 8.729 7.55934 8.729H7.53234C6.57034 8.725 5.66734 8.348 4.99134 7.665C4.31334 6.983 3.94234 6.078 3.94634 5.114Z" fill="#6C707A"/>
<path fill-rule="evenodd" clip-rule="evenodd" d="M0 16.8774C0 20.4064 5.492 20.4064 7.559 20.4064C9.428 20.4064 15.118 20.4064 15.118 16.8574C15.118 14.1704 11.657 11.8994 7.559 11.8994C3.461 11.8994 0 14.1784 0 16.8774ZM1.5 16.8774C1.5 15.2354 4.091 13.3994 7.559 13.3994C11.027 13.3994 13.618 15.2244 13.618 16.8574C13.618 18.5504 10.323 18.9064 7.559 18.9064C3.538 18.9064 1.5 18.2234 1.5 16.8774Z" fill="#6C707A"/>
<path d="M14.8024 9.02921C14.4704 9.02921 14.1674 8.80821 14.0774 8.47221C13.9714 8.07221 14.2084 7.66221 14.6094 7.55421C15.7164 7.25821 16.4894 6.25121 16.4894 5.10321C16.4904 3.90321 15.6394 2.85721 14.4654 2.61621C14.0594 2.53321 13.7974 2.13621 13.8814 1.73121C13.9634 1.32521 14.3594 1.05921 14.7664 1.14721C16.6354 1.53121 17.9904 3.19521 17.9904 5.10321C17.9904 6.92821 16.7584 8.53321 14.9954 9.00421C14.9314 9.02121 14.8654 9.02921 14.8024 9.02921Z" fill="#6C707A"/>
<path d="M16.9424 16.2227C17.0234 16.5677 17.3314 16.8007 17.6714 16.8007C17.7284 16.8007 17.7864 16.7947 17.8444 16.7807C19.0334 16.5007 19.8984 15.5017 19.8984 14.4047C19.8984 12.6777 17.7834 11.1047 15.4614 11.1047C15.0474 11.1047 14.7114 11.4407 14.7114 11.8547C14.7114 12.2687 15.0474 12.6047 15.4614 12.6047C17.0824 12.6047 18.3984 13.6947 18.3984 14.4047C18.3984 14.7517 18.0624 15.1887 17.5004 15.3207C17.0974 15.4147 16.8474 15.8197 16.9424 16.2227Z" fill="#6C707A"/>
</svg>
